<svg width="41" height="41" viewBox="0 0 41 41" fill="none" xmlns="http://www.w3.org/2000/svg">
<path d="M26.1993 10.2754C25.4955 10.2955 24.8025 10.4541 24.16 10.7422C23.5175 11.0303 22.9383 11.4422 22.4551 11.9543C21.9718 12.4665 21.5942 13.0688 21.3438 13.7269C21.0935 14.385 20.9753 15.086 20.996 15.7899C21.0044 16.1443 21.0483 16.497 21.1274 16.8425C19.0023 16.7349 16.9234 16.182 15.0255 15.2197C13.1277 14.2573 11.4532 12.9071 10.1105 11.2563C9.41046 12.4355 9.19154 13.839 9.49892 15.1754C9.8063 16.5118 10.6165 17.6786 11.7614 18.4335C10.9215 18.4067 10.1006 18.1768 9.36896 17.7636V17.8354C9.3691 19.0686 9.79554 20.2638 10.576 21.2186C11.3564 22.1735 12.4427 22.8292 13.6512 23.0748C13.1948 23.1986 12.7245 23.2629 12.2517 23.2661C11.9146 23.2645 11.5782 23.2324 11.2468 23.1704C11.5881 24.2312 12.2525 25.1589 13.1468 25.8238C14.0411 26.4886 15.121 26.8575 16.2352 26.8787C13.9906 28.6225 11.1518 29.417 8.32812 29.0916C11.7184 31.2648 15.8328 32.0029 19.7671 31.1438C23.7014 30.2847 27.1337 27.8987 29.3096 24.5102C30.8838 22.0593 31.7147 19.2051 31.702 16.2923C31.702 16.053 31.702 15.8258 31.702 15.5985C32.7484 14.8434 33.6517 13.9077 34.3695 12.8353C33.391 13.2627 32.3552 13.5447 31.2952 13.6726C32.4314 13.0128 33.2835 11.9562 33.6876 10.706C32.6389 11.3334 31.4897 11.7746 30.2905 12.0099C29.7912 11.4761 29.187 11.0508 28.5161 10.7606C27.8452 10.4704 27.1219 10.3215 26.3909 10.3232L26.1993 10.2754Z" fill="#0A1624"/>
</svg>
