<svg width="275" height="193" viewBox="0 0 275 193" fill="none" xmlns="http://www.w3.org/2000/svg">
<path d="M275 131.19H273.733V129.928H264.862V131.19H262.327V127.405H261.06V123.621H257.258V124.882H255.991V133.712H257.258V137.497H255.991V138.758H254.723V140.02H253.456V141.281H250.922V142.542H248.387V141.281H249.654V140.02H250.922V137.497H252.189V131.19H250.922V128.667H248.387V129.928H247.12V131.19H245.853V134.974H236.982V137.497H238.249V140.02H239.516V141.281H245.853V147.588H244.585V148.85H243.318V150.111H240.783V151.373H239.516V152.634H236.982V153.895H234.447V155.157H233.18V156.418H230.645V157.68H228.111V158.941H225.576V160.203H221.774V161.464H216.705V162.725H214.17V158.941H215.438V157.68H217.972V156.418H219.24V155.157H220.507V153.895H221.774V152.634H223.041V151.373H224.309V148.85H225.576V146.327H226.843V143.804H228.111V124.882H226.843V119.837H225.576V117.314H224.309V114.791H223.041V113.529H221.774V112.268H220.507V111.007H217.972V109.745H211.636V111.007H207.834V113.529H205.3V114.791H204.032V116.052H202.765V117.314H205.3V118.575H207.834V121.098H209.101V126.144H207.834V127.405H206.567V129.928H205.3V132.451H204.032V134.974H202.765V138.758H201.498V146.327H200.23V157.68H198.963V158.941H197.696V161.464H195.161V160.203H192.627V158.941H191.359V157.68H188.825V156.418H187.558V155.157H186.29V152.634H185.023V151.373H183.756V148.85H182.488V147.588H181.221V146.327H179.954V143.804H178.687V142.542H177.419V141.281H176.152V140.02H174.885V138.758H173.618V137.497H172.35V136.235H174.885V134.974H179.954V133.712H182.488V132.451H185.023V133.712H186.29V134.974H190.092V136.235H191.359V131.19H190.092V128.667H195.161V127.405H196.429V126.144H197.696V124.882H198.963V118.575H191.359V119.837H188.825V122.359H187.558V124.882H186.29V119.837H185.023V118.575H183.756V117.314H179.954V119.837H178.687V122.359H177.419V128.667H178.687V131.19H176.152V132.451H166.014V131.19H163.479V129.928H162.212V128.667H160.945V127.405H159.677V126.144H158.41V124.882H157.143V123.621H155.876V122.359H153.341V121.098H152.074V119.837H149.539V118.575H148.272V117.314H145.737V116.052H143.203V114.791H140.668V113.529H139.401V112.268H138.134V111.007H136.866V109.745H135.599V107.222H134.332V105.961H131.797V103.438H130.53V102.176H131.797V100.915H133.065V99.6536H134.332V98.3922H135.599V97.1307H136.866V94.6078H138.134V93.3464H154.608V94.6078H158.41V93.3464H163.479V92.085H167.281V93.3464H166.014V97.1307H167.281V99.6536H168.548V100.915H171.083V93.3464H173.618V94.6078H172.35V102.176H173.618V104.699H176.152V105.961H177.419V104.699H178.687V100.915H179.954V98.3922H178.687V97.1307H179.954V98.3922H181.221V99.6536H193.894V95.8693H192.627V94.6078H191.359V93.3464H190.092V92.085H186.29V90.8235H179.954V92.085H176.152V90.8235H178.687V89.5621H179.954V88.3007H181.221V85.7778H182.488V81.9935H178.687V83.2549H176.152V84.5163H174.885V85.7778H173.618V87.0392H172.35V90.8235H168.548V89.5621H167.281V88.3007H168.548V87.0392H171.083V85.7778H172.35V84.5163H173.618V83.2549H176.152V81.9935H177.419V80.732H178.687V79.4706H179.954V78.2091H181.221V76.9477H182.488V75.6863H183.756V73.1634H185.023V71.902H187.558V70.6405H188.825V69.3791H190.092V68.1176H192.627V66.8562H193.894V65.5948H195.161V64.3333H196.429V63.0719H197.696V61.8105H200.23V60.549H202.765V61.8105H204.032V63.0719H205.3V64.3333H209.101V60.549H207.834V58.0261H205.3V56.7647H206.567V55.5033H210.369V56.7647H216.705V55.5033H220.507V54.2418H221.774V52.9804H223.041V49.1961H219.24V47.9346H211.636V49.1961H209.101V50.4575H207.834V52.9804H205.3V50.4575H206.567V46.6732H215.438V45.4118H216.705V44.1503H217.972V41.6275H215.438V40.366H210.369V37.8431H211.636V29.0131H210.369V27.7516H207.834V30.2745H206.567V32.7974H205.3V39.1046H204.032V37.8431H201.498V36.5817H198.963V45.4118H200.23V47.9346H201.498V49.1961H202.765V50.4575H204.032V51.719H202.765V54.2418H201.498V56.7647H200.23V58.0261H198.963V59.2876H197.696V60.549H196.429V61.8105H193.894V63.0719H192.627V64.3333H190.092V65.5948H188.825V59.2876H190.092V54.2418H191.359V52.9804H193.894V51.719H195.161V50.4575H196.429V47.9346H197.696V41.6275H192.627V42.8889H191.359V44.1503H190.092V36.5817H188.825V35.3203H186.29V39.1046H185.023V41.6275H186.29V45.4118H185.023V44.1503H178.687V45.4118H177.419V47.9346H178.687V49.1961H179.954V50.4575H182.488V51.719H187.558V54.2418H185.023V52.9804H181.221V51.719H178.687V52.9804H174.885V55.5033H176.152V58.0261H178.687V59.2876H187.558V63.0719H186.29V68.1176H185.023V69.3791H183.756V70.6405H182.488V71.902H181.221V73.1634H179.954V74.4248H178.687V75.6863H177.419V76.9477H176.152V78.2091H174.885V79.4706H172.35V80.732H171.083V81.9935H169.816V83.2549H167.281V84.5163H166.014V85.7778H164.747V87.0392H163.479V88.3007H160.945V89.5621H158.41V90.8235H155.876V89.5621H140.668V88.3007H141.935V84.5163H143.203V78.2091H144.47V73.1634H143.203V66.8562H144.47V65.5948H147.005V64.3333H145.737V63.0719H143.203V61.8105H141.935V60.549H140.668V59.2876H138.134V58.0261H133.065V59.2876H129.263V60.549H127.995V61.8105H126.728V64.3333H125.461V69.3791H124.194V60.549H122.926V55.5033H121.659V51.719H120.392V49.1961H119.124V46.6732H117.857V41.6275H119.124V40.366H120.392V39.1046H121.659V37.8431H120.392V36.5817H117.857V35.3203H116.59V34.0588H112.788V32.7974H107.719V34.0588H105.184V35.3203H103.917V36.5817H102.65V39.1046H101.382V44.1503H100.115V49.1961H98.8479V55.5033H100.115V63.0719H101.382V66.8562H102.65V69.3791H103.917V71.902H105.184V73.1634H106.452V74.4248H105.184V75.6863H101.382V74.4248H98.8479V73.1634H93.7788V71.902H82.3733V73.1634H77.3041V71.902H76.0369V65.5948H74.7696V56.7647H73.5023V54.2418H72.235V52.9804H70.9677V50.4575H69.7005V47.9346H68.4332V44.1503H67.1659V40.366H65.8986V39.1046H69.7005V37.8431H73.5023V36.5817H87.4424V35.3203H88.7097V34.0588H69.7005V35.3203H64.6313V34.0588H60.8295V32.7974H57.0276V31.5359H53.2258V30.2745H51.9585V29.0131H50.6912V27.7516H49.424V26.4902H46.8894V25.2288H45.6221V23.9673H44.3548V22.7059H43.0876V21.4444H41.8203V20.183H40.553V17.6601H39.2857V15.1373H38.0184V12.6144H36.7512V10.0915H26.6129V8.83007H20.2765V7.56863H15.2074V6.30719H11.4055V5.04575H8.87097V3.78431H6.33641V2.52288H3.80184V1.26144H2.53456V0H0V13.8758H1.26728V15.1373H3.80184V16.3987H8.87097V17.6601H17.7419V18.9216H27.8802V20.183H31.682V37.8431H30.4147V40.366H31.682V41.6275H32.9493V42.8889H35.4839V44.1503H38.0184V45.4118H39.2857V46.6732H41.8203V47.9346H43.0876V49.1961H44.3548V50.4575H45.6221V51.719H46.8894V55.5033H48.1567V59.2876H46.8894V64.3333H45.6221V68.1176H44.3548V71.902H43.0876V74.4248H41.8203V75.6863H40.553V78.2091H39.2857V79.4706H38.0184V80.732H36.7512V83.2549H35.4839V84.5163H34.2166V85.7778H32.9493V88.3007H31.682V89.5621H30.4147V90.8235H29.1475V93.3464H27.8802V94.6078H26.6129V97.1307H24.0783V98.3922H22.8111V99.6536H19.0092V100.915H16.4747V102.176H15.2074V103.438H13.9401V104.699H12.6728V105.961H11.4055V108.484H10.1382V109.745H8.87097V111.007H7.60369V112.268H6.33641V113.529H8.87097V112.268H11.4055V111.007H12.6728V108.484H13.9401V107.222H15.2074V105.961H16.4747V104.699H17.7419V103.438H20.2765V102.176H22.8111V100.915H25.3456V103.438H24.0783V109.745H25.3456V111.007H26.6129V102.176H27.8802V99.6536H29.1475V97.1307H30.4147V94.6078H31.682V93.3464H32.9493V90.8235H34.2166V89.5621H35.4839V88.3007H36.7512V85.7778H38.0184V84.5163H39.2857V83.2549H40.553V80.732H41.8203V79.4706H43.0876V76.9477H44.3548V80.732H43.0876V95.8693H41.8203V102.176H40.553V107.222H39.2857V113.529H38.0184V119.837H36.7512V118.575H29.1475V119.837H26.6129V121.098H27.8802V122.359H29.1475V123.621H36.7512V124.882H35.4839V127.405H34.2166V128.667H31.682V129.928H30.4147V131.19H27.8802V133.712H26.6129V134.974H25.3456V137.497H24.0783V143.804H27.8802V142.542H31.682V141.281H32.9493V140.02H35.4839V137.497H36.7512V128.667H38.0184V126.144H39.2857V128.667H40.553V132.451H41.8203V136.235H43.0876V140.02H39.2857V141.281H38.0184V142.542H36.7512V150.111H39.2857V148.85H41.8203V147.588H43.0876V146.327H44.3548V145.065H45.6221V146.327H46.8894V148.85H48.1567V150.111H49.424V151.373H50.6912V152.634H54.4931V153.895H55.7604V152.634H57.0276V148.85H55.7604V146.327H54.4931V143.804H53.2258V142.542H51.9585V141.281H54.4931V142.542H57.0276V138.758H55.7604V137.497H54.4931V134.974H53.2258V133.712H51.9585V132.451H50.6912V131.19H49.424V129.928H41.8203V126.144H40.553V113.529H41.8203V108.484H43.0876V103.438H44.3548V104.699H45.6221V107.222H46.8894V108.484H48.1567V111.007H49.424V112.268H50.6912V114.791H51.9585V117.314H50.6912V127.405H51.9585V131.19H53.2258V132.451H57.0276V129.928H58.2949V123.621H59.5622V126.144H60.8295V128.667H62.0968V129.928H64.6313V131.19H68.4332V126.144H67.1659V124.882H65.8986V123.621H64.6313V122.359H63.3641V121.098H60.8295V119.837H65.8986V118.575H67.1659V117.314H68.4332V116.052H69.7005V112.268H62.0968V111.007H63.3641V109.745H64.6313V104.699H55.7604V105.961H53.2258V107.222H51.9585V108.484H49.424V105.961H48.1567V103.438H46.8894V100.915H45.6221V85.7778H46.8894V76.9477H48.1567V68.1176H49.424V63.0719H50.6912V50.4575H49.424V49.1961H48.1567V46.6732H46.8894V45.4118H45.6221V44.1503H44.3548V42.8889H41.8203V41.6275H40.553V40.366H39.2857V39.1046H36.7512V37.8431H35.4839V29.0131H36.7512V30.2745H38.0184V31.5359H39.2857V32.7974H40.553V34.0588H41.8203V35.3203H44.3548V36.5817H45.6221V37.8431H49.424V39.1046H54.4931V40.366H58.2949V41.6275H59.5622V42.8889H60.8295V45.4118H62.0968V50.4575H63.3641V52.9804H65.8986V54.2418H67.1659V56.7647H68.4332V60.549H69.7005V71.902H70.9677V75.6863H72.235V78.2091H73.5023V79.4706H78.5714V78.2091H97.5806V79.4706H101.382V80.732H103.917V81.9935H106.452V83.2549H108.986V84.5163H111.521V85.7778H114.055V87.0392H115.323V88.3007H116.59V92.085H115.323V103.438H114.055V107.222H112.788V109.745H111.521V113.529H110.253V116.052H108.986V121.098H112.788V122.359H116.59V123.621H117.857V121.098H119.124V108.484H120.392V105.961H122.926V104.699H126.728V108.484H127.995V109.745H130.53V112.268H131.797V113.529H133.065V114.791H134.332V116.052H136.866V117.314H138.134V118.575H139.401V119.837H141.935V121.098H145.737V122.359H148.272V123.621H150.806V124.882H152.074V126.144H153.341V127.405H154.608V128.667H155.876V131.19H157.143V133.712H158.41V136.235H157.143V141.281H155.876V143.804H154.608V146.327H153.341V147.588H152.074V150.111H150.806V151.373H149.539V152.634H147.005V153.895H136.866V155.157H134.332V156.418H133.065V160.203H139.401V158.941H143.203V157.68H145.737V156.418H147.005V162.725H150.806V161.464H152.074V153.895H150.806V152.634H152.074V151.373H153.341V150.111H154.608V148.85H155.876V156.418H154.608V162.725H153.341V166.51H152.074V165.248H140.668V166.51H139.401V167.771H138.134V169.033H139.401V170.294H143.203V171.556H149.539V170.294H150.806V171.556H149.539V174.078H143.203V175.34H140.668V176.601H139.401V179.124H140.668V180.386H143.203V181.647H141.935V184.17H140.668V193H144.47V191.739H147.005V190.477H148.272V187.954H149.539V177.863H150.806V180.386H152.074V182.908H153.341V184.17H157.143V181.647H158.41V177.863H157.143V175.34H155.876V172.817H153.341V170.294H154.608V166.51H155.876V162.725H158.41V163.987H159.677V165.248H160.945V166.51H166.014V161.464H164.747V158.941H163.479V157.68H162.212V156.418H157.143V155.157H158.41V141.281H159.677V137.497H160.945V133.712H162.212V134.974H164.747V136.235H166.014V137.497H167.281V138.758H168.548V140.02H169.816V141.281H171.083V142.542H172.35V143.804H173.618V145.065H174.885V147.588H176.152V148.85H177.419V150.111H178.687V151.373H179.954V152.634H181.221V153.895H182.488V155.157H183.756V156.418H185.023V157.68H186.29V158.941H187.558V160.203H188.825V161.464H191.359V162.725H193.894V163.987H195.161V165.248H193.894V166.51H192.627V167.771H191.359V170.294H190.092V175.34H198.963V176.601H202.765V177.863H204.032V179.124H206.567V165.248H207.834V163.987H210.369V165.248H211.636V166.51H214.17V167.771H215.438V169.033H216.705V170.294H217.972V171.556H219.24V172.817H221.774V174.078H230.645V175.34H233.18V185.431H234.447V186.693H235.714V187.954H238.249V186.693H239.516V177.863H240.783V179.124H243.318V181.647H244.585V182.908H245.853V184.17H248.387V185.431H255.991V181.647H254.723V179.124H252.189V177.863H249.654V176.601H245.853V175.34H247.12V172.817H248.387V169.033H243.318V170.294H242.051V171.556H240.783V175.34H236.982V174.078H234.447V172.817H233.18V171.556H231.912V170.294H233.18V169.033H235.714V167.771H238.249V166.51H239.516V167.771H255.991V166.51H257.258V169.033H258.525V170.294H261.06V171.556H268.664V170.294H269.931V169.033H268.664V167.771H267.396V166.51H266.129V165.248H262.327V163.987H263.594V162.725H266.129V160.203H267.396V152.634H264.862V153.895H262.327V155.157H261.06V157.68H259.793V162.725H258.525V163.987H257.258V160.203H255.991V157.68H254.723V156.418H253.456V155.157H249.654V156.418H248.387V158.941H249.654V162.725H250.922V163.987H253.456V165.248H244.585V163.987H234.447V165.248H231.912V166.51H230.645V167.771H229.378V169.033H226.843V170.294H223.041V169.033H221.774V167.771H219.24V166.51H217.972V165.248H223.041V163.987H226.843V162.725H229.378V161.464H230.645V160.203H233.18V158.941H234.447V157.68H236.982V156.418H238.249V155.157H240.783V153.895H242.051V152.634H244.585V151.373H245.853V150.111H247.12V148.85H248.387V147.588H249.654V146.327H250.922V145.065H252.189V143.804H254.723V142.542H255.991V143.804H257.258V145.065H264.862V142.542H263.594V141.281H262.327V140.02H258.525V138.758H267.396V137.497H271.198V136.235H272.465V134.974H273.733V133.712H275V131.19ZM45.6221 138.758H48.1567V140.02H45.6221V138.758ZM50.6912 141.281H49.424V140.02H50.6912V141.281ZM58.2949 114.791H57.0276V116.052H55.7604V114.791H54.4931V113.529H58.2949V114.791ZM60.8295 113.529H59.5622V112.268H60.8295V113.529ZM107.719 78.2091V76.9477H110.253V78.2091H107.719Z" fill="#FCFFFF"/>
</svg>
