<svg width="906" height="607" viewBox="0 0 906 607" fill="none" xmlns="http://www.w3.org/2000/svg">
<path d="M99.5172 178H84.2069V174.667H72.7241V171.333H68.8966V168H72.7241V164.667H76.5517V161.333H72.7241V158H65.069V154.667H57.4138V158H49.7586V151.333H45.931V144.667H42.1034V141.333V134.667H38.2759V121.333H34.4483V118V114.667V108H30.6207V101.333H26.7931V98H19.1379V101.333V108H15.3103V114.667H11.4828V118H7.65517V131.333H11.4828V134.667V141.333H7.65517V144.667V151.333V154.667H11.4828V158V161.333H15.3103V168H7.65517V171.333H0V181.333H3.82759V184.667V188V191.333H7.65517V194.667H15.3103V198H26.7931V194.667V191.333H30.6207V188H34.4483V184.667H38.2759V188H45.931V191.333H49.7586V194.667H80.3793V191.333H84.2069V194.667H99.5172V191.333H107.172V188H111V184.667V181.333H99.5172V178Z" fill="#0C2036"/>
<path d="M120.706 94.1429H128.471V90.8571H132.353V87.5714H140.118V84.2857H144V81V77.7143H132.353V74.4286V71.1429H136.235V67.8571V64.5714V61.2857V58V54.7143H140.118V51.4286V48.1429V44.8571H132.353V48.1429H124.588V51.4286H120.706V54.7143H116.824V44.8571H112.941V38.2857H109.059V35H105.176V38.2857H101.294V44.8571H97.4118V54.7143V58V61.2857V64.5714H93.5294V67.8571V71.1429V74.4286V77.7143H97.4118V81V84.2857H81.8824V87.5714H78V90.8571V94.1429H81.8824V97.4286V100.714H85.7647V104H93.5294V100.714H101.294V97.4286H120.706V94.1429Z" fill="#0C2036"/>
<path d="M202.25 126H183.5V129.5H172.25V133H164.75V136.5H153.5V140H146V143.5H138.5V147H131V154H149.75V150.5H164.75V154H168.5V161V164.5V175H172.25V178.5V196H179.75V192.5H183.5V185.5H187.25V178.5H191V175V164.5H194.75V154V150.5V140H198.5V136.5H202.25V133H206V129.5H202.25V126Z" fill="#0C2036"/>
<path d="M184.778 78.7H188.556H192.333V82H199.889V75.4H203.667V72.1H207.444V75.4H211.222H218.778H222.556H230.111V72.1H245.222V68.8H249V62.2H245.222H233.889H230.111V58.9H222.556V55.6H226.333V52.3H222.556H218.778V49H207.444V45.7H203.667V39.1H199.889V29.2H196.111V22.6H192.333V16H184.778V25.9H181V55.6H184.778V58.9H188.556V62.2H184.778V65.5H181V72.1H184.778V78.7Z" fill="#0C2036"/>
<path d="M238.143 26.5H245.571V23.1875H253H256.714V36.4375H260.429V39.75V43.0625H264.143V53H267.857V49.6875H271.571V43.0625V39.75H275.286V16.5625H271.571V9.9375H275.286V6.625H279V3.3125H275.286V0H264.143V3.3125H256.714V6.625H253V9.9375H249.286V13.25H241.857V16.5625H238.143V19.875H230.714V23.1875H227V29.8125H238.143V26.5Z" fill="#0C2036"/>
<path d="M249 390.597H252.82V383.835H264.279V373.691H260.459V370.309H268.099V360.165H264.279V363.547H256.64V350.022H260.459V346.64H264.279V343.259H256.64V336.496H260.459V329.734H268.099V322.971H271.919V316.209H279.558V312.827H283.378V302.683H294.837V295.921H298.657V299.302H310.116V295.921H313.936V289.158H317.756V275.633H321.576V272.252H329.215V268.871H321.576V255.345H333.035V241.82H336.855V238.439H344.494V235.058H348.314V238.439H355.953V235.058H352.134V228.295H355.953V221.532H367.413V208.007H371.233V204.626H378.872V201.245H386.512V204.626H390.331V201.245H397.971V194.482H413.25V197.863H424.709V194.482H436.169V197.863H443.808V194.482H439.988V191.101H436.169V187.719H439.988V180.957H451.448V174.194H455.267V167.432H470.547V164.05H474.366V170.813H482.006V167.432H485.826V164.05H501.105V167.432H508.744V170.813H512.564V167.432H516.384V164.05H520.203V160.669H527.843V153.906H539.302V147.144H546.942V143.763H554.581V140.381H569.86V137H585.14V140.381H592.779V143.763H596.599V140.381H600.419V137H604.238V140.381H619.517V153.906H623.337V150.525H627.157V153.906H630.977V157.288H634.797V167.432H638.616V160.669H650.076V157.288H653.895V160.669H657.715V164.05H669.174V160.669H672.994V157.288H676.814V160.669H692.093V170.813H707.372V177.576H711.192V184.338H703.552V187.719H715.012V191.101H718.831V187.719H722.651V191.101H734.11V187.719H745.57V191.101H749.39V194.482H753.209V197.863H760.849V194.482H768.488V197.863H772.308V201.245H779.948V214.77H791.407V228.295H783.767V231.676H787.587V235.058H795.227V245.201H799.047V248.583H802.866V245.201H806.686V241.82H814.326V245.201H818.145V248.583H825.785V262.108H837.244V275.633H829.605V279.014H833.424V282.396H837.244V295.921H825.785V292.54H818.145V289.158H810.506V292.54H814.326V302.683H806.686V306.065H814.326V312.827H829.605V319.59H837.244V322.971H829.605V326.353H833.424V329.734H829.605V333.115H837.244V336.496H841.064V333.115H848.703V336.496H860.163V350.022H867.802V353.403H871.622V360.165H875.442V363.547H867.802V366.928H863.983V370.309H875.442V383.835H863.983V397.36H883.081V400.741H890.721V414.266H898.36V417.647H902.18V424.41H906V427.791H894.541V434.554H906V448.079H894.541V444.698H886.901V458.223H875.442V461.604H879.262V464.986H883.081V478.511H875.442V475.129H871.622V471.748H867.802V475.129H856.343V478.511H863.983V481.892H867.802V485.273H871.622V488.655H875.442V492.036H871.622V502.18H883.081V515.705H875.442V522.468H883.081V532.612H879.262V535.993H867.802V532.612H860.163V529.23H856.343V525.849H852.523V522.468H848.703V519.086H837.244V522.468H825.785V519.086H818.145V515.705H810.506V519.086H806.686V515.705H783.767V519.086H776.128V522.468H768.488V519.086H764.669V508.942H760.849V515.705H753.209V522.468H760.849V525.849H757.029V529.23H760.849V535.993H753.209V532.612H749.39V535.993H745.57V532.612H741.75V529.23H734.11V525.849H730.291V522.468H722.651V519.086H718.831V522.468H715.012V525.849H703.552V522.468H695.913V519.086H688.273V522.468H676.814V519.086H672.994V522.468H661.535V525.849H657.715V529.23H653.895V525.849H650.076V515.705H642.436V492.036H638.616V488.655H642.436V485.273H646.256V481.892H650.076V478.511H642.436V475.129H630.977V471.748H600.419V478.511H596.599V522.468H600.419V532.612H604.238V542.755H608.058V546.137H611.878V549.518H615.698V552.899H619.517V556.281H627.157V559.662H634.797V563.043H650.076V566.424H680.634V569.806H715.012V576.568H672.994V573.187H657.715V576.568H669.174V579.95H676.814V583.331H650.076V579.95H634.797V576.568H627.157V579.95H623.337V576.568H611.878V573.187H604.238V569.806H596.599V566.424H592.779V569.806H588.959V573.187H581.32V576.568H585.14V579.95H608.058V583.331H627.157V586.712H630.977V593.475H623.337V590.094H604.238V586.712H585.14V590.094H577.5V583.331H558.401V586.712H554.581V590.094H546.942V593.475H527.843V600.237H520.203V603.619H466.727V607H432.349V603.619H443.808V600.237H466.727V596.856H497.285V593.475H462.907V590.094H459.087V586.712H439.988V583.331H443.808V579.95H459.087V583.331H470.547V579.95H478.186V573.187H493.465V569.806H451.448V573.187H432.349V569.806H424.709V566.424H466.727V563.043H501.105V559.662H516.384V556.281H524.023V552.899H531.663V549.518H535.483V546.137H539.302V542.755H543.122V532.612H546.942V519.086H550.762V502.18H546.942V495.417H543.122V485.273H539.302V481.892H535.483V478.511H531.663V475.129H527.843V471.748H524.023V468.367H520.203V464.986H508.744V468.367H504.924V471.748H501.105V468.367H497.285V471.748H501.105V478.511H493.465V488.655H489.645V492.036H497.285V495.417H493.465V502.18H489.645V505.561H493.465V519.086H489.645V525.849H485.826V532.612H482.006V529.23H470.547V525.849H459.087V529.23H443.808V525.849H439.988V532.612H436.169V535.993H424.709V532.612H420.89V529.23H417.07V532.612H413.25V535.993H409.43V539.374H405.61V542.755H397.971V546.137H386.512V549.518H378.872V535.993H382.692V532.612H386.512V529.23H375.052V525.849H378.872V515.705H386.512V502.18H382.692V505.561H378.872V502.18H367.413V492.036H371.233V488.655H375.052V485.273H367.413V471.748H359.773V475.129H355.953V478.511H344.494V481.892H336.855V478.511H317.756V471.748H313.936V475.129H310.116V481.892H302.477V488.655H298.657V492.036H287.198V495.417H279.558V488.655H275.738V485.273H279.558V481.892H287.198V478.511H275.738V464.986H264.279V451.46H271.919V444.698H268.099V448.079H264.279V434.554H268.099V431.173H275.738V424.41H271.919V427.791H268.099V424.41H264.279V417.647H252.82V404.122H256.64V400.741H252.82V393.978H249V390.597ZM401.791 495.417H409.43V492.036H401.791V495.417ZM844.884 373.691H841.064V377.072H844.884V380.453H848.703V377.072H844.884V373.691ZM848.703 461.604H844.884V464.986H848.703V461.604ZM336.855 289.158V285.777H333.035V289.158H336.855ZM596.599 454.842H600.419V451.46H596.599V454.842ZM531.663 363.547V366.928H535.483V370.309H546.942V366.928H558.401V370.309H562.221V343.259H554.581V353.403H546.942V360.165H543.122V363.547H531.663V360.165H527.843V363.547H531.663ZM592.779 360.165V356.784H588.959V363.547H592.779V360.165ZM596.599 353.403V360.165H600.419V353.403H596.599ZM669.174 387.216V380.453H657.715V383.835H653.895V387.216H657.715V390.597H676.814V387.216H669.174ZM661.535 397.36V400.741H669.174V397.36H661.535ZM524.023 390.597V387.216H527.843V383.835H535.483V380.453H527.843V377.072H520.203V380.453H516.384V383.835H520.203V390.597H524.023ZM711.192 329.734H707.372V333.115H711.192V329.734ZM715.012 471.748V468.367H703.552V471.748H715.012ZM680.634 451.46H676.814V454.842H680.634V451.46ZM325.395 289.158H329.215V285.777H325.395V289.158ZM657.715 475.129H661.535V478.511H669.174V475.129H676.814V468.367H661.535V471.748H657.715V475.129ZM630.977 461.604H653.895V458.223H665.355V448.079H661.535V444.698H657.715V448.079H642.436V451.46H638.616V454.842H634.797V458.223H630.977V454.842H627.157V458.223H623.337V461.604H630.977ZM558.401 478.511V448.079H554.581V451.46H543.122V454.842H539.302V461.604H543.122V464.986H546.942V471.748H550.762V475.129H554.581V481.892H558.401V478.511ZM562.221 566.424H558.401V569.806H562.221V566.424ZM478.186 583.331V586.712H470.547V590.094H485.826V586.712H497.285V590.094H501.105V586.712H508.744V583.331H512.564V579.95H508.744V583.331H478.186ZM535.483 579.95V583.331H539.302V579.95H546.942V576.568H550.762V573.187H554.581V569.806H550.762V573.187H539.302V576.568H535.483V579.95ZM520.203 573.187V569.806H524.023V566.424H520.203V569.806H508.744V573.187H520.203ZM531.663 563.043H527.843V566.424H535.483V563.043H531.663Z" fill="#0C2036"/>
</svg>
