<svg width="46" height="46" viewBox="0 0 46 46" fill="none" xmlns="http://www.w3.org/2000/svg">
<path d="M23 46C10.32 46 0 35.68 0 23C0 10.32 10.32 0 23 0C35.68 0 46 10.32 46 23C46 35.68 35.68 46 23 46ZM23 1C10.87 1 1 10.87 1 23C1 35.13 10.87 45 23 45C35.13 45 45 35.13 45 23C45 10.87 35.13 1 23 1Z" fill="#FCFFFF"/>
<path d="M25.2299 20.5703C25.5099 20.2503 25.7399 19.9303 26.0299 19.6603C26.9199 18.8203 27.9699 18.4003 29.1999 18.4103C29.8799 18.4103 30.5399 18.4603 31.1899 18.6503C32.6799 19.0803 33.5399 20.1103 33.9599 21.5603C34.2699 22.6503 34.3299 23.7703 34.3299 24.8903C34.3299 27.2603 34.3299 29.6303 34.3299 32.0003C34.3299 32.2203 34.2699 32.2803 34.0499 32.2803C32.8299 32.2703 31.6099 32.2703 30.3899 32.2803C30.1699 32.2803 30.1299 32.2203 30.1299 32.0103C30.1299 29.7603 30.1299 27.5003 30.1299 25.2403C30.1299 24.6803 30.0899 24.1103 29.9299 23.5603C29.6399 22.5503 28.9099 22.0303 27.8499 22.0903C26.3999 22.1703 25.6499 22.8803 25.4699 24.3503C25.4299 24.7003 25.3999 25.0503 25.4099 25.4103C25.4099 27.6003 25.4099 29.8003 25.4099 31.9903C25.4099 32.2103 25.3599 32.2703 25.1299 32.2703C23.8999 32.2603 22.6699 32.2603 21.4399 32.2703C21.2399 32.2703 21.1899 32.2203 21.1899 32.0203C21.1899 27.6803 21.1899 23.3403 21.1899 18.9903C21.1899 18.7703 21.2599 18.7303 21.4599 18.7303C22.6299 18.7303 23.7999 18.7403 24.9599 18.7303C25.1799 18.7303 25.2299 18.8003 25.2299 19.0003C25.2199 19.5203 25.2299 20.0403 25.2299 20.5603V20.5703Z" fill="#FCFFFF"/>
<path d="M18.5398 25.5302C18.5398 27.6802 18.5398 29.8302 18.5398 31.9702C18.5398 32.2102 18.4798 32.2802 18.2298 32.2802C17.0098 32.2702 15.7898 32.2702 14.5698 32.2802C14.3698 32.2802 14.3198 32.2302 14.3198 32.0302C14.3198 27.6802 14.3198 23.3302 14.3198 18.9802C14.3198 18.8002 14.3598 18.7402 14.5498 18.7402C15.7898 18.7402 17.0298 18.7502 18.2598 18.7402C18.4998 18.7402 18.5298 18.8302 18.5298 19.0302C18.5298 21.2002 18.5298 23.3602 18.5298 25.5302H18.5398Z" fill="#FCFFFF"/>
<path d="M18.88 14.43C18.88 15.78 17.79 16.88 16.44 16.88C15.09 16.88 14.01 15.78 14 14.45C14 13.11 15.1 12 16.44 12C17.78 12 18.87 13.1 18.87 14.42L18.88 14.43Z" fill="#FCFFFF"/>
</svg>
