<svg width="86" height="50" viewBox="0 0 86 50" fill="none" xmlns="http://www.w3.org/2000/svg">
<path d="M69.0171 18.3647H72.7036L71.9767 21.0163H68.2901L69.0171 18.3647Z" fill="#0C2036"/>
<path d="M65.6419 31.6225L68.1602 21.4583H71.8208L69.3025 31.6225H65.6419Z" fill="#0C2036"/>
<path fill-rule="evenodd" clip-rule="evenodd" d="M48.5851 21.3804H59.0217L58.3467 24.0059H51.7525L51.389 25.3057H57.7237L57.1785 27.4373H50.8438L50.5063 28.737H57.1265L56.4515 31.3625H46.0149L48.5851 21.3804ZM34.0985 27.8532H38.0187C38.0187 27.8792 37.9668 29.3089 40.0957 29.3089C41.5235 29.3089 41.7572 28.867 41.7832 28.659C41.861 28.2951 41.6014 28.1131 41.0562 27.9572C39.3428 27.5412 37.0062 26.7874 36.4091 26.4235C36.0716 26.2155 35.786 25.9295 35.6043 25.5656C35.4226 25.2277 35.3187 24.8117 35.3447 24.4218C35.3447 22.8881 37.162 20.9904 41.0303 21.0164C42.3543 20.9904 43.6784 21.2244 44.8986 21.7443C45.4438 21.9783 45.8851 22.3682 46.1707 22.8881C46.4563 23.382 46.5861 23.9799 46.5601 24.5518H42.7438C42.7438 24.5518 42.7437 23.434 41.1341 23.356C40.3033 23.33 39.4206 23.46 39.4466 24.0839C39.4466 24.6298 39.9918 24.7598 41.2899 25.0457C41.6014 25.1237 43.6784 25.5396 44.3274 25.7736C45.5217 26.2155 46.0928 26.8394 45.937 28.1651C45.4697 31.1286 41.6793 31.6225 39.7582 31.6225C37.3437 31.6225 34.7995 31.1806 34.2543 28.763C34.1764 28.4771 34.1504 28.1651 34.0985 27.8532ZM29.4514 28.1651L29.1398 24.3698L26.6735 28.1651H29.4514ZM32.0995 21.3804L33.8389 31.3885H29.6331L29.5292 30.1928H25.4792L24.7004 31.3625H20.2609L27.5821 21.3544L32.0995 21.3804ZM21.3513 28.3211C21.1177 28.815 20.8061 29.2569 20.4426 29.6729C19.534 30.6347 17.9763 31.6225 15.2763 31.6225C12.0051 31.6225 10.733 30.4527 10.0839 29.3089C9.66854 28.5551 9.48681 27.6972 9.59065 26.8654C9.72046 25.4876 11.0445 21.0684 16.834 21.0684C20.0792 21.0684 21.3773 22.1342 21.8446 23.33C22.1042 24.1359 22.1821 25.0197 22.0782 25.8516H18.2619C18.3917 25.1237 18.158 23.8759 16.8599 23.8759C16.133 23.9019 15.432 24.1359 14.8609 24.6038C14.2897 25.0457 13.8743 25.6696 13.6666 26.3715C13.2513 27.9312 14.108 28.867 15.484 28.919C15.9253 28.919 16.3667 28.815 16.7561 28.6071C17.1455 28.3991 17.483 28.0871 17.7167 27.7232H21.585C21.559 27.8272 21.4032 28.1911 21.3253 28.3471" fill="#0C2036"/>
<path d="M65.7974 28.2431L66.6282 24.8637H66.109L66.9398 21.4844H63.3051L60.7868 31.6225H64.4474L65.3042 28.1911L65.7974 28.2431Z" fill="#0C2036"/>
<path d="M72.1842 24.8117H71.665L70.8342 28.1911H71.3794L70.5227 31.6225H74.1573L76.7015 21.4583H73.0409L72.1842 24.8117Z" fill="#0C2036"/>
</svg>
