<svg width="87" height="50" viewBox="0 0 87 50" fill="none" xmlns="http://www.w3.org/2000/svg">
<path d="M7.72852 21.9401V28.3349C7.72852 30.7525 9.2518 32.1822 11.9307 32.1822H25.0887C27.8464 32.1822 29.6061 30.8564 29.6061 28.4389V23.5518H18.6542V26.6972H25.7979V27.841C25.7979 28.6728 25.2989 28.9068 24.6685 28.9068H12.6661C11.7731 28.9068 11.5105 28.4649 11.5105 27.815V22.33C11.4842 22.226 11.5105 22.096 11.5367 21.9921C11.563 21.8881 11.6155 21.7841 11.6943 21.6801C11.7731 21.6021 11.8519 21.5241 11.9569 21.4462C12.062 21.3942 12.1671 21.3422 12.2721 21.3422C12.3246 21.3422 12.4034 21.3422 12.456 21.3422H29.6061V18.0408H11.9044C9.17301 18.0668 7.72852 19.6265 7.72852 21.9401Z" fill="#0C2036"/>
<path d="M79.1653 32.1822V28.9068H62.2253C61.3323 28.9068 61.0697 28.4649 61.0697 27.815V22.33C61.0434 22.226 61.0697 22.096 61.0959 21.992C61.1222 21.8881 61.1747 21.7841 61.2272 21.6801C61.306 21.6021 61.3848 21.5241 61.4636 21.4462C61.5687 21.3942 61.6737 21.3422 61.7788 21.3422C61.8313 21.3422 61.9101 21.3422 61.9626 21.3422H79.139V18.0408H61.4111C58.6797 18.0408 57.2352 19.6005 57.2352 21.9401V28.3349C57.2352 30.7525 58.7585 32.1822 61.4374 32.1822H79.1653Z" fill="#0C2036"/>
<path d="M49.2244 18.0408L43.5515 28.023H43.3414L37.6685 18.0408H31.838V32.1822H35.6462V21.8101H35.8563L41.7131 32.1822H45.2061L51.0629 21.8101H51.273V32.1822H55.0812V18.0408H49.2244Z" fill="#0C2036"/>
</svg>
