<svg width="668" height="485" viewBox="0 0 668 485" fill="none" xmlns="http://www.w3.org/2000/svg">
<path d="M81.5669 145.893H69.0181V143.161H59.6065V140.429H56.4694V137.697H59.6065V134.965H62.7437V132.233H59.6065V129.501H53.3322V126.769H47.0578V129.501H40.7834V124.037H37.6462V118.573H34.5091V115.84V110.376H31.3719V99.448H28.2347V96.7159V93.9838V88.5196H25.0975V83.0554H21.9603V80.3234H15.6859V83.0554V88.5196H12.5487V93.9838H9.41156V96.7159H6.27437V107.644H9.41156V110.376V115.84H6.27437V118.573V124.037V126.769H9.41156V129.501V132.233H12.5487V137.697H6.27437V140.429H0V148.625H3.13719V151.358V154.09V156.822H6.27437V159.554H12.5487V162.286H21.9603V159.554V156.822H25.0975V154.09H28.2347V151.358H31.3719V154.09H37.6462V156.822H40.7834V159.554H65.8809V156.822H69.0181V159.554H81.5669V156.822H87.8412V154.09H90.9784V151.358V148.625H81.5669V145.893Z" fill="#3B465E"/>
<path d="M98.9364 77.162H105.301V74.4689H108.483V71.7759H114.847V69.0828H118.029V66.3898V63.6967H108.483V61.0037V58.3106H111.665V55.6176V52.9245V50.2314V47.5384V44.8453H114.847V42.1523V39.4592V36.7662H108.483V39.4592H102.118V42.1523H98.9364V44.8453H95.7543V36.7662H92.5723V31.3801H89.3902V28.687H86.2081V31.3801H83.026V36.7662H79.844V44.8453V47.5384V50.2314V52.9245H76.6619V55.6176V58.3106V61.0037V63.6967H79.844V66.3898V69.0828H67.1157V71.7759H63.9336V74.4689V77.162H67.1157V79.8551V82.5481H70.2977V85.2412H76.6619V82.5481H83.026V79.8551H98.9364V77.162Z" fill="#3B465E"/>
<path d="M165.767 103.273H150.399V106.141H141.179V109.01H135.031V111.879H125.811V114.747H119.664V117.616H113.516V120.485H107.369V126.222H122.737V123.353H135.031V126.222H138.105V131.96V134.828V143.434H141.179V146.303V160.646H147.326V157.778H150.399V152.04H153.473V146.303H156.547V143.434V134.828H159.62V126.222V123.353V114.747H162.694V111.879H165.767V109.01H168.841V106.141H165.767V103.273Z" fill="#3B465E"/>
<path d="M151.448 64.5046H154.544H157.641V67.2094H163.833V61.7998H166.93V59.0951H170.026V61.7998H173.122H179.315H182.412H188.604V59.0951H200.99V56.3903H204.086V50.9808H200.99H191.701H188.604V48.276H182.412V45.5712H185.508V42.8665H182.412H179.315V40.1617H170.026V37.4569H166.93V32.0474H163.833V23.9331H160.737V18.5236H157.641V13.1141H151.448V21.2284H148.352V45.5712H151.448V48.276H154.544V50.9808H151.448V53.6855H148.352V59.0951H151.448V64.5046Z" fill="#3B465E"/>
<path d="M195.188 21.7201H201.276V19.0051H207.365H210.409V29.8651H213.454V32.5801V35.2951H216.498V43.4401H219.542V40.7251H222.587V35.2951V32.5801H225.631V13.575H222.587V8.14503H225.631V5.43002H228.675V2.71501H225.631V0H216.498V2.71501H210.409V5.43002H207.365V8.14503H204.321V10.86H198.232V13.575H195.188V16.2901H189.099V19.0051H186.055V24.4351H195.188V21.7201Z" fill="#3B465E"/>
<path fill-rule="evenodd" clip-rule="evenodd" d="M129.506 330.95H132.637V325.408H142.029V317.093H138.898V314.322H145.16V306.008H142.029V308.779H135.767V297.694H138.898V294.922H142.029V292.151H135.767V286.608H138.898V281.065H145.16V275.523H148.291V269.98H154.552V267.208H157.683V258.894H167.075V253.351H170.206V256.123H179.598V253.351H182.729V247.809H185.86V236.723H188.991V233.952H195.252V231.18H188.991V220.095H198.383V209.009H201.514V206.238H207.775V203.466H210.906V206.238H217.168V203.466H214.037V197.923H217.168V192.381H226.56V181.295H229.691V178.524H235.952V175.752H242.214V178.524H245.345V175.752H251.606V170.21H264.129V172.981H273.522V170.21H282.914V172.981H289.176V170.21H286.045V167.438H282.914V164.667H286.045V159.124H295.437V153.581H298.568V148.038H311.091V145.267H314.222V150.81H320.483V148.038H323.614V145.267H336.137V148.038H342.399V150.81H345.53V148.038H348.66V145.267H351.791V142.496H358.053V136.953H367.445V131.41H373.707V128.639H379.968V125.867H392.491V123.096H405.014V125.867H411.276V128.639H414.407V125.867H417.537V123.096H420.668V125.867H433.191V136.953H436.322V134.181H439.453V136.953H442.584V139.724H445.714V148.038H448.845V142.496H458.238V139.724H461.368V142.496H464.499V145.267H473.891V142.496H477.022V139.724H480.153V142.496H492.676V150.81H505.199V156.353H508.33V161.895H502.068V164.667H511.461V167.438H514.592V164.667H517.722V167.438H527.115V164.667H536.507V167.438H539.638V170.21H542.769V172.981H549.03V170.21H555.292V172.981H558.422V175.752H564.684V186.838H574.076V197.923H567.815V200.695H570.946V203.466H577.207V211.78H580.338V214.552H583.469V211.78H586.599V209.009H592.861V211.78H595.992V214.552H602.253V225.637H611.646V236.723H605.384V239.494H608.515V242.266H611.646V253.351H602.253V250.58H595.992V247.809H589.73V250.58H592.861V258.894H586.599V261.666H592.861V267.208H605.384V272.751H611.646V275.523H605.384V278.294H608.515V281.065H605.384V283.837H611.646V286.608H614.776V283.837H621.038V286.608H630.43V297.694H636.692V300.465H639.823V306.008H642.953V308.779H636.692V311.551H633.561V314.322H642.953V325.408H633.561V336.493H649.215V339.265H655.477V350.35H661.738V353.122H664.869V358.664H668V361.436H658.607V366.979H668V378.064H658.607V375.293H652.346V386.378H642.953V389.15H646.084V391.921H649.215V403.007H642.953V400.235H639.823V397.464H636.692V400.235H627.3V403.007H633.561V405.778H636.692V408.55H639.823V411.321H642.953V414.092H639.823V422.406H649.215V433.492H642.953V439.035H649.215V447.349H646.084V450.12H636.692V447.349H630.43V444.578H627.3V441.806H624.169V439.035H621.038V436.263H611.646V439.035H602.253V436.263H595.992V433.492H589.73V436.263H586.599V433.492H567.815V436.263H561.553V439.035H555.292V436.263H552.161V427.949H549.03V433.492H542.769V439.035H549.03V441.806H545.899V444.578H549.03V450.12H542.769V447.349H539.638V450.12H536.507V447.349H533.376V444.578H527.115V441.806H523.984V439.035H517.722V436.263H514.592V439.035H511.461V441.806H502.068V439.035H495.807V436.263H489.545V439.035H480.153V436.263H477.022V439.035H467.63V441.806H464.499V444.578H461.368V441.806H458.238V433.492H451.976V414.092H448.845V411.321H451.976V408.55H455.107V405.778H458.238V403.007H451.976V400.235H442.584V397.464H417.537V403.007H414.407V439.035H417.537V447.349H420.668V455.663H423.799V458.435H426.93V461.206H430.061V463.977H433.191V466.749H439.453V469.52H445.714V472.292H458.238V475.063H462V467H472V472H476V469H480V465H482V469H485V476H486V466H489V455H491V461H492V466H494V473H496V466H499V463H500V458H504V466H506V477.834H511.461V481H517V485H373.707V483.377H376.837V480.606H379.968V477.834H376.837V480.606H367.445V483.377H364.314V485H276V480H279.783V477.834H273.522V475.063H287V465H289V457H293V462H294V465H297V472H299V465H301V460H302V454H304V465H307V475H307.96V472.292H308V468H311V464H313V468H317V471H321V466H331V472.292H336.137V469.52H348.66V466.749H354.922V463.977H361.183V461.206H364.314V458.435H367.445V455.663H370.576V447.349H373.707V436.263H376.837V422.406H373.707V416.864H370.576V408.55H367.445V405.778H364.314V403.007H361.183V400.235H358.053V397.464H354.922V394.693H351.791V391.921H342.399V394.693H339.268V397.464H336.137V394.693H333.006V397.464H336.137V403.007H329.876V411.321H326.745V414.092H333.006V416.864H329.876V422.406H326.745V425.178H329.876V436.263H326.745V441.806H323.614V447.349H320.483V444.578H311.091V441.806H301.699V444.578H289.176V441.806H286.045V447.349H282.914V450.12H273.522V447.349H270.391V444.578H267.26V447.349H264.129V450.12H260.999V452.892H257.868V455.663H251.606V458.435H242.214V461.206H235.952V450.12H239.083V447.349H242.214V444.578H232.822V441.806H235.952V433.492H242.214V422.406H239.083V425.178H235.952V422.406H226.56V414.092H229.691V411.321H232.822V408.55H226.56V397.464H220.298V400.235H217.168V403.007H207.775V405.778H201.514V403.007H185.86V397.464H182.729V400.235H179.598V405.778H173.337V411.321H170.206V414.092H160.814V416.864H154.552V411.321H151.421V408.55H154.552V405.778H160.814V403.007H151.421V391.921H142.029V380.836H148.291V375.293H145.16V378.064H142.029V366.979H145.16V364.207H151.421V358.664H148.291V361.436H145.16V358.664H142.029V353.122H132.637V342.036H135.767V339.265H132.637V333.722H129.506V330.95ZM425 482H417V481H409V477.834H411.276V475.063H414.407V477.834H420.668V480.606H425V482ZM383.099 475.063H384V477.834H383.099V475.063ZM254.737 416.864H260.999V414.092H254.737V416.864ZM617.907 317.093H614.776V319.865H617.907V322.636H621.038V319.865H617.907V317.093ZM621.038 389.15H617.907V391.921H621.038V389.15ZM201.514 247.809V245.037H198.383V247.809H201.514ZM414.407 383.607H417.537V380.836H414.407V383.607ZM361.183 308.779V311.551H364.314V314.322H373.707V311.551H383.099V314.322H386.23V292.151H379.968V300.465H373.707V306.008H370.576V308.779H361.183ZM361.183 308.779V306.008H358.053V308.779H361.183ZM411.276 306.008V303.237H408.145V308.779H411.276V306.008ZM414.407 300.465V306.008H417.537V300.465H414.407ZM473.891 328.179V322.636H464.499V325.408H461.368V328.179H464.499V330.95H480.153V328.179H473.891ZM467.63 336.493V339.265H473.891V336.493H467.63ZM354.922 330.95V328.179H358.053V325.408H364.314V322.636H358.053V319.865H351.791V322.636H348.66V325.408H351.791V330.95H354.922ZM508.33 281.065H505.199V283.837H508.33V281.065ZM511.461 397.464V394.693H502.068V397.464H511.461ZM483.284 380.836H480.153V383.607H483.284V380.836ZM192.121 247.809H195.252V245.037H192.121V247.809ZM464.499 400.235H467.63V403.007H473.891V400.235H480.153V394.693H467.63V397.464H464.499V400.235ZM461.368 389.15V386.378H470.761V378.064H467.63V375.293H464.499V378.064H451.976V380.836H448.845V383.607H445.714V386.378H442.584V383.607H439.453V386.378H436.322V389.15H442.584H461.368ZM383.099 403.007V378.064H379.968V380.836H370.576V383.607H367.445V389.15H370.576V391.921H373.707V397.464H376.837V400.235H379.968V405.778H383.099V403.007ZM351.791 480.606V477.834H354.922V475.063H351.791V477.834H342.399V480.606H351.791ZM361.183 472.292H358.053V475.063H364.314V472.292H361.183Z" fill="#3B465E"/>
</svg>
