<svg width="32" height="32" viewBox="0 0 32 32" fill="none" xmlns="http://www.w3.org/2000/svg">
<circle cx="16" cy="16" r="16" fill="#FFFCF3"/>
<path fill-rule="evenodd" clip-rule="evenodd" d="M16.253 8C11.7001 8 8 11.7001 8 16.253C8 20.8058 11.7001 24.5059 16.253 24.5059C20.8058 24.5059 24.5059 20.8058 24.5059 16.253C24.5059 11.7001 20.799 8 16.253 8ZM21.7068 11.8032C22.6903 12.9999 23.2817 14.5336 23.3024 16.1911C23.0685 16.1498 20.744 15.6684 18.3987 15.9641C18.3437 15.8472 18.3024 15.7234 18.2474 15.5996C18.103 15.2626 17.9448 14.9119 17.7798 14.5817C20.3794 13.5226 21.5555 12.0027 21.7068 11.8101V11.8032ZM16.253 9.21731C18.0411 9.21731 19.6779 9.8913 20.9228 10.9917C20.799 11.1705 19.733 12.5941 17.2227 13.5364C16.0673 11.4181 14.7881 9.6781 14.5886 9.40988C15.1182 9.28609 15.6684 9.22419 16.2461 9.22419L16.253 9.21731ZM13.2544 9.87755C13.4401 10.1251 14.6987 11.872 15.8678 13.949C12.5735 14.8224 9.66435 14.8087 9.34798 14.8087C9.8019 12.6217 11.2806 10.806 13.2475 9.87755H13.2544ZM9.19668 16.2598V16.0466C9.49929 16.0535 12.9174 16.1017 16.4387 15.0425C16.645 15.4345 16.8307 15.8403 17.0095 16.2392C16.9201 16.2667 16.8238 16.2942 16.7344 16.3217C13.1031 17.4909 11.1636 20.6958 11.0055 20.9709C9.88443 19.7261 9.19668 18.0686 9.19668 16.2667V16.2598ZM16.253 23.3024C14.623 23.3024 13.1168 22.7453 11.927 21.8168C12.0508 21.5555 13.4882 18.7976 17.4565 17.4153C17.4772 17.4084 17.484 17.4084 17.4978 17.3946C18.4881 19.9599 18.8939 22.1194 19.004 22.7384C18.1511 23.1029 17.2227 23.3024 16.2461 23.3024H16.253ZM20.18 22.0919C20.1112 21.6655 19.733 19.6023 18.8114 17.0714C21.0191 16.7206 22.9585 17.2983 23.1992 17.374C22.8966 19.3341 21.7687 21.0259 20.18 22.0919Z" fill="#3B465E"/>
</svg>
