<svg width="32" height="32" viewBox="0 0 32 32" fill="none" xmlns="http://www.w3.org/2000/svg">
<circle cx="16" cy="16" r="16" fill="#FFFCF3"/>
<path d="M15.799 9.403C17.8829 9.403 18.1236 9.40988 18.9489 9.45115C19.7055 9.48553 20.1181 9.60933 20.3932 9.71937C20.7577 9.86379 21.0191 10.0289 21.2873 10.304C21.5624 10.5791 21.7274 10.8335 21.8719 11.198C21.975 11.4731 22.1057 11.8858 22.1401 12.6423C22.1745 13.4607 22.1882 13.7083 22.1882 15.7922C22.1882 17.876 22.1813 18.1168 22.1401 18.9421C22.1057 19.6986 21.975 20.1112 21.8719 20.3863C21.7274 20.7508 21.5624 21.0122 21.2873 21.2804C21.0122 21.5555 20.7577 21.7206 20.3932 21.865C20.1181 21.9681 19.7055 22.0988 18.9489 22.1332C18.1305 22.1676 17.8829 22.1813 15.799 22.1813C13.7152 22.1813 13.4745 22.1745 12.6492 22.1332C11.8926 22.0988 11.48 21.975 11.2049 21.865C10.8404 21.7206 10.5791 21.5555 10.3108 21.2804C10.0357 21.0053 9.87067 20.7508 9.72624 20.3863C9.62308 20.1112 9.49241 19.6986 9.45802 18.9421C9.42363 18.1236 9.40988 17.876 9.40988 15.7922C9.40988 13.7083 9.41676 13.4676 9.45802 12.6423C9.49241 11.8858 9.62308 11.4731 9.72624 11.198C9.87067 10.8335 10.0357 10.5722 10.3108 10.304C10.5859 10.0289 10.8404 9.86379 11.2049 9.71937C11.48 9.61621 11.8926 9.48553 12.6492 9.45115C13.4676 9.41676 13.7152 9.403 15.799 9.403ZM15.799 8C13.6808 8 13.4194 8.00688 12.5873 8.04814C11.7551 8.08941 11.1911 8.22008 10.696 8.41265C10.187 8.6121 9.74688 8.88032 9.3136 9.3136C8.88032 9.74688 8.6121 10.1802 8.41265 10.696C8.22008 11.1911 8.08941 11.7551 8.04815 12.5873C8.00688 13.4194 8 13.6808 8 15.7991C8 17.9173 8.00688 18.1787 8.04815 19.0108C8.08941 19.843 8.22008 20.407 8.41265 20.9021C8.6121 21.4111 8.88032 21.8512 9.3136 22.2845C9.74688 22.7178 10.1802 22.986 10.696 23.1855C11.1911 23.378 11.7551 23.5087 12.5873 23.55C13.4194 23.5912 13.6877 23.5981 15.799 23.5981C17.9104 23.5981 18.1787 23.5912 19.0108 23.55C19.843 23.5087 20.407 23.378 20.9021 23.1855C21.4111 22.986 21.8512 22.7178 22.2845 22.2845C22.7178 21.8512 22.986 21.4179 23.1855 20.9021C23.378 20.407 23.5087 19.843 23.55 19.0108C23.5912 18.1787 23.5981 17.9173 23.5981 15.7991C23.5981 13.6808 23.5912 13.4194 23.55 12.5873C23.5087 11.7551 23.378 11.1911 23.1855 10.696C22.986 10.187 22.7178 9.74688 22.2845 9.3136C21.8512 8.88032 21.4179 8.6121 20.9021 8.41265C20.407 8.22008 19.843 8.08941 19.0108 8.04814C18.1787 8.00688 17.9104 8 15.799 8Z" fill="#3B465E"/>
<path d="M15.7918 11.7893C13.5841 11.7893 11.7891 13.5843 11.7891 15.792C11.7891 17.9997 13.5772 19.7947 15.7918 19.7947C18.0063 19.7947 19.7944 17.9997 19.7944 15.792C19.7944 13.5843 18.0063 11.7893 15.7918 11.7893ZM15.7918 18.3917C14.3544 18.3917 13.1921 17.2294 13.1921 15.792C13.1921 14.3546 14.3544 13.1923 15.7918 13.1923C17.2291 13.1923 18.3914 14.3546 18.3914 15.792C18.3914 17.2294 17.2291 18.3917 15.7918 18.3917Z" fill="#3B465E"/>
<path d="M19.9588 12.5667C20.4746 12.5667 20.8941 12.1472 20.8941 11.6314C20.8941 11.1156 20.4746 10.696 19.9588 10.696C19.443 10.696 19.0234 11.1156 19.0234 11.6314C19.0234 12.1472 19.443 12.5667 19.9588 12.5667Z" fill="#3B465E"/>
</svg>
