<svg width="32" height="32" viewBox="0 0 32 32" fill="none" xmlns="http://www.w3.org/2000/svg">
<circle cx="16" cy="16" r="16" fill="#FFFCF3"/>
<path d="M17.7238 13.8943C17.9164 13.6743 18.0746 13.4542 18.274 13.2685C18.8861 12.6908 19.6082 12.4019 20.4542 12.4088C20.9218 12.4088 21.3757 12.4432 21.8228 12.5739C22.8475 12.8696 23.439 13.578 23.7278 14.5752C23.941 15.3249 23.9823 16.0951 23.9823 16.8654C23.9823 18.4954 23.9823 20.1253 23.9823 21.7553C23.9823 21.9066 23.941 21.9479 23.7897 21.9479C22.9507 21.941 22.1116 21.941 21.2726 21.9479C21.1213 21.9479 21.0938 21.9066 21.0938 21.7622C21.0938 20.2147 21.0938 18.6604 21.0938 17.1061C21.0938 16.721 21.0663 16.329 20.9562 15.9507C20.7568 15.2561 20.2547 14.8985 19.5257 14.9397C18.5285 14.9947 18.0127 15.483 17.8889 16.494C17.8614 16.7347 17.8407 16.9755 17.8476 17.223C17.8476 18.7292 17.8476 20.2422 17.8476 21.7484C17.8476 21.8997 17.8132 21.941 17.655 21.941C16.8091 21.9341 15.9632 21.9341 15.1172 21.941C14.9797 21.941 14.9453 21.9066 14.9453 21.769C14.9453 18.7842 14.9453 15.7994 14.9453 12.8077C14.9453 12.6564 14.9935 12.6289 15.131 12.6289C15.9357 12.6289 16.7403 12.6358 17.5381 12.6289C17.6894 12.6289 17.7238 12.677 17.7238 12.8146C17.7169 13.1722 17.7238 13.5298 17.7238 13.8875V13.8943Z" fill="#3B465E"/>
<path d="M13.123 17.3054C13.123 18.7841 13.123 20.2627 13.123 21.7345C13.123 21.8996 13.0817 21.9477 12.9098 21.9477C12.0707 21.9408 11.2317 21.9408 10.3926 21.9477C10.2551 21.9477 10.2207 21.9133 10.2207 21.7758C10.2207 18.7841 10.2207 15.7924 10.2207 12.8007C10.2207 12.6769 10.2482 12.6356 10.3789 12.6356C11.2317 12.6356 12.0845 12.6425 12.9304 12.6356C13.0955 12.6356 13.1161 12.6975 13.1161 12.8351C13.1161 14.3275 13.1161 15.813 13.1161 17.3054H13.123Z" fill="#3B465E"/>
<path d="M13.3562 9.67123C13.3562 10.5997 12.6066 11.3562 11.6781 11.3562C10.7496 11.3562 10.0069 10.5997 10 9.68498C10 8.7634 10.7565 8 11.6781 8C12.5997 8 13.3493 8.75652 13.3493 9.66435L13.3562 9.67123Z" fill="#3B465E"/>
</svg>
