<svg width="87" height="50" viewBox="0 0 87 50" fill="none" xmlns="http://www.w3.org/2000/svg">
<g opacity="0.5">
<path d="M50.3603 20.5629L50.3865 19.809L48.1541 21.7067L48.1279 22.4086L46.4207 23.8643L45.8429 26.1779L48.0228 24.2802L47.9966 25.0341L50.229 23.1364L50.2815 22.3826L51.9886 20.9528L52.5664 18.6392L50.3603 20.5629ZM51.3583 21.1608L49.9401 22.3306L49.9138 23.0324L48.3905 24.3322L48.4168 23.6303L46.7622 25.0601L47.0511 23.7863L48.4693 22.5905L48.4956 21.9146L50.0189 20.6149L49.9926 21.3168L51.6472 19.887L51.3583 21.1608Z" fill="#3B465E"/>
<path d="M55.2715 14.74V14.87C55.3502 14.688 55.6391 14.0641 55.7967 14.1421C55.7967 14.1421 56.0068 14.2461 55.9543 15.0259L55.7705 15.1819C55.7442 15.2079 55.7442 15.2339 55.7179 15.2599V15.4159C55.7179 15.4159 55.7179 15.4159 55.7442 15.4159L55.928 15.2599C55.9018 15.4159 55.8493 15.5718 55.7442 15.7018C55.7442 15.7278 55.7442 15.7798 55.7442 15.8058C55.7705 15.7798 55.7967 15.7798 55.823 15.7538C55.9018 15.7798 55.9543 16.0137 55.9543 16.0137H55.9806C56.0331 15.8318 56.1119 15.6238 56.1907 15.4418L56.2695 15.3639C56.2695 15.3639 56.2957 15.2339 56.2695 15.2339C56.1644 15.2859 56.1382 15.1819 56.1382 15.0779L56.322 14.9219C56.3483 14.8959 56.3483 14.87 56.3483 14.844V14.688C56.3483 14.688 56.3483 14.688 56.322 14.688L56.1907 14.818C56.2432 14.35 56.3745 13.8821 56.5584 13.4402C56.7948 13.0243 56.9786 13.2842 57.0311 13.3102V13.2582C57.0311 13.0763 57.0311 12.6864 56.821 12.7123C56.821 12.7123 56.6372 12.6864 56.322 13.4402C56.4008 13.1543 56.4533 12.8683 56.5058 12.5824C56.5058 12.4004 56.4796 12.1924 56.4008 12.0365C56.4008 12.0365 56.3483 11.9845 56.322 12.0365C56.2957 12.0885 56.2432 12.1404 56.2432 12.1924C56.1119 12.4524 56.0331 12.7383 56.0068 13.0243C56.0068 13.2582 56.0068 13.4922 56.0331 13.7522C55.8493 13.4922 55.6129 13.7522 55.6129 13.7522C55.3765 14.0641 55.2452 14.402 55.2715 14.74C55.2452 14.766 55.2452 14.766 55.2715 14.74Z" fill="#3B465E"/>
<path d="M58.3181 8.50109C58.2655 8.50109 58.213 8.55308 58.213 8.55308C58.213 8.55308 53.1967 13.0243 51.7522 14.35C51.6471 14.454 51.5683 14.558 51.5421 14.714L51.332 15.8318L53.4593 14.7659L43.4529 23.2404L33.3939 14.74L35.5213 15.8058L35.3112 14.688C35.2849 14.558 35.2061 14.428 35.1011 14.324C33.6566 12.9983 28.6402 8.52709 28.6402 8.52709C28.6402 8.52709 28.5614 8.4751 28.5089 8.4751C28.4564 8.50109 28.4564 8.55308 28.4564 8.55308C28.4564 8.57908 28.6665 10.5027 28.8241 12.3744C29.0079 14.532 29.1392 15.4418 29.1392 15.4418C29.2968 16.1957 29.6382 16.8976 30.1372 17.4695C30.2423 17.5994 32.4222 20.121 32.4484 20.147V20.173L32.5798 21.0568C32.7111 21.8367 33.0788 22.5645 33.6303 23.1364L34.2081 23.7343C35.6526 25.268 39.0669 28.9334 40.1174 29.9992C40.275 30.1551 40.4063 30.3111 40.5114 30.4671C40.6164 30.649 40.6952 30.831 40.7477 31.013C40.8528 31.4809 41.1679 32.5207 41.4831 33.5865L41.5619 33.8205C41.5619 33.8205 41.6407 34.0804 41.6932 34.1584C41.772 34.3144 41.8508 34.4703 41.9559 34.6003L43.4004 36.264L43.4266 36.29H43.4791C43.4791 36.29 43.5054 36.29 43.5054 36.264L44.9499 34.6003C45.055 34.4703 45.16 34.3144 45.2125 34.1584C45.2651 34.0804 45.3439 33.8205 45.3439 33.8205L45.4226 33.5865C45.7378 32.4947 46.053 31.4809 46.158 31.013C46.2106 30.831 46.2893 30.649 46.3944 30.4671C46.5257 30.3111 46.657 30.1551 46.7884 29.9992C47.8126 28.9594 51.2532 25.32 52.6977 23.7343L53.2755 23.1364C53.827 22.5645 54.1947 21.8367 54.326 21.0568L54.4573 20.173V20.147C54.4836 20.121 56.6635 17.5734 56.7685 17.4695C57.2675 16.8976 57.609 16.1957 57.7403 15.4418C57.7403 15.4418 57.8716 14.532 58.0554 12.3744C58.213 10.5287 58.4231 8.55308 58.4231 8.55308C58.4231 8.52709 58.4231 8.52709 58.4231 8.50109C58.3443 8.52709 58.3443 8.50109 58.3181 8.50109ZM32.1595 13.6741C32.1333 13.6741 32.0807 13.6741 32.0545 13.7001C32.0282 13.7261 32.002 13.7521 31.9757 13.8041C31.9757 13.8301 31.9757 13.8301 31.9757 13.8561C31.9757 13.8821 31.9757 13.9601 31.9757 14.0901L32.3434 18.6132C31.3191 17.5474 30.4524 16.6376 30.2948 16.4556C30.0059 16.1437 29.8221 15.7538 29.7696 15.3378L29.218 9.82685L33.9192 14.1161L32.1595 13.6741ZM42.3498 33.5085L42.2973 33.4305C42.271 33.4045 42.271 33.3526 42.271 33.3266C42.1397 32.6507 41.5882 29.9212 41.5094 29.6612C41.4831 29.5572 41.4306 29.4273 41.3781 29.3233C41.3255 29.1933 41.2205 29.0633 41.1154 28.9594C41.1154 28.9594 34.3919 22.4086 33.8929 21.9146C33.4727 21.4727 33.2363 20.9268 33.1838 20.3289L32.7111 14.9999C32.7111 14.9999 41.0366 22.1486 41.7983 22.8245C42.0346 23.0324 42.2185 23.2664 42.3761 23.5263C42.5074 23.7603 42.5599 24.0463 42.5599 24.3062L43.0064 34.3664L42.3498 33.5085ZM53.6432 20.3029C53.5906 20.9008 53.328 21.4467 52.9078 21.8626C52.435 22.3566 45.6853 28.9074 45.6853 28.9074C45.5802 29.0113 45.5014 29.1413 45.4226 29.2713C45.3701 29.3753 45.3439 29.5053 45.2913 29.6092C45.2125 29.8692 44.661 32.5987 44.5297 33.2746C44.5297 33.3266 44.5034 33.3526 44.5034 33.3785L44.4509 33.4825L43.7943 34.3404L44.2408 24.3062C44.2408 24.0463 44.3196 23.7603 44.4246 23.5263C44.556 23.2664 44.7661 23.0064 45.0024 22.8245C45.7641 22.1486 54.0896 14.9999 54.0896 14.9999L53.6432 20.3029ZM57.0049 15.3378C56.9524 15.7538 56.7685 16.1697 56.4796 16.4816C56.322 16.6636 55.4553 17.5734 54.4311 18.6392L54.7987 14.1161C54.7987 13.9861 54.7987 13.9081 54.7987 13.8821C54.7987 13.8561 54.7987 13.8041 54.7725 13.7781C54.7462 13.7521 54.72 13.7261 54.6674 13.7261C54.6412 13.7261 54.6412 13.7261 54.6149 13.7261L52.8027 14.1421L57.5039 9.85284L57.0049 15.3378Z" fill="#3B465E"/>
<path d="M39.4348 20.9008L39.5398 22.9804L36.3619 20.0949L36.2306 18.1453L39.4348 20.9008ZM33.5254 19.393L33.3416 17.3394L36.3619 20.0949L36.4932 22.1745L33.5254 19.393ZM36.6245 24.1762L36.4932 22.1485L39.6449 25.086L39.7499 27.2956L36.6245 24.1762ZM39.6711 25.086L39.5661 22.9804L42.6652 25.7879L42.7702 27.9715L39.6711 25.086Z" fill="#3B465E"/>
<path d="M31.9499 16.3258L30.0064 14.1942L29.7963 12.0106L31.8449 14.1682L32.0287 16.4298L31.9499 16.3258Z" fill="#3B465E"/>
<path d="M32.0281 12.4787L33.814 13.8044L32.1331 13.4665L32.0281 12.4787Z" fill="#3B465E"/>
<path d="M18.8704 42.087C18.5027 42.087 18.2664 41.983 18.1876 41.7751C18.1613 41.6711 18.1613 41.5411 18.1876 41.4371C18.2138 41.3332 18.2664 41.2292 18.3452 41.1512L18.5027 40.9172L18.923 40.2674C19.2381 39.8254 19.5533 39.4355 20.4988 39.4355H25.699C25.8828 39.4355 26.0667 39.4355 26.2505 39.4875C26.3293 39.4875 26.3818 39.5135 26.4606 39.5655C26.5131 39.6175 26.5657 39.6695 26.6182 39.7215C26.6445 39.7735 26.6445 39.8254 26.6445 39.8774C26.6445 39.9294 26.6445 39.9814 26.6182 40.0334C26.5657 40.1894 26.4869 40.3194 26.4081 40.4233L25.8565 41.2552C25.5414 41.6971 25.2262 42.087 24.2545 42.087H18.8704ZM20.6038 40.0334C20.525 40.0334 20.4462 40.0594 20.3675 40.0854C20.2887 40.1374 20.2099 40.1894 20.1836 40.2674L19.9472 40.6313L19.5533 41.2292C19.527 41.2552 19.527 41.2812 19.5008 41.3332C19.5008 41.3592 19.5008 41.4112 19.5008 41.4371C19.5008 41.4891 19.5796 41.5151 19.6321 41.5151H24.2019C24.307 41.5411 24.3858 41.5151 24.4646 41.4631C24.5434 41.4112 24.6222 41.3592 24.6747 41.2552L25.0161 40.7613C25.1474 40.5533 25.2525 40.3973 25.305 40.3194C25.3313 40.2934 25.3313 40.2674 25.3575 40.2154C25.3575 40.1894 25.3575 40.1374 25.3575 40.1114C25.3313 40.0854 25.3313 40.0594 25.305 40.0594C25.2787 40.0334 25.2525 40.0334 25.2262 40.0334H20.6038Z" fill="#3B465E"/>
<path d="M10.4135 42.087C10.0458 42.087 9.80943 41.983 9.73064 41.775C9.70437 41.6711 9.70437 41.5411 9.73064 41.4371C9.7569 41.3331 9.80943 41.2291 9.88822 41.1512L10.4923 40.2673C10.6761 39.9814 10.9125 39.7474 11.2014 39.6174C11.4903 39.4615 11.8055 39.4095 12.1206 39.4615H18.135C18.1612 39.4615 18.1612 39.4615 18.1875 39.4615C18.2138 39.4615 18.2138 39.4875 18.2138 39.4875C18.2138 39.5135 18.2138 39.5394 18.2138 39.5394C18.2138 39.5654 18.2138 39.5654 18.1875 39.5914L17.9774 39.9034C17.9511 39.9294 17.9249 39.9814 17.8723 39.9814C17.8461 40.0074 17.7936 40.0074 17.741 40.0074H12.1731C12.0944 40.0074 11.9893 40.0334 11.9105 40.0593C11.8317 40.1113 11.7529 40.1633 11.7004 40.2413L11.4378 40.6312C11.3065 40.8392 11.1751 41.0212 11.0438 41.2031C11.0176 41.2291 11.0176 41.2551 10.9913 41.3071C10.9913 41.3331 10.9913 41.3851 10.9913 41.4111C10.9913 41.4631 11.0701 41.4891 11.1489 41.4891H16.6905C16.7167 41.4891 16.7168 41.4891 16.743 41.4891C16.7693 41.4891 16.7693 41.5151 16.7693 41.5151C16.7693 41.5411 16.7693 41.5671 16.7693 41.5671C16.7693 41.5931 16.743 41.5931 16.743 41.6191L16.6642 41.749L16.5329 41.931C16.5066 41.957 16.4804 42.009 16.4278 42.009C16.4016 42.035 16.3491 42.035 16.2965 42.061H10.4135V42.087Z" fill="#3B465E"/>
<path d="M69.3749 42.087C68.9809 42.087 68.7446 41.983 68.6658 41.775C68.6395 41.6711 68.6395 41.5411 68.6658 41.4371C68.692 41.3331 68.7446 41.2291 68.8234 41.1512L69.4537 40.2673C69.6375 39.9814 69.8739 39.7474 70.1891 39.6174C70.478 39.4615 70.8194 39.4095 71.1346 39.4615H77.5166C77.5429 39.4615 77.5429 39.4615 77.5691 39.4615C77.5954 39.4615 77.5954 39.4875 77.5954 39.4875C77.5954 39.5135 77.5954 39.5394 77.5954 39.5394C77.5954 39.5654 77.5691 39.5654 77.5691 39.5914C77.5166 39.6434 77.4115 39.8254 77.359 39.9034C77.3328 39.9294 77.3065 39.9814 77.254 39.9814C77.2277 40.0074 77.1752 40.0074 77.1226 40.0074H71.2133C71.1345 40.0074 71.0295 40.0334 70.9507 40.0593C70.8719 40.1113 70.7931 40.1633 70.7406 40.2413L70.6093 40.4233H76.8075C76.8337 40.4233 76.8337 40.4233 76.86 40.4233C76.8863 40.4233 76.8863 40.4493 76.8863 40.4493C76.8863 40.4753 76.8863 40.4753 76.8863 40.5013C76.8863 40.5273 76.8863 40.5273 76.86 40.5533L76.6499 40.8652C76.6236 40.8912 76.5974 40.9432 76.5448 40.9432C76.5186 40.9692 76.4661 40.9692 76.4135 40.9952H70.1891L70.0315 41.2031C70.0052 41.2291 70.0052 41.2551 70.0052 41.2811C70.0052 41.3071 70.0052 41.3331 70.0052 41.3851C70.0315 41.4111 70.0577 41.4371 70.084 41.4371C70.1103 41.4371 70.1365 41.4631 70.1628 41.4371H76.0458C76.0721 41.4371 76.0721 41.4371 76.0984 41.4371C76.1246 41.4371 76.1246 41.4631 76.1246 41.4631C76.1246 41.4891 76.1246 41.5151 76.1246 41.5151C76.1246 41.5411 76.0984 41.5411 76.0984 41.5671L75.8883 41.879C75.862 41.905 75.8357 41.957 75.7832 41.957C75.7569 41.983 75.7044 41.983 75.6519 41.983L69.3749 42.087Z" fill="#3B465E"/>
<path d="M44.7924 42.087C44.4247 42.087 44.1883 41.983 44.1096 41.775C44.0833 41.6711 44.0833 41.5411 44.1096 41.4371C44.1358 41.3331 44.1884 41.2291 44.2671 41.1512L44.3197 41.0732C44.4773 40.8392 44.7399 40.4493 44.8449 40.2673C45.0288 39.9814 45.2652 39.7474 45.5278 39.6174C45.8167 39.4615 46.1056 39.4095 46.4208 39.4615H52.4876C52.5139 39.4615 52.5139 39.4615 52.5402 39.4615C52.5664 39.4615 52.5664 39.4875 52.5664 39.4875C52.5664 39.5135 52.5664 39.5394 52.5664 39.5394C52.5664 39.5654 52.5402 39.5654 52.5402 39.5914C52.4876 39.6434 52.3826 39.8254 52.3301 39.9034C52.3038 39.9294 52.2775 39.9814 52.225 39.9814C52.1987 40.0074 52.1462 40.0074 52.0937 40.0074H46.4733C46.3945 40.0074 46.2894 40.0334 46.2106 40.0593C46.1319 40.1113 46.0531 40.1633 46.0005 40.2413L45.8692 40.4233H51.7523C51.7785 40.4233 51.7785 40.4233 51.8048 40.4233C51.8311 40.4233 51.8311 40.4493 51.8311 40.4493C51.8311 40.4753 51.8311 40.4753 51.8311 40.5013C51.8311 40.5273 51.8311 40.5273 51.8048 40.5533L51.5947 40.8652C51.5684 40.8912 51.5422 40.9432 51.4896 40.9432C51.4634 40.9692 51.4108 40.9692 51.3846 40.9952H45.4753L45.3439 41.1771C45.3177 41.2031 45.2914 41.2291 45.2914 41.2811C45.2914 41.3071 45.2914 41.3591 45.2914 41.3851C45.3177 41.4371 45.3702 41.4631 45.4227 41.4631H51.0169C51.0431 41.4631 51.0431 41.4631 51.0694 41.4631C51.0957 41.4631 51.0957 41.4891 51.0957 41.5151C51.0957 41.5411 51.0957 41.5411 51.0957 41.5671C51.0957 41.5931 51.0957 41.5931 51.0694 41.6191L50.9906 41.749L50.8593 41.931C50.833 41.957 50.8068 42.009 50.7542 42.009C50.728 42.035 50.6755 42.035 50.6492 42.061L44.7924 42.087Z" fill="#3B465E"/>
<path d="M55.324 42.0871C55.2977 42.0871 55.2977 42.0871 55.2714 42.0871C55.2452 42.0871 55.2452 42.0611 55.2452 42.0611C55.2452 42.0611 55.2452 42.0091 55.2714 41.9571L56.5321 40.1115C56.5321 40.0855 56.5584 40.0595 56.5321 40.0595C56.5058 40.0595 56.5321 40.0595 56.4796 40.0595H53.5643C53.5118 40.0595 53.4855 40.0595 53.4855 40.0075C53.4855 39.9555 53.4855 39.9555 53.5118 39.9035C53.538 39.8515 53.5906 39.7735 53.6431 39.6955L53.7219 39.5915C53.7482 39.5655 53.7744 39.5136 53.8269 39.4876C53.8532 39.4616 53.9057 39.4616 53.9583 39.4616H60.9706C61.0232 39.4616 61.0494 39.4876 61.0494 39.5136C61.0494 39.5396 61.0494 39.5655 61.0494 39.5655C61.0494 39.5915 61.0494 39.5915 61.0232 39.6175L60.8131 39.9295C60.7868 39.9555 60.7605 40.0075 60.708 40.0075C60.6817 40.0335 60.6292 40.0335 60.5767 40.0335H57.8715C57.8453 40.0335 57.7927 40.0595 57.7665 40.0595C57.7402 40.0855 57.714 40.1114 57.6877 40.1374L56.427 41.9831C56.4008 42.0091 56.3745 42.0611 56.322 42.0611C56.2957 42.0871 56.2432 42.0871 56.1907 42.0871H55.324Z" fill="#3B465E"/>
<path d="M63.3344 42.0609C63.3082 42.0609 63.3082 42.0609 63.2819 42.0609C63.2556 42.0609 63.2556 42.0349 63.2556 42.0349C63.2556 42.0349 63.2556 41.9829 63.2819 41.9309L64.4638 40.2152L64.5163 40.1113C64.5163 40.0853 64.5426 40.0853 64.5426 40.0593C64.5426 40.0593 64.5163 40.0593 64.49 40.0593H61.5748C61.5222 40.0593 61.496 40.0593 61.496 40.0073C61.496 39.9553 61.496 39.9553 61.5222 39.9033L61.7586 39.5914C61.7849 39.5654 61.8111 39.5134 61.8637 39.5134C61.8899 39.4874 61.9425 39.4874 61.995 39.4874H69.0336C69.0599 39.4874 69.0599 39.4874 69.0862 39.4874C69.1124 39.4874 69.1124 39.5134 69.1124 39.5134C69.1124 39.5394 69.1124 39.5654 69.1124 39.5654C69.1124 39.5914 69.0862 39.5914 69.0862 39.6173L68.876 39.9293C68.8498 39.9553 68.8235 40.0073 68.771 40.0333C68.7447 40.0593 68.6922 40.0593 68.6397 40.0593H65.9345C65.9083 40.0593 65.8557 40.0593 65.8295 40.0853C65.8032 40.1113 65.7769 40.1373 65.7507 40.1632L64.49 42.0089C64.4638 42.0349 64.4375 42.0869 64.385 42.0869C64.3587 42.1129 64.3062 42.1129 64.2537 42.1129L63.3344 42.0609Z" fill="#3B465E"/>
<path d="M36.0203 39.6695C35.9415 39.5135 35.7577 39.4355 35.4425 39.4355H29.0079C28.9554 39.4355 28.9291 39.4615 28.8766 39.4615C28.8503 39.4875 28.7978 39.5135 28.7715 39.5655L28.4564 40.0334H34.5495C34.6021 40.0334 34.6546 40.0334 34.6809 40.0854C34.6809 40.0854 34.6809 40.1114 34.6809 40.1374C34.6809 40.1634 34.6809 40.1634 34.6809 40.1894C34.6283 40.2674 34.5758 40.3453 34.5233 40.4233C34.497 40.4753 34.4445 40.5013 34.392 40.5273C34.3394 40.5533 34.2869 40.5533 34.2344 40.5533H28.0887L27.4058 41.5411L27.0907 41.983C27.0907 42.009 27.0644 42.009 27.0644 42.035C27.0644 42.061 27.0644 42.061 27.0644 42.087C27.0644 42.113 27.0907 42.113 27.0907 42.113C27.1169 42.113 27.1169 42.113 27.1432 42.113H28.0362C28.0887 42.113 28.115 42.087 28.1675 42.087C28.1937 42.061 28.2463 42.035 28.2725 42.009L28.8766 41.1512H30.8726C31.4767 41.3592 32.5272 41.7491 33.3677 42.061C33.5778 42.113 33.8142 42.139 34.0243 42.139H35.2849C35.3637 42.139 35.4162 42.087 35.4162 42.061C35.4162 42.035 35.4162 42.009 35.39 41.983C35.3637 41.9571 35.3637 41.9571 35.3374 41.9571C34.3657 41.6451 33.8929 41.5151 33.5253 41.3852C33.2889 41.3072 33.0788 41.2552 32.7636 41.1512H34.392C34.5758 41.1772 34.7859 41.1252 34.9698 41.0732C35.1536 40.9952 35.3112 40.8913 35.4688 40.7613C35.6263 40.5533 35.7839 40.3453 35.9152 40.1374C35.9415 40.0854 35.9678 40.0074 35.994 39.9554C36.0466 39.7994 36.0466 39.7215 36.0203 39.6695Z" fill="#3B465E"/>
<path d="M44.3984 39.4355H43.5842C43.4529 39.4355 43.3478 39.4615 43.2428 39.5135L39.5659 41.4631C39.5133 41.4891 39.4871 41.4891 39.4346 41.5151H38.9618C38.9356 41.4631 38.6992 40.8393 38.4891 40.3453C38.3315 39.9554 38.1739 39.5915 38.1739 39.5655C38.1476 39.5395 38.1476 39.4875 38.0951 39.4615C38.0426 39.4355 38.0163 39.4355 37.9901 39.4355H37.0708C37.0446 39.4355 37.0183 39.4355 36.992 39.4615C36.9658 39.4615 36.9395 39.4875 36.9395 39.5135C36.9395 39.5395 36.9395 39.5395 36.9395 39.5655C36.9395 39.5915 36.9395 39.5915 36.9395 39.6175L37.2547 40.3453C37.5173 40.9432 37.8587 41.8011 37.9113 41.8791C37.9901 42.061 38.1214 42.087 38.3577 42.087H39.5133C39.7235 42.087 39.9073 42.035 40.0649 41.9311C40.1437 41.8791 44.3984 39.6175 44.4246 39.5915C44.4509 39.5915 44.4509 39.5655 44.4772 39.5395C44.4772 39.5135 44.5034 39.4875 44.5034 39.4615C44.4772 39.4615 44.4509 39.4355 44.3984 39.4355Z" fill="#3B465E"/>
</g>
</svg>
