<svg width="87" height="50" viewBox="0 0 87 50" fill="none" xmlns="http://www.w3.org/2000/svg">
<g opacity="0.5">
<path d="M22.1455 21.1823C22.1718 21.5203 22.093 21.8322 21.9617 22.1442C21.6728 22.6901 20.6485 24.4577 20.0707 25.3676C19.4929 26.3034 19.3353 26.5893 18.5474 27.9151C18.2848 28.383 17.9171 28.7989 17.4706 29.1109H22.3556C22.3556 29.1109 22.1718 29.0589 22.3031 28.487C22.4344 27.8891 23.6426 26.0175 24.0365 25.3676C24.4042 24.7957 25.376 23.132 25.376 23.132C25.481 23.002 25.6123 22.872 25.7699 22.794C25.9275 22.7161 26.0851 22.6641 26.2689 22.6381H27.7922C27.7922 22.6381 28.4225 22.5861 28.1336 23.158C27.871 23.6259 26.6629 25.6015 26.0851 26.5634C25.7436 27.1872 25.376 27.7591 24.9557 28.331C24.4042 29.0329 24.0365 29.0849 24.0365 29.0849H28.869C28.8428 28.747 28.9215 28.409 29.0529 28.0971C29.263 27.5772 31.5216 23.9898 31.5216 23.9898C31.5216 23.9898 32.4409 22.6121 32.152 21.9622C32.0732 21.7282 31.9156 21.5463 31.7055 21.3903C31.4954 21.2603 31.259 21.1823 31.0226 21.1563H27.8973C27.5296 21.1303 27.1881 21.1823 26.8467 21.2863C26.5316 21.4423 26.2689 21.6502 26.0588 21.9102L26.3477 21.1044L22.1455 21.1823Z" fill="#3B465E"/>
<path d="M54.5542 26.0435C54.7906 25.5496 55.1058 25.0817 55.4997 24.6917C55.8674 24.4058 56.3139 24.2758 56.7604 24.2758H62.5909L61.5404 26.0435H54.5542Z" fill="#3B465E"/>
<path d="M71.705 21.2083C71.7313 21.5463 71.6525 21.8842 71.5212 22.1962C71.2323 22.7421 70.2343 24.4577 69.6565 25.3936C69.0787 26.3294 68.9211 26.6153 68.1332 27.9151C67.8705 28.383 67.5028 28.7989 67.0564 29.1109H71.9414C71.9414 29.1109 71.7575 29.0589 71.8889 28.487C72.0202 27.8891 73.2283 26.0175 73.6485 25.3676C74.0162 24.7957 74.988 23.132 74.988 23.132C75.093 23.002 75.2243 22.872 75.3819 22.794C75.5395 22.7161 75.6971 22.6641 75.8809 22.6381H77.4042C77.4042 22.6381 78.0345 22.5861 77.7456 23.158C77.5093 23.6259 76.2749 25.6015 75.7233 26.5634C75.3819 27.1872 75.0142 27.7591 74.594 28.331C74.0425 29.0329 73.7011 29.0849 73.7011 29.0849H78.5073C78.5073 28.747 78.5598 28.409 78.6911 28.0971C78.9275 27.5772 81.1862 23.9898 81.1862 23.9898C81.1862 23.9898 82.0791 22.6121 81.7902 21.9622C81.7114 21.7282 81.5539 21.5463 81.3438 21.3903C81.1336 21.2603 80.8973 21.1823 80.6609 21.1563H77.4567C77.0891 21.1303 76.7476 21.1823 76.4062 21.2863C76.1173 21.4423 75.8547 21.6502 75.6708 21.9102L75.9335 21.1044L71.705 21.2083Z" fill="#3B465E"/>
<path d="M19.545 24.7438C19.545 24.7438 20.4379 23.3661 20.1753 22.7162C20.0965 22.4823 19.9389 22.2743 19.7288 22.1183C19.5187 21.9624 19.2561 21.9104 19.0197 21.9364H13.4781C13.4781 21.9364 13.2154 22.0143 13.1366 21.6764C13.0578 21.3385 13.4255 20.9485 13.4255 20.9485C13.5306 20.7666 13.6356 20.6106 13.7932 20.4806C14.0033 20.3506 14.2397 20.2987 14.5023 20.2987H20.9895C21.1733 20.2727 21.3571 20.2987 21.5147 20.3766C21.6723 20.4546 21.8036 20.5846 21.9087 20.7406L23.7209 17.6731H15.2115C15.2115 17.6731 13.8195 17.5432 13.0316 18.0111C12.375 18.297 11.8235 18.7909 11.482 19.3888C11.2457 19.7268 11.0093 20.2207 11.0093 20.2207L9.27589 23.1061C9.03952 23.3921 8.9082 23.756 8.9082 24.12C8.9082 24.2499 8.96073 24.3799 9.03952 24.4839C9.11831 24.5879 9.22336 24.6919 9.35468 24.7178C9.64358 24.8218 9.95874 24.8478 10.2739 24.8218H12.6114C12.8215 24.8478 13.0578 24.7958 13.2417 24.7178C13.6094 24.4319 14.0559 23.938 14.4498 23.834C14.6862 23.756 14.9226 23.73 15.1589 23.756C15.3953 23.782 15.6317 23.86 15.8418 23.964C16.2357 24.2239 16.157 24.2239 16.4721 24.6399C16.6034 24.7958 16.7085 25.0038 16.7348 25.2118L15.7105 24.8478C15.7105 24.8478 15.369 24.6659 15.1852 24.7438C15.0014 24.7958 14.7387 24.7438 14.4761 25.4457C14.2922 25.9656 14.2922 26.3296 14.6599 26.5115C15.1327 26.7195 15.6317 26.8755 16.157 26.9794C15.8155 27.2654 15.3953 27.4733 14.9488 27.5253C14.6862 27.5513 14.4236 27.5253 14.1872 27.4473C13.9508 27.3694 13.7144 27.2394 13.5043 27.0834C13.1104 26.7195 13.373 26.7975 13.0578 26.6155C12.7689 26.4595 12.4275 26.4075 12.0861 26.4075H8.22534C8.01524 26.4595 7.77886 26.4075 7.59502 26.3296C7.20107 26.1996 7.25359 26.1216 7.25359 26.1216L5.44141 29.111H14.1347C14.8963 29.163 15.6579 29.0591 16.3671 28.8251C16.9974 28.5132 17.5227 28.0452 17.8903 27.4733L19.545 24.7438Z" fill="#3B465E"/>
<path d="M36.3277 29.1367L36.6429 28.2788C36.2489 28.5908 35.8024 28.8507 35.3559 29.0067C35.1458 29.0847 34.9357 29.1107 34.7256 29.1107H31.4689C31.2851 29.1367 31.1275 29.0847 30.9699 29.0067C30.8123 28.9287 30.681 28.7988 30.6022 28.6428C30.5234 28.4868 30.4709 28.3048 30.4446 28.1229C30.4446 27.9409 30.4972 27.7589 30.576 27.603C30.7861 27.1091 31.4952 25.9653 31.8366 25.3934C32.5195 24.2496 33.2548 23.9116 33.6751 23.8077C34.1741 23.6777 34.6993 23.6257 35.2246 23.6517H38.2449C38.5076 23.6517 38.7702 23.6257 39.0066 23.5477C39.1642 23.4957 39.2692 23.3657 39.3217 23.2098L39.4268 22.9498C39.5056 22.5599 39.1379 22.5859 39.1379 22.5859H34.9882C34.7781 22.5599 34.568 22.5859 34.3842 22.6119C34.1478 22.6639 33.9114 22.7679 33.7013 22.8718L34.6993 21.1302H42.237C42.4734 21.1302 42.7097 21.1821 42.8936 21.3121C43.1037 21.4421 43.235 21.6241 43.3401 21.858C43.629 22.5079 42.736 23.9376 42.736 23.9376C42.736 23.9376 40.5561 27.551 40.346 28.0709C40.2147 28.3828 40.1622 28.7208 40.1622 29.0587L36.3277 29.1367ZM37.8772 25.3414H36.5115C36.2226 25.3414 35.96 25.3674 35.6974 25.4194C35.4085 25.4974 34.9357 26.5632 34.9357 26.5632C34.9357 26.5632 34.568 27.0311 34.6468 27.265C34.7256 27.499 34.9882 27.447 34.9882 27.447H36.4065C36.6166 27.447 36.8267 27.369 36.9843 27.213C37.3782 26.6931 37.7459 26.1212 38.0611 25.5493V25.4714C38.0611 25.4454 38.0611 25.3934 38.0348 25.3674C38.0086 25.3414 37.9823 25.3154 37.956 25.3154C37.9035 25.3414 37.9035 25.3414 37.8772 25.3414Z" fill="#3B465E"/>
<path d="M43.9448 31.2164C43.8135 31.5283 43.7609 31.8922 43.7609 32.2302H39.3749C39.3749 32.2302 39.5325 31.9702 39.6901 31.7363C39.9002 31.4243 40.084 31.1124 40.2679 30.8004L43.2619 25.4974C43.8135 24.5616 44.8115 22.7419 45.1004 22.196C45.2317 21.8841 45.3105 21.5201 45.2842 21.1822H49.1975V21.7021C49.3551 21.5721 49.5389 21.4422 49.749 21.3122C49.9591 21.2342 50.1692 21.1822 50.4056 21.1562H53.8199C54.0563 21.1562 54.2926 21.2082 54.5027 21.3382C54.7128 21.4681 54.8704 21.6761 54.9492 21.8841C55.2381 22.56 54.3714 23.9637 54.3714 23.9637L52.3229 27.629C51.9814 28.0969 51.5612 28.5129 51.0885 28.8248C50.5369 29.1367 49.9329 29.2667 49.3025 29.2407L46.2822 29.2147C46.2822 29.2147 45.7307 29.1627 45.5469 28.8768C45.363 28.5908 45.4418 28.6168 45.4418 28.6168L43.9448 31.2164ZM49.5389 22.6379C49.3025 22.6119 49.0924 22.6639 48.8823 22.7939C48.7247 22.9239 48.5934 23.0539 48.4884 23.2358L46.361 26.9012C46.361 26.9012 46.0984 27.2131 46.2297 27.4211C46.3348 27.655 46.6237 27.577 46.6237 27.577H48.0419C48.1995 27.577 48.3571 27.551 48.5146 27.4731C48.7247 27.3171 48.9349 27.1091 49.0662 26.8752L51.0885 23.3918C51.0885 23.3918 51.3511 23.1318 51.1935 22.8719C51.1673 22.8199 51.0885 22.7679 51.0359 22.7159C50.9834 22.6899 50.9046 22.6639 50.8258 22.6639L49.5389 22.6379Z" fill="#3B465E"/>
<path d="M57.3647 29.1369C57.2071 29.1369 57.0495 29.1109 56.892 29.059C56.7344 29.007 56.6031 28.903 56.498 28.773C56.393 28.591 56.3404 28.4091 56.3404 28.2011C56.3404 27.9931 56.393 27.8112 56.4717 27.6292L57.1546 26.4594H60.8578C60.8578 26.4594 60.7264 26.7714 60.4901 27.1873C60.3588 27.4212 60.7527 27.4472 60.7527 27.4472H62.4336C62.4336 27.4472 63.169 27.4732 63.4053 27.0833C63.5629 26.7974 65.3226 23.7299 65.3226 23.7299C65.3226 23.7299 65.7428 23.158 65.6903 22.9241C65.6377 22.7161 65.0862 22.6121 65.0862 22.6121H63.9306C63.9306 22.6121 63.3003 22.5861 63.1427 22.7941C62.9063 23.132 62.5912 23.5999 62.5912 23.5999H58.7829L59.5183 22.4562C59.7547 22.1182 60.0699 21.8063 60.4113 21.5723C60.8052 21.3384 61.278 21.1824 61.7507 21.1824L68.5267 21.2084C68.7631 21.2084 68.9995 21.2604 69.2096 21.3904C69.4197 21.5203 69.5773 21.7023 69.6561 21.9363C69.9712 22.6121 69.0257 23.9639 69.0257 23.9639L66.8721 27.5512C66.5307 27.9931 66.1367 28.3831 65.664 28.695C65.1125 29.007 64.4821 29.1369 63.8518 29.0849L57.3647 29.1369Z" fill="#3B465E"/>
</g>
</svg>
