<svg width="86" height="50" viewBox="0 0 86 50" fill="none" xmlns="http://www.w3.org/2000/svg">
<g opacity="0.5">
<path d="M69.0176 18.3647H72.7041L71.9772 21.0163H68.2906L69.0176 18.3647Z" fill="#3B465E"/>
<path d="M65.6424 31.6225L68.1607 21.4583H71.8213L69.303 31.6225H65.6424Z" fill="#3B465E"/>
<path fill-rule="evenodd" clip-rule="evenodd" d="M48.5856 21.3804H59.0222L58.3472 24.0059H51.753L51.3895 25.3057H57.7241L57.1789 27.4373H50.8443L50.5068 28.737H57.127L56.452 31.3625H46.0154L48.5856 21.3804ZM34.099 27.8532H38.0192C38.0192 27.8792 37.9673 29.3089 40.0961 29.3089C41.524 29.3089 41.7577 28.867 41.7837 28.659C41.8615 28.2951 41.6019 28.1131 41.0567 27.9572C39.3433 27.5412 37.0067 26.7874 36.4096 26.4235C36.0721 26.2155 35.7865 25.9295 35.6048 25.5656C35.423 25.2277 35.3192 24.8117 35.3452 24.4218C35.3452 22.8881 37.1625 20.9904 41.0308 21.0164C42.3548 20.9904 43.6789 21.2244 44.8991 21.7443C45.4443 21.9783 45.8856 22.3682 46.1712 22.8881C46.4568 23.382 46.5866 23.9799 46.5606 24.5518H42.7442C42.7442 24.5518 42.7442 23.434 41.1346 23.356C40.3038 23.33 39.4211 23.46 39.4471 24.0839C39.4471 24.6298 39.9923 24.7598 41.2904 25.0457C41.6019 25.1237 43.6789 25.5396 44.3279 25.7736C45.5221 26.2155 46.0933 26.8394 45.9375 28.1651C45.4702 31.1286 41.6798 31.6225 39.7586 31.6225C37.3442 31.6225 34.8 31.1806 34.2548 28.763C34.1769 28.4771 34.1509 28.1651 34.099 27.8532ZM29.4518 28.1651L29.1403 24.3698L26.6739 28.1651H29.4518ZM32.0999 21.3804L33.8394 31.3885H29.6336L29.5297 30.1928H25.4797L24.7009 31.3625H20.2614L27.5826 21.3544L32.0999 21.3804ZM21.3518 28.3211C21.1181 28.815 20.8066 29.2569 20.4431 29.6729C19.5345 30.6347 17.9768 31.6225 15.2768 31.6225C12.0056 31.6225 10.7335 30.4527 10.0844 29.3089C9.66903 28.5551 9.4873 27.6972 9.59114 26.8654C9.72095 25.4876 11.045 21.0684 16.8345 21.0684C20.0797 21.0684 21.3778 22.1342 21.8451 23.33C22.1047 24.1359 22.1826 25.0197 22.0787 25.8516H18.2624C18.3922 25.1237 18.1585 23.8759 16.8604 23.8759C16.1335 23.9019 15.4325 24.1359 14.8614 24.6038C14.2902 25.0457 13.8748 25.6696 13.6671 26.3715C13.2517 27.9312 14.1085 28.867 15.4844 28.919C15.9258 28.919 16.3671 28.815 16.7566 28.6071C17.146 28.3991 17.4835 28.0871 17.7172 27.7232H21.5854C21.5595 27.8272 21.4037 28.1911 21.3258 28.3471" fill="#3B465E"/>
<path d="M65.7979 28.2431L66.6287 24.8637H66.1095L66.9402 21.4844H63.3056L60.7873 31.6225H64.4479L65.3046 28.1911L65.7979 28.2431Z" fill="#3B465E"/>
<path d="M72.1847 24.8117H71.6655L70.8347 28.1911H71.3799L70.5231 31.6225H74.1578L76.702 21.4583H73.0414L72.1847 24.8117Z" fill="#3B465E"/>
</g>
</svg>
