<svg width="87" height="50" viewBox="0 0 87 50" fill="none" xmlns="http://www.w3.org/2000/svg">
<g opacity="0.5">
<path d="M47.5725 19.4185L45.5272 20.9593L44.55 24.4346L45.6863 26.0429H49.0043L48.3339 28.4497H45.5954L45.9136 27.3026H43.7432L43.2773 28.9783L44.4591 30.5642H48.2998L50.3451 29.0008L51.3223 25.4918L50.1747 23.906H46.868L47.5271 21.5217H50.2542L49.9247 22.6801H52.1064L52.6063 20.9593L51.47 19.4185H47.5725Z" fill="#3B465E"/>
<path d="M55.8788 19.4185L53.8221 20.9593L51.5723 28.9896L52.754 30.5642H56.6061L58.6628 28.9896L59.2877 26.729H57.1174L56.6401 28.4497H53.9017L55.8561 21.5104H58.5718L58.0832 23.2649H60.2536L60.9126 20.9593L59.7877 19.4185H55.8788Z" fill="#3B465E"/>
<path d="M72.4816 21.5102H75.2087L74.1974 25.1092H71.4817L72.493 21.5102H72.4816ZM70.9135 19.4183L67.7773 30.5639H69.9477L70.8794 27.2236H72.6521L73.0611 30.5639H75.186L74.7201 26.7625L76.2541 25.5366L77.5381 20.9479L76.4018 19.407H70.9249L70.9135 19.4183Z" fill="#3B465E"/>
<path d="M34.2447 19.4185L32.4835 25.7168L31.4381 19.4185H29.2905L26.1543 30.5642H28.3246L30.12 24.2547L31.1767 30.5642H33.3016L36.4264 19.4185H34.2447Z" fill="#3B465E"/>
<path d="M39.2316 21.5104H41.9701L40.9588 25.1094H38.2203L39.2316 21.5104ZM39.2543 19.4185L37.2317 20.9481L34.5273 30.5642H36.6977L37.6294 27.2238H40.3679L39.4361 30.5642H41.6065L44.3108 20.9593L43.1746 19.4185H39.2657H39.2543Z" fill="#3B465E"/>
<path d="M64.1515 21.5104H66.89L65.8787 25.1094H63.1402L64.1515 21.5104ZM64.1743 19.4185L62.1403 20.9593L59.4473 30.5642H61.6176L62.5494 27.2238H65.2878L64.3561 30.5642H66.5378L69.2308 20.9481L68.0945 19.4185H64.1856H64.1743Z" fill="#3B465E"/>
<path d="M23.767 19.4185L20.6309 30.5754H24.9715L28.085 19.4185H23.767Z" fill="#3B465E"/>
<path d="M17.5522 19.4185L14.416 30.5866H16.5068L19.6316 19.4185H17.5522Z" fill="#3B465E"/>
<path d="M20.4838 19.4185L17.3477 30.5866H19.4384L22.5633 19.4185H20.4838Z" fill="#3B465E"/>
<path d="M12.9389 19.4185L9.80273 30.5866H11.0981L14.2229 19.4185H12.9389Z" fill="#3B465E"/>
<path d="M15.0737 19.4185L11.9375 30.5866H13.2329L16.3577 19.4185H15.0737Z" fill="#3B465E"/>
</g>
</svg>
