<svg width="86" height="50" viewBox="0 0 86 50" fill="none" xmlns="http://www.w3.org/2000/svg">
<g opacity="0.5">
<path d="M29.3549 39.0825V33.5067H32.4569C35.1157 33.5067 36.4973 34.4491 36.4973 36.2815C36.4973 38.1401 35.1157 39.0563 32.4569 39.0563L29.3549 39.0825ZM30.137 38.4018H32.2744C34.5683 38.4018 35.6371 37.7736 35.6371 36.3077C35.6371 34.8418 34.5422 34.2135 32.2744 34.2135H30.137V38.4018ZM39.6513 39.0825H38.8433V33.5067H39.6513V39.0825ZM51.9288 38.4018H57.6374L57.1943 39.0825H51.1207V33.5067H51.9288V38.4018ZM43.3789 38.4018H49.0875L48.6444 39.0825H42.5969V33.5067H43.405V38.4018H43.3789ZM19.0586 39.0825V38.7683L22.5254 33.5067H23.7767L27.2435 38.7683V39.0825H26.4876L25.5753 37.6689H20.7008L19.7884 39.0825H19.0586V39.0825ZM21.1439 36.9883H25.1321L23.3335 34.1873H22.9164L21.1439 36.9883ZM17.1557 34.7109L16.8429 35.1035C15.9305 34.4229 14.8879 34.0826 13.6627 34.0826C11.6817 34.0826 10.4565 34.9203 10.4565 36.3077C10.4565 37.6951 11.6817 38.5327 13.6627 38.5327C14.8879 38.5327 15.8784 38.1924 16.8429 37.5118L17.1817 37.9045V38.2186C16.2955 38.8207 15.2007 39.2133 13.6888 39.2133C11.1603 39.2133 9.64844 38.0092 9.64844 36.3077C9.64844 34.6062 11.1342 33.402 13.6888 33.402C15.1746 33.402 16.3215 33.7947 17.1817 34.3968V34.7109H17.1557ZM76.5359 34.7109L76.2231 35.1035C75.3107 34.4229 74.2681 34.0826 73.0429 34.0826C71.0619 34.0826 69.8367 34.9203 69.8367 36.3077C69.8367 37.6951 71.0619 38.5327 73.0429 38.5327C74.2681 38.5327 75.2586 38.1924 76.2231 37.5118L76.5619 37.9045V38.2186C75.6757 38.8207 74.5809 39.2133 73.069 39.2133C70.5405 39.2133 69.0286 38.0092 69.0286 36.3077C69.0286 34.6062 70.5145 33.402 73.069 33.402C74.5809 33.402 75.7017 33.7947 76.5619 34.3968V34.7109H76.5359ZM59.2015 39.0825V38.7683L62.6683 33.5067H63.9195L67.3864 38.7683V39.0825H66.6305L65.7182 37.6689H60.8437L59.9313 39.0825H59.2015V39.0825ZM61.2868 36.9883H65.3011L63.5025 34.1873H63.0854L61.2868 36.9883ZM30.3716 18.4549H26.4876L26.1748 16.6749H42.8576V18.4549H42.4144V17.0937H30.2152L30.3716 18.4549ZM26.1227 16.2561H42.8836V14.9472H25.9141L26.1227 16.2561ZM36.6015 20.6276H42.8836V19.6853H36.6015V20.6276ZM25.7317 14.5284H29.6938L28.9379 13.2195H42.4144V14.5284H42.8576V12.7745H24.4805L25.7317 14.5284ZM49.6871 12.7745H43.3528V15.3922H49.6871V12.7745ZM27.3999 22.905C27.5042 23.0621 27.6867 23.2453 28.3383 23.4024C28.6511 23.4809 28.99 23.5595 29.4592 23.6642H36.1845V22.748H27.3217C27.3217 22.8003 27.3478 22.8527 27.3999 22.905ZM27.0089 21.4915H36.1584V18.8738H26.5658L27.0089 21.4915ZM36.6015 25.1563C38.9475 25.6275 41.2414 26.0463 42.8836 26.3081V21.9103H36.6015V25.1563V25.1563ZM50.1302 18.4549H59.7489L60.192 15.8372H50.1302V18.4549V18.4549ZM50.1302 13.6122V14.5546H60.4787L61.1304 13.6384H50.1302V13.6122ZM65.7442 10.7065L62.6944 14.9996C62.3555 16.832 61.4953 21.5438 61.3911 21.9888C61.1043 23.2977 60.974 24.1092 58.3934 24.7113C54.9526 25.5227 47.0804 27.1195 43.1182 27.7478C39.1561 27.1195 31.2839 25.5489 27.8431 24.7113C25.2625 24.083 25.1321 23.2977 24.8454 21.9888C24.7411 21.5438 23.8809 16.832 23.542 14.9996L20.4922 10.7065H65.7442V10.7065ZM63.3461 11.518H22.8904L25.2885 14.9472C25.8881 18.5073 26.253 20.8109 26.4094 21.6224C26.6701 23.0097 26.7222 23.6118 28.1559 24.0045C31.0232 24.6851 39.2864 26.3866 43.1182 26.9625C46.924 26.3866 55.2132 24.6851 58.0806 24.0045C59.5143 23.6118 59.5664 23.0097 59.8271 21.6224C59.9835 20.8109 60.3484 18.5335 60.9479 14.9472L63.3461 11.518ZM43.3528 20.6276H43.796V19.3188H55.7606C55.7346 19.4497 55.6303 20.3397 55.5782 20.6538H59.3579L59.6706 18.8738H43.3528V20.6276V20.6276ZM43.3528 22.3553H59.045L59.3057 21.0465H43.3528V22.3553ZM49.6871 16.6749H43.3528V17.6173H49.6871V16.6749ZM43.3528 22.748H58.9408C58.9147 22.8003 58.8887 22.8527 58.8626 22.905C58.7583 23.0621 58.5758 23.2453 57.9242 23.4024C55.109 24.1092 47.3671 25.6536 43.3528 26.2819V22.748ZM43.822 25.7845C44.5519 25.6536 46.2984 25.3395 46.924 25.2348C53.2843 24.0045 54.3791 23.8212 54.9265 23.193H43.822V25.7845Z" fill="#3B465E"/>
</g>
</svg>
