<svg width="87" height="50" viewBox="0 0 87 50" fill="none" xmlns="http://www.w3.org/2000/svg">
<g opacity="0.5">
<path fill-rule="evenodd" clip-rule="evenodd" d="M53.4266 13.8551H73.7809L73.7547 13.9071C73.9648 13.9071 74.0436 14.063 73.9385 14.297L68.5807 24.7731C68.5019 24.8771 68.4232 24.955 68.3181 25.033C68.213 25.111 68.108 25.137 67.9767 25.163H53.3741V29.0623C53.3741 29.1663 53.3478 29.2703 53.2691 29.3482C53.1903 29.4002 53.0852 29.4522 52.9802 29.4522H33.8077C33.7027 29.4522 33.5976 29.4262 33.5188 29.3482C33.4663 29.2703 33.4138 29.1663 33.4138 29.0623V25.137H13.0595C12.8494 25.137 12.7706 24.955 12.8756 24.7471L18.2334 14.271C18.3122 14.141 18.391 14.063 18.4961 13.985C18.6011 13.9071 18.7062 13.8551 18.8375 13.8551H33.44V9.92978C33.44 9.8258 33.4663 9.72182 33.5451 9.64384C33.6239 9.59185 33.7289 9.53986 33.834 9.53986H53.0327C53.1377 9.53986 53.2428 9.56585 53.3216 9.64384C53.3741 9.72182 53.4266 9.8258 53.4266 9.92978V13.8551ZM64.221 22.5895L67.3989 16.4026H50.9316V12.0614H35.9876V16.4026H22.6457L19.4678 22.5895H35.9613V26.9307H50.9053V22.5895H64.221Z" fill="#3B465E"/>
<path d="M39.0869 34.7292L37.301 39.4344C37.2747 39.5123 37.2222 39.5383 37.1172 39.5383C37.0121 39.5383 36.9596 39.5383 36.9333 39.4344L35.1474 34.7292H28.5027C27.5835 34.7292 27.1107 35.0672 27.1107 36.2629V38.9664C27.1107 40.1362 27.6097 40.4742 28.5027 40.4742H33.1514V39.4864H29.2381C28.9754 39.4864 28.9229 39.4084 28.9229 39.1484V37.9006H32.8099V36.9648H28.9229V36.029C28.9229 35.769 28.9754 35.691 29.2381 35.691H33.3877C33.9655 37.1468 34.9635 39.6163 35.0686 39.8243C35.1211 40.0063 35.2262 40.1622 35.3838 40.2922C35.5413 40.3962 35.6989 40.4742 35.909 40.4742H37.6424C37.8263 40.4742 38.0101 40.4222 38.1414 40.2922C38.2728 40.1882 38.3778 40.0063 38.4303 39.8243C38.5617 39.5123 40.4789 34.7032 40.4789 34.7032H39.0869V34.7292Z" fill="#3B465E"/>
<path d="M18.4698 35.691H14.898C14.6616 35.691 14.6091 35.769 14.6091 36.0029V39.1484C14.6091 39.4083 14.6616 39.4863 14.9242 39.4863H18.6011V40.4741H14.1626C13.2696 40.4741 12.7969 40.1362 12.7969 38.9664V36.2629C12.7969 35.0671 13.2696 34.7292 14.1626 34.7292H18.4698V35.691Z" fill="#3B465E"/>
<path d="M24.3532 36.9907V34.7292H26.218V40.4741H24.3532V37.9006H21.3855V40.4741H19.5207V34.7292H21.3855V36.9907H24.3532Z" fill="#3B465E"/>
<path fill-rule="evenodd" clip-rule="evenodd" d="M53.3745 34.7292C54.2937 34.7292 54.7928 35.0671 54.7928 36.2629V38.9664C54.7928 40.1362 54.2937 40.4741 53.3745 40.4741H49.4875C48.5683 40.4741 48.0693 40.1362 48.0693 38.9664V36.2629C48.0693 35.0671 48.5683 34.7292 49.4875 34.7292H53.3745ZM52.6391 35.691H50.2492C50.0128 35.665 49.934 35.743 49.934 36.0289V39.1743C49.934 39.4343 49.9865 39.5123 50.2492 39.5123H52.6391C52.9018 39.5123 52.9543 39.4343 52.9543 39.1743V36.0289C52.9543 35.769 52.9018 35.691 52.6391 35.691Z" fill="#3B465E"/>
<path d="M57.8651 39.5123V34.7292H56.1318V40.4741H61.4895V39.5123H57.8651Z" fill="#3B465E"/>
<path d="M61.9365 36.2629C61.9365 35.0671 62.4617 34.7292 63.381 34.7292H74.4642V35.691H72.3106V40.4741H70.4196V35.691H64.1689C63.88 35.691 63.8274 35.769 63.8274 36.0289V36.9647H67.7932V37.9266H63.8274V39.1743C63.8274 39.4343 63.9062 39.5123 64.1689 39.5123H68.1609V40.4741H63.381C62.4355 40.4741 61.9365 40.1362 61.9365 38.9664V36.2629Z" fill="#3B465E"/>
<path d="M45.4692 38.0304C45.4167 37.9784 45.443 37.9524 45.4955 37.9524H46.3359C46.94 37.9524 47.5178 37.7444 47.5703 36.8866C47.5966 36.6006 47.5966 36.3407 47.5703 36.0547C47.5703 35.0929 47.0976 34.755 46.3885 34.755H40.9782V40.4999H42.8166V35.7168H45.5218C45.6793 35.7168 45.7319 35.7688 45.7319 35.8728V36.9646C45.7319 37.0685 45.6268 37.1205 45.4955 37.1205H43.3156V38.0044L45.9945 40.4999H48.5421L45.4692 38.0304Z" fill="#3B465E"/>
</g>
</svg>
