<svg width="503" height="128" viewBox="0 0 503 128" fill="none" xmlns="http://www.w3.org/2000/svg">
<path d="M23.558 105.71V110.017H21.4041V112.126H19.2952V114.28H2.10938V112.037H4.21834L4.21834 86.5048H2.10938V84.2612H19.2952V86.4151H21.4041V88.5689H23.558V92.8317H25.6669V105.71H23.558ZM21.3144 92.9214H19.2054V88.6586H17.0516V86.5048H8.57088V112.037H17.0516V109.928H19.2054V105.665H21.3144V92.9214Z" fill="#FFFCF3"/>
<path d="M27.1989 114.28V112.037H29.3078V86.5048H27.1989V84.2612H35.8142V86.5048H33.6604V112.037H35.8142V114.28H27.1989Z" fill="#FFFCF3"/>
<path d="M58.7944 101.447V114.28H56.5508V112.126H52.3778V114.28H43.7624V112.126H41.6086V110.017H39.4548V105.71H37.3458V91.7548H39.4548V88.5689H41.6086V86.4151H43.7624V84.2612H56.6406V88.6586H54.4419V86.5048H45.9611V88.6586H43.8073V92.9214H41.6983V105.665H43.8073V109.928H45.9611V112.037H52.288V109.928H54.4419V101.447H52.288V99.2483H60.9034V101.447H58.7944Z" fill="#FFFCF3"/>
<path d="M62.4353 114.28V112.037H64.5443V86.5048H62.4353V84.2612H71.0506V86.5048H68.8968V112.037H71.0506V114.28H62.4353Z" fill="#FFFCF3"/>
<path d="M89.6783 88.6586V86.5048H83.3514V112.037H85.4604V114.28H76.845V112.037H78.9989V86.5048H72.672V88.6586H70.4284V84.2612H91.877V88.6586H89.6783Z" fill="#FFFCF3"/>
<path d="M104.025 114.28V112.037H106.179V107.864H104.025V105.71H93.4356V107.864H91.2817V112.037H93.4356V114.28H86.9292V112.037H89.083V107.774H91.192V101.357H93.3458V94.9407H95.4997V88.5689H97.6086V84.2612H101.961V88.5689H104.115V94.9407H106.269V101.357H108.378V107.774H110.532V112.037H112.641V114.28H104.025ZM104.025 101.447H101.871V95.0304H99.7625V90.7676H97.6984V95.0304H95.5445V101.447H93.4356V103.511H104.025V101.447Z" fill="#FFFCF3"/>
<path d="M112.025 114.28V112.037H114.134V86.5048H112.025V84.2612H120.641V86.5048H118.487V112.037H126.968V109.928H129.211V114.28H112.025Z" fill="#FFFCF3"/>
<path d="M360.71 105.71V110.017H358.556V112.126H356.448V114.28H339.262V112.037H341.371V86.5048H339.262V84.2612H356.448V86.4151H358.556V88.5689H360.71V92.8317H362.819V105.71H360.71ZM358.467 92.9214H356.358V88.6586H354.204V86.5048H345.723V112.037H354.204V109.928H356.358V105.665H358.467V92.9214Z" fill="#FFFCF3"/>
<path d="M364.351 114.28V112.037H366.46V86.5048H364.351V84.2612H381.537V88.6586H379.293V86.5048H370.813V97.0945H377.14V94.9407H379.383V101.447H377.14V99.3381H370.813V112.037H379.293V109.928H381.537V114.28H364.351Z" fill="#FFFCF3"/>
<path d="M398.031 110.017V112.126H395.877V114.28H382.999V107.774H385.198V112.037H393.679V109.928H395.788V103.601H393.679V101.447H391.525V99.3381H387.262V97.1842H385.108V95.0304H382.999V88.5689H385.108V86.4151H387.262V84.2612H398.031V88.6586H395.788V86.5048H389.461V88.6586H387.352V92.8317H389.461V94.9407H391.615V97.0945H395.877V99.2483H398.031V101.357H400.185V110.017H398.031Z" fill="#FFFCF3"/>
<path d="M401.647 114.28V112.037H403.756V86.5048H401.647V84.2612H410.263V86.5048H408.109V112.037H410.263V114.28H401.647Z" fill="#FFFCF3"/>
<path d="M433.243 101.447V114.28H430.999V112.126H426.826V114.28H418.211V112.126H416.057V110.017H413.903V105.71H411.794V91.7548H413.903V88.5689H416.057V86.4151H418.211V84.2612H431.089V88.6586H428.89V86.5048H420.409V88.6586H418.256V92.9214H416.147V105.665H418.256V109.928H420.409V112.037H426.736V109.928H428.89V101.447H426.736V99.2483H435.352V101.447H433.243Z" fill="#FFFCF3"/>
<path d="M456.178 86.5048V114.28H451.826V110.017H449.672V105.71H447.563V101.447H445.409V97.1842H443.3V92.9214H441.236V112.037H443.345V114.28H436.884V112.037H438.993V86.5048H436.884V84.2612H443.345V88.5689H445.499V92.8317H447.653V97.0945H449.762V101.357H451.916V105.665H453.98V86.5048H451.826V84.2612H458.332V86.5048H456.178Z" fill="#FFFCF3"/>
<path d="M459.826 114.28V112.037H461.935V86.5048H459.826V84.2612H477.012V88.6586H474.768V86.5048H466.287V97.0945H472.614V94.9407H474.858V101.447H472.614V99.3381H466.287V112.037H474.768V109.928H477.012V114.28H459.826Z" fill="#FFFCF3"/>
<path d="M495.57 114.28V110.017H493.416V105.71H491.262V101.447H484.935V112.037H487.089V114.28H478.474V112.037H480.583V86.5048H478.474V84.2612H493.506V86.4151H495.66V88.5689H497.769V97.1842H495.66V99.3381H493.506V101.357H495.66V105.665H497.769V109.928H499.923V112.037H502.031V114.28H495.57ZM493.416 88.6586H491.262V86.5048H484.935V99.2483H491.262V97.0945H493.416V88.6586Z" fill="#FFFCF3"/>
<path d="M253.408 107.139H250.35V104.08H251.879V102.55H253.408V101.021H254.937V99.491H256.466V97.9614H257.995V96.4318H259.524V93.3726H261.053V91.843H262.581V90.3134H264.11V88.7838H265.639V87.2542H264.11V85.7246H262.581V87.2542H261.053V88.7838H259.524V90.3134H256.466V91.843H254.937V93.3726H253.408V94.9022H251.879V96.4318H250.35V97.9614H248.821V99.491H247.292V101.021H245.763H244.234V97.9614H242.706V96.4318H238.119V97.9614H236.59V101.021H238.119V102.55H241.177V105.609H242.706V107.139H239.648V108.669H238.119V110.198H236.59V114.787H241.177V113.257H242.706V111.728H244.234V108.669H245.763V110.198H248.821V113.257H250.35V114.787H253.408V113.257H254.937V108.669H253.408V107.139Z" fill="#FFFCF3"/>
<path d="M276.341 93.3728H274.812V88.784H273.283V85.7248H271.754V84.1952H270.225V81.136H267.167V79.6064H265.638V78.0768H262.58V76.5472H259.523V75.0176H247.291V76.5472H242.704V78.0768H239.647V79.6064H238.118V81.136H235.06V82.6656H233.531V84.1952H232.002V85.7248H230.473V88.784H228.944V90.3136H227.415V93.3728H225.886V97.9616H224.357V108.669H225.886V113.258H227.415V116.317H228.944V117.846H230.473V120.906H233.531V122.435H235.06V123.965H238.118V125.494H242.704V127.024H251.878V125.494H257.994V123.965H261.051V122.435H262.58V120.906H265.638V119.376H267.167V117.846H268.696V116.317H270.225V113.258H271.754V111.728H273.283V108.669H274.812V104.08H276.341V93.3728ZM254.936 119.376H251.878V120.906H247.291V122.435H242.704V120.906H238.118V119.376H236.589V117.846H235.06V116.317H233.531V114.787H232.002V113.258H230.473V108.669H228.944V104.08H230.473V99.4912H232.002V96.432H233.531V94.9024H235.06V91.8432H236.589V90.3136H238.118V88.784H239.647V87.2544H241.176V85.7248H244.233V84.1952H245.762V82.6656H248.82V81.136H253.407V79.6064H257.994V81.136H262.58V82.6656H264.109V84.1952H265.638V85.7248H267.167V87.2544H268.696V88.784H270.225V93.3728H271.754V97.9616H270.225V102.55H268.696V105.61H267.167V107.139H265.638V110.198H264.109V111.728H262.58V113.258H261.051V114.787H259.523V116.317H256.465V117.846H254.936V119.376Z" fill="#FFFCF3"/>
<path d="M56.2988 7.8234H54.7349V4.69429H51.6072V3.12974H46.9156V1.56519H14.0747V6.25885H18.7663V7.8234H20.3301V10.9525H18.7663V17.2107H17.2024V23.4689H15.6385V29.7272H14.0747V35.9854H12.5108V42.2436H10.947V48.5018H9.38313V54.76H7.81927V56.3246H4.69156V57.8891H0V61.0182H29.7132V57.8891H25.0217V56.3246H23.4578V48.5018H25.0217V42.2436H26.5855V35.9854H28.1494V32.8563H29.7132V34.4208H32.841V35.9854H34.4048V39.1145H35.9687V46.9372H34.4048V54.76H35.9687V59.4537H37.5325V61.0182H39.0964V62.5828H50.0434V61.0182H53.1711V59.4537H54.7349V57.8891H56.2988V53.1955H57.8626V45.3727H54.7349V48.5018H53.1711V53.1955H51.6072V54.76H50.0434V53.1955H48.4795V35.9854H46.9156V32.8563H43.7879V29.7272H46.9156V28.1626H50.0434V26.598H51.6072V25.0335H53.1711V23.4689H54.7349V21.9044H56.2988V15.6462H57.8626V10.9525H56.2988V7.8234ZM42.2241 20.3398H40.6602V23.4689H39.0964V25.0335H37.5325V26.598H35.9687V28.1626H31.2771V29.7272H29.7132V23.4689H31.2771V17.2107H32.841V10.9525H34.4048V6.25885H39.0964V7.8234H40.6602V9.38795H42.2241V20.3398Z" fill="#FFFCF3"/>
<path d="M104.78 48.5012H106.343V45.3721H107.907V42.243H109.471V39.1138H111.035V32.8556H112.599V15.6455H111.035V10.9519H109.471V9.38732H107.907V6.25822H106.343V4.69366H104.78V3.12911H101.652V1.56455H96.9602V0H86.0133V1.56455H79.7578V3.12911H76.6301V4.69366H75.0663V6.25822H73.5024V7.82277H71.9386V9.38732H70.3747V10.9519H68.8109V12.5164H67.247V14.081H65.6832V17.2101H64.1193V18.7746H62.5554V23.4683H60.9916V28.162H59.4277V48.5012H60.9916V51.6303H62.5554V54.7594H64.1193V56.3239H65.6832V57.8885H67.247V59.4531H68.8109V61.0176H71.9386V62.5822H87.5771V61.0176H92.2687V59.4531H95.3964V57.8885H96.9602V56.3239H98.5241V54.7594H100.088V53.1948H101.652V51.6303H103.216V50.0657H104.78V48.5012ZM89.141 50.0657V53.1948H87.5771V54.7594H86.0133V56.3239H84.4494V57.8885H76.6301V56.3239H75.0663V51.6303H73.5024V32.8556H75.0663V26.5974H76.6301V21.9038H78.194V17.2101H79.7578V14.081H81.3217V10.9519H82.8856V9.38732H84.4494V7.82277H86.0133V6.25822H89.141V4.69366H93.8325V6.25822H95.3964V7.82277H96.9602V12.5164H98.5241V26.5974H96.9602V34.4202H95.3964V40.6784H93.8325V43.8075H92.2687V48.5012H90.7048V50.0657H89.141Z" fill="#FFFCF3"/>
<path d="M222.066 51.6309H223.63V50.0664H225.194V48.5018H226.758V45.3727H228.322V42.2436H229.885V39.1145H231.449V32.8563H233.013V18.7753H231.449V12.5171H229.885V10.9525H228.322V7.8234H226.758V6.25885H223.63V4.69429H220.502V3.12974H217.375V1.56519H184.534V4.69429H186.098V6.25885H189.225V7.8234H190.789V10.9525H189.225V18.7753H187.661V25.0335H186.098V31.2917H184.534V37.5499H182.97V43.8081H181.406V50.0664H179.842V54.76H178.278V56.3246H175.151V57.8891H170.459V61.0182H207.991V59.4537H212.683V57.8891H215.811V56.3246H217.375V54.76H220.502V53.1955H222.066V51.6309ZM206.428 53.1955V54.76H204.864V56.3246H195.481V54.76H193.917V50.0664H195.481V43.8081H197.045V37.5499H198.608V31.2917H200.172V25.0335H201.736V18.7753H203.3V12.5171H204.864V6.25885H212.683V7.8234H214.247V9.38795H215.811V12.5171H217.375V35.9854H215.811V40.679H214.247V45.3727H212.683V46.9372H211.119V50.0664H209.555V51.6309H207.991V53.1955H206.428Z" fill="#FFFCF3"/>
<path d="M161.074 6.25885H159.51V4.69429H157.946V3.12974H153.255V1.56519H118.85V4.69429H120.414V6.25885H125.106V14.0816H123.542V20.3398H121.978V26.598H120.414V32.8563H118.85V39.1145H117.286V45.3727H115.722V51.6309H114.159V56.3246H109.467V57.8891H106.339V59.4537H104.775V61.0182H145.436V59.4537H148.563V57.8891H151.691V56.3246H153.255V54.76H154.819V53.1955H156.383V51.6309H157.946V46.9372H159.51V37.5499H157.946V34.4208H156.383V32.8563H154.819V31.2917H151.691V29.7272H150.127V28.1626H153.255V26.598H156.383V25.0335H157.946V23.4689H159.51V21.9044H161.074V18.7753H162.638V7.8234H161.074V6.25885ZM128.233 54.76V51.6309H129.797V45.3727H131.361V39.1145H132.925V32.8563H134.489V31.2917H137.616V32.8563H140.744V34.4208H142.308V35.9854H143.872V39.1145H145.436V45.3727H143.872V50.0664H142.308V51.6309H140.744V54.76H137.616V56.3246H129.797V54.76H128.233ZM145.436 21.9044V23.4689H143.872V25.0335H142.308V26.598H137.616V28.1626H134.489V26.598H136.052V20.3398H137.616V14.0816H139.18V7.8234H140.744V6.25885H145.436V7.8234H146.999V10.9525H148.563V17.2107H146.999V21.9044H145.436Z" fill="#FFFCF3"/>
<path d="M451.951 53.1948V46.9366H453.515V42.2429H455.079V40.6784H451.951V42.2429H450.387V45.3721H448.823V46.9366H447.26V50.0657H445.696V51.6303H444.132V53.1948H442.568V54.7594H441.004V56.3239H436.313V57.8885H431.621V56.3239H428.493V48.5012H430.057V42.2429H431.621V35.9847H433.185V29.7265H434.749V23.4683H436.313V17.2101H437.876V10.9519H439.44V7.82277H441.004V6.25821H445.696V4.69366H447.26V1.56455H417.546V4.69366H420.674V6.25821H423.802V7.82277H425.366V9.38732H423.802V15.6455H422.238V21.9038H420.674V29.7265H419.11V35.9847H417.546V42.2429H415.982V48.5012H414.419V53.1948H412.855V56.3239H409.727V57.8885H405.035V56.3239H406.599V50.0657H408.163V45.3721H409.727V42.2429H405.035V45.3721H403.472V46.9366H401.908V48.5012H400.344V51.6303H398.78V53.1948H397.216V54.7594H395.652V56.3239H389.397V57.8885H384.705V56.3239H381.578V54.7594H380.014V53.1948H381.578V46.9366H383.141V40.6784H384.705V34.4202H386.269V32.8556H392.525V34.4202H394.088V43.8075H398.78V39.1138H400.344V32.8556H401.908V26.5974H403.472V20.3392H405.035V17.2101H400.344V20.3392H398.78V23.4683H397.216V25.0329H395.652V26.5974H394.088V28.162H387.833V21.9038H389.397V15.6455H390.961V9.38732H392.525V6.25821H405.035V7.82277H406.599V10.9519H408.163V18.7746H412.855V12.5164H414.419V6.25821H415.982V1.56455H320.587V4.69366H322.151V6.25821H325.279V7.82277H326.843V18.7746H325.279V25.0329H323.715V31.2911H322.151V37.5493H319.023V34.4202H317.46V29.7265H315.896V25.0329H314.332V21.9038H312.768V17.2101H311.204V12.5164H309.64V9.38732H308.076V4.69366H306.513V1.56455H286.183V4.69366H287.746V6.25821H290.874V7.82277H292.438V17.2101H290.874V23.4683H289.31V29.7265H287.746V35.9847H286.183V42.2429H284.619V48.5012H283.055V51.6303H281.491V54.7594H279.927V56.3239H273.672V54.7594H272.108V39.1138H270.544V14.081H268.98V0H261.161V3.12911H259.597V6.25821H258.033V7.82277H256.469V10.9519H254.905V14.081H253.342V17.2101H251.778V18.7746H250.214V21.9038H248.65V25.0329H247.086V26.5974H245.522V29.7265H243.958V32.8556H242.395V34.4202H240.831V37.5493H239.267V40.6784H237.703V42.2429H236.139V45.3721H234.575V48.5012H233.011V50.0657H231.448V53.1948H229.884V54.7594H228.32V56.3239H225.192V57.8885H222.064V61.0176H243.958V57.8885H240.831V56.3239H237.703V51.6303H239.267V48.5012H240.831V45.3721H242.395V42.2429H258.033V54.7594H256.469V56.3239H254.905V57.8885H250.214V61.0176H295.566V57.8885H294.002V56.3239H290.874V54.7594H289.31V43.8075H290.874V37.5493H292.438V31.2911H294.002V25.0329H295.566V18.7746H298.693V23.4683H300.257V26.5974H301.821V31.2911H303.385V35.9847H304.949V39.1138H306.513V43.8075H308.076V48.5012H309.64V51.6303H311.204V56.3239H312.768V59.453H314.332V61.0176H320.587V57.8885H322.151V51.6303H323.715V45.3721H325.279V39.1138H326.843V32.8556H328.407V26.5974H329.97V20.3392H331.534V14.081H333.098V10.9519H334.662V7.82277H336.226V6.25821H340.917V4.69366H344.045V6.25821H347.173V7.82277H348.737V9.38732H347.173V17.2101H345.609V23.4683H344.045V29.7265H342.481V35.9847H340.917V42.2429H339.354V48.5012H337.79V53.1948H336.226V56.3239H333.098V57.8885H328.407V61.0176H448.823V59.453H450.387V54.7594H451.951V53.1948ZM247.086 34.4202H248.65V31.2911H250.214V28.162H251.778V26.5974H253.342V23.4683H254.905V20.3392H256.469V35.9847H247.086V34.4202ZM351.864 56.3239V48.5012H353.428V42.2429H354.992V35.9847H356.556V29.7265H358.12V23.4683H359.684V17.2101H361.248V10.9519H362.811V7.82277H364.375V6.25821H369.067V4.69366H372.195V6.25821H376.886V15.6455H375.322V21.9038H373.758V28.162H372.195V34.4202H370.631V40.6784H369.067V46.9366H367.503V53.1948H365.939V56.3239H361.248V57.8885H354.992V56.3239H351.864Z" fill="#FFFCF3"/>
<path d="M497.309 1.56455V3.12911H494.181V1.56455H489.49V0H476.979V1.56455H472.287V3.12911H469.159V4.69366H467.596V6.25822H466.032V7.82277H464.468V9.38732H462.904V12.5164H461.34V26.5974H462.904V29.7265H464.468V31.2911H466.032V32.8556H467.596V34.4202H470.723V35.9847H473.851V37.5493H475.415V39.1138H478.543V40.6784H480.106V42.243H481.67V45.3721H483.234V48.5012V50.0657H481.67V53.1948H480.106V54.7594H478.543V56.3239H476.979V57.8885H467.596V56.3239H466.032V54.7594H464.468V51.6303H462.904V48.5012H461.34V46.9366V43.8075H459.776V39.1138H458.212V42.243H456.649V43.8075V46.9366H455.085V53.1948H453.521V57.8885H451.957V62.5822H455.085V61.0176H456.649V59.4531H459.776V61.0176H462.904H464.468V62.5822H466.032H467.596H480.106V61.0176H484.798V59.4531H487.926V57.8885H489.49V56.3239H491.053V54.7594H492.617V51.6303H494.181V48.5012H495.745V35.9847H494.181V32.8556H492.617V31.2911H491.053V29.7265H489.49V28.162H486.362V26.5974H483.234V25.0329H481.67V23.4683H478.543V21.9038H476.979V20.3392H475.415V18.7746H473.851V14.081V12.5164V10.9519H475.415V7.82277H476.979V6.25822H480.106V4.69366H486.362V6.25822H487.926V7.82277H489.49V9.38732H491.053V12.5164H492.617V18.7746H494.181V23.4683H497.309V18.7746H498.873V12.5164H500.437V9.38732V7.82277V6.25822H502V4.69366V3.12911V1.56455H497.309Z" fill="#FFFCF3"/>
</svg>
