<svg width="32" height="32" viewBox="0 0 32 32" fill="none" xmlns="http://www.w3.org/2000/svg">
<circle cx="16" cy="16" r="16" fill="#FFFCF3"/>
<path d="M14.0481 23.0191C20.0934 23.0191 23.4014 18.0123 23.4014 13.6657C23.4014 13.5213 23.4014 13.3837 23.3945 13.2393C24.0341 12.7785 24.5912 12.1939 25.0314 11.5406C24.4399 11.8019 23.8072 11.9807 23.147 12.0564C23.8278 11.6506 24.3436 11.0041 24.5912 10.2407C23.9585 10.619 23.2501 10.8941 22.5005 11.0385C21.9021 10.3989 21.0493 10 20.1002 10C18.2846 10 16.8128 11.4718 16.8128 13.2874C16.8128 13.5488 16.8403 13.7964 16.9022 14.0371C14.1719 13.8995 11.7441 12.5928 10.1279 10.6052C9.84593 11.0935 9.68087 11.6575 9.68087 12.2558C9.68087 13.3975 10.2586 14.4016 11.1458 14.993C10.6093 14.9793 10.1004 14.828 9.65336 14.5804V14.6217C9.65336 16.2104 10.7881 17.5446 12.2874 17.8472C12.0123 17.9228 11.7235 17.9641 11.4209 17.9641C11.2077 17.9641 11.0013 17.9435 10.8019 17.9022C11.2214 19.2089 12.4319 20.158 13.8692 20.1855C12.7413 21.0658 11.3246 21.5954 9.78403 21.5954C9.51581 21.5954 9.25447 21.5817 9 21.5473C10.4511 22.4757 12.1843 23.0259 14.0412 23.0259" fill="#3B465E"/>
</svg>
