<svg width="46" height="46" viewBox="0 0 46 46" fill="none" xmlns="http://www.w3.org/2000/svg">
<path d="M23 46C10.32 46 0 35.68 0 23C0 10.32 10.32 0 23 0C35.68 0 46 10.32 46 23C46 35.68 35.68 46 23 46ZM23 1C10.87 1 1 10.87 1 23C1 35.13 10.87 45 23 45C35.13 45 45 35.13 45 23C45 10.87 35.13 1 23 1Z" fill="#FCFFFF"/>
<path fill-rule="evenodd" clip-rule="evenodd" d="M23 11C16.38 11 11 16.38 11 23C11 29.62 16.38 35 23 35C29.62 35 35 29.62 35 23C35 16.38 29.61 11 23 11ZM30.93 16.53C32.36 18.27 33.22 20.5 33.25 22.91C32.91 22.85 29.53 22.15 26.12 22.58C26.04 22.41 25.98 22.23 25.9 22.05C25.69 21.56 25.46 21.05 25.22 20.57C29 19.03 30.71 16.82 30.93 16.54V16.53ZM23 12.77C25.6 12.77 27.98 13.75 29.79 15.35C29.61 15.61 28.06 17.68 24.41 19.05C22.73 15.97 20.87 13.44 20.58 13.05C21.35 12.87 22.15 12.78 22.99 12.78L23 12.77ZM18.64 13.73C18.91 14.09 20.74 16.63 22.44 19.65C17.65 20.92 13.42 20.9 12.96 20.9C13.62 17.72 15.77 15.08 18.63 13.73H18.64ZM12.74 23.01V22.7C13.18 22.71 18.15 22.78 23.27 21.24C23.57 21.81 23.84 22.4 24.1 22.98C23.97 23.02 23.83 23.06 23.7 23.1C18.42 24.8 15.6 29.46 15.37 29.86C13.74 28.05 12.74 25.64 12.74 23.02V23.01ZM23 33.25C20.63 33.25 18.44 32.44 16.71 31.09C16.89 30.71 18.98 26.7 24.75 24.69C24.78 24.68 24.79 24.68 24.81 24.66C26.25 28.39 26.84 31.53 27 32.43C25.76 32.96 24.41 33.25 22.99 33.25H23ZM28.71 31.49C28.61 30.87 28.06 27.87 26.72 24.19C29.93 23.68 32.75 24.52 33.1 24.63C32.66 27.48 31.02 29.94 28.71 31.49Z" fill="#FCFFFF"/>
</svg>
