<svg width="46" height="46" viewBox="0 0 46 46" fill="none" xmlns="http://www.w3.org/2000/svg">
<path d="M23 46C10.32 46 0 35.68 0 23C0 10.32 10.32 0 23 0C35.68 0 46 10.32 46 23C46 35.68 35.68 46 23 46ZM23 1C10.87 1 1 10.87 1 23C1 35.13 10.87 45 23 45C35.13 45 45 35.13 45 23C45 10.87 35.13 1 23 1Z" fill="#FCFFFF"/>
<path d="M23.34 13.04C26.37 13.04 26.72 13.05 27.92 13.11C29.02 13.16 29.62 13.34 30.02 13.5C30.55 13.71 30.93 13.95 31.32 14.35C31.72 14.75 31.96 15.12 32.17 15.65C32.32 16.05 32.51 16.65 32.56 17.75C32.61 18.94 32.63 19.3 32.63 22.33C32.63 25.36 32.62 25.71 32.56 26.91C32.51 28.01 32.32 28.61 32.17 29.01C31.96 29.54 31.72 29.92 31.32 30.31C30.92 30.71 30.55 30.95 30.02 31.16C29.62 31.31 29.02 31.5 27.92 31.55C26.73 31.6 26.37 31.62 23.34 31.62C20.31 31.62 19.96 31.61 18.76 31.55C17.66 31.5 17.06 31.32 16.66 31.16C16.13 30.95 15.75 30.71 15.36 30.31C14.96 29.91 14.72 29.54 14.51 29.01C14.36 28.61 14.17 28.01 14.12 26.91C14.07 25.72 14.05 25.36 14.05 22.33C14.05 19.3 14.06 18.95 14.12 17.75C14.17 16.65 14.36 16.05 14.51 15.65C14.72 15.12 14.96 14.74 15.36 14.35C15.76 13.95 16.13 13.71 16.66 13.5C17.06 13.35 17.66 13.16 18.76 13.11C19.95 13.06 20.31 13.04 23.34 13.04ZM23.34 11C20.26 11 19.88 11.01 18.67 11.07C17.46 11.13 16.64 11.32 15.92 11.6C15.18 11.89 14.54 12.28 13.91 12.91C13.28 13.54 12.89 14.17 12.6 14.92C12.32 15.64 12.13 16.46 12.07 17.67C12.01 18.88 12 19.26 12 22.34C12 25.42 12.01 25.8 12.07 27.01C12.13 28.22 12.32 29.04 12.6 29.76C12.89 30.5 13.28 31.14 13.91 31.77C14.54 32.4 15.17 32.79 15.92 33.08C16.64 33.36 17.46 33.55 18.67 33.61C19.88 33.67 20.27 33.68 23.34 33.68C26.41 33.68 26.8 33.67 28.01 33.61C29.22 33.55 30.04 33.36 30.76 33.08C31.5 32.79 32.14 32.4 32.77 31.77C33.4 31.14 33.79 30.51 34.08 29.76C34.36 29.04 34.55 28.22 34.61 27.01C34.67 25.8 34.68 25.42 34.68 22.34C34.68 19.26 34.67 18.88 34.61 17.67C34.55 16.46 34.36 15.64 34.08 14.92C33.79 14.18 33.4 13.54 32.77 12.91C32.14 12.28 31.51 11.89 30.76 11.6C30.04 11.32 29.22 11.13 28.01 11.07C26.8 11.01 26.41 11 23.34 11Z" fill="#FCFFFF"/>
<path d="M23.3298 16.5098C20.1198 16.5098 17.5098 19.1198 17.5098 22.3298C17.5098 25.5398 20.1098 28.1498 23.3298 28.1498C26.5498 28.1498 29.1498 25.5398 29.1498 22.3298C29.1498 19.1198 26.5498 16.5098 23.3298 16.5098ZM23.3298 26.1098C21.2398 26.1098 19.5498 24.4198 19.5498 22.3298C19.5498 20.2398 21.2398 18.5498 23.3298 18.5498C25.4198 18.5498 27.1098 20.2398 27.1098 22.3298C27.1098 24.4198 25.4198 26.1098 23.3298 26.1098Z" fill="#FCFFFF"/>
<path d="M29.3898 17.6399C30.1398 17.6399 30.7498 17.0299 30.7498 16.2799C30.7498 15.5299 30.1398 14.9199 29.3898 14.9199C28.6398 14.9199 28.0298 15.5299 28.0298 16.2799C28.0298 17.0299 28.6398 17.6399 29.3898 17.6399Z" fill="#FCFFFF"/>
</svg>
