<svg width="87" height="50" viewBox="0 0 87 50" fill="none" xmlns="http://www.w3.org/2000/svg">
<path d="M50.3613 20.5629L50.3875 19.809L48.1551 21.7067L48.1289 22.4086L46.4217 23.8643L45.8439 26.1779L48.0238 24.2802L47.9975 25.0341L50.2299 23.1364L50.2825 22.3826L51.9896 20.9528L52.5674 18.6392L50.3613 20.5629ZM51.3593 21.1608L49.941 22.3306L49.9148 23.0324L48.3915 24.3322L48.4178 23.6303L46.7631 25.0601L47.052 23.7863L48.4703 22.5905L48.4965 21.9146L50.0198 20.6149L49.9936 21.3168L51.6482 19.887L51.3593 21.1608Z" fill="#0C2036"/>
<path d="M55.2724 14.74V14.87C55.3512 14.688 55.6401 14.0641 55.7977 14.1421C55.7977 14.1421 56.0078 14.2461 55.9553 15.0259L55.7714 15.1819C55.7452 15.2079 55.7452 15.2339 55.7189 15.2599V15.4159C55.7189 15.4159 55.7189 15.4159 55.7452 15.4159L55.929 15.2599C55.9028 15.4159 55.8502 15.5718 55.7452 15.7018C55.7452 15.7278 55.7452 15.7798 55.7452 15.8058C55.7715 15.7798 55.7977 15.7798 55.824 15.7538C55.9028 15.7798 55.9553 16.0137 55.9553 16.0137H55.9816C56.0341 15.8318 56.1129 15.6238 56.1917 15.4418L56.2705 15.3639C56.2705 15.3639 56.2967 15.2339 56.2705 15.2339C56.1654 15.2859 56.1391 15.1819 56.1391 15.0779L56.323 14.9219C56.3492 14.8959 56.3492 14.87 56.3492 14.844V14.688C56.3492 14.688 56.3492 14.688 56.323 14.688L56.1917 14.818C56.2442 14.35 56.3755 13.8821 56.5594 13.4402C56.7957 13.0243 56.9796 13.2842 57.0321 13.3102V13.2582C57.0321 13.0763 57.0321 12.6863 56.822 12.7123C56.822 12.7123 56.6381 12.6864 56.323 13.4402C56.4018 13.1543 56.4543 12.8683 56.5068 12.5824C56.5068 12.4004 56.4806 12.1924 56.4018 12.0365C56.4018 12.0365 56.3492 11.9845 56.323 12.0365C56.2967 12.0885 56.2442 12.1404 56.2442 12.1924C56.1129 12.4524 56.0341 12.7383 56.0078 13.0243C56.0078 13.2582 56.0078 13.4922 56.0341 13.7522C55.8502 13.4922 55.6139 13.7522 55.6139 13.7522C55.3775 14.0641 55.2462 14.402 55.2724 14.74C55.2462 14.766 55.2462 14.766 55.2724 14.74Z" fill="#0C2036"/>
<path d="M58.319 8.50109C58.2665 8.50109 58.214 8.55308 58.214 8.55308C58.214 8.55308 53.1976 13.0243 51.7531 14.35C51.6481 14.454 51.5693 14.558 51.543 14.714L51.3329 15.8318L53.4603 14.7659L43.4539 23.2404L33.3949 14.74L35.5223 15.8058L35.3121 14.688C35.2859 14.558 35.2071 14.428 35.102 14.324C33.6575 12.9983 28.6412 8.52709 28.6412 8.52709C28.6412 8.52709 28.5624 8.4751 28.5099 8.4751C28.4573 8.50109 28.4574 8.55308 28.4574 8.55308C28.4574 8.57908 28.6675 10.5027 28.825 12.3744C29.0089 14.532 29.1402 15.4418 29.1402 15.4418C29.2978 16.1957 29.6392 16.8976 30.1382 17.4695C30.2433 17.5994 32.4232 20.121 32.4494 20.147V20.173L32.5807 21.0568C32.712 21.8367 33.0797 22.5645 33.6313 23.1364L34.2091 23.7343C35.6536 25.268 39.0678 28.9334 40.1184 29.9992C40.276 30.1551 40.4073 30.3111 40.5123 30.4671C40.6174 30.649 40.6962 30.831 40.7487 31.013C40.8538 31.4809 41.1689 32.5207 41.4841 33.5865L41.5629 33.8205C41.5629 33.8205 41.6417 34.0804 41.6942 34.1584C41.773 34.3144 41.8518 34.4703 41.9568 34.6003L43.4013 36.264L43.4276 36.29H43.4801C43.4801 36.29 43.5064 36.29 43.5064 36.264L44.9509 34.6003C45.0559 34.4703 45.161 34.3144 45.2135 34.1584C45.266 34.0804 45.3448 33.8205 45.3448 33.8205L45.4236 33.5865C45.7388 32.4947 46.054 31.4809 46.159 31.013C46.2115 30.831 46.2903 30.649 46.3954 30.4671C46.5267 30.3111 46.658 30.1551 46.7893 29.9992C47.8136 28.9594 51.2541 25.32 52.6986 23.7343L53.2764 23.1364C53.828 22.5645 54.1957 21.8367 54.327 21.0568L54.4583 20.173V20.147C54.4846 20.121 56.6644 17.5734 56.7695 17.4695C57.2685 16.8976 57.6099 16.1957 57.7412 15.4418C57.7412 15.4418 57.8726 14.532 58.0564 12.3744C58.214 10.5287 58.4241 8.55308 58.4241 8.55308C58.4241 8.52709 58.4241 8.52709 58.4241 8.50109C58.3453 8.52709 58.3453 8.50109 58.319 8.50109ZM32.1605 13.6741C32.1343 13.6741 32.0817 13.6741 32.0555 13.7001C32.0292 13.7261 32.0029 13.7521 31.9767 13.8041C31.9767 13.8301 31.9767 13.8301 31.9767 13.8561C31.9767 13.8821 31.9767 13.9601 31.9767 14.0901L32.3444 18.6132C31.3201 17.5474 30.4534 16.6376 30.2958 16.4556C30.0069 16.1437 29.8231 15.7538 29.7705 15.3378L29.219 9.82685L33.9202 14.1161L32.1605 13.6741ZM42.3508 33.5085L42.2983 33.4305C42.272 33.4045 42.272 33.3526 42.272 33.3266C42.1407 32.6507 41.5891 29.9212 41.5104 29.6612C41.4841 29.5572 41.4316 29.4273 41.379 29.3233C41.3265 29.1933 41.2215 29.0633 41.1164 28.9594C41.1164 28.9594 34.3929 22.4086 33.8939 21.9146C33.4737 21.4727 33.2373 20.9268 33.1848 20.3289L32.712 14.9999C32.712 14.9999 41.0376 22.1486 41.7993 22.8245C42.0356 23.0324 42.2195 23.2664 42.3771 23.5263C42.5084 23.7603 42.5609 24.0463 42.5609 24.3062L43.0074 34.3664L42.3508 33.5085ZM53.6441 20.3029C53.5916 20.9008 53.329 21.4467 52.9087 21.8626C52.436 22.3566 45.6863 28.9074 45.6863 28.9074C45.5812 29.0113 45.5024 29.1413 45.4236 29.2713C45.3711 29.3753 45.3448 29.5053 45.2923 29.6092C45.2135 29.8692 44.662 32.5987 44.5307 33.2746C44.5307 33.3266 44.5044 33.3526 44.5044 33.3785L44.4519 33.4825L43.7953 34.3404L44.2418 24.3062C44.2418 24.0463 44.3206 23.7603 44.4256 23.5263C44.5569 23.2664 44.767 23.0064 45.0034 22.8245C45.7651 22.1486 54.0906 14.9999 54.0906 14.9999L53.6441 20.3029ZM57.0059 15.3378C56.9533 15.7538 56.7695 16.1697 56.4806 16.4816C56.323 16.6636 55.4563 17.5734 54.432 18.6392L54.7997 14.1161C54.7997 13.9861 54.7997 13.9081 54.7997 13.8821C54.7997 13.8561 54.7997 13.8041 54.7735 13.7781C54.7472 13.7521 54.7209 13.7261 54.6684 13.7261C54.6421 13.7261 54.6421 13.7261 54.6159 13.7261L52.8037 14.1421L57.5049 9.85284L57.0059 15.3378Z" fill="#0C2036"/>
<path d="M39.4357 20.9008L39.5408 22.9804L36.3629 20.0949L36.2316 18.1453L39.4357 20.9008ZM33.5264 19.393L33.3426 17.3394L36.3629 20.0949L36.4942 22.1745L33.5264 19.393ZM36.6255 24.1762L36.4942 22.1485L39.6458 25.086L39.7509 27.2956L36.6255 24.1762ZM39.6721 25.086L39.567 22.9804L42.6661 25.7879L42.7712 27.9715L39.6721 25.086Z" fill="#0C2036"/>
<path d="M31.9509 16.3258L30.0074 14.1942L29.7973 12.0106L31.8459 14.1682L32.0297 16.4298L31.9509 16.3258Z" fill="#0C2036"/>
<path d="M32.0291 12.4787L33.815 13.8044L32.1341 13.4665L32.0291 12.4787Z" fill="#0C2036"/>
<path d="M18.8714 42.087C18.5037 42.087 18.2673 41.983 18.1886 41.7751C18.1623 41.6711 18.1623 41.5411 18.1886 41.4371C18.2148 41.3332 18.2673 41.2292 18.3461 41.1512L18.5037 40.9172L18.9239 40.2674C19.2391 39.8254 19.5543 39.4355 20.4998 39.4355H25.6999C25.8838 39.4355 26.0676 39.4355 26.2515 39.4875C26.3303 39.4875 26.3828 39.5135 26.4616 39.5655C26.5141 39.6175 26.5666 39.6695 26.6192 39.7215C26.6454 39.7735 26.6454 39.8254 26.6454 39.8774C26.6454 39.9294 26.6454 39.9814 26.6192 40.0334C26.5666 40.1894 26.4878 40.3194 26.4091 40.4233L25.8575 41.2552C25.5424 41.6971 25.2272 42.087 24.2554 42.087H18.8714ZM20.6048 40.0334C20.526 40.0334 20.4472 40.0594 20.3684 40.0854C20.2896 40.1374 20.2109 40.1894 20.1846 40.2674L19.9482 40.6313L19.5543 41.2292C19.528 41.2552 19.528 41.2812 19.5017 41.3332C19.5017 41.3592 19.5017 41.4112 19.5017 41.4371C19.5017 41.4891 19.5805 41.5151 19.6331 41.5151H24.2029C24.308 41.5411 24.3868 41.5151 24.4656 41.4631C24.5443 41.4112 24.6231 41.3592 24.6757 41.2552L25.0171 40.7613C25.1484 40.5533 25.2535 40.3973 25.306 40.3194C25.3323 40.2934 25.3323 40.2674 25.3585 40.2154C25.3585 40.1894 25.3585 40.1374 25.3585 40.1114C25.3323 40.0854 25.3323 40.0594 25.306 40.0594C25.2797 40.0334 25.2535 40.0334 25.2272 40.0334H20.6048Z" fill="#0C2036"/>
<path d="M10.4145 42.087C10.0468 42.087 9.8104 41.983 9.73161 41.775C9.70535 41.6711 9.70535 41.5411 9.73161 41.4371C9.75788 41.3331 9.8104 41.2291 9.88919 41.1512L10.4933 40.2673C10.6771 39.9814 10.9135 39.7474 11.2024 39.6174C11.4913 39.4615 11.8064 39.4095 12.1216 39.4615H18.136C18.1622 39.4615 18.1622 39.4615 18.1885 39.4615C18.2148 39.4615 18.2148 39.4875 18.2148 39.4875C18.2148 39.5135 18.2148 39.5394 18.2148 39.5394C18.2148 39.5654 18.2148 39.5654 18.1885 39.5914L17.9784 39.9034C17.9521 39.9294 17.9259 39.9814 17.8733 39.9814C17.8471 40.0074 17.7945 40.0074 17.742 40.0074H12.1741C12.0953 40.0074 11.9903 40.0334 11.9115 40.0593C11.8327 40.1113 11.7539 40.1633 11.7014 40.2413L11.4387 40.6312C11.3074 40.8392 11.1761 41.0212 11.0448 41.2031C11.0185 41.2291 11.0185 41.2551 10.9923 41.3071C10.9923 41.3331 10.9923 41.3851 10.9923 41.4111C10.9923 41.4631 11.0711 41.4891 11.1498 41.4891H16.6915C16.7177 41.4891 16.7177 41.4891 16.744 41.4891C16.7703 41.4891 16.7703 41.5151 16.7703 41.5151C16.7703 41.5411 16.7703 41.5671 16.7703 41.5671C16.7703 41.5931 16.744 41.5931 16.744 41.6191L16.6652 41.749L16.5339 41.931C16.5076 41.957 16.4814 42.009 16.4288 42.009C16.4026 42.035 16.35 42.035 16.2975 42.061H10.4145V42.087Z" fill="#0C2036"/>
<path d="M69.3759 42.087C68.9819 42.087 68.7455 41.983 68.6667 41.775C68.6405 41.6711 68.6405 41.5411 68.6667 41.4371C68.693 41.3331 68.7455 41.2291 68.8243 41.1512L69.4547 40.2673C69.6385 39.9814 69.8749 39.7474 70.19 39.6174C70.4789 39.4615 70.8204 39.4095 71.1355 39.4615H77.5176C77.5438 39.4615 77.5438 39.4615 77.5701 39.4615C77.5964 39.4615 77.5964 39.4875 77.5964 39.4875C77.5964 39.5135 77.5964 39.5394 77.5964 39.5394C77.5964 39.5654 77.5701 39.5654 77.5701 39.5914C77.5176 39.6434 77.4125 39.8254 77.36 39.9034C77.3337 39.9294 77.3075 39.9814 77.2549 39.9814C77.2287 40.0074 77.1762 40.0074 77.1236 40.0074H71.2143C71.1355 40.0074 71.0305 40.0334 70.9517 40.0593C70.8729 40.1113 70.7941 40.1633 70.7416 40.2413L70.6103 40.4233H76.8085C76.8347 40.4233 76.8347 40.4233 76.861 40.4233C76.8873 40.4233 76.8873 40.4493 76.8873 40.4493C76.8873 40.4753 76.8873 40.4753 76.8873 40.5013C76.8873 40.5273 76.8873 40.5273 76.861 40.5533L76.6509 40.8652C76.6246 40.8912 76.5984 40.9432 76.5458 40.9432C76.5196 40.9692 76.467 40.9692 76.4145 40.9952H70.19L70.0325 41.2031C70.0062 41.2291 70.0062 41.2551 70.0062 41.2811C70.0062 41.3071 70.0062 41.3331 70.0062 41.3851C70.0325 41.4111 70.0587 41.4371 70.085 41.4371C70.1112 41.4371 70.1375 41.4631 70.1638 41.4371H76.0468C76.0731 41.4371 76.0731 41.4371 76.0993 41.4371C76.1256 41.4371 76.1256 41.4631 76.1256 41.4631C76.1256 41.4891 76.1256 41.5151 76.1256 41.5151C76.1256 41.5411 76.0993 41.5411 76.0993 41.5671L75.8892 41.879C75.863 41.905 75.8367 41.957 75.7842 41.957C75.7579 41.983 75.7054 41.983 75.6529 41.983L69.3759 42.087Z" fill="#0C2036"/>
<path d="M44.7934 42.087C44.4257 42.087 44.1893 41.983 44.1105 41.775C44.0843 41.6711 44.0843 41.5411 44.1105 41.4371C44.1368 41.3331 44.1893 41.2291 44.2681 41.1512L44.3206 41.0732C44.4782 40.8392 44.7409 40.4493 44.8459 40.2673C45.0298 39.9814 45.2661 39.7474 45.5288 39.6174C45.8177 39.4615 46.1066 39.4095 46.4217 39.4615H52.4886C52.5149 39.4615 52.5149 39.4615 52.5411 39.4615C52.5674 39.4615 52.5674 39.4875 52.5674 39.4875C52.5674 39.5135 52.5674 39.5394 52.5674 39.5394C52.5674 39.5654 52.5411 39.5654 52.5411 39.5914C52.4886 39.6434 52.3836 39.8254 52.331 39.9034C52.3048 39.9294 52.2785 39.9814 52.226 39.9814C52.1997 40.0074 52.1472 40.0074 52.0947 40.0074H46.4743C46.3955 40.0074 46.2904 40.0334 46.2116 40.0593C46.1328 40.1113 46.054 40.1633 46.0015 40.2413L45.8702 40.4233H51.7532C51.7795 40.4233 51.7795 40.4233 51.8058 40.4233C51.832 40.4233 51.832 40.4493 51.832 40.4493C51.832 40.4753 51.832 40.4753 51.832 40.5013C51.832 40.5273 51.832 40.5273 51.8058 40.5533L51.5957 40.8652C51.5694 40.8912 51.5431 40.9432 51.4906 40.9432C51.4643 40.9692 51.4118 40.9692 51.3855 40.9952H45.4762L45.3449 41.1771C45.3187 41.2031 45.2924 41.2291 45.2924 41.2811C45.2924 41.3071 45.2924 41.3591 45.2924 41.3851C45.3187 41.4371 45.3712 41.4631 45.4237 41.4631H51.0179C51.0441 41.4631 51.0441 41.4631 51.0704 41.4631C51.0966 41.4631 51.0966 41.4891 51.0966 41.5151C51.0966 41.5411 51.0966 41.5411 51.0966 41.5671C51.0966 41.5931 51.0966 41.5931 51.0704 41.6191L50.9916 41.749L50.8603 41.931C50.834 41.957 50.8078 42.009 50.7552 42.009C50.729 42.035 50.6764 42.035 50.6502 42.061L44.7934 42.087Z" fill="#0C2036"/>
<path d="M55.3249 42.0871C55.2987 42.0871 55.2987 42.0871 55.2724 42.0871C55.2462 42.0871 55.2462 42.0611 55.2462 42.0611C55.2462 42.0611 55.2462 42.0091 55.2724 41.9571L56.5331 40.1115C56.5331 40.0855 56.5593 40.0595 56.5331 40.0595C56.5068 40.0595 56.5331 40.0595 56.4805 40.0595H53.5653C53.5128 40.0595 53.4865 40.0595 53.4865 40.0075C53.4865 39.9555 53.4865 39.9555 53.5128 39.9035C53.539 39.8515 53.5915 39.7735 53.6441 39.6955L53.7229 39.5915C53.7491 39.5655 53.7754 39.5136 53.8279 39.4876C53.8542 39.4616 53.9067 39.4616 53.9592 39.4616H60.9716C61.0241 39.4616 61.0504 39.4876 61.0504 39.5136C61.0504 39.5396 61.0504 39.5655 61.0504 39.5655C61.0504 39.5915 61.0504 39.5915 61.0241 39.6175L60.814 39.9295C60.7878 39.9555 60.7615 40.0075 60.709 40.0075C60.6827 40.0335 60.6302 40.0335 60.5777 40.0335H57.8725C57.8463 40.0335 57.7937 40.0595 57.7675 40.0595C57.7412 40.0855 57.7149 40.1114 57.6887 40.1374L56.428 41.9831C56.4018 42.0091 56.3755 42.0611 56.323 42.0611C56.2967 42.0871 56.2442 42.0871 56.1916 42.0871H55.3249Z" fill="#0C2036"/>
<path d="M63.3354 42.0609C63.3091 42.0609 63.3091 42.0609 63.2829 42.0609C63.2566 42.0609 63.2566 42.0349 63.2566 42.0349C63.2566 42.0349 63.2566 41.9829 63.2829 41.9309L64.4647 40.2152L64.5173 40.1113C64.5173 40.0853 64.5435 40.0853 64.5435 40.0593C64.5435 40.0593 64.5173 40.0593 64.491 40.0593H61.5757C61.5232 40.0593 61.497 40.0593 61.497 40.0073C61.497 39.9553 61.497 39.9553 61.5232 39.9033L61.7596 39.5914C61.7859 39.5654 61.8121 39.5134 61.8646 39.5134C61.8909 39.4874 61.9434 39.4874 61.996 39.4874H69.0346C69.0609 39.4874 69.0609 39.4874 69.0871 39.4874C69.1134 39.4874 69.1134 39.5134 69.1134 39.5134C69.1134 39.5394 69.1134 39.5654 69.1134 39.5654C69.1134 39.5914 69.0871 39.5914 69.0871 39.6173L68.877 39.9293C68.8508 39.9553 68.8245 40.0073 68.772 40.0333C68.7457 40.0593 68.6932 40.0593 68.6407 40.0593H65.9355C65.9092 40.0593 65.8567 40.0593 65.8304 40.0853C65.8042 40.1113 65.7779 40.1373 65.7517 40.1632L64.491 42.0089C64.4647 42.0349 64.4385 42.0869 64.386 42.0869C64.3597 42.1129 64.3072 42.1129 64.2546 42.1129L63.3354 42.0609Z" fill="#0C2036"/>
<path d="M36.0213 39.6695C35.9425 39.5135 35.7586 39.4355 35.4435 39.4355H29.0089C28.9564 39.4355 28.9301 39.4615 28.8776 39.4615C28.8513 39.4875 28.7988 39.5135 28.7725 39.5655L28.4574 40.0334H34.5505C34.603 40.0334 34.6556 40.0334 34.6818 40.0854C34.6818 40.0854 34.6818 40.1114 34.6818 40.1374C34.6818 40.1634 34.6818 40.1634 34.6818 40.1894C34.6293 40.2674 34.5768 40.3453 34.5242 40.4233C34.498 40.4753 34.4455 40.5013 34.3929 40.5273C34.3404 40.5533 34.2879 40.5533 34.2353 40.5533H28.0897L27.4068 41.5411L27.0917 41.9831C27.0917 42.009 27.0654 42.009 27.0654 42.035C27.0654 42.061 27.0654 42.061 27.0654 42.087C27.0654 42.113 27.0917 42.113 27.0917 42.113C27.1179 42.113 27.1179 42.113 27.1442 42.113H28.0371C28.0897 42.113 28.1159 42.087 28.1685 42.087C28.1947 42.061 28.2472 42.035 28.2735 42.009L28.8776 41.1512H30.8736C31.4777 41.3592 32.5282 41.7491 33.3686 42.061C33.5788 42.113 33.8151 42.139 34.0252 42.139H35.2859C35.3647 42.139 35.4172 42.087 35.4172 42.061C35.4172 42.035 35.4172 42.009 35.3909 41.9831C35.3647 41.9571 35.3647 41.9571 35.3384 41.9571C34.3667 41.6451 33.8939 41.5151 33.5262 41.3852C33.2899 41.3072 33.0798 41.2552 32.7646 41.1512H34.3929C34.5768 41.1772 34.7869 41.1252 34.9707 41.0732C35.1546 40.9952 35.3122 40.8913 35.4697 40.7613C35.6273 40.5533 35.7849 40.3453 35.9162 40.1374C35.9425 40.0854 35.9687 40.0074 35.995 39.9554C36.0475 39.7994 36.0475 39.7215 36.0213 39.6695Z" fill="#0C2036"/>
<path d="M44.3993 39.4355H43.5852C43.4539 39.4355 43.3488 39.4615 43.2438 39.5135L39.5669 41.4631C39.5143 41.4891 39.4881 41.4891 39.4355 41.5151H38.9628C38.9365 41.4631 38.7002 40.8393 38.49 40.3453C38.3325 39.9554 38.1749 39.5915 38.1749 39.5655C38.1486 39.5395 38.1486 39.4875 38.0961 39.4615C38.0436 39.4355 38.0173 39.4355 37.991 39.4355H37.0718C37.0455 39.4355 37.0193 39.4355 36.993 39.4615C36.9668 39.4615 36.9405 39.4875 36.9405 39.5135C36.9405 39.5395 36.9405 39.5395 36.9405 39.5655C36.9405 39.5915 36.9405 39.5915 36.9405 39.6175L37.2557 40.3453C37.5183 40.9432 37.8597 41.8011 37.9122 41.8791C37.991 42.061 38.1224 42.087 38.3587 42.087H39.5143C39.7244 42.087 39.9083 42.035 40.0659 41.9311C40.1446 41.8791 44.3994 39.6175 44.4256 39.5915C44.4519 39.5915 44.4519 39.5655 44.4781 39.5395C44.4781 39.5135 44.5044 39.4875 44.5044 39.4615C44.4781 39.4615 44.4519 39.4355 44.3993 39.4355Z" fill="#0C2036"/>
</svg>
