<svg width="87" height="50" viewBox="0 0 87 50" fill="none" xmlns="http://www.w3.org/2000/svg">
<path d="M22.1455 21.1823C22.1718 21.5202 22.093 21.8322 21.9617 22.1441C21.6728 22.69 20.6485 24.4577 20.0707 25.3675C19.4929 26.3033 19.3353 26.5893 18.5474 27.915C18.2848 28.383 17.9171 28.7989 17.4706 29.1108H22.3556C22.3556 29.1108 22.1718 29.0588 22.3031 28.4869C22.4344 27.889 23.6426 26.0174 24.0365 25.3675C24.4042 24.7956 25.376 23.1319 25.376 23.1319C25.481 23.0019 25.6123 22.872 25.7699 22.794C25.9275 22.716 26.0851 22.664 26.2689 22.638H27.7922C27.7922 22.638 28.4225 22.586 28.1336 23.1579C27.871 23.6258 26.6629 25.6015 26.0851 26.5633C25.7436 27.1872 25.376 27.7591 24.9557 28.331C24.4042 29.0328 24.0365 29.0848 24.0365 29.0848H28.869C28.8428 28.7469 28.9215 28.409 29.0529 28.097C29.263 27.5771 31.5216 23.9898 31.5216 23.9898C31.5216 23.9898 32.4409 22.612 32.152 21.9621C32.0732 21.7282 31.9156 21.5462 31.7055 21.3902C31.4954 21.2603 31.259 21.1823 31.0226 21.1563H27.8973C27.5296 21.1303 27.1881 21.1823 26.8467 21.2863C26.5316 21.4422 26.2689 21.6502 26.0588 21.9101L26.3477 21.1043L22.1455 21.1823Z" fill="#0C2036"/>
<path d="M54.5542 26.0434C54.7906 25.5495 55.1058 25.0816 55.4997 24.6917C55.8674 24.4057 56.3139 24.2758 56.7604 24.2758H62.5909L61.5404 26.0434H54.5542Z" fill="#0C2036"/>
<path d="M71.705 21.2083C71.7313 21.5462 71.6525 21.8841 71.5212 22.1961C71.2323 22.742 70.2343 24.4577 69.6565 25.3935C69.0787 26.3293 68.9211 26.6153 68.1332 27.915C67.8705 28.383 67.5028 28.7989 67.0564 29.1108H71.9414C71.9414 29.1108 71.7575 29.0588 71.8889 28.4869C72.0202 27.889 73.2283 26.0174 73.6485 25.3675C74.0162 24.7956 74.988 23.1319 74.988 23.1319C75.093 23.0019 75.2243 22.872 75.3819 22.794C75.5395 22.716 75.6971 22.664 75.8809 22.638H77.4042C77.4042 22.638 78.0345 22.586 77.7456 23.1579C77.5093 23.6258 76.2749 25.6015 75.7233 26.5633C75.3819 27.1872 75.0142 27.7591 74.594 28.331C74.0425 29.0328 73.701 29.0848 73.701 29.0848H78.5073C78.5073 28.7469 78.5598 28.409 78.6911 28.097C78.9275 27.5771 81.1862 23.9898 81.1862 23.9898C81.1862 23.9898 82.0791 22.612 81.7902 21.9621C81.7114 21.7282 81.5539 21.5462 81.3438 21.3902C81.1336 21.2603 80.8973 21.1823 80.6609 21.1563H77.4567C77.0891 21.1303 76.7476 21.1823 76.4062 21.2863C76.1173 21.4422 75.8547 21.6502 75.6708 21.9101L75.9335 21.1043L71.705 21.2083Z" fill="#0C2036"/>
<path d="M19.545 24.7438C19.545 24.7438 20.4379 23.366 20.1753 22.7162C20.0965 22.4822 19.9389 22.2742 19.7288 22.1183C19.5187 21.9623 19.2561 21.9103 19.0197 21.9363H13.4781C13.4781 21.9363 13.2154 22.0143 13.1366 21.6763C13.0578 21.3384 13.4255 20.9485 13.4255 20.9485C13.5306 20.7665 13.6356 20.6105 13.7932 20.4806C14.0033 20.3506 14.2397 20.2986 14.5023 20.2986H20.9895C21.1733 20.2726 21.3571 20.2986 21.5147 20.3766C21.6723 20.4546 21.8036 20.5845 21.9087 20.7405L23.7209 17.6731H15.2115C15.2115 17.6731 13.8195 17.5431 13.0316 18.011C12.375 18.297 11.8235 18.7909 11.482 19.3888C11.2457 19.7267 11.0093 20.2206 11.0093 20.2206L9.27589 23.1061C9.03952 23.392 8.9082 23.756 8.9082 24.1199C8.9082 24.2499 8.96073 24.3798 9.03952 24.4838C9.11831 24.5878 9.22336 24.6918 9.35468 24.7178C9.64358 24.8218 9.95874 24.8478 10.2739 24.8218H12.6114C12.8215 24.8478 13.0578 24.7958 13.2417 24.7178C13.6094 24.4318 14.0559 23.9379 14.4498 23.8339C14.6862 23.756 14.9226 23.73 15.1589 23.756C15.3953 23.782 15.6317 23.8599 15.8418 23.9639C16.2357 24.2239 16.157 24.2239 16.4721 24.6398C16.6034 24.7958 16.7085 25.0037 16.7347 25.2117L15.7105 24.8478C15.7105 24.8478 15.369 24.6658 15.1852 24.7438C15.0014 24.7958 14.7387 24.7438 14.4761 25.4457C14.2922 25.9656 14.2922 26.3295 14.6599 26.5115C15.1327 26.7194 15.6317 26.8754 16.157 26.9794C15.8155 27.2653 15.3953 27.4733 14.9488 27.5253C14.6862 27.5513 14.4236 27.5253 14.1872 27.4473C13.9508 27.3693 13.7144 27.2393 13.5043 27.0834C13.1104 26.7194 13.373 26.7974 13.0578 26.6154C12.7689 26.4595 12.4275 26.4075 12.0861 26.4075H8.22534C8.01524 26.4595 7.77886 26.4075 7.59502 26.3295C7.20107 26.1995 7.25359 26.1215 7.25359 26.1215L5.44141 29.111H14.1347C14.8963 29.163 15.6579 29.059 16.3671 28.825C16.9974 28.5131 17.5227 28.0452 17.8903 27.4733L19.545 24.7438Z" fill="#0C2036"/>
<path d="M36.3277 29.1366L36.6429 28.2788C36.2489 28.5907 35.8024 28.8507 35.3559 29.0067C35.1458 29.0846 34.9357 29.1106 34.7256 29.1106H31.4689C31.2851 29.1366 31.1275 29.0846 30.9699 29.0067C30.8123 28.9287 30.681 28.7987 30.6022 28.6427C30.5234 28.4867 30.4709 28.3048 30.4446 28.1228C30.4446 27.9408 30.4972 27.7589 30.576 27.6029C30.7861 27.109 31.4952 25.9652 31.8366 25.3933C32.5195 24.2495 33.2548 23.9116 33.6751 23.8076C34.1741 23.6776 34.6993 23.6256 35.2246 23.6516H38.2449C38.5076 23.6516 38.7702 23.6256 39.0066 23.5477C39.1642 23.4957 39.2692 23.3657 39.3217 23.2097L39.4268 22.9498C39.5056 22.5598 39.1379 22.5858 39.1379 22.5858H34.9882C34.7781 22.5598 34.568 22.5858 34.3842 22.6118C34.1478 22.6638 33.9114 22.7678 33.7013 22.8718L34.6993 21.1301H42.237C42.4734 21.1301 42.7097 21.1821 42.8936 21.3121C43.1037 21.442 43.235 21.624 43.3401 21.858C43.629 22.5078 42.736 23.9376 42.736 23.9376C42.736 23.9376 40.5561 27.5509 40.346 28.0708C40.2147 28.3828 40.1622 28.7207 40.1622 29.0586L36.3277 29.1366ZM37.8772 25.3413H36.5115C36.2226 25.3413 35.96 25.3673 35.6974 25.4193C35.4085 25.4973 34.9357 26.5631 34.9357 26.5631C34.9357 26.5631 34.568 27.031 34.6468 27.265C34.7256 27.4989 34.9882 27.4469 34.9882 27.4469H36.4065C36.6166 27.4469 36.8267 27.369 36.9843 27.213C37.3782 26.6931 37.7459 26.1212 38.0611 25.5493V25.4713C38.0611 25.4453 38.0611 25.3933 38.0348 25.3673C38.0086 25.3413 37.9823 25.3153 37.956 25.3153C37.9035 25.3413 37.9035 25.3413 37.8772 25.3413Z" fill="#0C2036"/>
<path d="M43.9448 31.2163C43.8135 31.5282 43.7609 31.8922 43.7609 32.2301H39.3749C39.3749 32.2301 39.5325 31.9702 39.6901 31.7362C39.9002 31.4243 40.084 31.1123 40.2679 30.8004L43.2619 25.4974C43.8135 24.5615 44.8115 22.7419 45.1004 22.196C45.2317 21.884 45.3105 21.5201 45.2842 21.1821H49.1975V21.702C49.3551 21.5721 49.5389 21.4421 49.749 21.3121C49.9591 21.2341 50.1692 21.1821 50.4056 21.1561H53.8199C54.0563 21.1561 54.2926 21.2081 54.5027 21.3381C54.7128 21.4681 54.8704 21.6761 54.9492 21.884C55.2381 22.5599 54.3714 23.9636 54.3714 23.9636L52.3229 27.629C51.9814 28.0969 51.5612 28.5128 51.0885 28.8247C50.5369 29.1367 49.9329 29.2667 49.3025 29.2407L46.2822 29.2147C46.2822 29.2147 45.7307 29.1627 45.5469 28.8767C45.363 28.5908 45.4418 28.6168 45.4418 28.6168L43.9448 31.2163ZM49.5389 22.6379C49.3025 22.6119 49.0924 22.6639 48.8823 22.7938C48.7248 22.9238 48.5934 23.0538 48.4884 23.2358L46.361 26.9011C46.361 26.9011 46.0984 27.213 46.2297 27.421C46.3348 27.655 46.6237 27.577 46.6237 27.577H48.0419C48.1995 27.577 48.3571 27.551 48.5146 27.473C48.7247 27.317 48.9349 27.1091 49.0662 26.8751L51.0885 23.3917C51.0885 23.3917 51.3511 23.1318 51.1935 22.8718C51.1673 22.8198 51.0885 22.7679 51.0359 22.7159C50.9834 22.6899 50.9046 22.6639 50.8258 22.6639L49.5389 22.6379Z" fill="#0C2036"/>
<path d="M57.3647 29.1369C57.2071 29.1369 57.0495 29.1109 56.892 29.0589C56.7344 29.0069 56.6031 28.9029 56.498 28.7729C56.393 28.591 56.3404 28.409 56.3404 28.201C56.3404 27.9931 56.393 27.8111 56.4717 27.6292L57.1546 26.4594H60.8578C60.8578 26.4594 60.7264 26.7713 60.4901 27.1872C60.3588 27.4212 60.7527 27.4472 60.7527 27.4472H62.4336C62.4336 27.4472 63.169 27.4732 63.4053 27.0833C63.5629 26.7973 65.3226 23.7299 65.3226 23.7299C65.3226 23.7299 65.7428 23.158 65.6903 22.924C65.6377 22.7161 65.0862 22.6121 65.0862 22.6121H63.9306C63.9306 22.6121 63.3003 22.5861 63.1427 22.794C62.9063 23.132 62.5912 23.5999 62.5912 23.5999H58.7829L59.5183 22.4561C59.7547 22.1182 60.0699 21.8062 60.4113 21.5723C60.8052 21.3383 61.278 21.1823 61.7507 21.1823L68.5267 21.2083C68.7631 21.2083 68.9995 21.2603 69.2096 21.3903C69.4197 21.5203 69.5773 21.7022 69.6561 21.9362C69.9712 22.6121 69.0257 23.9638 69.0257 23.9638L66.8721 27.5512C66.5307 27.9931 66.1367 28.383 65.664 28.695C65.1125 29.0069 64.4821 29.1369 63.8518 29.0849L57.3647 29.1369Z" fill="#0C2036"/>
</svg>
