<svg width="46" height="46" viewBox="0 0 46 46" fill="none" xmlns="http://www.w3.org/2000/svg">
<path d="M23 46C10.32 46 0 35.68 0 23C0 10.32 10.32 0 23 0C35.68 0 46 10.32 46 23C46 35.68 35.68 46 23 46ZM23 1C10.87 1 1 10.87 1 23C1 35.13 10.87 45 23 45C35.13 45 45 35.13 45 23C45 10.87 35.13 1 23 1Z" fill="#FCFFFF"/>
<path d="M19.32 32.93C28.11 32.93 32.92 25.65 32.92 19.33C32.92 19.12 32.92 18.92 32.91 18.71C33.84 18.04 34.65 17.19 35.29 16.24C34.43 16.62 33.51 16.88 32.55 16.99C33.54 16.4 34.29 15.46 34.65 14.35C33.73 14.9 32.7 15.3 31.61 15.51C30.74 14.58 29.5 14 28.12 14C25.48 14 23.34 16.14 23.34 18.78C23.34 19.16 23.38 19.52 23.47 19.87C19.5 19.67 15.97 17.77 13.62 14.88C13.21 15.59 12.97 16.41 12.97 17.28C12.97 18.94 13.81 20.4 15.1 21.26C14.32 21.24 13.58 21.02 12.93 20.66V20.72C12.93 23.03 14.58 24.97 16.76 25.41C16.36 25.52 15.94 25.58 15.5 25.58C15.19 25.58 14.89 25.55 14.6 25.49C15.21 27.39 16.97 28.77 19.06 28.81C17.42 30.09 15.36 30.86 13.12 30.86C12.73 30.86 12.35 30.84 11.98 30.79C14.09 32.14 16.61 32.94 19.31 32.94" fill="#FCFFFF"/>
</svg>
