<svg width="92" height="28" viewBox="0 0 92 28" fill="none" xmlns="http://www.w3.org/2000/svg">
<path d="M29.9923 22.6858C29.9923 25.3991 29.327 27.1438 27.7072 27.1438C26.0874 27.1438 25.1695 25.6568 25.1302 21.1988H24.9477C24.6164 25.5464 23.109 27.1438 20.7874 27.1438C18.6903 27.1438 17.0706 25.5464 17.0706 22.7594C17.0706 20.7174 18.1373 18.9699 20.5656 17.4858L24.5771 15.033V14.0672C24.5771 11.3539 23.4739 10.0171 21.7446 10.0171C20.4898 10.0171 19.2013 10.6855 18.5388 11.8382C19.8273 12.1724 20.6751 13.2487 20.6751 14.4751C20.6751 15.7014 19.8273 16.5171 18.9823 16.5171C18.0222 16.5171 17.326 15.5853 17.326 14.1012C17.326 11.5012 19.2771 9.16175 22.7721 9.16175C25.5344 9.16175 27.4097 11.0169 27.4097 15.2143V23.1248C27.4097 25.3566 27.7072 25.9882 28.2574 25.9882C28.847 25.9882 29.1417 25.2433 29.2175 23.1644L29.4 18.7433H29.9895V18.7489L29.9923 22.6858ZM24.5771 15.625L21.9636 17.5934C20.3438 18.7829 19.9031 20.5644 19.9031 22.7934C19.9031 25.2065 20.821 25.9882 21.7783 25.9882C23.2128 25.9882 24.5771 23.1644 24.5771 19.3381V15.625ZM50.8109 9.30902H50.8053C49.9547 9.31186 49.3315 10.0879 49.3315 10.9744C49.3315 12.2008 50.1091 13.1722 52.1331 13.801C52.1331 18.7008 48.2254 26.0194 44.6574 26.0194C43.4812 26.0194 42.6334 25.1753 42.6334 22.9435C42.6334 19.7431 44.4328 14.8857 48.4135 9.82733L47.9756 9.4563C47.4422 9.90946 46.8667 10.2947 46.2631 10.575C46.2631 10.575 46.2463 10.5835 46.2407 10.5864C45.974 10.7082 45.7045 10.813 45.4266 10.8894C43.7198 11.2236 41.721 9.98877 40.7918 9.48179C40.7216 9.43931 40.6486 9.40249 40.5785 9.3685C40.5532 9.35717 40.5307 9.34301 40.5083 9.33451C40.4942 9.32885 40.4802 9.32035 40.4662 9.31752C40.4381 9.30619 40.4128 9.29486 40.3904 9.28637C40.3511 9.27504 40.309 9.26088 40.2753 9.25238C40.0675 9.19007 39.8514 9.15325 39.6184 9.15325C37.1845 9.15325 35.6377 12.3849 35.2306 16.1801H35.0482L35.5282 9.59791H29.8211V10.1219L30.784 10.2352C32.4009 10.4193 32.7266 10.7931 32.7266 13.0193V23.2239C32.7266 25.4529 32.3981 25.8636 30.784 26.0505L29.8211 26.1638V26.6793H38.8015L38.7706 26.1638L37.3698 25.9797C35.8988 25.7956 35.6012 25.4529 35.6012 23.2239V17.9899C35.6012 14.7441 36.6343 11.7844 37.8947 10.6515C38.2597 11.1415 39.4106 12.5463 41.1652 13.0334C41.4319 13.1297 41.7266 13.1949 42.0831 13.2232C42.1758 13.2345 42.2768 13.2345 42.3891 13.2345C42.9843 13.2345 43.571 13.1043 44.2531 12.7502C45.0841 12.3679 45.7943 11.8042 46.3081 11.3199L46.44 11.4162C42.42 16.316 39.9974 20.4341 39.9552 23.3344C39.9159 25.7163 41.6845 27.1211 43.8629 27.1211C48.8346 27.1211 52.9556 19.2163 52.9556 13.7897C52.9556 11.1585 52.0657 9.30053 50.8165 9.30053L50.8109 9.30902ZM64.1594 20.5248L64.6759 20.6381C63.9376 24.6882 62.1353 27.1381 59.446 27.1381C56.7566 27.1381 53.3346 23.9461 53.3346 18.1513C53.3346 12.3565 56.3159 9.12493 59.1877 9.12493C62.4273 9.12493 64.6366 12.096 64.6366 17.6302L64.4906 17.7803H56.4254V18.1513C56.4254 23.9461 57.6774 26.396 59.8502 26.396C61.7311 26.3932 63.3874 24.5013 64.1594 20.5248ZM56.4254 16.9986H61.616C61.5795 11.7957 61.0293 9.86698 59.1877 9.86698C57.3462 9.86698 56.5377 12.0223 56.4254 16.9986ZM91.9343 17.1855V20.4908C91.9343 25.1357 90.6457 27.1381 88.0322 27.1381C86.3759 27.1381 85.1267 26.0562 84.627 23.6488C84.1217 26.059 82.9174 27.1381 81 27.1381C78.8272 27.1381 77.3562 25.2801 77.3562 21.0119V10.3485H73.9033L73.9089 10.3655L73.9679 10.6119L75.0459 14.9877V14.9934L75.262 15.8657L75.0908 15.945L74.8157 16.0725L73.5468 13.4243L73.5103 13.345L73.1678 12.6228L73.0471 12.3735C72.1684 10.6883 71.242 9.86698 69.8328 9.86698C68.4236 9.86698 67.4775 10.8696 67.4775 12.5038C67.4775 14.138 68.3955 15.2879 70.2735 16.0696L72.2246 16.8853C74.9111 18.0012 76.2361 19.896 76.2361 22.1986C76.2361 25.1697 74.1026 27.0276 71.635 27.0276C69.684 27.0276 68.2467 25.8381 67.4382 24.0538L66.6269 26.9172H66.1132L65.7819 19.2616L66.2592 19.1511L66.8852 21.1195C67.9912 24.5381 69.2405 26.3564 71.635 26.3564C73.4008 26.3564 74.5799 25.13 74.5799 23.4958C74.5799 21.8616 73.6226 20.7485 71.781 19.9328L69.9423 19.1143C67.107 17.8539 65.8184 15.996 65.8184 13.767C65.8184 10.8696 67.3287 9.19857 69.8328 9.19857C71.1213 9.19857 72.2667 9.88681 73.0836 11.1472L73.1678 9.60641H76.18C77.6173 9.60641 78.2433 8.75107 78.6111 6.63537L79.7171 0.322266H80.2309V9.60641H83.2122C84.6495 9.60641 85.2755 8.75107 85.6432 6.63537L86.7465 0.322266H87.263V9.60641H91.4963V10.3485H87.263V22.0514C87.263 24.9119 87.9255 25.7276 89.1411 25.7276C90.2836 25.7276 91.1651 24.5381 91.2774 21.4934L91.4234 17.1855H91.9371H91.9343ZM84.3884 10.3485H80.2252V22.0514C80.2252 24.9119 80.8878 25.7276 82.1033 25.7276C83.2458 25.7276 84.1273 24.5381 84.2396 21.4934L84.3884 17.1855V10.3485Z" fill="#FEFFCC"/>
<path d="M16.1555 26.0489L17.156 26.1601V26.6789H8.67063V26.1601L9.52287 26.0489C11.005 25.8637 11.3385 25.4561 11.3385 23.2328V13.8952C11.3385 11.4497 10.5974 10.1898 8.93001 10.1898C7.11436 10.1898 5.66926 12.7466 5.66926 16.8966V23.2328C5.66926 25.4561 6.0398 25.8266 7.52196 26.0489L8.30009 26.1601V26.6789H0V26.1601L0.815187 26.0489C2.44556 25.8266 2.77905 25.4561 2.77905 23.2328V3.40897C2.77905 1.18573 2.40851 0.852242 0.815187 0.629919L0 0.518756V0H5.66926L5.11345 15.2292H5.29872C5.66926 11.0791 7.15142 9.18938 9.85636 9.18938C12.5613 9.18938 14.2287 11.1162 14.2287 15.2292V23.2328C14.2287 25.4561 14.5622 25.8637 16.1555 26.0489Z" fill="#FEFFCC"/>
</svg>
