<?xml version="1.0" encoding="utf-8"?>
<!-- Generator: Adobe Illustrator 26.5.0, SVG Export Plug-In . SVG Version: 6.00 Build 0)  -->
<svg version="1.1" id="Layer_1" xmlns="http://www.w3.org/2000/svg" xmlns:xlink="http://www.w3.org/1999/xlink" x="0px" y="0px"
	 viewBox="0 0 41 41" style="enable-background:new 0 0 41 41;" xml:space="preserve">
<style type="text/css">
	.st0{fill-rule:evenodd;clip-rule:evenodd;fill:#0A1624;}
</style>
<path class="st0" d="M24.3,14.9h7.2v-2.1h-7.2V14.9z M26,19.4c-0.5,0.5-0.8,1.2-0.9,1.9h5.6c0-0.4-0.1-0.7-0.2-1.1
	c-0.2-0.3-0.4-0.6-0.6-0.9c-0.5-0.5-1.2-0.7-1.9-0.7c-0.4,0-0.7,0-1,0.1C26.6,18.9,26.3,19.1,26,19.4z M30.9,16.6
	c0.9,0.4,1.6,1,2.2,1.8c0.5,0.8,0.9,1.6,1,2.5c0.1,0.8,0.1,1.6,0.1,2.4h-9.1c0,0.5,0.1,1,0.3,1.5c0.2,0.5,0.6,0.8,1,1.1
	c0.5,0.3,1.2,0.5,1.8,0.5c0.6,0,1.3-0.2,1.8-0.6c0.3-0.2,0.5-0.5,0.7-0.8H34c-0.1,0.8-0.6,1.6-1.2,2.2c-0.6,0.6-1.3,1.1-2.1,1.4
	c-0.8,0.3-1.7,0.4-2.5,0.4c-1.6,0-3.1-0.5-4.4-1.5c-0.7-0.6-1.2-1.4-1.5-2.2c-0.3-0.8-0.5-1.8-0.4-2.7c-0.1-0.9,0.1-1.8,0.4-2.6
	c0.3-0.8,0.8-1.6,1.4-2.3c0.6-0.6,1.3-1,2.1-1.3c0.8-0.3,1.6-0.4,2.4-0.4C29,16,30,16.2,30.9,16.6L30.9,16.6z M10.2,21.3v4.4h4.1
	c0.6,0,1.2-0.1,1.7-0.3c0.4-0.2,0.7-0.5,0.9-0.9c0.2-0.4,0.3-0.8,0.2-1.2c0-0.4-0.1-0.7-0.3-1.1c-0.2-0.3-0.5-0.6-0.8-0.7
	c-0.5-0.2-1.1-0.3-1.7-0.3H10.2z M10.2,14.9v3.6h4.1c0.6,0,1.2-0.1,1.8-0.4c0.2-0.2,0.4-0.4,0.5-0.6c0.1-0.3,0.2-0.5,0.1-0.8
	c0-0.3,0-0.6-0.2-0.9c-0.2-0.3-0.4-0.5-0.7-0.6c-0.6-0.2-1.3-0.3-2-0.3H10.2z M19.4,13.8c0.5,0.7,0.8,1.6,0.8,2.5
	c0,0.9-0.2,1.7-0.8,2.4c-0.4,0.4-0.8,0.7-1.3,0.9c0.8,0.3,1.5,0.8,1.9,1.5c0.4,0.7,0.7,1.5,0.7,2.4c0,0.9-0.3,1.8-0.8,2.6
	c-0.3,0.5-0.7,1-1.2,1.3c-0.6,0.4-1.2,0.7-1.9,0.8c-0.8,0.2-1.6,0.2-2.4,0.2H6.8V12H15c0.8-0.1,1.6,0.1,2.4,0.4
	C18.1,12.7,18.8,13.2,19.4,13.8L19.4,13.8z"/>
</svg>
