<svg width="1206" height="1076" viewBox="0 0 1206 1076" fill="none" xmlns="http://www.w3.org/2000/svg">
<path opacity="0.8" fill-rule="evenodd" clip-rule="evenodd" d="M1206.17 571.372C1088.74 534.473 965.132 472.28 927 266.999C911.745 184.881 956.866 93.2647 1003.59 0H741.039C740.687 1.99112 740.34 3.99083 740 5.99914C724.617 96.7995 504.078 196.961 362.365 0H0.298828C0.701119 57.9827 55.1383 113.323 207 133C231.944 136.232 261.467 133.984 295.333 131.406C407.934 122.834 568.541 110.607 768.498 283.999C975.499 463.499 943.745 679.416 644.5 735.999C442.376 774.218 648.451 1345.68 695.5 916.499C719.49 697.652 951.531 750.616 1152.2 796.419C1170.51 800.599 1188.56 804.72 1206.17 808.568V571.372Z" fill="#47FF9B"/>
</svg>
