<svg width="65" height="62" viewBox="0 0 65 62" fill="none" xmlns="http://www.w3.org/2000/svg">
<path d="M60.4796 8.25137C68.7819 2.30474 65.265 -7.80452 50.6207 10.1975C51.8315 3.06159 49.5829 1.06136 46.9308 5.33212C41.4536 14.198 31.8253 20.3068 28.8849 26.9562C28.6543 27.2265 28.4814 27.4968 28.3084 27.8212C25.8292 26.6859 23.2924 26.0372 20.7556 26.0372C17.9306 26.0372 15.855 27.4968 15.0478 29.1186L13.2029 30.4701C12.7417 29.5511 12.2804 28.6321 11.7615 27.7671C11.4733 27.2806 11.1273 26.8481 10.8391 26.4156C11.012 26.2534 11.1273 26.1453 11.1273 26.1453C11.1273 26.1453 10.9544 26.1453 10.7814 26.1994C11.4156 25.7669 13.8947 23.8207 13.6065 21.8745C13.2605 19.6581 13.2029 19.4418 13.2606 18.2525C13.2606 18.2525 10.5508 19.2797 11.0697 22.1448C11.5309 24.7397 10.8391 25.9831 10.6661 26.1994C10.1472 25.4966 9.62831 24.7938 9.05177 24.1451C9.22473 24.091 9.28239 24.091 9.28239 24.091C9.28239 24.091 9.10942 24.091 8.93646 24.037C8.82115 23.9288 8.70584 23.7667 8.59053 23.6585C9.16708 22.8476 10.7814 20.3609 9.97424 18.7391C9.05177 16.7388 8.93646 16.5226 8.70584 15.3873C8.70584 15.3873 6.39966 17.3335 7.66806 19.8743C8.53288 21.6583 8.53288 22.8476 8.41757 23.4964C7.72571 22.7395 6.9762 21.9827 6.22669 21.3339C5.76546 20.1987 4.67002 17.8741 3.171 17.8741C1.21075 17.8741 0.980128 17.8741 0 17.6038C0 17.6038 0.403582 20.8474 2.99804 20.7393C4.49706 20.6852 5.41953 21.1177 5.93842 21.4961C6.74558 22.253 7.49509 23.0639 8.18695 23.9829C8.18695 23.9829 8.18695 23.9829 8.18695 24.037C6.9762 23.9288 5.13126 24.037 4.4394 25.3344C3.45927 27.2806 3.34396 27.4968 2.65211 28.3618C2.65211 28.3618 5.30422 29.5511 6.51497 27.0103C7.20682 25.5506 7.95633 24.9019 8.47522 24.5235C8.99411 25.1722 9.39769 25.8209 9.85893 26.5237C8.70584 26.9021 7.03386 27.659 6.80324 29.0646C6.39966 31.281 6.342 31.4973 5.93842 32.5785C5.93842 32.5785 8.82115 32.7947 9.22473 29.8755C9.45535 28.4699 9.85893 27.6049 10.2625 27.0643C10.5508 27.4968 10.8391 27.8212 11.0697 28.2537C11.5886 29.1727 12.0498 30.0917 12.4534 31.0648L10.3778 32.5785L12.9146 32.3082C13.7794 34.6328 14.4136 37.0114 14.8749 39.4982C14.8749 39.4982 14.8749 39.4982 14.9325 39.4982C15.0478 36.9573 14.529 34.5246 13.6641 32.2541L15.6244 32.0379C16.5469 32.6325 17.6423 33.2272 18.0459 33.7678C19.3143 35.4437 15.5667 42.1471 35.2269 46.4179C46.9308 48.9587 43.5869 57.5002 47.6227 60.3654C50.6207 62.4738 52.0621 59.1761 52.0621 59.1761C58.2888 61.3926 56.6168 56.2028 56.6168 56.2028C61.8057 57.8246 59.0959 53.4998 59.0959 53.4998C59.0959 53.4998 62.3822 52.6348 60.8256 50.5805C58.6924 47.7153 51.6585 50.094 47.4497 44.9583C45.9507 43.1202 44.3364 41.2822 42.6644 39.4441C46.9885 37.9845 55.2907 37.4979 50.736 34.0922C50.736 34.0922 60.3067 31.6054 53.5034 29.2267C53.5034 29.2267 67.0523 25.875 56.7898 23.9829C56.7898 23.9829 69.9926 17.82 57.7122 17.2254C57.7122 17.2254 71.4917 10.4138 60.3067 8.52167L60.4796 8.25137Z" fill="#FC5A05"/>
</svg>
