<svg width="227" height="156" viewBox="0 0 227 156" fill="none" xmlns="http://www.w3.org/2000/svg">
<path d="M64.9633 114.571H54.9689V112.07H47.4732V109.569H44.9746V107.069H47.4732V104.568H49.9718V102.068H47.4732V99.5672H42.476V97.0667H37.4788V99.5672H32.4816V94.5661H29.9831V89.565H27.4845V87.0645V82.0634H24.9859V72.0612H22.4873V69.5607V67.0601V62.059H19.9887V57.0579H17.4901V54.5574H12.4929V57.0579V62.059H9.99435V67.0601H7.49576V69.5607H4.99718V79.5628H7.49576V82.0634V87.0645H4.99718V89.565V94.5661V97.0667H7.49576V99.5672V102.068H9.99435V107.069H4.99718V109.569H0V117.071H2.49859V119.572V122.072V124.573H4.99718V127.073H9.99435V129.574H17.4901V127.073V124.573H19.9887V122.072H22.4873V119.572H24.9859V122.072H29.9831V124.573H32.4816V127.073H52.4703V124.573H54.9689V127.073H64.9633V124.573H69.9605V122.072H72.459V119.572V117.071H64.9633V114.571Z" fill="#30343F"/>
<path d="M101.744 81.2272H106.758V78.751H109.265V76.2748H114.28V73.7986H116.787V71.3224V68.8463H109.265V66.3701V63.8939H111.773V61.4177V58.9415V56.4653V53.9891V51.5129H114.28V49.0367V46.5605V44.0843H109.265V46.5605H104.251V49.0367H101.744V51.5129H99.2364V44.0843H96.7292V39.132H94.2219V36.6558H91.7147V39.132H89.2075V44.0843H86.7002V51.5129V53.9891V56.4653V58.9415H84.193V61.4177V63.8939V66.3701V68.8463H86.7002V71.3224V73.7986H76.6713V76.2748H74.1641V78.751V81.2272H76.6713V83.7034V86.1796H79.1785V88.6558H84.193V86.1796H89.2075V83.7034H101.744V81.2272Z" fill="#30343F"/>
<path d="M144.151 105.705H131.791V108.22H124.374V110.734H119.43V113.249H112.013V115.764H107.069V118.279H102.125V120.793H97.1807V125.823H109.541V123.308H119.43V125.823H121.902V130.852V133.367V140.911H124.374V143.426V156H129.318V153.485H131.791V148.456H134.263V143.426H136.735V140.911V133.367H139.207V125.823V123.308V115.764H141.679V113.249H144.151V110.734H146.623V108.22H144.151V105.705Z" fill="#30343F"/>
<path d="M169.545 81.0689H172.007H174.47V83.541H179.395V78.5968H181.858V76.1246H184.321V78.5968H186.783H191.709H194.171H199.097V76.1246H208.947V73.6525H211.41V68.7082H208.947H201.559H199.097V66.2361H194.171V63.764H196.634V61.2918H194.171H191.709V58.8197H184.321V56.3476H181.858V51.4033H179.395V43.9869H176.933V39.0427H174.47V34.0984H169.545V41.5148H167.082V63.764H169.545V66.2361H172.007V68.7082H169.545V71.1804H167.082V76.1246H169.545V81.0689Z" fill="#30343F"/>
<path d="M199.963 19.1803H204.834V16.7828H209.705H212.141V26.373H214.576V28.7705V31.168H217.012V38.3607H219.447V35.9631H221.883V31.168V28.7705H224.319V11.9877H221.883V7.19263H224.319V4.79508H226.754V2.39754H224.319V0H217.012V2.39754H212.141V4.79508H209.705V7.19263H207.269V9.59017H202.398V11.9877H199.963V14.3853H195.091V16.7828H192.656V21.5779H199.963V19.1803Z" fill="#30343F"/>
</svg>
