<svg width="41" height="41" viewBox="0 0 41 41" fill="none" xmlns="http://www.w3.org/2000/svg">
<path fill-rule="evenodd" clip-rule="evenodd" d="M26.9152 30.0608C26.3984 27.2293 25.6381 24.4477 24.6426 21.7471C27.0676 21.3898 29.5411 21.5653 31.8913 22.2615C31.6397 23.8328 31.0683 25.3358 30.2124 26.6774C29.3564 28.0189 28.2343 29.1705 26.9152 30.0608V30.0608ZM20.408 32.0465C17.7013 32.0439 15.0798 31.1009 12.9916 29.3789L13.2547 29.5823C13.2547 29.5823 15.4795 24.7138 22.3816 22.3094H22.4654C23.5681 25.1722 24.4012 28.1317 24.9536 31.1494C23.515 31.7567 21.9694 32.0698 20.408 32.0704V32.0465ZM8.78089 20.4074C8.78089 20.2878 8.78089 20.1682 8.78089 20.0486C12.8267 20.0615 16.854 19.5017 20.7429 18.3858C21.0779 19.0318 21.4009 19.7017 21.688 20.3596L21.2333 20.5031C17.2975 21.9121 13.9599 24.621 11.7714 28.1827V28.1827C9.84484 26.0524 8.78271 23.2797 8.79287 20.4074H8.78089ZM15.4555 9.8928C17.0233 12.0403 18.4653 14.2769 19.7739 16.5915C16.2591 17.5148 12.6421 17.993 9.0081 18.015C9.37673 16.2562 10.1488 14.607 11.2635 13.1975C12.3783 11.788 13.805 10.6568 15.4316 9.8928H15.4555ZM28.0995 11.6751C26.5358 13.6524 24.4211 15.1218 22.0227 15.8978C20.7294 13.5354 19.2747 11.2651 17.6686 9.10327C19.4868 8.66198 21.3846 8.66647 23.2007 9.11633C25.0169 9.5662 26.6974 10.4482 28.0995 11.6871V11.6751ZM32.047 20.2878C29.3775 19.7579 26.6434 19.6329 23.9367 19.917C23.853 19.7136 23.7812 19.5103 23.6855 19.3189C23.4463 18.7447 23.183 18.1227 22.9198 17.6203C25.4534 16.6977 27.6928 15.1112 29.4034 13.0268C31.0754 15.0742 31.9956 17.6325 32.0111 20.2758L32.047 20.2878ZM33.7575 17.6681C33.5781 16.7912 33.3138 15.9338 32.9681 15.1082C32.279 13.4925 31.2885 12.0229 30.0494 10.778C28.7842 9.51243 27.282 8.50854 25.6288 7.82361C23.9755 7.13868 22.2033 6.78613 20.4138 6.78613C18.6243 6.78613 16.8524 7.13868 15.1991 7.82361C13.5458 8.50854 12.0437 9.51243 10.7785 10.778C10.1601 11.3921 9.6033 12.0651 9.11586 12.7876C8.11546 14.2631 7.41601 15.9217 7.05814 17.6681C6.69937 19.4807 6.69937 21.346 7.05814 23.1587C7.42136 24.8997 8.12045 26.5533 9.11586 28.0272C10.0923 29.4762 11.339 30.7232 12.788 31.6996C13.5148 32.1993 14.293 32.6203 15.1089 32.9556C16.7852 33.6662 18.5872 34.0325 20.408 34.0325C22.2287 34.0325 24.0307 33.6662 25.707 32.9556C26.5229 32.6203 27.3008 32.1993 28.0276 31.6996C29.4766 30.7232 30.7236 29.4762 31.7 28.0272C32.6955 26.5533 33.3942 24.8997 33.7575 23.1587C34.1284 21.3473 34.1284 19.4795 33.7575 17.6681V17.6681Z" fill="#0A1624"/>
</svg>
