<svg width="46" height="46" viewBox="0 0 46 46" fill="none" xmlns="http://www.w3.org/2000/svg">
<path fill-rule="evenodd" clip-rule="evenodd" d="M23 11C16.376 11 11 16.376 11 23C11 29.624 16.376 35 23 35C29.624 35 35 29.624 35 23C35 16.376 29.612 11 23 11ZM30.9272 16.532C32.36 18.2768 33.2168 20.5016 33.2432 22.9088C32.9048 22.844 29.5208 22.1528 26.1104 22.5824C26.0312 22.4144 25.9664 22.232 25.8896 22.0496C25.6808 21.5552 25.448 21.0464 25.2128 20.5664C28.988 19.0304 30.704 16.8176 30.9272 16.532V16.532ZM23 12.7712C25.604 12.7712 27.9848 13.748 29.7944 15.3488C29.612 15.608 28.064 17.6792 24.4184 19.0448C22.7384 15.9608 20.8784 13.436 20.5928 13.0448C21.3608 12.8624 22.1672 12.7712 23 12.7712ZM18.6392 13.7336C18.9128 14.0984 20.7344 16.6352 22.4408 19.6544C17.6504 20.9288 13.4216 20.9048 12.9656 20.9048C13.6304 17.7296 15.776 15.0872 18.6392 13.7336V13.7336ZM12.7424 23.0144V22.7024C13.184 22.7144 18.1568 22.7816 23.2712 21.2456C23.5712 21.8192 23.8448 22.4048 24.104 22.9904C23.9744 23.0288 23.8304 23.0696 23.7008 23.108C18.416 24.812 15.6056 29.4728 15.3704 29.864C13.7432 28.0544 12.7424 25.6472 12.7424 23.0192V23.0144ZM22.9976 33.2576C20.6288 33.2576 18.4424 32.4512 16.712 31.0976C16.8944 30.7208 18.9776 26.7104 24.7544 24.6944C24.7808 24.6824 24.7928 24.6824 24.8192 24.668C26.264 28.4024 26.8496 31.5392 27.0056 32.4392C25.7696 32.972 24.416 33.26 22.9976 33.26V33.2576ZM28.712 31.5008C28.6088 30.8768 28.0616 27.8816 26.72 24.2C29.9336 23.6936 32.7464 24.5264 33.0968 24.6416C32.6552 27.4928 31.0136 29.9528 28.7096 31.5008H28.712Z" fill="#0C2036"/>
</svg>
