<svg width="46" height="46" viewBox="0 0 46 46" fill="none" xmlns="http://www.w3.org/2000/svg">
<path d="M23.336 13.0427C26.3627 13.0427 26.72 13.0533 27.9147 13.1093C29.0187 13.16 29.6187 13.344 30.0187 13.4987C30.5467 13.704 30.9253 13.9493 31.3227 14.3467C31.72 14.744 31.9653 15.12 32.1707 15.6507C32.3253 16.0507 32.5093 16.6507 32.56 17.7547C32.6133 18.9493 32.6267 19.3093 32.6267 22.3333C32.6267 25.3573 32.616 25.7173 32.56 26.912C32.5093 28.016 32.3253 28.616 32.1707 29.016C31.9653 29.544 31.72 29.9227 31.3227 30.32C30.9253 30.7173 30.5493 30.9627 30.0187 31.168C29.6187 31.3227 29.0187 31.5067 27.9147 31.5573C26.72 31.6107 26.3627 31.624 23.336 31.624C20.3093 31.624 19.952 31.6133 18.7573 31.5573C17.6533 31.5067 17.0533 31.3227 16.6533 31.168C16.1253 30.9627 15.7467 30.7173 15.3493 30.32C14.952 29.9227 14.7067 29.5467 14.5013 29.016C14.3467 28.616 14.1627 28.016 14.112 26.912C14.0587 25.7173 14.0453 25.3573 14.0453 22.3333C14.0453 19.3093 14.056 18.9493 14.112 17.7547C14.1627 16.6507 14.3467 16.0507 14.5013 15.6507C14.7067 15.1227 14.952 14.744 15.3493 14.3467C15.7467 13.9493 16.1227 13.704 16.6533 13.4987C17.0533 13.344 17.6533 13.16 18.7573 13.1093C19.952 13.056 20.312 13.0427 23.336 13.0427ZM23.336 11C20.2587 11 19.872 11.0133 18.664 11.0693C17.4587 11.1253 16.6347 11.3147 15.912 11.5973C15.168 11.888 14.536 12.2747 13.904 12.904C13.2747 13.5333 12.8853 14.1653 12.5973 14.912C12.3173 15.632 12.1253 16.456 12.0693 17.664C12.0133 18.872 12 19.2587 12 22.336C12 25.4133 12.0133 25.8 12.0693 27.008C12.1253 28.2133 12.3147 29.0373 12.5973 29.76C12.888 30.504 13.2747 31.136 13.904 31.768C14.5333 32.3973 15.1653 32.7867 15.912 33.0747C16.632 33.3547 17.456 33.5467 18.664 33.6027C19.872 33.6587 20.2587 33.672 23.336 33.672C26.4133 33.672 26.8 33.6587 28.008 33.6027C29.2133 33.5467 30.0373 33.3573 30.76 33.0747C31.504 32.784 32.136 32.3973 32.768 31.768C33.3973 31.1387 33.7867 30.5067 34.0747 29.76C34.3547 29.04 34.5467 28.216 34.6027 27.008C34.6587 25.8 34.672 25.4133 34.672 22.336C34.672 19.2587 34.6587 18.872 34.6027 17.664C34.5467 16.4587 34.3573 15.6347 34.0747 14.912C33.784 14.168 33.3973 13.536 32.768 12.904C32.1387 12.2747 31.5067 11.8853 30.76 11.5973C30.04 11.3173 29.216 11.1253 28.008 11.0693C26.8 11.0133 26.4133 11 23.336 11V11Z" fill="#0C2036"/>
<path d="M23.3343 16.5137C20.121 16.5137 17.5156 19.119 17.5156 22.3323C17.5156 25.5457 20.121 28.151 23.3343 28.151C26.5476 28.151 29.153 25.5457 29.153 22.3323C29.153 19.119 26.5476 16.5137 23.3343 16.5137ZM23.3343 26.111C21.249 26.111 19.5556 24.4203 19.5556 22.3323C19.5556 20.2443 21.2463 18.5537 23.3343 18.5537C25.4223 18.5537 27.113 20.2443 27.113 22.3323C27.113 24.4203 25.4223 26.111 23.3343 26.111Z" fill="#0C2036"/>
<path d="M29.3912 17.6438C30.1424 17.6438 30.7512 17.0349 30.7512 16.2838C30.7512 15.5327 30.1424 14.9238 29.3912 14.9238C28.6401 14.9238 28.0312 15.5327 28.0312 16.2838C28.0312 17.0349 28.6401 17.6438 29.3912 17.6438Z" fill="#0C2036"/>
</svg>
