<svg width="35" height="32" viewBox="0 0 35 32" fill="none" xmlns="http://www.w3.org/2000/svg">
<path d="M35 3.47826H33.5714V4.17391H31.4286V4.86957H28.5714V5.56522H22.8571V4.86957H23.5714V0L22.1429 0V0.695652L20.7143 0.695652V1.3913H20V2.08696H19.2857V2.78261H18.5714L17.8571 2.78261V3.47826H17.1429V4.17391H15.7143V4.86957H15V5.56522H13.5714V4.86957H12.8571V4.17391V2.78261V2.08696L10.7143 2.08696V2.78261H10V3.47826H8.57143V4.17391H7.85714V4.86957L7.14286 4.86957V5.56522H6.42857V6.26087H5.71429V6.95652H5L5 7.65217H4.28571V8.34783H3.57143V9.04348H2.85714V10.4348H2.14286L2.14286 11.1304H1.42857V12.5217H0.714286L0.714286 14.6087H0L0 16.6957H3.57143V16H4.28571V15.3043H5V13.913H5.71429V12.5217H6.42857V11.1304H7.14286V13.2174H6.42857V15.3043H5.71429V16.6957H6.42857V17.3913H10.7143V16.6957H12.8571V16H13.5714V15.3043H14.2857V14.6087L15 14.6087L15 13.913H15.7143V13.2174H16.4286V12.5217H17.1429V11.8261H17.8571V11.1304H18.5714V10.4348H19.2857V11.1304H18.5714V12.5217H17.8571V13.913H17.1429V15.3043H18.5714V14.6087H20.7143V13.913H22.8571V13.2174H24.2857V12.5217H25.7143V11.8261H27.1429V11.1304H27.8571V10.4348H29.2857V11.1304H28.5714V11.8261H27.1429V12.5217H26.4286V13.2174H25.7143V13.913H24.2857V14.6087H23.5714V15.3043H22.1429V16H20.7143V16.6957H19.2857V17.3913H17.8571V18.087H15.7143V18.7826H13.5714V20.1739H14.2857V20.8696H15.7143V21.5652H17.1429V22.2609H18.5714V22.9565H20.7143V23.6522H21.4286V24.3478H20V23.6522H17.1429V22.9565H15.7143V22.2609H14.2857V21.5652H12.8571V20.8696H12.1429V20.1739H10.7143V19.4783H3.57143V18.7826H0.714286L0.714286 20.8696H1.42857V22.2609H2.14286V23.6522H2.85714V24.3478H3.57143L3.57143 25.7391H4.28571V26.4348H5V27.1304H5.71429V27.8261H6.42857V28.5217H7.14286V29.2174H7.85714V29.913H9.28571V30.6087H10V31.3043H11.4286V32H14.2857V27.8261V27.1304H16.4286V27.8261H25.7143V27.1304H27.8571V25.7391H27.1429V25.0435H26.4286V24.3478H25.7143V23.6522H25V22.9565H24.2857V22.2609H25.7143V21.5652H27.1429V20.8696H27.8571V20.1739H28.5714V19.4783L29.2857 19.4783V18.7826H30V18.087H30.7143V17.3913H31.4286V16H32.1429V14.6087H32.8571V13.2174H33.5714V11.8261H34.2857V9.04348H35V3.47826Z" fill="#0C2036"/>
</svg>
