<?xml version="1.0" encoding="utf-8"?>
<!-- Generator: Adobe Illustrator 27.0.0, SVG Export Plug-In . SVG Version: 6.00 Build 0)  -->
<svg version="1.1" id="Layer_1" xmlns="http://www.w3.org/2000/svg" xmlns:xlink="http://www.w3.org/1999/xlink" x="0px" y="0px"
	 viewBox="0 0 41 41" style="enable-background:new 0 0 41 41;" xml:space="preserve">
<style type="text/css">
	.st0{fill:#0A1624;}
</style>
<path class="st0" d="M12.5,10.3c1.6,0,2.5,1,2.5,2.4c0,1.3-1,2.4-2.6,2.4h0c-1.5,0-2.5-1.1-2.5-2.4C9.9,11.4,10.9,10.3,12.5,10.3
	L12.5,10.3z M25.9,16.6c3,0,5.2,2,5.2,6.2v7.9h-4.6v-7.3c0-1.8-0.7-3.1-2.3-3.1c-1.3,0-2,0.8-2.3,1.7c-0.1,0.3-0.1,0.7-0.1,1.1v7.6
	h-4.6c0,0,0.1-12.4,0-13.7h4.6v1.9C22.4,18,23.5,16.6,25.9,16.6L25.9,16.6z M10.1,17h4.6v13.7h-4.6V17z"/>
</svg>
