<svg width="46" height="46" viewBox="0 0 46 46" fill="none" xmlns="http://www.w3.org/2000/svg">
<path d="M25.2315 20.5659C25.5136 20.2482 25.7449 19.9279 26.0347 19.656C26.9242 18.8172 27.9765 18.3953 29.2067 18.4055C29.8827 18.4105 30.5487 18.4588 31.1993 18.6469C32.6888 19.0765 33.5529 20.1033 33.9672 21.5571C34.2773 22.6475 34.3332 23.7684 34.3358 24.8918C34.3408 27.2606 34.3281 29.632 34.3358 32.0009C34.3358 32.222 34.2748 32.2805 34.0562 32.2805C32.8362 32.2703 31.6136 32.2703 30.3936 32.2805C30.1776 32.2805 30.1318 32.2169 30.1318 32.0136C30.1395 29.7591 30.1395 27.5046 30.1318 25.2476C30.1318 24.6834 30.0937 24.1166 29.9361 23.5676C29.6438 22.556 28.9195 22.04 27.8596 22.096C26.4108 22.1722 25.6585 22.889 25.4755 24.3606C25.4323 24.7113 25.4094 25.0646 25.4119 25.4179C25.4119 27.6114 25.4119 29.8049 25.417 31.9983C25.417 32.2169 25.3636 32.2805 25.14 32.2805C23.9098 32.2703 22.6797 32.2703 21.4495 32.2805C21.2512 32.2805 21.1953 32.2296 21.1953 32.0288C21.2004 27.6877 21.2004 23.3439 21.1953 19.0027C21.1953 18.7867 21.2665 18.7384 21.4698 18.7384C22.6364 18.746 23.8056 18.7486 24.9722 18.7384C25.1883 18.7384 25.2417 18.807 25.2391 19.0104C25.2264 19.5289 25.234 20.0474 25.234 20.5684L25.2315 20.5659Z" fill="#0C2036"/>
<path d="M18.537 25.5267C18.537 27.6744 18.5344 29.8221 18.542 31.9699C18.542 32.2088 18.4836 32.2799 18.237 32.2774C17.017 32.2647 15.797 32.2672 14.5745 32.2774C14.3788 32.2774 14.3203 32.2291 14.3203 32.0283C14.3254 27.6795 14.3254 23.3307 14.3203 18.9794C14.3203 18.7989 14.3635 18.7354 14.5541 18.7354C15.7919 18.743 17.0297 18.7455 18.2675 18.7354C18.5065 18.7354 18.537 18.8243 18.537 19.0302C18.5319 21.1957 18.5344 23.3612 18.5344 25.5267H18.537Z" fill="#0C2036"/>
<path d="M18.8775 14.4273C18.8775 15.7769 17.7846 16.8749 16.4375 16.8749C15.1082 16.8749 14.0051 15.7769 14 14.4476C13.9949 13.1056 15.098 12 16.4426 12C17.777 12 18.875 13.0955 18.8775 14.4248V14.4273Z" fill="#0C2036"/>
</svg>
