<?xml version="1.0" encoding="utf-8"?>
<!-- Generator: Adobe Illustrator 27.0.0, SVG Export Plug-In . SVG Version: 6.00 Build 0)  -->
<svg version="1.1" id="Layer_1" xmlns="http://www.w3.org/2000/svg" xmlns:xlink="http://www.w3.org/1999/xlink" x="0px" y="0px"
	 viewBox="0 0 41 41" style="enable-background:new 0 0 41 41;" xml:space="preserve">
<style type="text/css">
	.st0{fill-rule:evenodd;clip-rule:evenodd;fill:#0A1624;}
</style>
<path class="st0" d="M31.2,30V22c0-4.3-2.3-6.2-5.3-6.2c-0.8,0-1.7,0.2-2.4,0.6c-0.7,0.4-1.3,1-1.8,1.7v-2h-4.6c0,1.3,0,13.9,0,13.9
	h4.6v-7.7c0-0.4,0-0.8,0.1-1.1c0.2-0.5,0.5-0.9,0.9-1.2c0.4-0.3,0.9-0.5,1.5-0.5c1.7,0,2.3,1.3,2.3,3.1V30H31.2z M12.2,14.2
	c0.3,0,0.7-0.1,1-0.2c0.3-0.1,0.6-0.3,0.8-0.6c0.2-0.2,0.4-0.5,0.6-0.8c0.1-0.3,0.2-0.6,0.2-1c0-0.7-0.3-1.3-0.8-1.8
	c-0.5-0.5-1.1-0.7-1.8-0.7c-0.3,0-0.7,0.1-1,0.2c-0.3,0.1-0.6,0.3-0.8,0.6c-0.2,0.2-0.4,0.5-0.6,0.8c-0.1,0.3-0.2,0.6-0.2,1
	c0,0.7,0.3,1.3,0.7,1.8C10.9,13.9,11.5,14.2,12.2,14.2L12.2,14.2z M14.5,16.1H9.9V30h4.6V16.1z"/>
</svg>
