<svg width="126" height="73" viewBox="0 0 126 73" fill="none" xmlns="http://www.w3.org/2000/svg">
<path fill-rule="evenodd" clip-rule="evenodd" d="M77.0159 20.1794H106.358L106.32 20.2551C106.623 20.2551 106.737 20.4823 106.585 20.8231L98.8616 36.0809C98.748 36.2324 98.6344 36.346 98.483 36.4596C98.3315 36.5731 98.1801 36.611 97.9908 36.6489H76.9402V42.328C76.9402 42.4794 76.9023 42.6309 76.7888 42.7444C76.6752 42.8202 76.5237 42.8959 76.3723 42.8959H48.7339C48.5825 42.8959 48.431 42.858 48.3174 42.7444C48.2417 42.6309 48.166 42.4794 48.166 42.328V36.611H18.8239C18.521 36.611 18.4074 36.346 18.5589 36.0431L26.2825 20.7852C26.3961 20.5959 26.5096 20.4823 26.6611 20.3687C26.8125 20.2551 26.964 20.1794 27.1533 20.1794H48.2039V14.4624C48.2039 14.311 48.2417 14.1596 48.3553 14.046C48.4689 13.9703 48.6203 13.8945 48.7718 13.8945H76.448C76.5994 13.8945 76.7509 13.9324 76.8645 14.046C76.9402 14.1596 77.0159 14.311 77.0159 14.4624V20.1794ZM92.5767 32.9006L97.1579 23.8898H73.4191V17.567H51.8764V23.8898H32.6431L28.0619 32.9006H51.8385V39.2234H73.3813V32.9006H92.5767Z" fill="#0C2036"/>
<path d="M56.3442 50.5816L53.7697 57.4344C53.7318 57.548 53.6561 57.5858 53.5047 57.5858C53.3532 57.5858 53.2775 57.5858 53.2396 57.4344L50.6651 50.5816H41.0863C39.7612 50.5816 39.0797 51.0738 39.0797 52.8154V56.7529C39.0797 58.4566 39.7991 58.9488 41.0863 58.9488H47.7877V57.5101H42.1464C41.7678 57.5101 41.6921 57.3965 41.6921 57.0179V55.2006H47.2955V53.8376H41.6921V52.4746C41.6921 52.096 41.7678 51.9824 42.1464 51.9824H48.1284C48.9614 54.1026 50.4001 57.6994 50.5515 58.0023C50.6272 58.2673 50.7787 58.4945 51.0059 58.6838C51.233 58.8352 51.4602 58.9488 51.7631 58.9488H54.2619C54.5269 58.9488 54.7919 58.8731 54.9812 58.6838C55.1705 58.5323 55.322 58.2673 55.3977 58.0023C55.587 57.548 58.3508 50.5437 58.3508 50.5437H56.3442V50.5816Z" fill="#0C2036"/>
<path d="M26.6232 51.9823H21.4742C21.1334 51.9823 21.0577 52.0959 21.0577 52.4367V57.0178C21.0577 57.3964 21.1334 57.51 21.512 57.51H26.8125V58.9487H20.4141C19.1268 58.9487 18.4453 58.4565 18.4453 56.7528V52.8153C18.4453 51.0737 19.1268 50.5815 20.4141 50.5815H26.6232V51.9823Z" fill="#0C2036"/>
<path d="M35.1046 53.8754V50.5815H37.7927V58.9487H35.1046V55.2005H30.8263V58.9487H28.1382V50.5815H30.8263V53.8754H35.1046Z" fill="#0C2036"/>
<path fill-rule="evenodd" clip-rule="evenodd" d="M76.9408 50.5815C78.2659 50.5815 78.9853 51.0737 78.9853 52.8153V56.7528C78.9853 58.4565 78.2659 58.9487 76.9408 58.9487H71.3374C70.0123 58.9487 69.2929 58.4565 69.2929 56.7528V52.8153C69.2929 51.0737 70.0123 50.5815 71.3374 50.5815H76.9408ZM75.8807 51.9823H72.4354C72.0946 51.9445 71.981 52.058 71.981 52.4745V57.0557C71.981 57.4343 72.0567 57.5479 72.4354 57.5479H75.8807C76.2593 57.5479 76.335 57.4343 76.335 57.0557V52.4745C76.335 52.0959 76.2593 51.9823 75.8807 51.9823Z" fill="#0C2036"/>
<path d="M83.4143 57.5479V50.5815H80.9155V58.9487H88.6391V57.5479H83.4143Z" fill="#0C2036"/>
<path d="M89.2834 52.8153C89.2834 51.0737 90.0406 50.5815 91.3657 50.5815H107.343V51.9823H104.238V58.9487H101.512V51.9823H92.5016C92.0851 51.9823 92.0094 52.0959 92.0094 52.4745V53.8375H97.7263V55.2384H92.0094V57.0557C92.0094 57.4343 92.123 57.5479 92.5016 57.5479H98.2564V58.9487H91.3657C90.0027 58.9487 89.2834 58.4565 89.2834 56.7528V52.8153Z" fill="#0C2036"/>
<path d="M65.5448 55.3895C65.469 55.3138 65.5069 55.2759 65.5826 55.2759H66.7942C67.665 55.2759 68.4979 54.973 68.5736 53.7236C68.6115 53.3072 68.6115 52.9286 68.5736 52.5121C68.5736 51.1112 67.8921 50.6191 66.8699 50.6191H59.0706V58.9863H61.7208V52.0199H65.6205C65.8477 52.0199 65.9234 52.0956 65.9234 52.2471V53.8372C65.9234 53.9887 65.7719 54.0644 65.5826 54.0644H62.4402V55.3517L66.302 58.9863H69.9745L65.5448 55.3895Z" fill="#0C2036"/>
</svg>
