<svg width="127" height="74" viewBox="0 0 127 74" fill="none" xmlns="http://www.w3.org/2000/svg">
<path d="M101.236 27.4062H106.613L105.553 31.268H100.176L101.236 27.4062Z" fill="#0C2036"/>
<path d="M96.3143 46.7154L99.9868 31.9119H105.325L101.653 46.7154H96.3143Z" fill="#0C2036"/>
<path fill-rule="evenodd" clip-rule="evenodd" d="M71.4399 31.7984H86.6599L85.6755 35.6223H76.0589L75.5289 37.5153H84.7669L83.9718 40.6199H74.7338L74.2416 42.513H83.8961L82.9117 46.3369H67.6917L71.4399 31.7984ZM50.3136 41.2257H56.0306C56.0306 41.2636 55.9548 43.3459 59.0594 43.3459C61.1418 43.3459 61.4825 42.7023 61.5204 42.3994C61.634 41.8693 61.2553 41.6043 60.4603 41.3771C57.9615 40.7714 54.554 39.6734 53.6832 39.1434C53.191 38.8405 52.7745 38.424 52.5095 37.8939C52.2445 37.4018 52.093 36.796 52.1309 36.2281C52.1309 33.9943 54.7812 31.2304 60.4224 31.2683C62.3533 31.2304 64.2842 31.5712 66.0637 32.3284C66.8587 32.6692 67.5024 33.2371 67.9188 33.9943C68.3353 34.7136 68.5246 35.5844 68.4868 36.4174H62.9212C62.9212 36.4174 62.9212 34.7894 60.5738 34.6758C59.3623 34.6379 58.075 34.8272 58.1129 35.7359C58.1129 36.531 58.908 36.7203 60.801 37.1367C61.2553 37.2503 64.2842 37.8561 65.2307 38.1968C66.9723 38.8405 67.8053 39.7491 67.5781 41.68C66.8966 45.9961 61.3689 46.7155 58.5672 46.7155C55.0462 46.7155 51.3358 46.0719 50.5407 42.5508C50.4272 42.1344 50.3893 41.68 50.3136 41.2257ZM43.5365 41.68L43.0822 36.1524L39.4854 41.68H43.5365ZM47.3983 31.7984L49.935 46.3748H43.8015L43.6501 44.6332H37.7438L36.608 46.3369H30.1338L40.8105 31.7605L47.3983 31.7984ZM31.724 41.9072C31.3832 42.6265 30.9289 43.2702 30.3988 43.8759C29.0737 45.2768 26.802 46.7155 22.8645 46.7155C18.0941 46.7155 16.2389 45.0118 15.2924 43.3459C14.6866 42.2479 14.4216 40.9985 14.573 39.787C14.7623 37.7804 16.6932 31.344 25.1362 31.344C29.8688 31.344 31.7618 32.8963 32.4433 34.6379C32.8219 35.8116 32.9355 37.0989 32.784 38.3104H27.2185C27.4078 37.2503 27.0671 35.433 25.174 35.433C24.1139 35.4709 23.0917 35.8116 22.2588 36.4931C21.4258 37.1367 20.82 38.0454 20.5172 39.0676C19.9114 41.3393 21.1608 42.7023 23.1674 42.778C23.811 42.778 24.4547 42.6265 25.0226 42.3237C25.5905 42.0208 26.0827 41.5664 26.4234 41.0364H32.0647C32.0268 41.1878 31.7997 41.7179 31.6861 41.945" fill="#0C2036"/>
<path d="M96.5411 41.7936L97.7527 36.8717H96.9955L98.207 31.9498H92.9065L89.234 46.7155H94.5724L95.8218 41.7179L96.5411 41.7936Z" fill="#0C2036"/>
<path d="M105.855 36.7959H105.098L103.886 41.7178H104.681L103.432 46.7154H108.733L112.443 31.9119H107.105L105.855 36.7959Z" fill="#0C2036"/>
</svg>
