<svg width="86" height="50" viewBox="0 0 86 50" fill="none" xmlns="http://www.w3.org/2000/svg">
<path d="M29.3559 39.0825V33.5067H32.4579C35.1167 33.5067 36.4982 34.4491 36.4982 36.2815C36.4982 38.1401 35.1167 39.0563 32.4579 39.0563L29.3559 39.0825ZM30.1379 38.4018H32.2754C34.5693 38.4018 35.638 37.7736 35.638 36.3077C35.638 34.8418 34.5432 34.2135 32.2754 34.2135H30.1379V38.4018ZM39.6523 39.0825H38.8442V33.5067H39.6523V39.0825ZM51.9298 38.4018H57.6384L57.1953 39.0825H51.1217V33.5067H51.9298V38.4018ZM43.3799 38.4018H49.0885L48.6454 39.0825H42.5979V33.5067H43.4059V38.4018H43.3799ZM19.0595 39.0825V38.7683L22.5264 33.5067H23.7776L27.2445 38.7683V39.0825H26.4886L25.5762 37.6689H20.7017L19.7894 39.0825H19.0595ZM21.1449 36.9883H25.1331L23.3345 34.1873H22.9174L21.1449 36.9883ZM17.1567 34.7109L16.8439 35.1035C15.9315 34.4229 14.8888 34.0826 13.6637 34.0826C11.6826 34.0826 10.4575 34.9203 10.4575 36.3077C10.4575 37.6951 11.6826 38.5327 13.6637 38.5327C14.8888 38.5327 15.8794 38.1924 16.8439 37.5118L17.1827 37.9045V38.2186C16.2965 38.8207 15.2016 39.2133 13.6898 39.2133C11.1613 39.2133 9.64941 38.0092 9.64941 36.3077C9.64941 34.6062 11.1352 33.402 13.6898 33.402C15.1756 33.402 16.3225 33.7947 17.1827 34.3968V34.7109H17.1567ZM76.5369 34.7109L76.2241 35.1035C75.3117 34.4229 74.269 34.0826 73.0439 34.0826C71.0628 34.0826 69.8377 34.9203 69.8377 36.3077C69.8377 37.6951 71.0628 38.5327 73.0439 38.5327C74.269 38.5327 75.2596 38.1924 76.2241 37.5118L76.5629 37.9045V38.2186C75.6767 38.8207 74.5818 39.2133 73.07 39.2133C70.5415 39.2133 69.0296 38.0092 69.0296 36.3077C69.0296 34.6062 70.5154 33.402 73.07 33.402C74.5818 33.402 75.7027 33.7947 76.5629 34.3968V34.7109H76.5369ZM59.2024 39.0825V38.7683L62.6693 33.5067H63.9205L67.3874 38.7683V39.0825H66.6315L65.7191 37.6689H60.8446L59.9323 39.0825H59.2024ZM61.2878 36.9883H65.3021L63.5035 34.1873H63.0864L61.2878 36.9883ZM30.3725 18.4549H26.4886L26.1758 16.6749H42.8585V18.4549H42.4154V17.0937H30.2161L30.3725 18.4549ZM26.1236 16.2561H42.8846V14.9472H25.9151L26.1236 16.2561ZM36.6025 20.6276H42.8846V19.6853H36.6025V20.6276ZM25.7326 14.5284H29.6948L28.9389 13.2195H42.4154V14.5284H42.8585V12.7745H24.4814L25.7326 14.5284ZM49.688 12.7745H43.3538V15.3922H49.688V12.7745ZM27.4009 22.905C27.5052 23.0621 27.6877 23.2453 28.3393 23.4024C28.6521 23.4809 28.991 23.5595 29.4602 23.6642H36.1854V22.748H27.3227C27.3227 22.8003 27.3488 22.8527 27.4009 22.905ZM27.0099 21.4915H36.1594V18.8738H26.5668L27.0099 21.4915ZM36.6025 25.1563C38.9485 25.6275 41.2424 26.0463 42.8846 26.3081V21.9103H36.6025V25.1563ZM50.1312 18.4549H59.7498L60.193 15.8372H50.1312V18.4549ZM50.1312 13.6122V14.5546H60.4797L61.1314 13.6384H50.1312V13.6122ZM65.7452 10.7065L62.6954 14.9996C62.3565 16.832 61.4963 21.5438 61.392 21.9888C61.1053 23.2977 60.975 24.1092 58.3944 24.7113C54.9535 25.5227 47.0814 27.1195 43.1192 27.7478C39.157 27.1195 31.2849 25.5489 27.844 24.7113C25.2634 24.083 25.1331 23.2977 24.8464 21.9888C24.7421 21.5438 23.8819 16.832 23.543 14.9996L20.4932 10.7065H65.7452ZM63.347 11.518H22.8914L25.2895 14.9472C25.889 18.5073 26.254 20.8109 26.4104 21.6224C26.671 23.0097 26.7232 23.6118 28.1569 24.0045C31.0242 24.6851 39.2874 26.3866 43.1192 26.9625C46.925 26.3866 55.2142 24.6851 58.0816 24.0045C59.5152 23.6118 59.5674 23.0097 59.828 21.6224C59.9844 20.8109 60.3494 18.5335 60.9489 14.9472L63.347 11.518ZM43.3538 20.6276H43.7969V19.3188H55.7616C55.7355 19.4497 55.6313 20.3397 55.5791 20.6538H59.3588L59.6716 18.8738H43.3538V20.6276ZM43.3538 22.3553H59.046L59.3067 21.0465H43.3538V22.3553ZM49.688 16.6749H43.3538V17.6173H49.688V16.6749ZM43.3538 22.748H58.9418C58.9157 22.8003 58.8896 22.8527 58.8636 22.905C58.7593 23.0621 58.5768 23.2453 57.9252 23.4024C55.1099 24.1092 47.3681 25.6536 43.3538 26.2819V22.748ZM43.823 25.7845C44.5529 25.6536 46.2994 25.3395 46.925 25.2348C53.2853 24.0045 54.3801 23.8212 54.9275 23.193H43.823V25.7845Z" fill="#0C2036"/>
</svg>
