<svg width="126" height="73" viewBox="0 0 126 73" fill="none" xmlns="http://www.w3.org/2000/svg">
<path fill-rule="evenodd" clip-rule="evenodd" d="M44.0787 16.9124C43.7623 16.6127 42.8632 15.7608 42.6738 15.54C42.6171 15.4832 42.5603 15.4169 42.5035 15.3507C42.4467 15.2844 42.3899 15.2181 42.3331 15.1613C42.8253 14.6313 43.3553 14.1012 43.9233 13.6469C45.362 12.5111 46.9521 11.6024 48.6558 10.9209C50.2839 10.2394 52.0255 9.74725 53.7671 9.44437C56.7581 8.91432 59.7491 8.64929 62.7779 8.68715C71.7131 8.68715 77.7329 10.2773 81.784 13.6469C82.3898 14.1391 82.9577 14.707 83.4878 15.3128C83.3742 15.4642 83.2606 15.6157 83.147 15.7293L81.7083 17.168C81.4225 17.4033 80.9875 17.773 80.5854 18.1146C80.082 18.5425 79.6302 18.9264 79.5881 18.9474C79.5502 18.8717 79.2095 18.4174 79.2095 18.4174C78.3008 17.1301 77.165 16.0321 75.8777 15.1235C74.8555 14.3663 73.7197 13.7226 72.546 13.2683C69.9715 12.2082 66.7154 11.7539 62.8536 11.7539C58.3103 11.7539 54.7514 12.5111 52.1012 13.7605C50.8518 14.3663 49.7159 15.1235 48.6937 16.0321C47.9744 16.7136 47.2929 17.433 46.7249 18.2281L46.3842 18.6824L45.9299 18.3795C45.3241 17.963 44.7562 17.5087 44.1883 17.0165C44.182 17.0102 44.142 16.9724 44.0787 16.9124ZM62.8158 9.10362C54.2592 9.10362 48.353 10.7316 44.2261 14.0634C43.8097 14.4041 43.3553 14.7827 42.9389 15.2371C43.166 15.3506 44.7562 16.335 44.7562 16.335L45.3998 15.6535C46.0056 15.0099 46.6871 14.442 47.4064 13.9119C48.5801 13.1169 49.8295 12.4732 51.1168 11.981C54.2214 10.8452 58.1589 10.2394 62.8536 10.2394C65.5418 10.2016 68.2299 10.4666 70.8801 11.0345C74.439 11.6782 77.7329 13.344 80.421 15.8807C80.4279 15.8875 80.4508 15.9093 80.4843 15.9409C80.6358 16.0843 81.0027 16.4313 81.0647 16.5243L81.5569 16.2214L82.9198 15.4264C82.4655 14.972 82.0112 14.5556 81.519 14.1391C80.0424 12.8518 78.3765 11.8675 76.5592 11.186C75.4613 10.7316 74.3254 10.3909 73.1518 10.1259C69.7443 9.40651 66.299 9.06576 62.8158 9.10362Z" fill="#0C2036"/>
<path fill-rule="evenodd" clip-rule="evenodd" d="M77.0887 55.0667H69.3651L58.8777 62.336V58.2849C58.8777 55.6346 58.2719 55.1046 55.2052 55.1424H48.9203V57.2626H55.2052C56.1138 57.2626 56.3789 57.3762 56.3789 57.8684V58.3227H51.457C49.2232 58.3227 48.1252 59.3071 48.1252 61.2002C48.1252 63.0932 49.261 64.0776 51.457 64.0776H60.7329L71.1824 56.8462V64.1154H77.0508C81.1777 64.1154 82.2378 63.2068 82.2378 59.61C82.2378 56.0132 81.1398 55.0289 77.0887 55.0667ZM56.3789 61.9195H51.457C50.8512 61.9195 50.5862 61.6545 50.5862 61.1623C50.5862 60.6701 50.8891 60.4051 51.457 60.4051H56.3789V61.9195ZM76.7858 61.6924H73.7191V57.4141H76.7858C79.2846 57.4141 79.739 57.717 79.739 59.5343C79.739 61.3516 79.2846 61.6924 76.7858 61.6924Z" fill="#0C2036"/>
<path fill-rule="evenodd" clip-rule="evenodd" d="M89.4319 55.0668H83.0334V57.2249H89.4319C90.3784 57.2249 90.6435 57.3385 90.6435 57.8307V58.285H85.6458C83.3742 58.285 82.2384 59.2694 82.2384 61.2003C82.2384 63.1312 83.3742 64.1156 85.6458 64.1156H93.1801V58.285C93.1801 55.559 92.5743 55.0668 89.4319 55.0668ZM90.6435 61.9196H85.6458C85.0401 61.9196 84.775 61.6546 84.775 61.1246C84.775 60.5945 85.0779 60.3295 85.6458 60.3295H90.6435V61.9196Z" fill="#0C2036"/>
<path d="M64.7084 57.6414H60.3544V55.0668H68.078L64.7084 57.6414Z" fill="#0C2036"/>
<path d="M70.0095 62.1464H65.5419L62.2859 64.0773H70.0095V62.1464Z" fill="#0C2036"/>
<path d="M32.6406 55.7477L43.4688 55.7099C46.687 55.7099 47.482 56.3914 47.4063 59.2688V64.0771H44.9075V59.2688C44.9075 58.2844 44.5289 57.9437 43.4309 57.9437H41.235V64.0393H38.8119V57.9437H35.1394V64.0393H32.6406V55.7477Z" fill="#0C2036"/>
<path d="M82.2 25.6868C82.3515 26.709 82.4272 27.7313 82.3893 28.7535C82.4272 30.9494 82.1621 33.1454 81.5942 35.2656C81.102 37.1965 80.1934 39.0516 79.0197 40.6418C77.8082 42.1941 76.2937 43.4435 74.5521 44.3143C72.7727 45.2229 70.8418 45.8287 68.873 46.0937C65.0112 46.5859 61.0737 46.6238 57.2119 46.1316C54.9403 45.7909 52.1007 45.1851 49.6776 43.3678C46.8759 41.2097 44.945 38.1051 44.2257 34.6219C43.8092 32.691 43.6199 30.7223 43.6577 28.7535C43.6577 27.5041 43.8849 25.7625 43.8849 25.7625C43.0141 24.2481 42.3326 22.6579 41.8783 20.992C40.8939 23.5666 40.4017 26.3304 40.4396 29.0942C40.3639 32.1231 40.8939 35.1141 41.954 37.9158C42.3844 39.1761 43.7381 39.8624 44.759 40.38C44.9955 40.4998 45.2142 40.6107 45.3993 40.7175C46.6866 41.5504 47.936 42.497 49.034 43.5571C52.3657 46.5859 56.379 47.381 63.0046 47.381C68.3808 47.381 72.4698 46.4345 75.7637 44.2386C77.1645 43.4056 78.3761 42.3455 79.3983 41.0583C79.9662 40.2253 80.6477 39.4681 81.4049 38.8245C81.5211 38.7404 81.6436 38.6537 81.7703 38.5641C82.8421 37.806 84.2209 36.8308 84.661 35.3413C85.1531 33.5997 85.4182 31.7824 85.456 29.965C85.6453 26.9362 85.191 23.9452 84.1309 21.1056C83.6008 22.6579 82.9572 24.2102 82.2 25.6868Z" fill="#0C2036"/>
<path d="M44.0364 25.0808C44.1499 25.3079 44.3014 25.4972 44.4907 25.6865C46.4039 26.7334 48.5237 27.3328 50.6859 27.9442L51.0027 28.0339C52.2143 28.3746 53.3501 28.7154 54.2209 29.0561C57.3255 30.3434 59.8622 32.6908 61.4145 35.6439C61.5762 35.9444 61.7521 36.3295 61.9077 36.67C62.0069 36.8873 62.0979 37.0866 62.1717 37.2341L62.2071 37.3085C62.5578 38.0458 62.6759 38.2942 63.0425 38.2942C63.4211 38.2942 63.6482 37.9534 63.8754 37.4234C63.9046 37.3417 63.9337 37.2592 63.9633 37.1755C64.1257 36.7157 64.3007 36.2204 64.5569 35.6439C65.6927 32.8801 68.0022 30.722 71.4476 29.094C72.962 28.4125 74.5521 27.8824 76.1802 27.466C78.0732 27.0874 79.9284 26.4059 81.5942 25.4972C81.6229 25.4255 81.7276 25.2073 81.8651 24.9205C82.0907 24.4501 82.4048 23.7953 82.6165 23.3013C82.852 22.8042 83.1236 22.1082 83.3314 21.5757C83.4243 21.3377 83.5045 21.1321 83.563 20.9918C81.2156 22.3548 78.7547 23.4906 76.218 24.3993C76.0489 24.4587 75.8394 24.5297 75.5983 24.6115C73.8428 25.2068 70.4101 26.3708 68.6459 27.7689C67.3586 28.7532 66.2228 29.9269 65.2763 31.2142C64.6326 32.085 64.0647 32.9937 63.5725 33.9402C63.5005 34.0842 63.3677 34.3803 63.2704 34.5972C63.2143 34.7221 63.1699 34.8211 63.1561 34.8488C63.1182 34.9245 63.0803 34.9624 63.0425 34.9624V37.6505C62.8799 37.4677 62.6737 36.9904 62.4415 36.4527C62.241 35.9886 62.0211 35.4794 61.7931 35.076C61.0737 33.8645 60.2029 32.7665 59.1807 31.7821C57.9691 30.4948 56.4926 29.4726 54.8267 28.7532C53.9937 28.4125 51.5328 27.6174 49.5262 27.0117C49.7029 27.0584 49.8789 27.1052 50.0537 27.1517C51.1528 27.4438 52.2084 27.7243 53.1229 27.9203C54.1073 28.1096 55.0917 28.4125 56.0382 28.7911C57.6284 29.4726 59.0671 30.4191 60.3544 31.5549C61.1494 32.3122 61.8309 33.1451 62.3988 34.0916C62.4367 34.1673 62.5503 34.0916 62.5124 34.0159C61.9824 33.0315 61.4145 32.0471 60.7708 31.1385C60.0136 30.0784 59.1428 29.1319 58.1206 28.2989C58.0576 28.2465 57.9937 28.1918 57.9272 28.1348C57.2732 27.5749 56.364 26.7966 53.6151 25.8001L51.7978 25.1186C51.6092 25.0509 51.4218 24.9838 51.2364 24.9174C49.9702 24.4641 48.7947 24.0432 47.936 23.6799C47.8075 23.6248 47.6657 23.5631 47.5197 23.4995C47.0634 23.3009 46.5661 23.0844 46.308 22.9984C44.9072 22.4305 43.582 21.7111 42.3705 20.8403C42.3705 20.8403 42.8248 22.1655 43.0898 22.8848C43.3549 23.6799 43.6956 24.3993 44.0364 25.0808Z" fill="#0C2036"/>
<path fill-rule="evenodd" clip-rule="evenodd" d="M84.3205 16.0701L84.4341 16.2216C87.3115 20.0076 88.826 24.6645 88.6745 29.3971C88.4474 36.2499 86.4786 41.0204 82.2382 44.5036C77.9978 47.9867 71.1829 49.9176 63.0049 49.9176C54.562 49.9176 47.6335 48.0246 43.5066 44.5414C39.4555 41.1718 37.4111 36.1363 37.1839 29.3214C37.146 27.5419 37.2975 25.8003 37.6761 24.0587C38.3197 20.992 39.6827 18.1525 41.7272 15.7672C42.863 17.2438 44.226 18.4553 45.8161 19.4397C46.6491 19.9698 47.5199 20.4241 48.4285 20.8406L50.6245 21.8249C53.2747 22.9608 56.2279 24.248 57.4015 25.1188C59.4839 26.6711 61.2255 28.602 62.5127 30.8737C62.7021 31.1766 62.7778 31.2523 62.8914 31.2901C63.0049 31.328 63.0428 31.2901 63.1185 31.2144C63.2321 31.1008 63.3078 30.9873 63.3835 30.8358C63.9136 29.8136 64.5572 28.8671 65.3144 27.9963C66.261 26.8604 67.3211 25.8761 68.4947 25.0431C70.136 23.9378 72.755 22.8917 74.5694 22.1671C74.8059 22.0726 75.0287 21.9836 75.234 21.9007C75.9913 21.5977 77.3165 21.0677 78.1114 20.727C78.8307 20.3862 79.5122 20.0076 80.1937 19.5533C81.7081 18.5311 83.0711 17.3574 84.3205 16.0701ZM83.6012 39.8088C84.4341 38.3701 85.0778 36.8557 85.5321 35.2655C86.0243 33.221 86.2514 31.1766 86.2514 29.1321C86.3272 26.2547 85.7214 23.3394 84.5098 20.727C84.472 20.6513 84.4341 20.6134 84.3584 20.5377C84.4341 20.2348 84.472 19.894 84.472 19.5912C84.5098 19.0611 84.5098 18.4932 84.472 17.9631C84.4341 17.4331 84.3963 16.9788 84.3584 16.7137C83.1469 17.9253 81.8596 18.9854 80.4587 19.9319C79.7394 20.3484 79.02 20.7648 78.2628 21.1056C77.468 21.4462 76.3706 21.9003 75.2731 22.3545L75.2718 22.355C73.038 23.1122 70.88 24.1345 68.8355 25.3081C67.2453 26.5197 65.8445 27.9963 64.7087 29.6621C64.2922 30.3058 63.9515 31.0251 63.6486 31.7445C63.535 32.1231 63.4214 32.5774 63.3078 33.1453C63.2394 33.419 63.1847 33.8165 63.1438 34.114C63.1167 34.3103 63.0957 34.4632 63.0807 34.5083C63.0428 34.6219 63.0049 34.6219 63.0049 34.5462C62.7778 33.5239 62.437 32.5017 62.0584 31.5173C61.7555 30.8358 61.4148 30.1543 61.0362 29.5107C60.8469 29.2457 60.6575 28.9806 60.4683 28.7535C59.9761 28.1098 59.4839 27.5041 58.916 26.974C58.1966 26.3304 57.4394 25.6867 56.6443 25.1567C55.2056 24.3238 52.6311 23.1879 50.3594 22.2036C49.9818 22.0247 49.5728 21.8457 49.1763 21.6723C48.8176 21.5154 48.4692 21.363 48.1635 21.2192C47.217 20.8027 46.3083 20.3105 45.4375 19.7426C44.1503 18.9854 42.9766 18.0389 41.9543 16.903C41.8408 16.7895 41.765 16.6759 41.6893 16.5623C41.6136 16.638 41.4622 16.8652 41.3864 16.9788C38.774 20.5755 37.4868 24.9674 37.6761 29.3971C37.7518 31.8959 38.1683 34.3947 38.9255 36.78C38.9653 36.8728 39.005 36.983 39.0487 37.104C39.2543 37.6737 39.5456 38.4809 40.3263 38.8244C40.5368 38.9414 40.7328 39.015 40.9323 39.0898C41.0557 39.1362 41.1804 39.183 41.3107 39.2409C41.7272 39.4681 42.0679 39.771 42.333 40.1496C42.4101 40.2576 42.4998 40.3782 42.597 40.5087C42.7383 40.6986 42.8953 40.9096 43.0523 41.1339C43.0945 41.1931 43.1387 41.256 43.1842 41.321C43.343 41.5472 43.5195 41.7988 43.6959 42.0047C44.1124 42.5348 44.6046 43.027 45.0968 43.4813C47.7092 45.9044 51.2302 47.381 55.5464 47.9867C58.0073 48.3275 60.5061 48.5168 62.9671 48.5168C65.0873 48.5168 67.2075 48.3654 69.3277 48.0625C72.773 47.6839 76.0669 46.548 78.9443 44.6929C80.8374 43.4434 82.4275 41.7776 83.6012 39.8088Z" fill="#0C2036"/>
</svg>
