<svg width="126" height="73" viewBox="0 0 126 73" fill="none" xmlns="http://www.w3.org/2000/svg">
<path d="M11.4375 31.9545V41.2683C11.4375 44.7893 13.6334 46.8717 17.4952 46.8717H36.4635C40.4388 46.8717 42.9755 44.9408 42.9755 41.4197V34.3019H27.1876V38.883H37.4857V40.5489C37.4857 41.7605 36.7663 42.1012 35.8577 42.1012H18.5553C17.2681 42.1012 16.8894 41.4576 16.8894 40.5111V32.5224C16.8516 32.371 16.8894 32.1817 16.9273 32.0302C16.9652 31.8788 17.0409 31.7274 17.1545 31.5759C17.2681 31.4623 17.3816 31.3487 17.5331 31.2352C17.6845 31.1594 17.836 31.0837 17.9874 31.0837C18.0631 31.0837 18.1767 31.0837 18.2524 31.0837H42.9755V26.2754H17.4574C13.5198 26.3133 11.4375 28.5849 11.4375 31.9545Z" fill="#0C2036"/>
<path d="M114.419 46.8717V42.1012H89.9983C88.7111 42.1012 88.3325 41.4576 88.3325 40.511V32.5224C88.2946 32.371 88.3325 32.1817 88.3703 32.0302C88.4082 31.8788 88.4839 31.7273 88.5596 31.5759C88.6732 31.4623 88.7868 31.3487 88.9004 31.2352C89.0518 31.1594 89.2033 31.0837 89.3547 31.0837C89.4304 31.0837 89.544 31.0837 89.6197 31.0837H114.381V26.2754H88.8246C84.8871 26.2754 82.8048 28.547 82.8048 31.9545V41.2683C82.8048 44.7893 85.0007 46.8717 88.8625 46.8717H114.419Z" fill="#0C2036"/>
<path d="M71.2567 26.2754L63.0788 40.8139H62.7759L54.598 26.2754H46.1929V46.8717H51.6827V31.7652H51.9856L60.4286 46.8717H65.464L73.907 31.7652H74.2099V46.8717H79.6997V26.2754H71.2567Z" fill="#0C2036"/>
</svg>
