<svg width="127" height="73" viewBox="0 0 127 73" fill="none" xmlns="http://www.w3.org/2000/svg">
<path d="M73.5285 29.949L73.5664 28.8511L70.3482 31.6149L70.3104 32.6371L67.8494 34.7573L67.0165 38.1269L70.1589 35.3631L70.1211 36.4611L73.3392 33.6972L73.4149 32.5993L75.8759 30.5169L76.7088 27.1473L73.5285 29.949ZM74.9672 30.8198L72.9227 32.5236L72.8849 33.5458L70.689 35.4388L70.7268 34.4166L68.3416 36.4989L68.7581 34.6438L70.8025 32.9022L70.8404 31.9178L73.0363 30.0247L72.9985 31.047L75.3837 28.9646L74.9672 30.8198Z" fill="#0C2036"/>
<path d="M80.6083 21.4682V21.6575C80.7219 21.3925 81.1384 20.4838 81.3655 20.5974C81.3655 20.5974 81.6684 20.7489 81.5927 21.8847L81.3277 22.1119C81.2898 22.1497 81.2898 22.1876 81.252 22.2254V22.4526C81.252 22.4526 81.252 22.4526 81.2898 22.4526L81.5548 22.2254C81.517 22.4526 81.4413 22.6798 81.2898 22.8691C81.2898 22.9069 81.2898 22.9827 81.2898 23.0205C81.3277 22.9827 81.3655 22.9827 81.4034 22.9448C81.517 22.9827 81.5927 23.3234 81.5927 23.3234H81.6306C81.7063 23.0584 81.8199 22.7555 81.9334 22.4905L82.047 22.3769C82.047 22.3769 82.0849 22.1876 82.047 22.1876C81.8956 22.2633 81.8577 22.1119 81.8577 21.9604L82.1227 21.7333C82.1606 21.6954 82.1606 21.6575 82.1606 21.6197V21.3925C82.1606 21.3925 82.1606 21.3925 82.1227 21.3925L81.9334 21.5818C82.0092 20.9003 82.1985 20.2188 82.4635 19.5752C82.8043 18.9694 83.0693 19.348 83.145 19.3859V19.3102C83.145 19.0451 83.145 18.4772 82.8421 18.5151C82.8421 18.5151 82.5771 18.4772 82.1227 19.5752C82.2363 19.1587 82.3121 18.7423 82.3878 18.3258C82.3878 18.0608 82.3499 17.7579 82.2363 17.5307C82.2363 17.5307 82.1606 17.455 82.1227 17.5307C82.0849 17.6064 82.0092 17.6822 82.0092 17.7579C81.8199 18.1365 81.7063 18.553 81.6684 18.9694C81.6684 19.3102 81.6684 19.6509 81.7063 20.0295C81.4413 19.6509 81.1005 20.0295 81.1005 20.0295C80.7598 20.4838 80.5705 20.976 80.6083 21.4682C80.5705 21.5061 80.5705 21.5061 80.6083 21.4682Z" fill="#0C2036"/>
<path d="M85.0002 12.3816C84.9245 12.3816 84.8488 12.4573 84.8488 12.4573C84.8488 12.4573 77.6174 18.9694 75.535 20.9003C75.3836 21.0517 75.27 21.2032 75.2322 21.4303L74.9293 23.0583L77.996 21.5061L63.571 33.8487L49.0704 21.4682L52.1371 23.0205L51.8342 21.3925C51.7963 21.2032 51.6827 21.0139 51.5313 20.8624C49.449 18.9315 42.2176 12.4195 42.2176 12.4195C42.2176 12.4195 42.104 12.3438 42.0282 12.3438C41.9525 12.3816 41.9525 12.4573 41.9525 12.4573C41.9525 12.4952 42.2554 15.2969 42.4826 18.0229C42.7476 21.1653 42.9369 22.4904 42.9369 22.4904C43.1641 23.5884 43.6563 24.6106 44.3756 25.4436C44.5271 25.6329 47.6695 29.3054 47.7074 29.3432V29.3811L47.8967 30.6684C48.086 31.8042 48.616 32.8643 49.4111 33.6972L50.244 34.568C52.3264 36.8018 57.2483 42.1402 58.7627 43.6925C58.9899 43.9196 59.1792 44.1468 59.3306 44.374C59.4821 44.639 59.5956 44.904 59.6714 45.169C59.8228 45.8505 60.2771 47.365 60.7315 48.9173L60.8451 49.258C60.8451 49.258 60.9586 49.6366 61.0344 49.7502C61.1479 49.9774 61.2615 50.2045 61.413 50.3938L63.4953 52.8169L63.5332 52.8548H63.6089C63.6089 52.8548 63.6467 52.8548 63.6467 52.8169L65.7291 50.3938C65.8805 50.2045 66.032 49.9774 66.1077 49.7502C66.1834 49.6366 66.297 49.258 66.297 49.258L66.4106 48.9173C66.8649 47.3271 67.3192 45.8505 67.4707 45.169C67.5464 44.904 67.66 44.639 67.8114 44.374C68.0007 44.1468 68.19 43.9196 68.3793 43.6925C69.8559 42.178 74.8157 36.8775 76.898 34.568L77.731 33.6972C78.526 32.8643 79.0561 31.8042 79.2454 30.6684L79.4347 29.3811V29.3432C79.4726 29.3054 82.615 25.595 82.7664 25.4436C83.4858 24.6106 83.978 23.5884 84.1673 22.4904C84.1673 22.4904 84.3566 21.1653 84.6216 18.0229C84.8488 15.3348 85.1517 12.4573 85.1517 12.4573C85.1517 12.4195 85.1517 12.4195 85.1517 12.3816C85.0381 12.4195 85.0381 12.3816 85.0002 12.3816ZM47.2909 19.9159C47.253 19.9159 47.1773 19.9159 47.1395 19.9538C47.1016 19.9916 47.0637 20.0295 47.0259 20.1052C47.0259 20.1431 47.0259 20.1431 47.0259 20.1809C47.0259 20.2188 47.0259 20.3324 47.0259 20.5217L47.5559 27.1095C46.0794 25.5572 44.8299 24.232 44.6028 23.967C44.1863 23.5127 43.9213 22.9448 43.8456 22.339L43.0505 14.3125L49.8276 20.5595L47.2909 19.9159ZM61.9809 48.8037L61.9052 48.6901C61.8673 48.6522 61.8673 48.5765 61.8673 48.5387C61.678 47.5543 60.8829 43.5789 60.7693 43.2003C60.7315 43.0488 60.6557 42.8595 60.58 42.7081C60.5043 42.5188 60.3529 42.3295 60.2014 42.178C60.2014 42.178 50.5091 32.6371 49.7897 31.9178C49.1839 31.2741 48.8432 30.4791 48.7675 29.6083L48.086 21.8468C48.086 21.8468 60.0878 32.2585 61.1858 33.2429C61.5265 33.5458 61.7916 33.8865 62.0187 34.2651C62.208 34.6059 62.2838 35.0224 62.2838 35.401L62.9274 50.0531L61.9809 48.8037ZM78.261 29.5704C78.1853 30.4412 77.8067 31.2363 77.2009 31.842C76.5194 32.5614 66.7892 42.1023 66.7892 42.1023C66.6377 42.2538 66.5242 42.4431 66.4106 42.6324C66.3349 42.7838 66.297 42.9731 66.2213 43.1246C66.1077 43.5032 65.3126 47.4785 65.1233 48.4629C65.1233 48.5387 65.0855 48.5765 65.0855 48.6144L65.0097 48.7658L64.0632 50.0152L64.7068 35.401C64.7068 35.0224 64.8204 34.6059 64.9719 34.2651C65.1612 33.8865 65.4641 33.5079 65.8048 33.2429C66.9028 32.2585 78.9046 21.8468 78.9046 21.8468L78.261 29.5704ZM83.1072 22.339C83.0315 22.9448 82.7664 23.5505 82.35 24.0049C82.1228 24.2699 80.8734 25.595 79.3968 27.1473L79.9269 20.5595C79.9269 20.3702 79.9269 20.2567 79.9269 20.2188C79.9269 20.1809 79.9269 20.1052 79.889 20.0673C79.8512 20.0295 79.8133 19.9916 79.7376 19.9916C79.6997 19.9916 79.6997 19.9916 79.6618 19.9916L77.0495 20.5974L83.8265 14.3504L83.1072 22.339Z" fill="#0C2036"/>
<path d="M57.7786 30.4411L57.9301 33.47L53.3489 29.2674L53.1596 26.4279L57.7786 30.4411ZM49.2599 28.2452L48.9949 25.2542L53.3489 29.2674L53.5382 32.2963L49.2599 28.2452ZM53.7275 35.2116L53.5382 32.2584L58.0815 36.5367L58.233 39.7549L53.7275 35.2116ZM58.1194 36.5367L57.9679 33.47L62.4355 37.5589L62.5869 40.7392L58.1194 36.5367Z" fill="#0C2036"/>
<path d="M46.9887 23.7779L44.1871 20.6733L43.8842 17.493L46.8373 20.6354L47.1023 23.9293L46.9887 23.7779Z" fill="#0C2036"/>
<path d="M47.1014 18.1748L49.6759 20.1057L47.2529 19.6135L47.1014 18.1748Z" fill="#0C2036"/>
<path d="M28.1337 61.2978C27.6037 61.2978 27.2629 61.1464 27.1494 60.8435C27.1115 60.6921 27.1115 60.5028 27.1494 60.3513C27.1872 60.1999 27.2629 60.0484 27.3765 59.9349L27.6037 59.5941L28.2095 58.6476C28.6638 58.004 29.1181 57.436 30.4811 57.436H37.9775C38.2426 57.436 38.5076 57.436 38.7726 57.5118C38.8862 57.5118 38.9619 57.5496 39.0755 57.6253C39.1512 57.7011 39.2269 57.7768 39.3027 57.8525C39.3405 57.9282 39.3405 58.004 39.3405 58.0797C39.3405 58.1554 39.3405 58.2311 39.3027 58.3068C39.2269 58.534 39.1134 58.7233 38.9998 58.8748L38.2047 60.0863C37.7504 60.7299 37.296 61.2978 35.8952 61.2978H28.1337ZM30.6325 58.3068C30.519 58.3068 30.4054 58.3447 30.2918 58.3826C30.1782 58.4583 30.0646 58.534 30.0268 58.6476L29.686 59.1776L29.1181 60.0484C29.0803 60.0863 29.0803 60.1242 29.0424 60.1999C29.0424 60.2377 29.0424 60.3135 29.0424 60.3513C29.0424 60.427 29.156 60.4649 29.2317 60.4649H35.8195C35.9709 60.5028 36.0845 60.4649 36.1981 60.3892C36.3117 60.3135 36.4252 60.2377 36.501 60.0863L36.9932 59.3669C37.1825 59.0641 37.3339 58.8369 37.4096 58.7233C37.4475 58.6854 37.4475 58.6476 37.4853 58.5719C37.4853 58.534 37.4853 58.4583 37.4853 58.4204C37.4475 58.3826 37.4475 58.3447 37.4096 58.3447C37.3718 58.3068 37.3339 58.3068 37.296 58.3068H30.6325Z" fill="#0C2036"/>
<path d="M15.9425 61.2978C15.4124 61.2978 15.0717 61.1463 14.9581 60.8434C14.9202 60.692 14.9202 60.5027 14.9581 60.3512C14.9959 60.1998 15.0717 60.0484 15.1853 59.9348L16.056 58.6475C16.3211 58.231 16.6618 57.8903 17.0783 57.701C17.4948 57.4738 17.9491 57.3981 18.4034 57.4738H27.0735C27.1114 57.4738 27.1114 57.4738 27.1493 57.4738C27.1871 57.4738 27.1871 57.5117 27.1871 57.5117C27.1871 57.5496 27.1871 57.5874 27.1871 57.5874C27.1871 57.6253 27.1871 57.6253 27.1493 57.6631L26.8464 58.1175C26.8085 58.1553 26.7706 58.231 26.6949 58.231C26.6571 58.2689 26.5813 58.2689 26.5056 58.2689H18.4791C18.3656 58.2689 18.2141 58.3068 18.1005 58.3446C17.9869 58.4203 17.8734 58.4961 17.7976 58.6097L17.419 59.1776C17.2297 59.4805 17.0404 59.7455 16.8511 60.0105C16.8133 60.0484 16.8133 60.0862 16.7754 60.1619C16.7754 60.1998 16.7754 60.2755 16.7754 60.3134C16.7754 60.3891 16.889 60.427 17.0026 60.427H24.9912C25.029 60.427 25.0291 60.427 25.0669 60.427C25.1048 60.427 25.1048 60.4648 25.1048 60.4648C25.1048 60.5027 25.1048 60.5406 25.1048 60.5406C25.1048 60.5784 25.0669 60.5784 25.0669 60.6163L24.9533 60.8056L24.764 61.0706C24.7262 61.1085 24.6883 61.1842 24.6126 61.1842C24.5747 61.222 24.499 61.222 24.4233 61.2599H15.9425V61.2978Z" fill="#0C2036"/>
<path d="M100.939 61.2978C100.371 61.2978 100.031 61.1463 99.9171 60.8434C99.8793 60.692 99.8793 60.5027 99.9171 60.3512C99.955 60.1998 100.031 60.0484 100.144 59.9348L101.053 58.6475C101.318 58.231 101.659 57.8903 102.113 57.701C102.53 57.4738 103.022 57.3981 103.476 57.4738H112.676C112.714 57.4738 112.714 57.4738 112.752 57.4738C112.79 57.4738 112.79 57.5117 112.79 57.5117C112.79 57.5496 112.79 57.5874 112.79 57.5874C112.79 57.6253 112.752 57.6253 112.752 57.6631C112.676 57.7389 112.525 58.0039 112.449 58.1175C112.411 58.1553 112.373 58.231 112.298 58.231C112.26 58.2689 112.184 58.2689 112.108 58.2689H103.59C103.476 58.2689 103.325 58.3068 103.211 58.3446C103.097 58.4203 102.984 58.4961 102.908 58.6097L102.719 58.8747H111.654C111.692 58.8747 111.692 58.8747 111.73 58.8747C111.768 58.8747 111.768 58.9125 111.768 58.9125C111.768 58.9504 111.768 58.9504 111.768 58.9883C111.768 59.0261 111.768 59.0261 111.73 59.064L111.427 59.5183C111.389 59.5562 111.351 59.6319 111.275 59.6319C111.238 59.6698 111.162 59.6698 111.086 59.7076H102.113L101.886 60.0105C101.848 60.0484 101.848 60.0862 101.848 60.1241C101.848 60.1619 101.848 60.1998 101.848 60.2755C101.886 60.3134 101.924 60.3512 101.962 60.3512C101.999 60.3512 102.037 60.3891 102.075 60.3512H110.556C110.594 60.3512 110.594 60.3512 110.632 60.3512C110.67 60.3512 110.67 60.3891 110.67 60.3891C110.67 60.427 110.67 60.4648 110.67 60.4648C110.67 60.5027 110.632 60.5027 110.632 60.5406L110.329 60.9949C110.291 61.0327 110.253 61.1085 110.177 61.1085C110.14 61.1463 110.064 61.1463 109.988 61.1463L100.939 61.2978Z" fill="#0C2036"/>
<path d="M65.5021 61.2978C64.972 61.2978 64.6313 61.1463 64.5177 60.8434C64.4798 60.692 64.4798 60.5027 64.5177 60.3512C64.5555 60.1998 64.6313 60.0484 64.7448 59.9348L64.8206 59.8212C65.0477 59.4805 65.4263 58.9125 65.5778 58.6475C65.8428 58.231 66.1836 57.8903 66.5622 57.701C66.9786 57.4738 67.3951 57.3981 67.8494 57.4738H76.5953C76.6331 57.4738 76.6331 57.4738 76.671 57.4738C76.7088 57.4738 76.7088 57.5117 76.7088 57.5117C76.7088 57.5496 76.7088 57.5874 76.7088 57.5874C76.7088 57.6253 76.671 57.6253 76.671 57.6631C76.5953 57.7389 76.4438 58.0039 76.3681 58.1175C76.3302 58.1553 76.2924 58.231 76.2167 58.231C76.1788 58.2689 76.1031 58.2689 76.0274 58.2689H67.9251C67.8116 58.2689 67.6601 58.3068 67.5465 58.3446C67.4329 58.4203 67.3194 58.4961 67.2437 58.6097L67.0543 58.8747H75.5352C75.573 58.8747 75.573 58.8747 75.6109 58.8747C75.6487 58.8747 75.6487 58.9125 75.6487 58.9125C75.6487 58.9504 75.6487 58.9504 75.6487 58.9883C75.6487 59.0261 75.6487 59.0261 75.6109 59.064L75.308 59.5183C75.2701 59.5562 75.2323 59.6319 75.1566 59.6319C75.1187 59.6698 75.043 59.6698 75.0051 59.7076H66.4864L66.2971 59.9726C66.2593 60.0105 66.2214 60.0484 66.2214 60.1241C66.2214 60.1619 66.2214 60.2377 66.2214 60.2755C66.2593 60.3512 66.335 60.3891 66.4107 60.3891H74.4751C74.5129 60.3891 74.5129 60.3891 74.5508 60.3891C74.5886 60.3891 74.5886 60.427 74.5886 60.4648C74.5886 60.5027 74.5886 60.5027 74.5886 60.5406C74.5886 60.5784 74.5886 60.5784 74.5508 60.6163L74.4372 60.8056L74.2479 61.0706C74.21 61.1085 74.1722 61.1842 74.0965 61.1842C74.0586 61.222 73.9829 61.222 73.945 61.2599L65.5021 61.2978Z" fill="#0C2036"/>
<path d="M80.684 61.2979C80.6462 61.2979 80.6462 61.2979 80.6083 61.2979C80.5704 61.2979 80.5704 61.2601 80.5704 61.2601C80.5704 61.2601 80.5704 61.1843 80.6083 61.1086L82.4256 58.4205C82.4256 58.3826 82.4635 58.3448 82.4256 58.3448C82.3878 58.3448 82.4256 58.3448 82.3499 58.3448H78.1473C78.0716 58.3448 78.0338 58.3448 78.0338 58.2691C78.0338 58.1933 78.0338 58.1933 78.0716 58.1176C78.1095 58.0419 78.1852 57.9283 78.2609 57.8147L78.3745 57.6633C78.4124 57.6254 78.4502 57.5497 78.526 57.5118C78.5638 57.474 78.6395 57.474 78.7153 57.474H88.8241C88.8998 57.474 88.9377 57.5118 88.9377 57.5497C88.9377 57.5876 88.9377 57.6254 88.9377 57.6254C88.9377 57.6633 88.9377 57.6633 88.8998 57.7011L88.5969 58.1555C88.5591 58.1933 88.5212 58.2691 88.4455 58.2691C88.4076 58.3069 88.3319 58.3069 88.2562 58.3069H84.3565C84.3187 58.3069 84.2429 58.3448 84.2051 58.3448C84.1672 58.3826 84.1294 58.4205 84.0915 58.4584L82.2742 61.1465C82.2363 61.1843 82.1984 61.2601 82.1227 61.2601C82.0849 61.2979 82.0091 61.2979 81.9334 61.2979H80.684Z" fill="#0C2036"/>
<path d="M92.2317 61.2598C92.1938 61.2598 92.1938 61.2598 92.1559 61.2598C92.1181 61.2598 92.1181 61.2219 92.1181 61.2219C92.1181 61.2219 92.1181 61.1462 92.1559 61.0705L93.8597 58.5717L93.9354 58.4202C93.9354 58.3824 93.9733 58.3824 93.9733 58.3445C93.9733 58.3445 93.9354 58.3445 93.8975 58.3445H89.695C89.6193 58.3445 89.5814 58.3445 89.5814 58.2688C89.5814 58.1931 89.5814 58.1931 89.6193 58.1173L89.96 57.663C89.9979 57.6252 90.0357 57.5494 90.1115 57.5494C90.1493 57.5116 90.225 57.5116 90.3008 57.5116H100.447C100.485 57.5116 100.485 57.5116 100.523 57.5116C100.561 57.5116 100.561 57.5494 100.561 57.5494C100.561 57.5873 100.561 57.6252 100.561 57.6252C100.561 57.663 100.523 57.663 100.523 57.7009L100.22 58.1552C100.182 58.1931 100.145 58.2688 100.069 58.3066C100.031 58.3445 99.9553 58.3445 99.8795 58.3445H95.9799C95.942 58.3445 95.8663 58.3445 95.8284 58.3824C95.7906 58.4202 95.7527 58.4581 95.7149 58.4959L93.8975 61.1841C93.8597 61.2219 93.8218 61.2976 93.7461 61.2976C93.7082 61.3355 93.6325 61.3355 93.5568 61.3355L92.2317 61.2598Z" fill="#0C2036"/>
<path d="M52.8564 57.7768C52.7429 57.5496 52.4778 57.436 52.0235 57.436H42.7476C42.6719 57.436 42.634 57.4739 42.5583 57.4739C42.5205 57.5118 42.4447 57.5496 42.4069 57.6253L41.9525 58.3068H50.7362C50.812 58.3068 50.8877 58.3068 50.9255 58.3826C50.9255 58.3826 50.9255 58.4204 50.9255 58.4583C50.9255 58.4961 50.9255 58.4961 50.9255 58.534C50.8498 58.6476 50.7741 58.7612 50.6984 58.8748C50.6605 58.9505 50.5848 58.9883 50.5091 59.0262C50.4334 59.0641 50.3576 59.0641 50.2819 59.0641H41.4225L40.4381 60.5028L39.9838 61.1464C39.9838 61.1843 39.9459 61.1843 39.9459 61.2221C39.9459 61.26 39.9459 61.26 39.9459 61.2978C39.9459 61.3357 39.9838 61.3357 39.9838 61.3357C40.0216 61.3357 40.0216 61.3357 40.0595 61.3357H41.3468C41.4225 61.3357 41.4604 61.2978 41.5361 61.2978C41.5739 61.26 41.6497 61.2221 41.6875 61.1843L42.5583 59.9349H45.4357C46.3065 60.2377 47.821 60.8057 49.0325 61.26C49.3354 61.3357 49.6761 61.3736 49.979 61.3736H51.7963C51.9099 61.3736 51.9856 61.2978 51.9856 61.26C51.9856 61.2221 51.9856 61.1843 51.9478 61.1464C51.9099 61.1085 51.9099 61.1085 51.8721 61.1085C50.4712 60.6542 49.7897 60.4649 49.2597 60.2756C48.9189 60.162 48.616 60.0863 48.1617 59.9349H50.5091C50.7741 59.9727 51.077 59.897 51.342 59.8213C51.607 59.7077 51.8342 59.5562 52.0614 59.3669C52.2885 59.0641 52.5157 58.7612 52.705 58.4583C52.7429 58.3826 52.7807 58.269 52.8186 58.1933C52.8943 57.9661 52.8943 57.8525 52.8564 57.7768Z" fill="#0C2036"/>
<path d="M64.934 57.436H63.7603C63.571 57.436 63.4196 57.4739 63.2681 57.5496L57.9676 60.3892C57.8919 60.427 57.8541 60.427 57.7783 60.4649H57.0968C57.059 60.3892 56.7182 59.4805 56.4153 58.7612C56.1882 58.1933 55.961 57.6632 55.961 57.6253C55.9232 57.5875 55.9232 57.5118 55.8474 57.4739C55.7717 57.436 55.7339 57.436 55.696 57.436H54.3709C54.333 57.436 54.2951 57.436 54.2573 57.4739C54.2194 57.4739 54.1816 57.5118 54.1816 57.5496C54.1816 57.5875 54.1816 57.5875 54.1816 57.6253C54.1816 57.6632 54.1816 57.6632 54.1816 57.7011L54.6359 58.7612C55.0145 59.632 55.5067 60.8814 55.5824 60.995C55.696 61.26 55.8853 61.2978 56.226 61.2978H57.8919C58.1948 61.2978 58.4598 61.2221 58.687 61.0707C58.8006 60.995 64.934 57.7011 64.9719 57.6632C65.0097 57.6632 65.0097 57.6253 65.0476 57.5875C65.0476 57.5496 65.0855 57.5118 65.0855 57.4739C65.0476 57.4739 65.0097 57.436 64.934 57.436Z" fill="#0C2036"/>
</svg>
