<svg width="126" height="73" viewBox="0 0 126 73" fill="none" xmlns="http://www.w3.org/2000/svg">
<path d="M43.0602 56.5255V48.4611H47.5657C51.4275 48.4611 53.4341 49.8241 53.4341 52.4743C53.4341 55.1625 51.4275 56.4876 47.5657 56.4876L43.0602 56.5255ZM44.1961 55.5411H47.3007C50.6324 55.5411 52.1847 54.6324 52.1847 52.5122C52.1847 50.392 50.5945 49.4833 47.3007 49.4833H44.1961V55.5411ZM58.0153 56.5255H56.8416V48.4611H58.0153V56.5255ZM75.8477 55.5411H84.1392L83.4955 56.5255H74.674V48.4611H75.8477V55.5411ZM63.4293 55.5411H71.7209L71.0772 56.5255H62.2935V48.4611H63.4672V55.5411H63.4293ZM28.1052 56.5255V56.0711L33.1407 48.4611H34.958L39.9935 56.0711V56.5255H38.8956L37.5704 54.481H30.4905L29.1653 56.5255H28.1052ZM31.1341 53.4966H36.9268L34.3144 49.4455H33.7086L31.1341 53.4966ZM25.3414 50.2027L24.8871 50.7706C23.5619 49.7862 22.0475 49.294 20.2681 49.294C17.3906 49.294 15.6112 50.5056 15.6112 52.5122C15.6112 54.5188 17.3906 55.7304 20.2681 55.7304C22.0475 55.7304 23.4862 55.2382 24.8871 54.2538L25.3793 54.8217V55.2761C24.092 56.1468 22.5018 56.7148 20.3059 56.7148C16.6334 56.7148 14.4375 54.9732 14.4375 52.5122C14.4375 50.0513 16.5956 48.3097 20.3059 48.3097C22.464 48.3097 24.1299 48.8776 25.3793 49.7484V50.2027H25.3414ZM111.588 50.2027L111.134 50.7706C109.809 49.7862 108.294 49.294 106.515 49.294C103.637 49.294 101.858 50.5056 101.858 52.5122C101.858 54.5188 103.637 55.7304 106.515 55.7304C108.294 55.7304 109.733 55.2382 111.134 54.2538L111.626 54.8217V55.2761C110.339 56.1468 108.749 56.7148 106.553 56.7148C102.88 56.7148 100.684 54.9732 100.684 52.5122C100.684 50.0513 102.842 48.3097 106.553 48.3097C108.749 48.3097 110.377 48.8776 111.626 49.7484V50.2027H111.588ZM86.4108 56.5255V56.0711L91.4463 48.4611H93.2636L98.2991 56.0711V56.5255H97.2011L95.876 54.481H88.7961L87.4709 56.5255H86.4108ZM89.4397 53.4966H95.2702L92.6579 49.4455H92.0521L89.4397 53.4966ZM44.5368 26.6912H38.8956L38.4412 24.1166H62.6721V26.6912H62.0285V24.7224H44.3097L44.5368 26.6912ZM38.3655 23.5109H62.71V21.6178H38.0626L38.3655 23.5109ZM53.5855 29.8336H62.71V28.4706H53.5855V29.8336ZM37.7976 21.0121H43.5524L42.4545 19.119H62.0285V21.0121H62.6721V18.4754H35.9803L37.7976 21.0121ZM72.5916 18.4754H63.3915V22.2615H72.5916V18.4754ZM40.2207 33.1275C40.3721 33.3547 40.6372 33.6197 41.5837 33.8468C42.038 33.9604 42.5302 34.074 43.2117 34.2255H52.9798V32.9003H40.1071C40.1071 32.9761 40.145 33.0518 40.2207 33.1275ZM39.6528 31.083H52.9419V27.2969H39.0091L39.6528 31.083ZM53.5855 36.3835C56.993 37.065 60.3248 37.6708 62.71 38.0494V31.6888H53.5855V36.3835ZM73.2353 26.6912H87.2059L87.8495 22.9051H73.2353V26.6912ZM73.2353 19.6869V21.0499H88.266L89.2125 19.7248H73.2353V19.6869ZM95.9139 15.4844L91.4842 21.6935C90.992 24.3438 89.7426 31.1587 89.5911 31.8024C89.1747 33.6954 88.9854 34.8691 85.2371 35.7399C80.2395 36.9136 68.8056 39.2231 63.0507 40.1317C57.2959 39.2231 45.8619 36.9514 40.8643 35.7399C37.1161 34.8312 36.9268 33.6954 36.5103 31.8024C36.3589 31.1587 35.1095 24.3438 34.6173 21.6935L30.1876 15.4844H95.9139ZM92.4307 16.6581H33.6708L37.154 21.6178C38.0248 26.7669 38.5548 30.0986 38.782 31.2723C39.1606 33.2789 39.2363 34.1497 41.3186 34.7176C45.4833 35.702 57.4852 38.163 63.0507 38.9959C68.5784 38.163 80.6181 35.702 84.7828 34.7176C86.8652 34.1497 86.9409 33.2789 87.3195 31.2723C87.5467 30.0986 88.0767 26.8047 88.9475 21.6178L92.4307 16.6581ZM63.3915 29.8336H64.0351V27.9406H81.4132C81.3753 28.1299 81.2239 29.4171 81.1482 29.8715H86.638L87.0923 27.2969H63.3915V29.8336ZM63.3915 32.3324H86.1837L86.5623 30.4394H63.3915V32.3324ZM72.5916 24.1166H63.3915V25.4796H72.5916V24.1166ZM63.3915 32.9003H86.0322C85.9944 32.9761 85.9565 33.0518 85.9186 33.1275C85.7672 33.3547 85.5022 33.6197 84.5557 33.8468C80.4667 34.8691 69.222 37.1029 63.3915 38.0115V32.9003ZM64.073 37.2922C65.1331 37.1029 67.6697 36.6485 68.5784 36.4971C77.8164 34.7176 79.4066 34.4526 80.2017 33.544H64.073V37.2922Z" fill="#0C2036"/>
</svg>
