<svg width="126" height="74" viewBox="0 0 126 74" fill="none" xmlns="http://www.w3.org/2000/svg">
<path d="M80.1052 22.8636H78.6286L79.1965 20.8949H80.6731L80.1052 22.8636Z" fill="#0C2036"/>
<path d="M76.1299 20.8949H74.6155L74.0854 22.8636H75.562L76.1299 20.8949Z" fill="#0C2036"/>
<path d="M62.4995 20.8949H60.9851L60.4171 22.8636H61.9316L62.4995 20.8949Z" fill="#0C2036"/>
<path d="M64.0897 52.2818H62.4617L63.0296 50.1616H64.6576L64.0897 52.2818Z" fill="#0C2036"/>
<path d="M24.6767 31.9125H25.7747C28.6521 31.9125 30.1286 32.5562 30.1286 34.2599C30.1286 35.8122 28.7657 36.683 26.0397 36.683H24.6767V31.9125Z" fill="#0C2036"/>
<path fill-rule="evenodd" clip-rule="evenodd" d="M17.5586 28.1642V45.9588H109.295V28.1642H17.5586ZM25.9637 37.8566H24.6386V42.0591H25.2065V42.362H22.4805V42.0591H23.0863V31.1174H22.4805V30.8145H25.9637C27.7053 30.8145 29.0304 30.9281 30.2041 31.6474C31.2263 32.2532 31.7564 33.2376 31.7564 34.2219C31.7185 36.4557 29.7498 37.8566 25.9637 37.8566ZM39.5936 31.0795H38.9878V42.0213H39.5936V42.3241H36.8676V42.0213H37.3976V31.0795H36.8676V30.7766H39.5936V31.0795ZM57.426 31.0795H56.8959V42.7028H56.6688L47.6201 33.654V41.9834H48.1501V42.2863H45.4241V41.9834H46.0678V30.3601H46.2949L55.3437 39.4089V31.0416H54.7V30.7388H57.426V31.0795ZM73.3275 32.7454H73.0246V32.026H68.5571V42.0213H69.0871V42.3241H66.3611V42.0213H66.929V32.026H62.4615V32.7454H62.1586V30.7766H73.3275V32.7454ZM88.964 31.0795H88.5097L83.2092 37.2508V42.0213H83.7771V42.3241H81.0133V42.0213H81.5812V37.3644L76.5835 31.0795H76.0156V30.7766H78.7416V31.0795H78.4387L82.4141 36.0771L86.6924 31.0795H86.238V30.7766H88.964V31.0795ZM92.1443 34.9034H90.4784L92.5608 30.7766H93.9238L92.1443 34.9034ZM100.057 42.7406C98.8457 42.7406 97.5584 42.4377 96.1954 41.8698L95.9683 39.4846L96.2711 39.4467L96.3847 40.4311C97.7477 41.1126 98.8835 41.5291 100.019 41.5291C101.761 41.5291 102.859 40.6961 102.859 39.4846C102.859 38.273 101.875 37.7051 100.171 37.0236L99.2243 36.6829C97.2177 35.8878 96.1954 34.7899 96.1954 33.4269C96.1954 31.761 97.7477 30.4737 100.133 30.4737C101.344 30.4737 102.48 30.8145 103.351 31.2688V33.3133H103.048V32.5561C102.026 31.9503 101.042 31.6474 100.057 31.6474C98.6185 31.6474 97.672 32.3668 97.672 33.3511C97.672 34.3355 98.5049 34.9792 100.209 35.6228L101.155 35.9635C103.275 36.7586 104.373 37.9702 104.373 39.4846C104.373 41.3398 102.632 42.7406 100.057 42.7406Z" fill="#0C2036"/>
<path fill-rule="evenodd" clip-rule="evenodd" d="M106.418 19.5322V24.9463H112.324V49.1772H106.418V54.5913C106.418 58.0366 103.616 60.8383 100.171 60.8383H26.6455C23.2002 60.8383 20.3985 58.0366 20.3985 54.5913V49.1772H14.4922V24.9463H20.3985V19.5322C20.3985 16.0869 23.2002 13.2852 26.6455 13.2852H100.171C103.616 13.2852 106.418 16.0869 106.418 19.5322ZM39.6696 15.4054C35.0884 15.4054 30.7723 17.1848 27.5163 20.4408C26.1912 21.8038 25.1311 23.3183 24.2603 24.9463H25.4339C28.1599 19.9108 33.5362 16.4655 39.6696 16.4655H87.4499C93.6212 16.4655 98.9596 19.8729 101.686 24.9463H102.859C100.02 19.305 94.1891 15.4054 87.4499 15.4054H39.6696ZM79.4991 25.8928H80.6728L80.3321 23.8104L81.165 23.129L81.8843 20.5923L81.2786 19.7215H78.2876L76.5838 25.8928H77.7575L78.2876 24.0376H79.2719L79.4991 25.8928ZM73.2142 25.8928L73.7443 24.0376H75.2209L74.6908 25.8928H75.8645L77.3411 20.5544L76.7353 19.7215H74.6151L73.5171 20.5923L72.0405 25.8928H73.2142ZM69.0117 24.7191L70.0718 20.8952H71.5862L71.3212 21.8795H72.4949L72.8356 20.5923L72.2298 19.7215H70.0718L68.936 20.5923L67.6866 25.022L68.3302 25.8928H70.4504L71.5862 25.022L71.927 23.7726H70.7533L70.4883 24.7191H69.0117ZM65.1499 22.2203L65.5285 20.8952H66.9672L66.7779 21.5388H67.9895L68.2545 20.5923L67.6487 19.7215H65.5285L64.3927 20.5923L63.8626 22.5232L64.5063 23.394H66.3236L65.945 24.7191H64.4305L64.6198 24.0755H63.4462L63.1811 25.022L63.8248 25.8928H65.945L67.0808 25.022L67.6108 23.0911L66.9672 22.2203H65.1499ZM59.5844 25.8928L60.1144 24.0376H61.591L61.0609 25.8928H62.2346L63.7112 20.5923L63.1054 19.7215H60.9852L59.8872 20.5544L58.4107 25.8928H59.5844ZM48.4912 19.7215H47.7718L46.0681 25.8928H46.7874L48.4912 19.7215ZM44.8565 25.8928H45.5759L47.2796 19.7215H46.5603L44.8565 25.8928ZM50.2327 19.7215H49.0969L47.3932 25.8928H48.529L50.2327 19.7215ZM51.8608 19.7215H50.7249L49.0212 25.8928H50.157L51.8608 19.7215ZM54.8896 19.7215H52.5044L50.8007 25.8928H53.1859L54.8896 19.7215ZM56.7069 19.7215H55.5333L53.7917 25.8928H54.9653L55.9497 22.4096L56.5176 25.8928H57.6913L59.3951 19.7215H58.2214L57.2748 23.2047L56.7069 19.7215ZM87.4877 58.6802C92.0689 58.6802 96.385 56.9008 99.6411 53.6447C100.966 52.3196 102.064 50.8052 102.859 49.1772H101.686C98.9596 54.2126 93.6212 57.6201 87.4877 57.6201H39.7075C33.574 57.6201 28.2356 54.2126 25.5097 49.1772H24.336C27.1755 54.8184 33.0061 58.6802 39.7075 58.6802H87.4877ZM53.9052 52.8497L53.5266 54.2505H51.9365L52.1258 53.569H50.8385L50.5735 54.5913L51.255 55.5378H53.5645L54.776 54.5913L55.344 52.5089L54.6625 51.5624H52.6937L53.0723 50.1615H54.7003L54.511 50.843H55.7604L56.0254 49.8208L55.344 48.8743H53.0344L51.8229 49.8208L51.255 51.9031L51.9365 52.8497H53.9052ZM76.2431 52.8497L75.8645 54.2505H74.2743L74.4636 53.569H73.1764L72.9114 54.5913L73.5928 55.5378H75.9023L77.1139 54.5913L77.6818 52.5089L77.0003 51.5624H75.0316L75.4102 50.1615H77.0382L76.8489 50.843H78.0983L78.3633 49.8208L77.6818 48.8743H75.3723L74.1608 49.8208L73.5928 51.9031L74.2743 52.8497H76.2431ZM70.7911 50.1237H73.1007L73.4793 48.7986H69.8446L67.9895 55.4999H71.6241L72.0027 54.2126H69.6553L70.0339 52.8118H72.2677L72.6085 51.5245H70.4125L70.7911 50.1237ZM65.5285 55.5378H66.8158L68.6709 48.8364H67.3837L65.5285 55.5378ZM64.3548 53.3418L65.2635 52.6225L66.0207 49.8208L65.3392 48.8743H62.0832L60.228 55.5756H61.5153L62.0832 53.569H63.0676L63.3326 55.5756H64.6198L64.3548 53.3418ZM58.335 50.1237H60.6445L61.0609 48.7986H57.4263L55.5711 55.4999H59.2057L59.5844 54.2126H57.237L57.6156 52.8118H59.8115L60.1523 51.5245H57.9563L58.335 50.1237ZM16.8774 46.6405H109.977V27.5208H16.8774V46.6405Z" fill="#0C2036"/>
</svg>
