<svg width="32" height="78" viewBox="0 0 32 78" fill="none" xmlns="http://www.w3.org/2000/svg">
<path d="M4.49 0C2.02 0 0 2.03 0 4.52V7.58C0 9.34 0 15 0 17.2V63.55C0 65.51 1.15 67.31 2.92 68.12L5.34 69.23C6.01 69.54 11.75 72.18 13.41 72.94L23.18 77.43C24 77.81 24.87 78 25.76 78C27.04 78 28.3 77.59 29.35 76.85L29.4 76.83L29.65 76.63C31.14 75.43 32 73.61 32 71.63V16.24C32 13.78 30.57 11.54 28.35 10.52L6.36 0.41C5.77 0.14 5.14 0 4.49 0Z" fill="#F7FFFF"/>
<path d="M27.7798 74.2901C28.5698 73.6501 28.9998 72.6601 28.9998 71.6301V16.2401C28.9998 14.9501 28.2498 13.7801 27.0998 13.2401L5.10977 3.14009C4.11977 2.69009 3.00977 3.42009 3.00977 4.52009V7.58009C3.00977 8.18009 3.34977 8.72009 3.88977 8.96009L22.5398 17.5301V67.4501L19.2398 65.9301V23.7001C19.2398 21.1801 17.7798 18.8901 15.5298 17.8501L7.64977 14.2301C6.72977 13.8101 5.65977 13.8001 4.75977 14.2701C3.66977 14.8401 3.00977 15.9601 3.00977 17.1901V63.5401C3.00977 64.3301 3.46977 65.0601 4.17977 65.3801L6.59977 66.4901C7.23977 66.7901 7.99977 66.7601 8.58977 66.3601C9.17977 65.9601 9.46977 65.3701 9.46977 64.6801V21.4601L12.7698 22.9801V67.2301C12.7698 68.5201 13.5098 69.6901 14.6698 70.2301L24.4398 74.7201C25.5398 75.2301 26.8198 75.0701 27.7798 74.3001V74.2901Z" fill="#47FF9B"/>
</svg>
