<svg width="87" height="50" viewBox="0 0 87 50" fill="none" xmlns="http://www.w3.org/2000/svg">
<path fill-rule="evenodd" clip-rule="evenodd" d="M53.4257 13.855H73.7799L73.7537 13.907C73.9638 13.907 74.0426 14.063 73.9375 14.2969L68.5798 24.773C68.501 24.877 68.4222 24.955 68.3171 25.033C68.2121 25.111 68.107 25.1369 67.9757 25.1629H53.3731V29.0622C53.3731 29.1662 53.3469 29.2702 53.2681 29.3482C53.1893 29.4002 53.0842 29.4522 52.9792 29.4522H33.8068C33.7017 29.4522 33.5966 29.4262 33.5179 29.3482C33.4653 29.2702 33.4128 29.1662 33.4128 29.0622V25.1369H13.0585C12.8484 25.1369 12.7696 24.955 12.8747 24.747L18.2324 14.2709C18.3112 14.141 18.39 14.063 18.4951 13.985C18.6001 13.907 18.7052 13.855 18.8365 13.855H33.4391V9.92972C33.4391 9.82574 33.4653 9.72176 33.5441 9.64378C33.6229 9.59179 33.728 9.53979 33.833 9.53979H53.0317C53.1368 9.53979 53.2418 9.56579 53.3206 9.64378C53.3731 9.72176 53.4257 9.82574 53.4257 9.92972V13.855ZM64.22 22.5894L67.3979 16.4025H50.9306V12.0613H35.9866V16.4025H22.6447L19.4668 22.5894H35.9604V26.9306H50.9044V22.5894H64.22Z" fill="#30343F"/>
<path d="M39.0859 34.7292L37.3 39.4343C37.2738 39.5123 37.2212 39.5383 37.1162 39.5383C37.0111 39.5383 36.9586 39.5383 36.9323 39.4343L35.1464 34.7292H28.5017C27.5825 34.7292 27.1097 35.0671 27.1097 36.2629V38.9664C27.1097 40.1362 27.6088 40.4741 28.5017 40.4741H33.1504V39.4863H29.2371C28.9745 39.4863 28.9219 39.4083 28.9219 39.1484V37.9006H32.8089V36.9648H28.9219V36.0289C28.9219 35.769 28.9745 35.691 29.2371 35.691H33.3867C33.9645 37.1467 34.9626 39.6163 35.0676 39.8242C35.1201 40.0062 35.2252 40.1622 35.3828 40.2921C35.5404 40.3961 35.6979 40.4741 35.9081 40.4741H37.6415C37.8253 40.4741 38.0091 40.4221 38.1405 40.2921C38.2718 40.1882 38.3768 40.0062 38.4294 39.8242C38.5607 39.5123 40.4779 34.7032 40.4779 34.7032H39.0859V34.7292Z" fill="#30343F"/>
<path d="M18.4688 35.6909H14.897C14.6606 35.6909 14.6081 35.7689 14.6081 36.0029V39.1483C14.6081 39.4082 14.6606 39.4862 14.9232 39.4862H18.6001V40.474H14.1616C13.2686 40.474 12.7959 40.1361 12.7959 38.9663V36.2628C12.7959 35.067 13.2686 34.7291 14.1616 34.7291H18.4688V35.6909Z" fill="#30343F"/>
<path d="M24.3523 36.9907V34.7291H26.217V40.474H24.3523V37.9005H21.3845V40.474H19.5198V34.7291H21.3845V36.9907H24.3523Z" fill="#30343F"/>
<path fill-rule="evenodd" clip-rule="evenodd" d="M53.3735 34.7291C54.2928 34.7291 54.7918 35.067 54.7918 36.2628V38.9663C54.7918 40.1361 54.2928 40.474 53.3735 40.474H49.4865C48.5673 40.474 48.0683 40.1361 48.0683 38.9663V36.2628C48.0683 35.067 48.5673 34.7291 49.4865 34.7291H53.3735ZM52.6382 35.6909H50.2482C50.0118 35.6649 49.933 35.7429 49.933 36.0289V39.1743C49.933 39.4342 49.9855 39.5122 50.2482 39.5122H52.6382C52.9008 39.5122 52.9533 39.4342 52.9533 39.1743V36.0289C52.9533 35.7689 52.9008 35.6909 52.6382 35.6909Z" fill="#30343F"/>
<path d="M57.8642 39.5122V34.7291H56.1308V40.474H61.4885V39.5122H57.8642Z" fill="#30343F"/>
<path d="M61.9355 36.2628C61.9355 35.067 62.4607 34.7291 63.38 34.7291H74.4632V35.6909H72.3096V40.474H70.4186V35.6909H64.1679C63.879 35.6909 63.8264 35.7689 63.8264 36.0289V36.9647H67.7923V37.9265H63.8264V39.1743C63.8264 39.4342 63.9052 39.5122 64.1679 39.5122H68.1599V40.474H63.38C62.4345 40.474 61.9355 40.1361 61.9355 38.9663V36.2628Z" fill="#30343F"/>
<path d="M45.4683 38.0303C45.4157 37.9783 45.442 37.9523 45.4945 37.9523H46.335C46.939 37.9523 47.5168 37.7443 47.5693 36.8865C47.5956 36.6006 47.5956 36.3406 47.5693 36.0547C47.5693 35.0928 47.0966 34.7549 46.3875 34.7549H40.9772V40.4998H42.8156V35.7167H45.5208C45.6784 35.7167 45.7309 35.7687 45.7309 35.8727V36.9645C45.7309 37.0685 45.6258 37.1205 45.4945 37.1205H43.3146V38.0043L45.9935 40.4998H48.5411L45.4683 38.0303Z" fill="#30343F"/>
</svg>
