<svg width="86" height="50" viewBox="0 0 86 50" fill="none" xmlns="http://www.w3.org/2000/svg">
<path d="M55.7872 27.6444C56.0479 27.1208 56.2304 26.4402 55.6569 26.1523C55.0834 25.8643 54.2493 26.3879 53.4934 27.3302C52.9199 27.9847 52.5549 28.7962 52.5028 29.6862C52.5028 29.8171 52.5289 29.9741 52.581 30.105C52.6332 30.2359 52.7374 30.3406 52.8417 30.4191C53.3891 30.7071 54.0408 30.2882 54.51 29.8956C54.8228 29.6338 55.0834 29.3459 55.318 29.0317C55.5526 28.6914 55.7612 28.3511 55.9436 27.9847C55.9697 27.9323 55.9436 27.9061 55.9436 27.9061C55.9176 27.9061 55.8915 27.88 55.8394 27.8538C55.7872 27.8276 55.7872 27.8014 55.7872 27.7753C55.7872 27.7229 55.7872 27.6705 55.7872 27.6444Z" fill="#30343F"/>
<path d="M39.7561 22.5135C40.0168 22.4611 40.2514 22.3302 40.3817 22.147C40.512 21.9899 40.5902 21.7543 40.4599 21.6758C40.3817 21.6496 40.3035 21.6235 40.2253 21.6235C40.1471 21.6235 40.0689 21.6496 39.9907 21.702C39.8604 21.7805 39.7822 21.9114 39.704 22.0161C39.6518 22.147 39.6258 22.2779 39.6518 22.4088C39.6779 22.5135 39.704 22.5397 39.7561 22.5135Z" fill="#30343F"/>
<path d="M42.9623 14.9484C26.4359 14.9484 13.0376 19.5556 13.0376 25.1837C13.0376 30.8117 26.4359 35.4189 42.9623 35.4189C59.4886 35.4189 72.887 30.8117 72.887 25.1837C72.887 19.5556 59.4886 14.9484 42.9623 14.9484ZM27.6089 31.9112C25.8364 31.9112 24.2724 30.8379 24.116 28.927C24.0117 27.9322 24.2724 26.9375 24.898 26.1522C25.4454 25.4454 26.2013 24.9481 27.0615 24.7386C27.1919 24.7125 27.3222 24.7125 27.4265 24.7386C27.5568 24.7648 27.6611 24.8172 27.7653 24.8957C27.7914 24.9219 27.8435 24.9742 27.8696 25.0266C27.8957 25.0789 27.8957 25.1313 27.9217 25.1837C27.9217 25.236 27.9217 25.2884 27.8957 25.3407C27.8696 25.3931 27.8435 25.4454 27.8175 25.4716C27.7914 25.4978 27.7393 25.5501 27.7132 25.5501C27.0355 25.8643 26.4881 26.3878 26.0971 27.0422C25.9407 27.3302 25.8625 27.6705 25.8885 28.0108C25.9146 28.3511 26.0189 28.6652 26.2013 28.9531C26.9051 30.0264 28.9123 30.0526 30.7369 28.3511C31.1801 27.9322 31.6232 27.5134 32.0142 27.0422C32.7962 26.1522 33.5 25.236 34.1778 24.2675V24.2151C34.1778 24.2151 34.1517 24.1889 34.1256 24.1889C33.4218 24.2151 32.7441 24.4507 32.1706 24.8957C32.0924 24.9481 31.9882 25.0004 31.8839 24.9742C31.7796 24.9742 31.7014 24.9219 31.6232 24.8434C31.5711 24.7386 31.5711 24.6339 31.5972 24.5292C31.6232 24.4245 31.7014 24.3198 31.8057 24.2675C32.7962 23.5869 33.865 23.456 34.9598 23.2727C34.9858 23.2727 35.0119 23.2727 35.038 23.2466C35.064 23.2204 35.0901 23.2204 35.0901 23.1942C35.5332 22.6183 35.8721 22.0948 36.3674 21.4927C36.8366 20.9168 37.384 20.4194 37.9575 19.9482C38.4267 19.5556 38.948 19.2153 39.4954 18.9273C39.5997 18.875 39.4954 18.7965 39.4433 18.7965C37.0191 18.3515 34.5166 17.7494 32.1185 18.6394C30.4502 19.2676 29.7203 20.5765 30.0853 21.4927C30.3459 22.1209 31.154 22.2257 31.936 21.8592C32.6138 21.5189 33.1872 21.0215 33.5782 20.3933C33.8128 20.0268 34.3081 20.2885 34.0474 20.9168C33.3436 22.566 32.0142 23.901 30.372 23.9533C30.0853 23.9795 29.7985 23.9272 29.5379 23.8486C29.2772 23.7701 29.0165 23.613 28.808 23.4298C28.5995 23.2466 28.417 23.011 28.2867 22.7492C28.1563 22.4874 28.0781 22.2257 28.0781 21.9377C28.0781 21.8592 28.0781 21.7806 28.0781 21.7021C28.0781 19.1891 30.8673 17.54 33.7607 17.3044C37.2797 17.0164 40.5902 17.9588 44.0832 18.3776C46.7159 18.7441 49.4008 18.6656 51.9814 18.0897C52.0335 18.0635 52.0857 18.0635 52.1378 18.0635C52.1899 18.0635 52.2421 18.0897 52.2942 18.1159C52.3463 18.142 52.3724 18.1682 52.4245 18.2206C52.4506 18.2729 52.4767 18.3253 52.5027 18.3776C52.5288 18.43 52.5288 18.5085 52.5027 18.5609C52.4767 19.0321 52.1117 19.4771 51.2255 19.9744C50.261 20.498 49.1662 20.7336 48.0714 20.7074C45.4126 20.7336 42.9362 19.6865 40.3817 19.1368C40.3817 19.2415 40.4077 19.3724 40.3295 19.4509C38.9219 20.498 37.6186 21.5712 36.7844 23.0895C36.7584 23.1157 36.7844 23.168 36.8105 23.1418C37.5665 23.1157 38.2181 23.0895 38.9219 23.0371C39.0523 23.0371 39.0523 23.011 39.0262 22.9063C39.0001 22.6183 39.0262 22.3565 39.1044 22.0948C39.2087 21.833 39.3651 21.5974 39.5475 21.4142C39.73 21.2309 39.9646 21.1 40.2253 21.0739C40.4859 21.0477 40.7466 21.1 40.9551 21.2571C41.1376 21.4403 41.2679 21.6759 41.294 21.9377C41.3201 22.1995 41.2679 22.4612 41.1115 22.6707C41.0073 22.8801 40.8509 23.0633 40.6684 23.1942C40.4859 23.3513 40.2774 23.456 40.0689 23.5083C40.0689 23.5083 39.9907 23.5083 39.9907 23.5869C39.9907 23.6654 40.5381 24.0057 40.5902 24.0842C40.6163 24.1366 40.6163 24.1889 40.5902 24.2413C40.5902 24.2936 40.5641 24.346 40.512 24.3722C40.4859 24.3983 40.4338 24.4507 40.4077 24.4507C40.3556 24.4769 40.3295 24.4769 40.2774 24.4769C40.1731 24.4769 40.0949 24.4507 40.0167 24.3722C39.73 24.2151 39.4954 24.0319 39.2869 23.7701C39.2087 23.6916 39.1826 23.6916 39.0262 23.6916C38.2442 23.7439 37.0972 23.8486 36.3152 23.9533C36.1328 23.9795 36.1067 24.0057 36.0546 24.0842C34.7773 26.1784 33.4218 28.4558 31.9621 29.9741C30.3199 31.4923 29.0165 31.9112 27.6089 31.9112ZM61.9911 21.6759C61.7565 22.0948 57.0123 29.372 56.6995 30.1311C56.6474 30.2096 56.6213 30.3144 56.6213 30.4191C56.6213 30.5238 56.6474 30.6023 56.6995 30.707C56.9602 31.0473 57.5076 30.8641 57.8464 30.6023C58.7588 29.8955 59.5929 29.1102 60.3749 28.2725C60.401 28.2464 60.427 28.2464 60.4531 28.2464C60.4792 28.2464 60.5053 28.2464 60.5313 28.2725C60.6356 28.3773 60.8181 28.5343 60.9223 28.6652L60.9484 28.6914C60.9484 28.7176 60.9484 28.7176 60.9484 28.7437C60.9484 28.7699 60.9484 28.7699 60.9484 28.7961C60.9484 28.8223 60.9223 28.8223 60.9223 28.8223C60.1924 29.7385 59.3844 30.5761 58.4981 31.3091C57.2208 32.3038 55.9696 32.5394 55.344 31.9112C55.1094 31.6756 54.9791 31.3876 54.953 31.0473C54.953 30.8902 54.8748 30.8903 54.7966 30.9688C54.0407 31.7279 52.7634 32.5132 51.5643 31.9635C50.5738 31.4661 50.3392 30.2882 50.5217 29.2935C50.5217 29.2673 50.5217 29.1364 50.3913 29.2149C50.1307 29.3982 49.87 29.529 49.5833 29.6599C49.2705 29.7908 48.9316 29.8693 48.5927 29.8693C48.3581 29.8693 48.0974 29.817 47.8889 29.6861C47.6804 29.5552 47.4979 29.3982 47.3676 29.1887C47.2112 28.9008 47.1069 28.5867 47.1069 28.2464C47.1069 28.2202 47.0548 28.1678 47.0287 28.2464C46.2206 29.4767 45.4908 30.6808 44.6827 31.9635C44.6566 31.9897 44.6306 32.0159 44.6045 32.042C44.5784 32.0682 44.5524 32.0682 44.5002 32.0682C44.005 32.0682 43.4576 32.0682 42.9102 32.0682C42.8059 32.0682 42.7798 31.9897 42.8059 31.885C43.0926 31.3353 44.6306 29.084 45.6732 27.1731C45.96 26.6496 45.9078 26.3878 45.7254 26.2569C45.5429 26.126 45.0476 26.3354 44.6827 26.6234C43.8225 27.3825 43.0405 28.2202 42.3627 29.1626C41.9978 29.6861 41.6329 30.2096 41.2158 30.6808C40.1731 31.8588 38.7655 32.487 37.4101 32.042C37.0451 31.9112 36.7323 31.7279 36.4716 31.44C36.211 31.1782 36.0285 30.8379 35.9242 30.4714C35.8721 30.3405 35.7939 30.2882 35.7157 30.3929C35.4029 30.7332 35.064 31.0473 34.673 31.3353C34.647 31.3614 34.5948 31.3876 34.5688 31.3876C34.5166 31.3876 34.4906 31.3876 34.4384 31.3876C34.282 31.2306 34.1517 31.0473 34.0214 30.8379C33.9953 30.8117 33.9953 30.7594 33.9953 30.7332C33.9953 30.707 34.0214 30.6547 34.0474 30.6285C34.4384 30.3144 34.7773 29.9741 35.0901 29.6076C35.2726 29.3458 35.429 29.0579 35.5593 28.7437C35.8721 27.9322 36.628 26.414 38.0878 25.6025C38.6352 25.2884 39.2347 25.0789 39.8343 25.0004C40.0949 24.9742 40.3295 25.0004 40.4077 25.2098C40.4338 25.2884 40.512 25.4978 40.5641 25.6287V25.6548C40.5641 25.681 40.5641 25.681 40.5641 25.7072C40.5641 25.7334 40.5641 25.7334 40.5381 25.7595C40.5381 25.7857 40.512 25.7857 40.512 25.7857C40.4859 25.7857 40.4859 25.8119 40.4599 25.8119C39.5475 26.126 38.7395 26.7019 38.1399 27.4611C37.4622 28.3773 37.2797 29.4767 37.7229 30.1311C37.8793 30.3405 38.0878 30.4976 38.3485 30.5499C38.6091 30.6285 38.8698 30.6023 39.1044 30.4976C39.5215 30.3405 39.8864 30.1049 40.1992 29.7908C40.512 29.4767 40.7466 29.1102 40.903 28.6914C41.2679 27.7752 41.3461 26.7543 41.0594 25.8119C41.0333 25.7595 41.0333 25.681 41.0594 25.6025C41.0855 25.524 41.1115 25.4716 41.1637 25.4454C41.3461 25.3145 41.5286 25.1837 41.7371 25.1051C41.8153 25.0528 41.9196 25.0528 41.9978 25.0789C42.076 25.1051 42.1542 25.1575 42.2324 25.236C42.5452 25.7334 42.7016 26.3093 42.6755 26.8852C42.6755 27.016 42.7538 27.016 42.8059 26.9637C43.2751 26.414 43.7964 25.8643 44.3438 25.3931C44.8391 24.9742 45.4386 24.7125 46.0642 24.6863C46.8462 24.6863 47.2112 25.236 47.1851 26.1784C47.1851 26.2831 47.2633 26.2831 47.3154 26.2046C47.4979 25.9428 47.7064 25.681 47.9671 25.4978C48.4102 25.0789 49.0098 24.8695 49.6093 24.8957H49.6875C49.8439 24.9219 50.0003 24.9742 50.1567 25.0528C50.2871 25.1313 50.4174 25.236 50.5217 25.3669C50.6259 25.4978 50.6781 25.6548 50.7302 25.8119C50.7823 25.969 50.7823 26.126 50.7563 26.3093C50.7302 26.5449 50.652 26.7543 50.4956 26.9637C50.3653 27.1469 50.1828 27.304 49.9743 27.4087C49.7918 27.5134 49.6093 27.5396 49.4008 27.5134C49.2183 27.4872 49.0098 27.4087 48.8794 27.2778C48.7491 27.1731 48.6709 27.016 48.6188 26.859C48.5666 26.7019 48.5666 26.5187 48.6188 26.3616C48.6188 26.2831 48.5406 26.2307 48.4624 26.3093C47.7846 27.016 47.7325 27.9584 48.1757 28.3773C48.6188 28.7961 49.4008 28.5343 49.9482 28.1678C50.9387 27.5134 51.6947 26.6234 52.5809 25.9428C53.1544 25.4454 53.8582 25.1313 54.5881 25.0004C55.0051 24.9481 55.4222 24.9742 55.8132 25.1575C56.0478 25.236 56.2564 25.3931 56.4128 25.5763C56.5692 25.7596 56.6734 25.9951 56.7256 26.2307C56.7256 26.3354 56.8298 26.3616 56.908 26.2569C57.3251 25.5763 59.619 22.1471 59.8014 21.7806C59.8536 21.6759 59.9318 21.6498 60.0361 21.6498H61.6783C61.9911 21.545 62.0171 21.5974 61.9911 21.6759Z" fill="#30343F"/>
<path d="M42.9626 13.1685C25.1329 13.1685 10.8223 18.5086 10.8223 25.1837C10.8223 31.8589 25.2372 37.2252 42.9626 37.2252C60.6881 37.2252 75.103 31.8327 75.103 25.2099C75.103 18.5871 60.6881 13.1685 42.9626 13.1685ZM42.9626 36.1519C25.9671 36.1519 12.1777 31.2306 12.1777 25.1837C12.1777 19.1368 25.9671 14.2155 42.9626 14.2155C59.9582 14.2155 73.7475 19.1368 73.7475 25.1837C73.7475 31.2306 59.9582 36.1519 42.9626 36.1519Z" fill="#30343F"/>
</svg>
