<svg width="126" height="73" viewBox="0 0 126 73" fill="none" xmlns="http://www.w3.org/2000/svg">
<path d="M34.2891 46.1154H36.0307C38.7566 46.1154 41.2933 46.8347 41.2933 50.2043C41.2933 50.7723 41.1797 51.3402 40.8768 51.8324C40.6118 52.3246 40.1953 52.741 39.741 53.0061V53.0439C40.8768 53.2332 42.6184 55.0884 42.6184 56.7921C42.6184 59.7453 40.1575 60.9189 37.6208 60.9189H34.2891V46.1154ZM36.1064 52.6653H36.5607C38.2644 52.6653 39.6653 52.3246 39.6653 50.2043C39.6653 48.0841 38.3023 47.7813 36.5986 47.7813H36.1064V52.6653ZM36.1064 59.2531H37.4694C39.1352 59.2531 40.8768 58.723 40.8768 56.6407C40.8768 54.5583 38.7945 54.1419 37.2043 54.1419H36.0685L36.1064 59.2531Z" fill="#0C2036"/>
<path d="M47.6535 46.1154V55.0505C47.6535 57.5115 48.3349 59.821 51.0609 59.821C53.7869 59.821 54.4684 57.5493 54.4684 55.0505V46.1154H56.21V55.6942C56.21 59.0259 54.2791 61.5626 51.0609 61.5626C47.8428 61.5626 45.9119 59.0259 45.9119 55.6942V46.1154H47.6535Z" fill="#0C2036"/>
<path d="M62.6468 60.9189H60.7159V46.1154H62.6468V60.9189Z" fill="#0C2036"/>
<path d="M77.4129 49.2579C76.315 48.3114 74.952 47.8192 73.5133 47.8192C71.961 47.8571 70.4466 48.5007 69.3486 49.6365C68.2506 50.7724 67.6449 52.2868 67.6827 53.8769V53.9148C67.6827 54.7099 67.7963 55.4671 68.0992 56.1864C68.4021 56.9058 68.8186 57.5873 69.3486 58.1173C69.8787 58.6853 70.5223 59.1396 71.2416 59.4425C71.961 59.7454 72.7182 59.8968 73.5133 59.9347C74.952 59.9347 76.3528 59.3668 77.4508 58.4202V60.6162C76.2771 61.2977 74.9141 61.6384 73.5512 61.6763C72.5289 61.6763 71.5445 61.487 70.6359 61.1083C69.6894 60.7297 68.8564 60.1618 68.1371 59.4425C67.4177 58.7231 66.8498 57.8902 66.4712 56.9437C66.0926 55.9971 65.8654 55.0128 65.8654 53.9905C65.8654 51.9082 66.6605 49.9394 68.1371 48.4629C69.5758 46.9863 71.5824 46.1533 73.6269 46.1533H73.7405C75.0656 46.1533 76.3528 46.4941 77.4508 47.1756L77.4129 49.2579Z" fill="#0C2036"/>
<path d="M89.1488 46.1154H91.4962L85.0598 52.7789L91.6097 60.9189H89.1866L83.7726 54.0283L83.0532 54.7476V60.9189H81.2737V46.1154H83.0532V52.5139L89.1488 46.1154Z" fill="#0C2036"/>
<path d="M61.3215 11.3594C57.5733 11.3594 53.9765 12.8738 51.3262 15.5241C48.676 18.1743 47.1994 21.7711 47.1615 25.5193C47.1615 29.2675 48.6381 32.8643 51.2884 35.5524C53.9386 38.2027 57.5354 39.7171 61.2836 39.7171C63.1388 39.7171 64.994 39.3385 66.6977 38.657C68.4014 37.9755 69.9916 36.9154 71.3167 35.5903C72.6418 34.2651 73.6641 32.7128 74.3834 30.9713C75.1028 29.2675 75.4435 27.4123 75.4435 25.5572C75.4435 23.702 75.0649 21.8468 74.3456 20.1431C73.6262 18.4393 72.604 16.8492 71.2789 15.5619C69.9537 14.2368 68.4014 13.2146 66.6977 12.4952C65.0318 11.7001 63.1766 11.3594 61.3215 11.3594ZM65.7512 17.3035C65.7512 17.3035 65.7133 17.2657 65.7512 17.2657C66.2434 17.2657 70.2188 17.2657 70.2566 17.2657H70.2945C70.2945 17.2657 70.2945 17.3035 70.3323 17.3035C70.3702 17.7578 70.3702 20.3702 70.3702 21.5061C70.3702 22.074 70.3702 22.6419 70.3323 23.1719C70.3323 23.2098 70.3323 23.2477 70.3323 23.2477L65.7512 17.3035ZM69.7644 26.5415C69.4615 27.9802 68.8936 29.3432 68.0228 30.5169H67.985C65.5997 27.2609 65.6376 22.604 65.6376 21.2032C65.6376 21.1275 65.6755 21.1653 65.6755 21.1653L69.7644 26.5415ZM49.0167 25.5193C49.0167 22.2633 50.304 19.1208 52.6135 16.8113C54.923 14.5018 58.0654 13.2146 61.3215 13.2146C63.5553 13.2146 65.789 13.8203 67.6821 14.994H64.2368C64.1989 14.994 64.161 14.994 64.161 15.0319C64.161 15.0697 64.1232 15.0697 64.1232 15.1076V17.6443H57.6868C57.649 17.6443 57.5733 17.6443 57.5733 17.7578V20.4081H51.1748C51.1748 20.4081 51.0233 20.3702 51.0233 20.5217C51.0233 20.6731 50.9855 23.3234 50.9855 23.3234C50.9855 23.3234 50.9855 27.3745 51.0991 28.7375C51.2505 30.0626 51.2884 31.9556 52.197 33.8487C50.1525 31.577 49.0167 28.586 49.0167 25.5193ZM59.1256 19.9159L63.8203 19.878C63.8203 19.878 63.8203 19.878 63.8581 19.878C63.8581 19.878 63.8581 19.878 63.896 19.878C63.896 19.878 63.896 19.878 63.896 19.9159C63.9339 20.3702 63.896 22.9826 63.896 24.1185C63.896 24.7999 63.896 25.4057 63.8203 26.0115L59.1256 19.9159ZM63.2524 29.3432C62.9495 30.7441 62.3437 32.0313 61.4729 33.1672C59.012 29.8354 59.0877 25.1028 59.0877 23.8156L63.2524 29.3432ZM54.8851 35.8553C52.4242 32.5614 52.5378 27.9802 52.5378 26.6551L56.6267 32.0692C55.9831 34.568 55.0744 35.666 54.8851 35.8553C54.8473 35.8553 54.8473 35.8553 54.8851 35.8553ZM52.5378 22.7555V22.7176H57.1568C57.1568 22.7176 57.1568 22.7176 57.1947 22.7176C57.1947 22.7176 57.1947 22.7176 57.2325 22.7176C57.2325 22.7176 57.2325 22.7176 57.2325 22.7555C57.2325 22.7555 57.2325 22.7555 57.2325 22.7933C57.2704 23.2477 57.2325 25.8222 57.2325 26.958C57.2325 27.6016 57.1946 28.2074 57.1568 28.7753L52.5378 22.7555ZM61.3593 37.8619C59.542 37.8619 57.7626 37.4833 56.0967 36.7261C57.0053 35.5145 57.649 34.1516 58.0276 32.7128C58.2548 31.9556 58.4062 31.1984 58.4819 30.4033C59.012 32.2585 59.9963 33.9622 61.3972 35.3631C61.4351 35.401 61.4351 35.401 61.4729 35.401C61.5108 35.401 61.5486 35.401 61.5486 35.3631C62.9873 33.8865 64.0096 32.0692 64.5775 30.0626C64.8047 29.3054 64.9561 28.5482 65.0318 27.7909C65.5997 29.6083 66.5841 31.312 67.9092 32.675C67.9092 32.675 67.985 32.7886 68.1743 32.6371C68.3636 32.4857 70.3323 30.8198 71.3167 26.5037C71.7332 24.0427 71.9225 21.5818 71.8468 19.083C73.0583 21.0139 73.7019 23.2477 73.7019 25.5193C73.7019 27.1473 73.3991 28.7375 72.7554 30.2519C72.1118 31.7663 71.241 33.1293 70.0673 34.2651C68.9315 35.401 67.5685 36.3096 66.0541 36.9532C64.5775 37.5212 62.9495 37.8619 61.3593 37.8619Z" fill="#0C2036"/>
</svg>
