<svg width="126" height="74" viewBox="0 0 126 74" fill="none" xmlns="http://www.w3.org/2000/svg">
<path d="M32.0333 31.5101C32.0711 32.0023 31.9576 32.4566 31.7683 32.911C31.3518 33.706 29.8752 36.2806 29.0423 37.6057C28.2093 38.9687 27.9822 39.3852 26.8464 41.3161C26.4677 41.9976 25.9377 42.6033 25.2941 43.0577H32.3362C32.3362 43.0577 32.0711 42.9819 32.2604 42.149C32.4497 41.2782 34.1913 38.5522 34.7593 37.6057C35.2893 36.7728 36.6902 34.3497 36.6902 34.3497C36.8416 34.1604 37.0309 33.9711 37.2581 33.8575C37.4852 33.7439 37.7124 33.6682 37.9774 33.6303H40.1733C40.1733 33.6303 41.082 33.5546 40.6655 34.3875C40.2869 35.069 38.5453 37.9465 37.7124 39.3473C37.2202 40.256 36.6902 41.0889 36.0844 41.9218C35.2893 42.9441 34.7593 43.0198 34.7593 43.0198H41.7256C41.6878 42.5276 41.8014 42.0354 41.9907 41.5811C42.2935 40.8239 45.5496 35.5991 45.5496 35.5991C45.5496 35.5991 46.8747 33.5925 46.4582 32.6459C46.3447 32.3052 46.1175 32.0402 45.8146 31.813C45.5117 31.6237 45.171 31.5101 44.8302 31.4723H40.3248C39.7947 31.4344 39.3025 31.5101 38.8104 31.6616C38.356 31.8887 37.9774 32.1916 37.6745 32.5702L38.091 31.3965L32.0333 31.5101Z" fill="#0C2036"/>
<path d="M78.7527 38.5902C79.0934 37.8708 79.5478 37.1893 80.1157 36.6214C80.6457 36.2049 81.2893 36.0156 81.933 36.0156H90.3381L88.8236 38.5902H78.7527Z" fill="#0C2036"/>
<path d="M103.477 31.548C103.515 32.0402 103.401 32.5324 103.212 32.9867C102.795 33.7818 101.356 36.2806 100.524 37.6436C99.6906 39.0066 99.4634 39.423 98.3276 41.3161C97.949 41.9976 97.419 42.6033 96.7753 43.0577H103.817C103.817 43.0577 103.552 42.9819 103.742 42.149C103.931 41.2782 105.673 38.5522 106.278 37.6057C106.808 36.7728 108.209 34.3497 108.209 34.3497C108.361 34.1604 108.55 33.9711 108.777 33.8575C109.004 33.7439 109.232 33.6682 109.497 33.6303H111.692C111.692 33.6303 112.601 33.5546 112.185 34.3875C111.844 35.069 110.064 37.9465 109.269 39.3473C108.777 40.256 108.247 41.0889 107.641 41.9218C106.846 42.9441 106.354 43.0198 106.354 43.0198H113.283C113.283 42.5276 113.358 42.0354 113.548 41.5811C113.888 40.8239 117.144 35.5991 117.144 35.5991C117.144 35.5991 118.432 33.5925 118.015 32.6459C117.902 32.3052 117.674 32.0402 117.372 31.813C117.069 31.6237 116.728 31.5101 116.387 31.4723H111.768C111.238 31.4344 110.746 31.5101 110.254 31.6616C109.837 31.8887 109.459 32.1916 109.194 32.5702L109.572 31.3965L103.477 31.548Z" fill="#0C2036"/>
<path d="M28.2844 36.6973C28.2844 36.6973 29.5716 34.6907 29.193 33.7441C29.0794 33.4034 28.8523 33.1005 28.5494 32.8733C28.2465 32.6462 27.8679 32.5705 27.5271 32.6083H19.5385C19.5385 32.6083 19.1599 32.7219 19.0463 32.2297C18.9328 31.7375 19.4628 31.1696 19.4628 31.1696C19.6142 30.9046 19.7657 30.6774 19.9929 30.4881C20.2957 30.2988 20.6365 30.2231 21.0151 30.2231H30.3667C30.6317 30.1852 30.8968 30.2231 31.1239 30.3367C31.3511 30.4503 31.5404 30.6396 31.6918 30.8667L34.3042 26.3991H22.0373C22.0373 26.3991 20.0307 26.2098 18.8949 26.8913C17.9484 27.3078 17.1533 28.0272 16.6611 28.898C16.3204 29.3901 15.9796 30.1095 15.9796 30.1095L13.4808 34.3121C13.14 34.7285 12.9507 35.2586 12.9507 35.7886C12.9507 35.9779 13.0265 36.1672 13.14 36.3187C13.2536 36.4701 13.4051 36.6216 13.5944 36.6594C14.0108 36.8109 14.4652 36.8487 14.9195 36.8109H18.2891C18.592 36.8487 18.9327 36.773 19.1978 36.6594C19.7278 36.2429 20.3715 35.5236 20.9394 35.3722C21.2801 35.2586 21.6209 35.2207 21.9616 35.2586C22.3024 35.2964 22.6431 35.41 22.946 35.5615C23.5139 35.9401 23.4003 35.9401 23.8547 36.5458C24.044 36.773 24.1954 37.0759 24.2333 37.3788L22.7567 36.8487C22.7567 36.8487 22.2645 36.5837 21.9995 36.6973C21.7344 36.773 21.3558 36.6973 20.9772 37.7195C20.7122 38.4767 20.7122 39.0068 21.2423 39.2718C21.9237 39.5747 22.6431 39.8019 23.4003 39.9533C22.9081 40.3698 22.3024 40.6727 21.6587 40.7484C21.2801 40.7862 20.9015 40.7484 20.5608 40.6348C20.22 40.5212 19.8793 40.3319 19.5764 40.1048C19.0085 39.5747 19.3871 39.6883 18.9327 39.4233C18.5163 39.1961 18.0241 39.1204 17.5319 39.1204H11.9664C11.6635 39.1961 11.3227 39.1204 11.0577 39.0068C10.4898 38.8175 10.5655 38.7039 10.5655 38.7039L7.95312 43.0579H20.485C21.583 43.1336 22.681 42.9822 23.7032 42.6414C24.6119 42.1871 25.3691 41.5056 25.8991 40.6727L28.2844 36.6973Z" fill="#0C2036"/>
<path d="M52.4778 43.0952L52.9322 41.8458C52.3642 42.3002 51.7206 42.6788 51.077 42.9059C50.7741 43.0195 50.4712 43.0574 50.1683 43.0574H45.4736C45.2086 43.0952 44.9814 43.0195 44.7542 42.9059C44.5271 42.7924 44.3378 42.6031 44.2242 42.3759C44.1106 42.1487 44.0349 41.8837 43.997 41.6187C43.997 41.3536 44.0727 41.0886 44.1863 40.8615C44.4892 40.1421 45.5114 38.4762 46.0036 37.6433C46.988 35.9774 48.0481 35.4852 48.6539 35.3338C49.3732 35.1445 50.1305 35.0688 50.8877 35.1066H55.2417C55.6203 35.1066 55.9989 35.0688 56.3396 34.9552C56.5668 34.8795 56.7182 34.6901 56.794 34.463L56.9454 34.0844C57.059 33.5165 56.5289 33.5543 56.5289 33.5543H50.5469C50.244 33.5165 49.9412 33.5543 49.6761 33.5922C49.3354 33.6679 48.9946 33.8193 48.6917 33.9708L50.1305 31.4341H60.9965C61.3372 31.4341 61.678 31.5098 61.943 31.6991C62.2459 31.8884 62.4352 32.1535 62.5867 32.4942C63.0031 33.4407 61.7159 35.5231 61.7159 35.5231C61.7159 35.5231 58.5734 40.7857 58.2705 41.5429C58.0812 41.9973 58.0055 42.4895 58.0055 42.9817L52.4778 43.0952ZM54.7116 37.5676H52.7429C52.3264 37.5676 51.9478 37.6054 51.5692 37.6811C51.1527 37.7947 50.4712 39.347 50.4712 39.347C50.4712 39.347 49.9412 40.0285 50.0547 40.3693C50.1683 40.71 50.5469 40.6343 50.5469 40.6343H52.5914C52.8943 40.6343 53.1972 40.5207 53.4243 40.2935C53.9923 39.5363 54.5223 38.7034 54.9766 37.8705V37.7569C54.9766 37.719 54.9766 37.6433 54.9388 37.6054C54.9009 37.5676 54.8631 37.5297 54.8252 37.5297C54.7495 37.5676 54.7495 37.5676 54.7116 37.5676Z" fill="#0C2036"/>
<path d="M63.4584 46.1242C63.2691 46.5785 63.1934 47.1086 63.1934 47.6008H56.8706C56.8706 47.6008 57.0978 47.2221 57.3249 46.8814C57.6278 46.4271 57.8928 45.9727 58.1579 45.5184L62.474 37.7948C63.2691 36.4318 64.7078 33.7816 65.1242 32.9865C65.3136 32.5322 65.4271 32.0021 65.3893 31.5099H71.0305V32.2671C71.2577 32.0778 71.5227 31.8885 71.8256 31.6992C72.1285 31.5856 72.4314 31.5099 72.7721 31.4721H77.694C78.0348 31.4721 78.3755 31.5478 78.6784 31.7371C78.9813 31.9264 79.2085 32.2293 79.322 32.5322C79.7385 33.5166 78.4891 35.561 78.4891 35.561L75.536 40.8994C75.0438 41.5809 74.438 42.1867 73.7565 42.641C72.9614 43.0953 72.0906 43.2846 71.182 43.2468L66.828 43.2089C66.828 43.2089 66.0329 43.1332 65.7679 42.7167C65.5029 42.3002 65.6164 42.3381 65.6164 42.3381L63.4584 46.1242ZM71.5227 33.6301C71.182 33.5923 70.8791 33.668 70.5762 33.8573C70.349 34.0466 70.1597 34.2359 70.0083 34.5009L66.9416 39.8393C66.9416 39.8393 66.563 40.2936 66.7523 40.5965C66.9037 40.9373 67.3202 40.8237 67.3202 40.8237H69.3647C69.5918 40.8237 69.819 40.7858 70.0462 40.6722C70.349 40.4451 70.6519 40.1422 70.8412 39.8014L73.7565 34.7281C73.7565 34.7281 74.1351 34.3495 73.908 33.9709C73.8701 33.8952 73.7565 33.8194 73.6808 33.7437C73.6051 33.7059 73.4915 33.668 73.3779 33.668L71.5227 33.6301Z" fill="#0C2036"/>
<path d="M82.8041 43.0956C82.577 43.0956 82.3498 43.0577 82.1227 42.982C81.8955 42.9063 81.7062 42.7549 81.5547 42.5655C81.4033 42.3005 81.3276 42.0355 81.3276 41.7326C81.3276 41.4297 81.4033 41.1647 81.5169 40.8997L82.5013 39.1959H87.8396C87.8396 39.1959 87.6503 39.6503 87.3096 40.256C87.1203 40.5968 87.6882 40.6346 87.6882 40.6346H90.1113C90.1113 40.6346 91.1714 40.6725 91.5121 40.1046C91.7393 39.6881 94.2759 35.2206 94.2759 35.2206C94.2759 35.2206 94.8817 34.3876 94.806 34.0469C94.7303 33.744 93.9352 33.5925 93.9352 33.5925H92.2693C92.2693 33.5925 91.3607 33.5547 91.1335 33.8576C90.7928 34.3498 90.3384 35.0313 90.3384 35.0313H84.8486L85.9087 33.3654C86.2495 32.8732 86.7038 32.4189 87.196 32.0781C87.7639 31.7374 88.4454 31.5102 89.1269 31.5102L98.895 31.5481C99.2357 31.5481 99.5765 31.6238 99.8793 31.8131C100.182 32.0024 100.409 32.2674 100.523 32.6082C100.977 33.5925 99.6143 35.5613 99.6143 35.5613L96.5097 40.7861C96.0175 41.4297 95.4496 41.9976 94.7681 42.452C93.9731 42.9063 93.0644 43.0956 92.1557 43.0199L82.8041 43.0956Z" fill="#0C2036"/>
</svg>
