<svg width="87" height="50" viewBox="0 0 87 50" fill="none" xmlns="http://www.w3.org/2000/svg">
<path d="M47.574 19.4185L45.5287 20.9593L44.5515 24.4346L45.6878 26.0429H49.0057L48.3353 28.4497H45.5969L45.915 27.3025H43.7447L43.2788 28.9783L44.4606 30.5641H48.3012L50.3466 29.0008L51.3238 25.4918L50.1761 23.906H46.8695L47.5286 21.5216H50.2557L49.9261 22.68H52.1078L52.6078 20.9593L51.4715 19.4185H47.574Z" fill="#30343F"/>
<path d="M55.8808 19.4185L53.8241 20.9593L51.5742 28.9895L52.756 30.5641H56.608L58.6647 28.9895L59.2897 26.7289H57.1193L56.6421 28.4497H53.9036L55.8581 21.5104H58.5738L58.0852 23.2649H60.2555L60.9146 20.9593L59.7896 19.4185H55.8808Z" fill="#30343F"/>
<path d="M72.4816 21.5101H75.2087L74.1974 25.1091H71.4817L72.493 21.5101H72.4816ZM70.9135 19.4182L67.7773 30.5639H69.9477L70.8794 27.2235H72.6521L73.0611 30.5639H75.186L74.7201 26.7624L76.2541 25.5365L77.5381 20.9478L76.4018 19.407H70.9249L70.9135 19.4182Z" fill="#30343F"/>
<path d="M34.2452 19.4185L32.4839 25.7167L31.4386 19.4185H29.291L26.1548 30.5641H28.3251L30.1205 24.2546L31.1772 30.5641H33.3021L36.4269 19.4185H34.2452Z" fill="#30343F"/>
<path d="M39.234 21.5104H41.9725L40.9612 25.1094H38.2227L39.234 21.5104ZM39.2568 19.4185L37.2342 20.948L34.5298 30.5641H36.7001L37.6319 27.2238H40.3703L39.4386 30.5641H41.6089L44.3133 20.9593L43.177 19.4185H39.2681H39.2568Z" fill="#30343F"/>
<path d="M64.1525 21.5104H66.891L65.8797 25.1094H63.1412L64.1525 21.5104ZM64.1752 19.4185L62.1413 20.9593L59.4482 30.5641H61.6186L62.5503 27.2238H65.2888L64.357 30.5641H66.5387L69.2317 20.948L68.0955 19.4185H64.1866H64.1752Z" fill="#30343F"/>
<path d="M23.769 19.4185L20.6328 30.5753H24.9735L28.0869 19.4185H23.769Z" fill="#30343F"/>
<path d="M17.5537 19.4185L14.4175 30.5866H16.5083L19.6331 19.4185H17.5537Z" fill="#30343F"/>
<path d="M20.4848 19.4185L17.3486 30.5866H19.4394L22.5642 19.4185H20.4848Z" fill="#30343F"/>
<path d="M12.9399 19.4185L9.80371 30.5866H11.0991L14.2239 19.4185H12.9399Z" fill="#30343F"/>
<path d="M15.0761 19.4185L11.9399 30.5866H13.2353L16.3601 19.4185H15.0761Z" fill="#30343F"/>
</svg>
