<svg width="126" height="73" viewBox="0 0 126 73" fill="none" xmlns="http://www.w3.org/2000/svg">
<path d="M81.9657 40.6401C82.3443 39.8829 82.6093 38.8985 81.7764 38.4821C80.9434 38.0656 79.7319 38.8228 78.6339 40.1858C77.801 41.1323 77.2709 42.306 77.1952 43.5933C77.1952 43.7826 77.2331 44.0098 77.3088 44.1991C77.3845 44.3884 77.536 44.5398 77.6874 44.6534C78.4825 45.0699 79.429 44.4641 80.1105 43.8962C80.5648 43.5176 80.9434 43.1011 81.2842 42.6468C81.6249 42.1546 81.9278 41.6624 82.1928 41.1323C82.2307 41.0566 82.1928 41.0188 82.1928 41.0188C82.155 41.0188 82.1171 40.9809 82.0414 40.943C81.9657 40.9052 81.9657 40.8673 81.9657 40.8294C81.9657 40.7537 81.9657 40.678 81.9657 40.6401Z" fill="#0C2036"/>
<path d="M58.6812 33.2192C59.0598 33.1434 59.4006 32.9541 59.5899 32.6891C59.7792 32.4619 59.8928 32.1212 59.7035 32.0076C59.5899 31.9697 59.4763 31.9319 59.3627 31.9319C59.2491 31.9319 59.1355 31.9697 59.022 32.0455C58.8326 32.159 58.7191 32.3484 58.6055 32.4998C58.5298 32.6891 58.4919 32.8784 58.5298 33.0677C58.5676 33.2191 58.6055 33.257 58.6812 33.2192Z" fill="#0C2036"/>
<path d="M63.3381 22.2776C39.3343 22.2776 19.8739 28.9411 19.8739 37.0811C19.8739 45.2212 39.3343 51.8847 63.3381 51.8847C87.3418 51.8847 106.802 45.2212 106.802 37.0811C106.802 28.9411 87.3418 22.2776 63.3381 22.2776ZM41.0381 46.8113C38.4635 46.8113 36.1919 45.2591 35.9647 42.4952C35.8133 41.0565 36.1919 39.6178 37.1005 38.482C37.8956 37.4597 38.9936 36.7404 40.243 36.4375C40.4323 36.3996 40.6216 36.3996 40.773 36.4375C40.9623 36.4754 41.1138 36.5511 41.2652 36.6647C41.3031 36.7025 41.3788 36.7782 41.4167 36.854C41.4545 36.9297 41.4545 37.0054 41.4924 37.0811C41.4924 37.1569 41.4924 37.2326 41.4545 37.3083C41.4167 37.384 41.3788 37.4597 41.3409 37.4976C41.3031 37.5355 41.2274 37.6112 41.1895 37.6112C40.2051 38.0655 39.41 38.8227 38.8421 39.7692C38.615 40.1857 38.5014 40.6779 38.5392 41.1701C38.5771 41.6623 38.7285 42.1166 38.9936 42.5331C40.0158 44.0854 42.9311 44.1232 45.5814 41.6623C46.225 41.0565 46.8686 40.4507 47.4365 39.7692C48.5724 38.482 49.5946 37.1569 50.579 35.756V35.6803C50.579 35.6803 50.5411 35.6424 50.5033 35.6424C49.481 35.6803 48.4966 36.021 47.6637 36.6647C47.5501 36.7404 47.3987 36.8161 47.2472 36.7782C47.0958 36.7782 46.9822 36.7025 46.8686 36.5889C46.7929 36.4375 46.7929 36.2861 46.8308 36.1346C46.8686 35.9832 46.9822 35.8317 47.1336 35.756C48.5723 34.7716 50.1246 34.5823 51.7148 34.3173C51.7527 34.3173 51.7905 34.3173 51.8284 34.2794C51.8662 34.2416 51.9041 34.2416 51.9041 34.2037C52.5477 33.3708 53.0399 32.6136 53.7593 31.7428C54.4408 30.9098 55.2359 30.1905 56.0688 29.509C56.7503 28.9411 57.5075 28.4489 58.3026 28.0324C58.454 27.9567 58.3026 27.8431 58.2269 27.8431C54.7058 27.1995 51.0712 26.3287 47.588 27.6159C45.1649 28.5246 44.1048 30.4176 44.6348 31.7428C45.0134 32.6514 46.1871 32.8029 47.3229 32.2728C48.3073 31.7806 49.1403 31.0613 49.7082 30.1526C50.0489 29.6226 50.7683 30.0012 50.3897 30.9098C49.3674 33.2951 47.4365 35.226 45.0513 35.3017C44.6348 35.3395 44.2184 35.2638 43.8398 35.1502C43.4611 35.0366 43.0825 34.8095 42.7797 34.5445C42.4768 34.2794 42.2117 33.9387 42.0224 33.5601C41.8331 33.1815 41.7196 32.8029 41.7196 32.3864C41.7196 32.2728 41.7196 32.1592 41.7196 32.0456C41.7196 28.411 45.7707 26.0258 49.9732 25.685C55.0844 25.2686 59.8927 26.6316 64.9661 27.2373C68.79 27.7674 72.6897 27.6538 76.4379 26.8209C76.5136 26.783 76.5893 26.783 76.665 26.783C76.7408 26.783 76.8165 26.8209 76.8922 26.8587C76.9679 26.8966 77.0058 26.9344 77.0815 27.0102C77.1194 27.0859 77.1572 27.1616 77.1951 27.2373C77.233 27.3131 77.233 27.4266 77.1951 27.5024C77.1572 28.1838 76.6272 28.8275 75.3399 29.5468C73.9391 30.3041 72.3489 30.6448 70.7588 30.6069C66.897 30.6448 63.3002 29.1304 59.5898 28.3353C59.5898 28.4867 59.6277 28.676 59.5141 28.7896C57.4696 30.3041 55.5766 31.8563 54.3651 34.0523C54.3272 34.0901 54.3651 34.1659 54.4029 34.128C55.5009 34.0901 56.4474 34.0523 57.4696 33.9765C57.6589 33.9765 57.6589 33.9387 57.6211 33.7872C57.5832 33.3708 57.6211 32.9922 57.7347 32.6136C57.8861 32.235 58.1133 31.8942 58.3783 31.6292C58.6433 31.3642 58.9841 31.1749 59.3627 31.137C59.7413 31.0991 60.1199 31.1749 60.4228 31.402C60.6878 31.667 60.8771 32.0078 60.915 32.3864C60.9528 32.765 60.8771 33.1436 60.6499 33.4465C60.4985 33.7494 60.2713 34.0144 60.0063 34.2037C59.7413 34.4309 59.4384 34.5823 59.1355 34.658C59.1355 34.658 59.0219 34.658 59.0219 34.7716C59.0219 34.8852 59.817 35.3774 59.8927 35.491C59.9306 35.5667 59.9306 35.6424 59.8927 35.7181C59.8927 35.7939 59.8549 35.8696 59.7791 35.9074C59.7413 35.9453 59.6656 36.021 59.6277 36.021C59.552 36.0589 59.5141 36.0589 59.4384 36.0589C59.287 36.0589 59.1734 36.021 59.0598 35.9074C58.6433 35.6803 58.3026 35.4153 57.9997 35.0367C57.8861 34.9231 57.8482 34.9231 57.6211 34.9231C56.4853 34.9988 54.8194 35.1502 53.6836 35.3017C53.4185 35.3395 53.3807 35.3774 53.305 35.491C51.4498 38.5198 49.481 41.8137 47.3608 44.0097C44.9756 46.2056 43.0825 46.8113 41.0381 46.8113ZM90.9764 32.0078C90.6357 32.6136 83.745 43.1389 83.2907 44.2368C83.215 44.3504 83.1771 44.5018 83.1771 44.6533C83.1771 44.8047 83.215 44.9183 83.2907 45.0698C83.6693 45.5619 84.4644 45.2969 84.9566 44.9183C86.2817 43.8961 87.4932 42.7602 88.6291 41.5487C88.6669 41.5108 88.7048 41.5108 88.7426 41.5108C88.7805 41.5108 88.8184 41.5108 88.8562 41.5487C89.0077 41.7001 89.2727 41.9273 89.4241 42.1166L89.462 42.1545C89.462 42.1923 89.462 42.1923 89.462 42.2302C89.462 42.2681 89.462 42.2681 89.462 42.3059C89.462 42.3438 89.4241 42.3438 89.4241 42.3438C88.364 43.6689 87.1903 44.8805 85.9031 45.9406C84.0479 47.3793 82.2306 47.72 81.3219 46.8113C80.9812 46.4706 80.7919 46.0541 80.754 45.5619C80.754 45.3348 80.6404 45.3348 80.5269 45.4484C79.4289 46.5463 77.5737 47.6821 75.8321 46.8871C74.3934 46.1677 74.0527 44.464 74.3177 43.0253C74.3177 42.9874 74.3177 42.7981 74.1284 42.9117C73.7498 43.1767 73.3712 43.366 72.9547 43.5553C72.5004 43.7446 72.0082 43.8582 71.516 43.8582C71.1752 43.8582 70.7966 43.7825 70.4937 43.5932C70.1909 43.4039 69.9258 43.1767 69.7365 42.8738C69.5094 42.4574 69.3579 42.003 69.3579 41.5108C69.3579 41.473 69.2822 41.3973 69.2443 41.5108C68.0706 43.2903 67.0105 45.0319 65.8369 46.8871C65.799 46.9249 65.7611 46.9628 65.7233 47.0007C65.6854 47.0385 65.6476 47.0385 65.5718 47.0385C64.8525 47.0385 64.0574 47.0385 63.2623 47.0385C63.1109 47.0385 63.073 46.9249 63.1109 46.7735C63.5274 45.9784 65.7611 42.7224 67.2756 39.9586C67.692 39.2013 67.6163 38.8227 67.3513 38.6334C67.0863 38.4441 66.3669 38.747 65.8369 39.1635C64.5875 40.2614 63.4516 41.473 62.4673 42.836C61.9372 43.5932 61.4072 44.3504 60.8014 45.0319C59.287 46.7356 57.2425 47.6443 55.2737 47.0007C54.7437 46.8113 54.2893 46.5463 53.9107 46.1299C53.5321 45.7512 53.2671 45.2591 53.1156 44.729C53.0399 44.5397 52.9263 44.464 52.8128 44.6154C52.3584 45.1076 51.8662 45.5619 51.2983 45.9784C51.2605 46.0163 51.1847 46.0541 51.1469 46.0541C51.0712 46.0541 51.0333 46.0541 50.9576 46.0541C50.7304 45.827 50.5411 45.5619 50.3518 45.2591C50.3139 45.2212 50.3139 45.1455 50.3139 45.1076C50.3139 45.0698 50.3518 44.994 50.3897 44.9562C50.9576 44.5018 51.4498 44.0097 51.9041 43.4796C52.1691 43.101 52.3963 42.6845 52.5856 42.2302C53.0399 41.0565 54.1379 38.8606 56.2581 37.6869C57.0532 37.2326 57.924 36.9297 58.7948 36.8161C59.1734 36.7782 59.5141 36.8161 59.6277 37.119C59.6656 37.2326 59.7791 37.5355 59.8549 37.7248V37.7626C59.8549 37.8005 59.8549 37.8005 59.8549 37.8383C59.8549 37.8762 59.8549 37.8762 59.817 37.9141C59.817 37.9519 59.7791 37.9519 59.7791 37.9519C59.7413 37.9519 59.7413 37.9898 59.7034 37.9898C58.3783 38.4441 57.2046 39.2771 56.3338 40.375C55.3494 41.7001 55.0844 43.2903 55.728 44.2368C55.9552 44.5397 56.2581 44.7669 56.6367 44.8426C57.0153 44.9562 57.3939 44.9183 57.7347 44.7669C58.3404 44.5397 58.8705 44.199 59.3248 43.7446C59.7791 43.2903 60.1199 42.7602 60.347 42.1545C60.8771 40.8293 60.9907 39.3528 60.5742 37.9898C60.5364 37.9141 60.5364 37.8005 60.5742 37.6869C60.6121 37.5733 60.6499 37.4976 60.7257 37.4597C60.9907 37.2704 61.2557 37.0811 61.5586 36.9675C61.6722 36.8918 61.8236 36.8918 61.9372 36.9297C62.0508 36.9676 62.1644 37.0433 62.278 37.1569C62.7323 37.8762 62.9594 38.7091 62.9216 39.5421C62.9216 39.7314 63.0352 39.7314 63.1109 39.6557C63.7924 38.8606 64.5496 38.0655 65.3447 37.384C66.064 36.7782 66.9348 36.3996 67.8435 36.3618C68.9793 36.3618 69.5094 37.1569 69.4715 38.5198C69.4715 38.6713 69.5851 38.6713 69.6608 38.5577C69.9258 38.1791 70.2287 37.8005 70.6073 37.5355C71.251 36.9297 72.1218 36.6268 72.9926 36.6647H73.1061C73.3333 36.7025 73.5605 36.7782 73.7876 36.8918C73.9769 37.0054 74.1662 37.1569 74.3177 37.3462C74.4691 37.5355 74.5448 37.7626 74.6206 37.9898C74.6963 38.217 74.6963 38.4441 74.6584 38.7091C74.6206 39.0499 74.507 39.3528 74.2798 39.6557C74.0905 39.9207 73.8255 40.1479 73.5226 40.2993C73.2576 40.4507 72.9926 40.4886 72.6897 40.4507C72.4246 40.4129 72.1218 40.2993 71.9324 40.11C71.7431 39.9586 71.6296 39.7314 71.5538 39.5042C71.4781 39.2771 71.4781 39.012 71.5538 38.7849C71.5538 38.6713 71.4403 38.5956 71.3267 38.7091C70.3423 39.7314 70.2666 41.0944 70.9102 41.7001C71.5539 42.3059 72.6897 41.9273 73.4847 41.3973C74.9235 40.4507 76.0214 39.1635 77.3087 38.1791C78.1416 37.4597 79.1639 37.0054 80.224 36.8161C80.8297 36.7404 81.4355 36.7782 82.0034 37.0433C82.3442 37.1569 82.647 37.384 82.8742 37.649C83.1014 37.9141 83.2528 38.2548 83.3285 38.5956C83.3285 38.747 83.48 38.7849 83.5936 38.6334C84.1993 37.649 87.5311 32.6893 87.7961 32.1592C87.8718 32.0078 87.9854 31.9699 88.1369 31.9699H90.5221C90.9764 31.8185 91.0143 31.8942 90.9764 32.0078Z" fill="#0C2036"/>
<path d="M63.3386 19.7031C37.4418 19.7031 16.6562 27.4267 16.6562 37.0812C16.6562 46.7357 37.5933 54.4972 63.3386 54.4972C89.0839 54.4972 110.021 46.6979 110.021 37.1191C110.021 27.5403 89.0839 19.7031 63.3386 19.7031ZM63.3386 52.9449C38.6534 52.9449 18.625 45.8271 18.625 37.0812C18.625 28.3354 38.6534 21.2176 63.3386 21.2176C88.0238 21.2176 108.052 28.3354 108.052 37.0812C108.052 45.8271 88.0238 52.9449 63.3386 52.9449Z" fill="#0C2036"/>
</svg>
