<svg width="126" height="73" viewBox="0 0 126 73" fill="none" xmlns="http://www.w3.org/2000/svg">
<path d="M31.7615 17.8477H39.5987V37.9896C39.5987 41.4728 38.0842 48.7421 27.1803 48.7421C16.2764 48.7421 15.1406 41.965 15.1406 38.1789V34.4307H22.7506V38.0653C22.7128 39.1633 23.0914 40.2234 23.8486 41.0184C24.6058 41.8135 25.6659 42.3057 26.7639 42.3436H27.1425C30.0199 42.3436 31.7994 40.7534 31.7994 38.141V17.8477H31.7615Z" fill="#0C2036"/>
<path d="M31.7615 17.8477H39.5987V37.9896C39.5987 41.4728 38.0842 48.7421 27.1803 48.7421C16.2764 48.7421 15.1406 41.965 15.1406 38.1789V34.4307H22.7506V38.0653C22.7128 39.1633 23.0914 40.2234 23.8486 41.0184C24.6058 41.8135 25.6659 42.3057 26.7639 42.3436H27.1425C30.0199 42.3436 31.7994 40.7534 31.7994 38.141V17.8477H31.7615Z" fill="#0C2036"/>
<path d="M55.6136 35.0366C55.6136 32.9542 54.4021 30.9476 51.7518 30.9476C49.1394 30.9476 48.2308 32.8028 48.2308 35.0366H55.6136ZM51.2218 26.2529C57.3552 26.2529 62.7693 28.6003 62.7693 39.3906H48.1929C48.1929 42.798 49.6316 44.2368 52.1683 44.2368C52.8498 44.2746 53.5691 44.0853 54.1371 43.7446C54.7428 43.4038 55.235 42.8738 55.5379 42.2301H62.6936C62.6936 45.3347 58.4153 49.4994 51.9033 49.3858C44.4826 49.3858 40.8858 43.9339 40.8858 38.3305C40.8858 32.7271 44.0661 26.215 51.2218 26.2529Z" fill="#0C2036"/>
<path d="M78.9734 35.0366C78.9734 32.9542 77.7997 30.9476 75.2251 30.9476C72.6127 30.9476 71.7798 32.8028 71.7798 35.0366H78.9734ZM74.733 26.2529C80.715 26.2529 85.9398 28.6003 85.9398 39.3906H71.8177C71.8177 42.798 73.2185 44.2368 75.6416 44.2368C76.3231 44.2746 77.0046 44.0853 77.5725 43.7446C78.1404 43.4038 78.6326 42.8738 78.9355 42.2301H85.864C85.864 45.3347 81.6993 49.4994 75.4144 49.3858C68.2209 49.3858 64.6999 43.9339 64.6999 38.3305C64.6999 32.7271 67.8044 26.215 74.733 26.2529Z" fill="#0C2036"/>
<path d="M95.0638 37.9137C94.9881 42.192 95.8968 44.4637 99.4557 44.4637C103.015 44.4637 103.545 40.6019 103.545 37.6487C103.545 34.6956 102.863 31.856 99.1528 31.856C96.8433 31.8182 95.1395 33.5976 95.0638 37.9137ZM87.8703 55.784V26.7827H95.1395V30.1144C95.4046 29.5087 95.7453 28.9786 96.1618 28.4864C96.654 27.8806 98.017 26.2148 101.689 26.2148C105.324 26.2148 111.079 28.7514 111.079 37.6487C111.079 44.5394 107.671 49.5749 101.841 49.5749C98.6227 49.5749 97.184 48.4769 96.3132 47.7954C95.9346 47.5304 95.5939 47.1896 95.291 46.7732V55.784H87.8703Z" fill="#0C2036"/>
</svg>
