<svg width="58" height="32" viewBox="0 0 58 32" fill="none" xmlns="http://www.w3.org/2000/svg">
<path d="M0 0L-1.73248e-06 31.1395L8.67457 31.1395L8.67457 8.49258L47.7101 8.49259C48.5092 8.49259 49.1559 9.12635 49.1559 9.90802C49.1559 10.6897 48.5092 11.3234 47.7101 11.3234L21.6864 11.3234C16.0982 11.3234 11.5661 15.7591 11.5661 21.2315C11.5661 26.7038 16.0982 31.1395 21.6864 31.1395L57.8304 31.1395C57.8304 26.4492 54.0282 22.6469 49.3379 22.6469L21.6864 22.6469C20.8873 22.6469 20.2407 22.0131 20.2407 21.2315C20.2407 20.4498 20.8873 19.816 21.6864 19.816L47.7101 19.816C53.2983 19.816 57.8304 15.3804 57.8304 9.90802C57.8304 4.43566 53.2983 2.96532e-06 47.7101 2.65441e-06L0 0Z" fill="#47FF9B"/>
</svg>
