<svg width="127" height="73" viewBox="0 0 127 73" fill="none" xmlns="http://www.w3.org/2000/svg">
<path d="M38.7428 49.0115H36.5469V57.038H38.7428V49.0115Z" fill="#0C2036"/>
<path d="M47.0337 49.0115H44.4213L39.1965 54.577L44.4213 60.2183H47.0337L41.8467 54.577L47.0337 49.0115Z" fill="#0C2036"/>
<path d="M59.339 52.3808C58.9225 52.4566 58.5061 52.608 58.1275 52.8352V48.9734H56.2723V56.9999H58.3168C58.2032 56.7727 58.1653 56.5077 58.1653 56.2048C58.1653 55.9398 58.2032 55.6747 58.3168 55.4476C58.4304 55.2204 58.5818 54.9932 58.7711 54.8039C58.9604 54.6146 59.1876 54.4632 59.4147 54.3496C59.6419 54.236 59.9069 54.1982 60.1719 54.1982C60.437 54.1982 60.702 54.236 60.9292 54.3496C61.1563 54.4632 61.3835 54.6146 61.5728 54.8039C61.7621 54.9932 61.9135 55.2204 62.0271 55.4476C62.1407 55.6747 62.1786 55.9398 62.1786 56.2048C62.1786 56.7348 61.9514 57.2649 61.5728 57.6435C61.1942 58.0221 60.6641 58.2493 60.1341 58.2493C59.8691 58.2493 59.6419 58.2114 59.4147 58.0978V60.1044C59.9069 60.218 60.437 60.218 60.9292 60.1044C61.4214 59.9909 61.9135 59.8016 62.3679 59.4987C62.7843 59.1958 63.1629 58.8172 63.4658 58.4007C63.7687 57.9842 63.958 57.492 64.0337 56.962C64.1473 56.4319 64.1095 55.9398 64.0337 55.4097C63.8066 54.3875 63.2008 53.4788 62.33 52.9109C61.4213 52.343 60.3612 52.1537 59.339 52.3808Z" fill="#0C2036"/>
<path d="M69.2583 52.2676C68.3497 52.2676 67.4789 52.5705 66.7595 53.1763C66.0402 53.7442 65.5858 54.5393 65.3965 55.4479C65.2829 55.978 65.2829 56.508 65.3965 57.0381H67.441C67.3274 56.8109 67.2896 56.5459 67.2896 56.243C67.2896 55.713 67.5167 55.1829 67.8953 54.8043C68.2739 54.4257 68.7661 54.1985 69.334 54.1985C69.5991 54.1985 69.8641 54.2364 70.0913 54.35C70.3184 54.4635 70.5456 54.615 70.7349 54.8043C70.9242 54.9936 71.0756 55.2208 71.1892 55.4479C71.3028 55.6751 71.3407 55.9401 71.3407 56.2051C71.3407 56.4702 71.3028 56.7352 71.1892 56.9624C71.0756 57.1895 70.9242 57.4167 70.7349 57.606C70.5456 57.7953 70.3184 57.9467 70.0913 58.0603C69.8641 58.1739 69.5991 58.2118 69.334 58.2118C69.069 58.2118 68.8419 58.1739 68.6147 58.0603V60.0669C69.1069 60.1805 69.6369 60.1805 70.1291 60.0669C70.6213 59.9534 71.1135 59.764 71.5678 59.4612C72.0222 59.1583 72.3629 58.7797 72.6658 58.3632C72.9687 57.9467 73.158 57.4545 73.2337 56.9245C73.3473 56.4323 73.3094 55.9023 73.2337 55.3722C73.0444 54.4635 72.5522 53.6685 71.8707 53.1006C71.0756 52.6084 70.167 52.2676 69.2583 52.2676Z" fill="#0C2036"/>
<path d="M54.1142 52.1921H52.259V56.3946C52.259 56.8868 52.0697 57.379 51.7289 57.7198C51.3882 58.0605 50.896 58.2498 50.4038 58.2498C50.1009 58.2498 49.798 58.1741 49.533 58.0605V60.0671C49.798 60.1429 50.1009 60.1807 50.4038 60.1807C50.896 60.1807 51.3882 60.105 51.8425 59.9157C52.2969 59.7264 52.7133 59.4614 53.0541 59.1206C53.3948 58.7799 53.6977 58.3634 53.887 57.9091C54.0763 57.4547 54.1899 56.9626 54.1899 56.4704L54.1142 52.1921Z" fill="#0C2036"/>
<path d="M48.435 56.3946V52.1921H46.5798V56.3946C46.5798 56.5839 46.5798 56.8111 46.6177 57.0004H48.5486C48.4729 56.8111 48.4729 56.5839 48.435 56.3946Z" fill="#0C2036"/>
<path d="M76.9443 49.0115H74.8619V60.2183H76.9443V54.2742H78.913V52.1918H76.9443V49.0115Z" fill="#0C2036"/>
<path d="M83.4555 52.2676C82.5468 52.2676 81.676 52.5705 80.9567 53.1384C80.2373 53.7063 79.7451 54.5014 79.5937 55.4101C79.4801 55.9401 79.4801 56.4702 79.5937 57.0002H81.6381C81.5246 56.7731 81.4867 56.508 81.4867 56.2051C81.4867 55.6751 81.7139 55.145 82.0925 54.7664C82.4711 54.3878 82.9633 54.1607 83.5312 54.1607C83.7962 54.1607 84.0612 54.1985 84.2884 54.3121C84.5156 54.4257 84.7427 54.5771 84.932 54.7664C85.1213 54.9557 85.2728 55.1829 85.3864 55.4101C85.5 55.6372 85.5378 55.9023 85.5378 56.1673C85.5378 56.4323 85.5 56.6973 85.3864 56.9245C85.2728 57.1517 85.1213 57.3788 84.932 57.5681C84.7427 57.7574 84.5156 57.9089 84.2884 58.0225C84.0612 58.136 83.7962 58.1739 83.5312 58.1739C83.304 58.1739 83.039 58.136 82.8118 58.0225V60.0291C83.304 60.1048 83.8341 60.0669 84.3263 59.9155C84.8185 59.7641 85.2349 59.499 85.5757 59.1204V60.1048H87.4687V56.4702C87.5066 56.0916 87.4687 55.713 87.393 55.3343C87.2037 54.4257 86.7115 53.6306 86.03 53.0627C85.2728 52.6084 84.3641 52.2676 83.4555 52.2676Z" fill="#0C2036"/>
<path d="M83.5317 28.3021C83.5317 19.632 73.8772 12.5898 61.9511 12.5898C50.0628 12.5898 40.3705 19.632 40.3705 28.3021V29.0971C40.3705 37.7673 50.0249 44.8094 61.9511 44.8094C73.8394 44.8094 83.5317 37.7673 83.5317 29.0971V28.3021ZM52.6752 15.1644C53.0159 15.0508 53.3188 14.9751 53.6217 14.8615H53.6596L54.5682 14.5965C54.7575 14.5586 54.9468 14.5207 55.1361 14.445L55.4769 14.3693L56.0827 14.2557L56.4234 14.18C56.6127 14.1421 56.8399 14.1043 57.0292 14.0664L57.3699 13.9907L57.9757 13.915L58.3543 13.8771L58.9222 13.8014L59.3766 13.7635L59.9066 13.7257L60.4745 13.6878H60.891C61.2317 13.6878 61.5725 13.6878 61.9132 13.6878C62.254 13.6878 62.5947 13.6878 62.9355 13.6878H63.3519L63.9198 13.7257C64.1091 13.7257 64.2606 13.7635 64.4499 13.7635L64.9042 13.8014L65.4721 13.8771L65.8507 13.915L66.4944 13.9907L66.7973 14.0286L67.4409 14.1421L67.7059 14.18L68.3874 14.3314L68.6146 14.3693L69.2961 14.5586H69.3718C69.7125 14.6343 70.0533 14.7479 70.4319 14.8615L71.1513 15.0887L71.3027 15.1265C71.5677 15.2022 71.8327 15.3158 72.0599 15.4294L72.1356 15.4673C74.9373 16.5274 77.474 18.1932 79.5563 20.3513C82.8502 24.3645 82.7366 27.242 82.6231 29.4C82.8124 29.1729 82.9638 28.9078 83.0774 28.6807V29.0593C83.0774 34.6627 78.8748 39.5846 72.6278 42.2727C73.8015 41.5533 74.9373 40.7204 75.9974 39.8496C80.0485 37.2372 82.6231 33.5268 82.6231 29.4757V29.4C82.6231 31.6717 79.935 35.3442 78.5341 36.6693C74.748 40.3039 68.5389 42.4241 61.9132 42.4241C56.0827 42.4241 51.085 40.9097 47.2611 38.4487C45.5195 37.2751 43.8915 35.8742 42.4907 34.3219C44.4973 37.843 48.094 40.6447 52.6752 42.2727C53.7732 42.8785 54.8711 43.3707 56.0448 43.7871C51.3879 42.8027 47.4126 40.7204 44.6487 37.9566C44.4216 37.578 44.0429 36.9722 43.7022 36.5557C43.21 35.8364 39.6511 31.5581 41.1277 25.4625C42.7178 20.9192 46.9961 17.1331 52.6752 15.1644ZM50.1764 15.5808L48.0183 17.2846C44.7623 19.3291 42.3392 22.055 41.2413 25.1596C42.3771 21.1842 45.671 17.7768 50.1764 15.5808Z" fill="#0C2036"/>
<path d="M61.9509 39.66C65.9263 39.6978 69.8638 38.827 73.4606 37.0854C75.0507 36.2903 76.5273 35.2302 77.8146 33.9808L77.8903 33.9051L78.1553 33.6022C78.8368 32.8829 79.4426 32.0499 79.9348 31.1791L79.9726 31.1034L80.0862 30.9141C80.1241 30.8384 80.1619 30.7627 80.1998 30.6869C80.7299 29.5511 81.0327 28.3396 81.0327 27.0902C81.0327 25.8029 80.692 24.5156 80.0862 23.342C79.8969 22.9634 79.7076 22.5847 79.4426 22.244C79.1397 21.8275 78.8368 21.4111 78.4961 20.9946C76.7166 18.988 74.5207 17.4357 72.0597 16.4513C68.8416 15.164 65.3962 14.4825 61.9131 14.5204C51.4256 14.5204 42.9069 20.1617 42.9069 27.0902C42.9069 34.0187 51.4635 39.66 61.9509 39.66ZM50.5927 35.571H50.6305L50.6684 35.5331V35.4953C50.7441 35.4195 50.8198 35.306 50.8577 35.2302L57.1805 16.4892H57.2183C57.2183 16.4892 57.2183 16.4892 57.2562 16.4513V16.3756C57.2562 16.3756 57.2562 16.3377 57.2183 16.3377C57.2183 16.2999 57.2183 16.2241 57.1805 16.1863L58.1648 16.2999C57.9377 17.1707 57.4833 19.4802 57.2183 20.1995C55.5524 25.1971 53.6215 34.0566 53.4701 35.0031C53.3944 35.4574 52.7886 35.7603 53.3944 36.2146L50.4034 35.7603C50.4791 35.6846 50.5548 35.6089 50.5927 35.571ZM58.127 26.5223L70.4696 36.2146C67.7057 37.0854 64.8662 37.5019 61.9888 37.5019C59.1114 37.5019 56.2339 37.0854 53.4701 36.2146L59.9822 16.4892H60.0957C63.5411 16.262 66.9864 16.6406 70.2803 17.625C68.993 18.4958 58.3163 25.7651 58.127 25.9165C58.0891 25.9544 58.0512 25.9922 58.0134 26.0301C57.9755 26.0679 57.9755 26.1437 57.9755 26.1815C57.9755 26.2572 57.9755 26.333 58.0134 26.3708C58.0512 26.4087 58.0891 26.4844 58.127 26.5223ZM64.2983 30.3462C62.1024 28.8696 58.8463 26.4844 58.8463 26.4844H58.3541L58.2406 26.4087C58.2027 26.3708 58.1648 26.3708 58.1648 26.333C58.127 26.2951 58.127 26.2572 58.127 26.2194C58.127 26.1815 58.127 26.1437 58.1648 26.1437C58.2027 26.1437 58.2027 26.1058 58.2406 26.0679L58.3163 25.9922L62.8217 26.2572C62.7838 26.2951 62.7838 26.333 62.7838 26.4087C62.7838 26.4844 62.8217 26.5223 62.8217 26.598C62.8596 26.6358 62.8974 26.7116 62.9353 26.7494C63.1246 26.9009 68.1979 30.9141 71.3782 33.4508C70.5074 33.1479 66.6835 31.9364 64.2983 30.3462ZM63.0867 26.5601C63.011 26.5223 62.9732 26.4465 62.9732 26.3708C62.9732 26.2951 63.011 26.2572 63.1246 26.1815C63.4275 25.9922 73.5742 19.1773 73.6877 19.1016C73.8013 19.0258 73.8771 18.988 73.9906 18.9501C77.6253 21.0325 79.6698 23.9477 79.6698 26.9766C79.6698 30.0055 77.5495 33.0343 73.8013 35.0788C72.4762 34.0187 63.3139 26.7873 63.0867 26.5601ZM52.3343 17.8143C53.8866 17.2464 55.4767 16.792 57.1047 16.4892L50.8198 35.1545C50.782 35.2302 50.7441 35.306 50.6684 35.3817C46.6173 33.2993 44.2699 30.2326 44.2699 26.9766C44.2321 23.2662 47.3745 19.8209 52.3343 17.8143ZM80.1619 30.5734C79.7833 31.0277 79.329 31.4063 78.7989 31.6713C78.4961 32.2014 77.0574 33.8294 74.4071 35.3438C74.3692 35.3438 74.2935 35.3438 74.2557 35.3438C74.2178 35.3438 74.1421 35.306 74.1042 35.2681L74.0285 35.2302L73.9906 35.1924C77.0574 33.4886 79.0261 31.1791 79.6698 28.6803C80.0862 27.0902 80.2377 25.4622 80.1998 23.7963C80.6541 24.8185 80.8813 25.9165 80.9192 27.0145C80.957 28.2639 80.6541 29.4754 80.1619 30.5734ZM61.9888 14.7476C67.6679 14.7476 72.817 16.4513 76.4137 19.1394C76.8681 19.4802 77.3224 19.8966 77.7388 20.2752C77.9282 20.5403 78.0796 20.8053 78.1932 21.1082C78.2689 21.4111 78.3068 21.7518 78.2689 22.0547C78.1175 21.8275 77.9282 21.6004 77.7767 21.3732C76.9438 20.3888 75.9973 19.5559 74.8993 18.8744C74.2178 18.4579 73.4984 18.0793 72.7791 17.7386C69.4473 16.1863 65.8127 15.3912 62.1024 15.3912C60.3986 15.3912 58.6949 15.5426 56.9912 15.8455H56.9154L55.666 16.1106C53.6594 16.6027 51.7664 17.36 49.949 18.3822C48.6618 19.1016 47.526 20.0481 46.5794 21.1839C44.9136 22.8876 44.0428 24.8564 44.0428 26.9009C44.0428 27.5066 44.1185 28.1124 44.2699 28.6803C43.7777 27.7338 43.5506 26.6358 43.5884 25.5757C43.6263 24.5156 43.9292 23.4555 44.4971 22.509C47.2231 18.0036 54.038 14.7476 61.9888 14.7476Z" fill="#0C2036"/>
</svg>
