<svg width="76" height="63" viewBox="0 0 76 63" fill="none" xmlns="http://www.w3.org/2000/svg">
<path d="M58.0814 40.3271C67.8803 40.3271 75.8357 32.3717 75.8357 22.5729V17.7543C75.8357 7.95547 67.8803 0 58.0814 0H17.7543C7.95548 0 0 7.95547 0 17.7543V45.1295C0 54.9284 7.95548 62.8838 17.7543 62.8838V17.7543H58.0814V22.5729H40.3272C30.5283 22.5729 22.5729 30.5283 22.5729 40.3271V45.1457C22.5729 54.9445 30.5283 62.9 40.3272 62.9H58.0814C67.8803 62.9 75.8357 54.9445 75.8357 45.1457H40.3272V40.3271H58.0814ZM40.3272 52.0825H65.1799V55.9309H40.3272C34.3767 55.9309 29.5258 51.08 29.5258 45.1295V40.311C29.5258 34.3605 34.3767 29.5096 40.3272 29.5096H58.0814C61.9137 29.5096 65.0344 26.3889 65.0344 22.5567V17.7381C65.0344 13.9059 61.9137 10.7852 58.0814 10.7852H17.7543C13.9221 10.7852 10.8013 13.9059 10.8013 17.7381V52.2118H6.95296V17.7381C6.95296 11.7877 11.8039 6.93678 17.7543 6.93678H58.0814C64.0319 6.93678 68.8828 11.7877 68.8828 17.7381V22.5567C68.8828 28.5071 64.0319 33.358 58.0814 33.358H40.3272C36.4949 33.358 33.3742 36.4788 33.3742 40.311V45.1295C33.3742 48.9618 36.4949 52.0825 40.3272 52.0825Z" fill="#0D1725"/>
</svg>
