<svg width="79" height="47" viewBox="0 0 79 47" fill="none" xmlns="http://www.w3.org/2000/svg">
<path d="M17.1618 30.1186V33.7047C17.1618 41.0262 23.2026 46.9603 30.6523 46.9603H72.3829C76.033 46.9603 79 43.9932 79 40.3431C79 36.6931 76.033 33.7047 72.3829 33.7047H30.6523V30.1186H65.5096C72.9592 30.1186 79 24.1632 79 16.863V13.2556C79 5.95542 72.9592 0 65.5096 0H13.5118C6.06215 0 0 5.95542 0 13.2556V46.9603H13.5118V13.2556H65.5096V16.863H30.6523C23.2026 16.863 17.1618 22.7971 17.1618 30.1186ZM69.7787 15.07C69.7787 13.405 69.0957 11.8681 68.007 10.7795C66.9184 9.66955 65.3815 8.98649 63.7166 8.98649H15.3048C11.9535 8.98649 9.24264 11.7187 9.24264 15.07V42.6912H4.26912V13.2556C4.26912 8.30343 8.41016 4.26912 13.5118 4.26912H65.5096C70.6112 4.26912 74.7309 8.30343 74.7309 13.2556V16.863C74.7309 21.8152 70.6112 25.8495 65.5096 25.8495H32.4666C29.1154 25.8495 26.3831 28.5604 26.3831 31.9116C26.3831 33.5979 27.0662 35.0921 28.1762 36.2021C29.2861 37.3121 30.7803 37.9738 32.4666 37.9738H72.3829C73.685 37.9738 74.7309 39.0411 74.7309 40.3431C74.7309 41.6452 73.685 42.6912 72.3829 42.6912H30.6523C25.572 42.6912 21.431 38.6568 21.431 33.7047V30.1186C21.431 25.1664 25.572 21.1321 30.6523 21.1321H63.7166C67.0678 21.1321 69.7787 18.3999 69.7787 15.07V15.07Z" fill="#0E1826"/>
</svg>
