<svg width="160" height="40" viewBox="0 0 160 40" fill="none" xmlns="http://www.w3.org/2000/svg">
<path d="M10 39.19H0V0H63.74C70.14 0 75.74 4.74 76.34 11.11C77.03 18.42 71.27 24.59 64.1 24.59H32.44C31.24 24.59 30.14 25.45 30.02 26.65C29.88 28.02 30.96 29.19 32.3 29.19H67.75C72.53 29.19 76.4 33.06 76.4 37.84V39.19H32.67C26.27 39.19 20.67 34.45 20.07 28.08C19.38 20.77 25.14 14.6 32.31 14.6H63.97C65.17 14.6 66.27 13.74 66.39 12.54C66.53 11.17 65.45 10 64.11 10H10V39.19Z" fill="#0A1624"/>
<path d="M147.641 39.19H92.2008C87.4208 39.19 83.5508 35.32 83.5508 30.54V29.19H147.641C148.911 29.19 149.941 28.16 149.941 26.89V12.3C149.941 11.03 148.911 10 147.641 10H83.5508V0H147.641C154.431 0 159.941 5.51 159.941 12.3V26.9C159.941 33.69 154.431 39.2 147.641 39.2V39.19Z" fill="#0A1624"/>
</svg>
