<svg width="643" height="85" viewBox="0 0 643 85" fill="none" xmlns="http://www.w3.org/2000/svg">
<path fill-rule="evenodd" clip-rule="evenodd" d="M0 85H16.226V50.142H40.504C47.702 50.142 50.874 53.192 50.996 60.634C51.2331 73.9095 51.4701 80.3905 53.7211 85H70.4682C67.8121 78.6028 67.339 70.6767 67.1 60.878C66.856 52.338 64.416 46.36 56.852 43.92C65.026 40.26 69.54 32.94 69.54 23.424C69.54 8.784 58.926 0 41.602 0H0V85ZM53.558 25.132C53.558 17.08 48.434 12.81 40.382 12.81H16.226V37.576H40.382C48.434 37.576 53.558 33.184 53.558 25.132Z" fill="#FCFFFF"/>
<path d="M627.277 85C636.735 81.723 642.169 74.7089 642.169 66.368C642.169 52.0729 628.215 48.7247 616.074 45.8116L615.817 45.75L615.51 45.6754C606.613 43.512 598.981 41.6562 598.981 35.746C598.981 31.72 603.129 28.426 610.815 28.426C619.477 28.426 625.211 32.33 627.285 41.114H641.559C639.119 26.23 627.773 17.568 610.693 17.568C594.101 17.568 584.097 25.986 584.097 37.21C584.097 51.1285 597.762 54.4183 609.754 57.3053C610.481 57.4802 611.202 57.6537 611.913 57.828C620.209 59.78 627.163 61.976 627.163 67.954C627.163 72.712 622.893 76.128 614.109 76.128C605.203 76.128 599.347 71.37 597.639 61.854H583.121C584.785 73.9407 591.417 81.6259 601.345 85H627.277Z" fill="#FCFFFF"/>
<path d="M575.49 85V0H559.874V85H575.49Z" fill="#FCFFFF"/>
<path fill-rule="evenodd" clip-rule="evenodd" d="M532.344 85C542.321 81.3578 548.97 72.8466 551.125 60.634H536.363C534.167 70.638 528.555 75.762 520.503 75.762C510.621 75.762 504.277 68.076 503.789 53.802H551.857V52.582C551.857 30.134 538.438 17.446 520.503 17.446C501.593 17.446 488.417 30.866 488.417 52.338C488.417 69.0039 496.12 80.583 508.386 85H532.344ZM536.241 44.53C534.167 34.16 528.433 28.67 520.381 28.67C512.207 28.67 506.351 34.282 504.399 44.53H536.241Z" fill="#FCFFFF"/>
<path d="M480.421 85V19.154H464.805V85H480.421Z" fill="#FCFFFF"/>
<path d="M455.403 85V40.26C455.403 26.718 446.131 17.812 431.979 17.812C423.683 17.812 416.851 21.228 412.215 26.84V19.154H396.599V85H412.215V36.478C415.265 32.208 420.511 29.402 426.489 29.402C434.541 29.402 439.909 34.038 439.909 42.7V85H455.403Z" fill="#FCFFFF"/>
<path fill-rule="evenodd" clip-rule="evenodd" d="M387.149 85V40.382C387.149 25.62 377.267 17.69 360.431 17.69C343.717 17.69 332.005 27.45 330.053 41.724H344.449C345.913 33.55 351.525 28.67 360.065 28.67C367.629 28.67 371.777 31.72 371.777 36.356C371.777 41.236 366.775 43.676 356.405 46.848C342.375 51.118 328.711 55.51 328.711 68.564C328.711 76.4749 333.244 82.3782 340.989 85H360.682C365.029 83.5847 368.827 81.1956 371.777 77.958V85H387.149ZM343.961 68.076C343.961 61.488 350.671 59.17 359.577 56.242L359.951 56.1143C364.798 54.4602 369.041 53.012 371.777 50.752V69.052C367.873 73.444 361.285 76.006 354.941 76.006C348.231 76.006 343.961 73.2 343.961 68.076Z" fill="#FCFFFF"/>
<path fill-rule="evenodd" clip-rule="evenodd" d="M287.283 85C308.735 82.4135 322.781 67.3836 322.781 42.822C322.781 15.494 305.945 0 280.813 0H249.947V85H287.283ZM306.189 42.944C306.189 22.814 296.429 13.054 280.081 13.054H266.173V72.59H280.081C296.429 72.59 306.189 62.708 306.189 42.944Z" fill="#FCFFFF"/>
<path fill-rule="evenodd" clip-rule="evenodd" d="M195.489 85C206.858 80.7302 214.069 68.8641 214.069 52.216C214.069 30.866 202.723 17.812 185.521 17.812C176.371 17.812 168.929 21.96 164.171 29.646L164.293 0H148.677V85H164.171V74.908C167.132 79.6913 171.133 83.1043 175.938 85H195.489ZM181.495 75.518C171.003 75.518 164.293 67.466 164.293 52.338C164.293 37.21 171.003 29.036 181.495 29.036C191.987 29.036 198.575 37.088 198.575 52.338C198.575 67.466 191.987 75.518 181.495 75.518Z" fill="#FCFFFF"/>
<path fill-rule="evenodd" clip-rule="evenodd" d="M120.272 85C132.826 80.6002 140.584 69.0794 140.584 52.338C140.584 30.378 127.408 17.446 107.888 17.446C88.49 17.446 75.314 30.378 75.314 52.338C75.314 69.0794 83.0723 80.6002 95.5704 85H120.272ZM90.93 52.216C90.93 67.588 97.64 75.518 107.888 75.518C118.258 75.518 124.968 67.588 124.968 52.216C124.968 36.966 118.258 28.914 107.888 28.914C97.64 28.914 90.93 36.966 90.93 52.216Z" fill="#FCFFFF"/>
<path d="M464.805 13.664H480.421V0.366003H464.805V13.664Z" fill="#FCFFFF"/>
</svg>
