<svg width="643" height="87" viewBox="0 0 643 87" fill="none" xmlns="http://www.w3.org/2000/svg">
<path d="M0 85.4H16.226V50.142H40.504C47.702 50.142 50.874 53.192 50.996 60.634C51.24 74.298 51.484 80.764 53.924 85.4H70.638C67.832 78.934 67.344 70.882 67.1 60.878C66.856 52.338 64.416 46.36 56.852 43.92C65.026 40.26 69.54 32.94 69.54 23.424C69.54 8.784 58.926 0 41.602 0H0V85.4ZM40.382 12.81C48.434 12.81 53.558 17.08 53.558 25.132C53.558 33.184 48.434 37.576 40.382 37.576H16.226V12.81H40.382Z" fill="#FCFFFF"/>
<path d="M107.888 86.986C127.53 86.986 140.584 74.054 140.584 52.338C140.584 30.378 127.408 17.446 107.888 17.446C88.49 17.446 75.314 30.378 75.314 52.338C75.314 74.054 88.368 86.986 107.888 86.986ZM107.888 75.518C97.64 75.518 90.93 67.588 90.93 52.216C90.93 36.966 97.64 28.914 107.888 28.914C118.258 28.914 124.968 36.966 124.968 52.216C124.968 67.588 118.258 75.518 107.888 75.518Z" fill="#FCFFFF"/>
<path d="M148.677 85.4H164.171V74.908C168.929 82.594 176.371 86.742 185.521 86.742C202.479 86.742 214.069 73.322 214.069 52.216C214.069 30.866 202.723 17.812 185.521 17.812C176.371 17.812 168.929 21.96 164.171 29.646L164.293 0H148.677V85.4ZM181.495 75.518C171.003 75.518 164.293 67.466 164.293 52.338C164.293 37.21 171.003 29.036 181.495 29.036C191.987 29.036 198.575 37.088 198.575 52.338C198.575 67.466 191.987 75.518 181.495 75.518Z" fill="#FCFFFF"/>
<path d="M249.947 85.4H280.447C305.701 85.4 322.781 69.906 322.781 42.822C322.781 15.494 305.945 0 280.813 0H249.947V85.4ZM280.081 13.054C296.429 13.054 306.189 22.814 306.189 42.944C306.189 62.708 296.429 72.59 280.081 72.59H266.173V13.054H280.081Z" fill="#FCFFFF"/>
<path d="M350.915 86.498C359.333 86.498 366.775 83.448 371.777 77.958V85.4H387.149V40.382C387.149 25.62 377.267 17.69 360.431 17.69C343.717 17.69 332.005 27.45 330.053 41.724H344.449C345.913 33.55 351.525 28.67 360.065 28.67C367.629 28.67 371.777 31.72 371.777 36.356C371.777 41.236 366.775 43.676 356.405 46.848C342.375 51.118 328.711 55.51 328.711 68.564C328.711 79.422 337.251 86.498 350.915 86.498ZM343.961 68.076C343.961 61.488 350.671 59.17 359.577 56.242C364.579 54.534 368.971 53.07 371.777 50.752V69.052C367.873 73.444 361.285 76.006 354.941 76.006C348.231 76.006 343.961 73.2 343.961 68.076Z" fill="#FCFFFF"/>
<path d="M396.599 85.4H412.215V36.478C415.265 32.208 420.511 29.402 426.489 29.402C434.541 29.402 439.909 34.038 439.909 42.7V85.4H455.403V40.26C455.403 26.718 446.131 17.812 431.979 17.812C423.683 17.812 416.851 21.228 412.215 26.84V19.154H396.599V85.4Z" fill="#FCFFFF"/>
<path d="M464.805 13.664H480.421V0.366003H464.805V13.664ZM464.805 85.4H480.421V19.154H464.805V85.4Z" fill="#FCFFFF"/>
<path d="M520.381 86.986C536.973 86.986 548.197 77.226 551.125 60.634H536.363C534.167 70.638 528.555 75.762 520.503 75.762C510.621 75.762 504.277 68.076 503.789 53.802H551.857V52.582C551.857 30.134 538.437 17.446 520.503 17.446C501.593 17.446 488.417 30.866 488.417 52.338C488.417 73.932 501.349 86.986 520.381 86.986ZM520.381 28.67C528.433 28.67 534.167 34.16 536.241 44.53H504.399C506.351 34.282 512.207 28.67 520.381 28.67Z" fill="#FCFFFF"/>
<path d="M559.874 85.4H575.49V0H559.874V85.4Z" fill="#FCFFFF"/>
<path d="M614.475 86.986C631.677 86.986 642.169 77.958 642.169 66.368C642.169 51.972 628.017 48.678 615.817 45.75C606.789 43.554 598.981 41.724 598.981 35.746C598.981 31.72 603.129 28.426 610.815 28.426C619.477 28.426 625.211 32.33 627.285 41.114H641.559C639.119 26.23 627.773 17.568 610.693 17.568C594.101 17.568 584.097 25.986 584.097 37.21C584.097 51.972 599.469 54.778 611.913 57.828C620.209 59.78 627.163 61.976 627.163 67.954C627.163 72.712 622.893 76.128 614.109 76.128C605.203 76.128 599.347 71.37 597.639 61.854H583.121C585.439 78.69 597.395 86.986 614.475 86.986Z" fill="#FCFFFF"/>
</svg>
