<svg width="46" height="46" viewBox="0 0 46 46" fill="none" xmlns="http://www.w3.org/2000/svg">
<path d="M19.3227 32.9333C28.1147 32.9333 32.9227 25.6507 32.9227 19.3333C32.9227 19.1253 32.9173 18.92 32.9093 18.7147C33.8427 18.04 34.6533 17.1973 35.2933 16.24C34.4373 16.6213 33.5147 16.8773 32.5493 16.992C33.536 16.4 34.2933 15.464 34.6507 14.3493C33.728 14.896 32.704 15.296 31.616 15.5093C30.744 14.5813 29.5013 14 28.128 14C25.488 14 23.3467 16.1413 23.3467 18.7787C23.3467 19.1547 23.3893 19.5173 23.472 19.8693C19.4987 19.6693 15.976 17.768 13.6213 14.8747C13.2107 15.5813 12.9733 16.4027 12.9733 17.2773C12.9733 18.936 13.816 20.4 15.1013 21.256C14.3173 21.232 13.5813 21.016 12.936 20.6587C12.936 20.6773 12.936 20.6987 12.936 20.72C12.936 23.0347 14.584 24.968 16.7707 25.4053C16.368 25.5147 15.9467 25.5733 15.512 25.5733C15.2053 25.5733 14.904 25.544 14.6133 25.488C15.2213 27.3867 16.9867 28.768 19.0773 28.808C17.44 30.0907 15.3813 30.8533 13.1413 30.8533C12.7547 30.8533 12.376 30.832 12 30.7867C14.1147 32.1413 16.6267 32.9333 19.3253 32.9333" fill="#0C2036"/>
</svg>
