<svg width="163" height="164" viewBox="0 0 163 164" fill="none" xmlns="http://www.w3.org/2000/svg">
<g clip-path="url(#clip0_28_728)">
<path d="M89.9068 0.573337L94.4717 0.739062V1.28143C92.8898 1.49235 92.694 2.09499 91.8955 4.27954L88.2496 14.2079L86.7731 14.2682L84.2722 5.33415L81.1686 13.9368L79.6921 13.997L76.6488 3.17973C76.1667 1.43209 76.001 0.829457 74.5547 0.513074V-0.0292969L79.7976 0.166559V0.70893C78.1253 0.919852 78.2458 1.68821 78.6827 3.25506L80.34 9.35673L80.9426 11.8878L83.8202 3.78236L83.7298 3.45092C83.2326 1.70328 83.0669 1.10064 81.485 0.784259V0.256954L87.0593 0.467876V1.01025C85.2213 1.28143 85.3418 2.00459 85.7486 3.54131L87.4059 9.64298L88.0236 12.174L90.9011 4.23434C91.6846 2.09499 91.7298 1.47729 89.9068 1.11571V0.573337Z" fill="#0C2036"/>
<path d="M95.7677 8.28706C96.9579 4.06862 100.212 2.12512 103.587 3.07427C107.022 4.03849 108.8 7.39817 107.61 11.6166C106.419 15.8351 103.165 17.7635 99.7903 16.8143C96.3553 15.8501 94.5775 12.4904 95.7677 8.27199V8.28706ZM105.621 11.5714C106.555 8.27199 106.043 4.86711 103.18 4.06862C100.483 3.31533 98.6001 5.30402 97.7414 8.33226C96.8073 11.6317 97.3195 15.0366 100.167 15.8351C102.879 16.6034 104.762 14.5997 105.621 11.5714Z" fill="#0C2036"/>
<path d="M117.671 23.3834L117.414 23.8956C116.842 23.8504 116.269 23.6696 115.832 23.4587C114.552 22.8259 114.296 21.6207 114.311 18.5171C114.311 16.5284 114.522 15.6395 113.633 15.2026L112.533 14.6452L111.072 17.568C110.424 18.8636 110.123 19.4813 111.388 20.4003L111.147 20.8975L106.688 18.6678L106.929 18.1706C108.45 18.6376 108.752 18.035 109.399 16.7393L112.91 9.73371C113.558 8.43805 113.859 7.82035 112.548 6.8712L112.789 6.37402L117.821 8.89002C120.397 10.1706 121.934 11.8881 120.774 14.1781C119.93 15.8806 118.092 16.2572 116.134 15.9258C116.179 16.9352 116.179 17.7638 116.209 18.4568C116.284 21.5453 116.269 22.7807 117.686 23.3834H117.671ZM112.955 13.8166L114.22 14.4493C116.269 15.4738 118.062 15.0821 118.876 13.455C119.689 11.8429 119.237 10.6377 117.399 9.71864L115.486 8.76949L112.955 13.8316V13.8166Z" fill="#0C2036"/>
<path d="M128.256 31.4578L127.909 31.9098C127.382 31.7892 126.825 31.4729 126.433 31.1715C125.077 30.132 125.032 28.9117 125.589 25.8232C125.845 24.4371 126.132 23.2017 126.418 21.906C125.544 21.9512 124.655 21.9362 123.827 21.8759L122.199 24.0002C121.326 25.1452 120.904 25.7026 121.989 26.8476L121.657 27.2846L117.68 24.2412L118.011 23.8043C119.412 24.5576 119.834 24.0153 120.708 22.8552L125.469 16.633C126.358 15.4579 126.764 14.9305 125.68 13.7855L126.011 13.3486L129.988 16.3919L129.657 16.8288C128.256 16.0756 127.849 16.6029 126.96 17.778L124.489 21.0172C126.825 21.2281 131.585 20.746 132.354 19.7366C132.67 19.3147 132.278 18.8627 131.691 18.3806L132.022 17.9437L135.939 20.9418L135.608 21.3787C134.553 20.746 133.981 20.7309 132.203 21.0925C131.149 21.3185 129.793 21.5746 128.346 21.7403C127.97 23.5181 127.593 25.1603 127.412 26.3806C126.93 29.3034 126.93 30.5538 128.256 31.4729V31.4578Z" fill="#0C2036"/>
<path d="M134.612 32.0008C135.471 31.2174 136.767 31.3228 137.52 32.1816C138.273 33.0403 138.213 34.3209 137.354 35.0742C136.48 35.8426 135.215 35.7673 134.446 34.8934C133.693 34.0347 133.753 32.7691 134.612 32.0008Z" fill="#0C2036"/>
<path d="M156.167 48.9799L158.277 53.0326L157.794 53.2887C156.83 52.0383 156.212 52.1588 153.922 52.5505L143.482 54.2981L142.698 53.0477L149.222 46.4488L140.197 48.0157L139.414 46.7652L147.309 38.7652C148.589 37.4846 149.026 37.0327 148.589 35.6165L149.071 35.3604L151.497 40.0006L151.015 40.2568C150.005 38.931 149.403 39.4131 148.258 40.5731L143.768 45.0326L141.87 46.8104L150.337 45.2888L150.593 45.0477C151.858 43.752 152.31 43.3151 151.798 41.7633L152.28 41.5072L154.857 46.4488L154.374 46.7049C153.245 45.2586 152.672 45.7106 151.527 46.8405L147.037 51.3L145.139 53.0778L153.486 51.6465C155.745 51.2699 156.288 50.9987 155.7 49.236L156.182 48.9799H156.167Z" fill="#0C2036"/>
<path d="M152.328 57.8534C156.591 56.7987 159.876 58.682 160.704 62.0718C161.563 65.5369 159.529 68.7309 155.265 69.7855C151.002 70.8401 147.717 68.972 146.889 65.5671C146.03 62.1019 148.064 58.908 152.328 57.8534ZM154.331 68.0529C157.661 67.2394 160.358 65.1151 159.65 62.2224C158.972 59.5106 156.32 58.8477 153.262 59.601C149.932 60.4145 147.235 62.5388 147.943 65.4164C148.621 68.1584 151.288 68.8062 154.346 68.0529H154.331Z" fill="#0C2036"/>
<path d="M150.037 84.354L149.464 84.3841C149.223 83.8719 149.088 83.2843 149.073 82.8022C148.997 81.3709 149.916 80.5574 152.613 79.0357C154.346 78.0564 155.219 77.8003 155.159 76.806L155.099 75.5706L151.83 75.7514C150.383 75.8267 149.69 75.8719 149.524 77.4237L148.982 77.4538L148.711 72.467L149.253 72.4369C149.6 73.9887 150.278 73.9435 151.724 73.8681L159.543 73.4463C160.99 73.371 161.683 73.3258 161.848 71.7137L162.391 71.6836L162.692 77.3032C162.843 80.1807 162.12 82.3502 159.558 82.5009C157.66 82.6063 156.425 81.2052 155.732 79.337C154.873 79.8794 154.15 80.2862 153.562 80.6478C150.926 82.2448 149.841 82.8323 150.022 84.369L150.037 84.354ZM156.018 75.5103L156.093 76.9265C156.214 79.2165 157.449 80.5875 159.272 80.482C161.065 80.3917 161.909 79.3973 161.788 77.3484L161.668 75.209L156.018 75.5103Z" fill="#0C2036"/>
<path d="M148.286 97.5669L147.728 97.4915C147.578 96.9793 147.563 96.3465 147.638 95.8343C147.864 94.1469 148.904 93.4991 151.856 92.4445C153.182 91.9774 154.403 91.6159 155.653 91.2091C155.171 90.4708 154.749 89.7025 154.403 88.9492L151.766 88.6027C150.335 88.4068 149.657 88.3164 149.19 89.8381L148.647 89.7628L149.31 84.791L149.853 84.8663C149.898 86.4483 150.576 86.5387 152.007 86.7345L159.766 87.7741C161.227 87.9699 161.875 88.0603 162.342 86.5387L162.885 86.614L162.222 91.5857L161.679 91.5104C161.634 89.9285 160.971 89.8381 159.525 89.6422L155.487 89.0999C156.467 91.2241 159.239 95.1111 160.504 95.2769C161.032 95.3522 161.227 94.7797 161.348 94.0264L161.89 94.1017L161.242 98.9981L160.7 98.9228C160.73 97.7025 160.459 97.1902 159.254 95.8343C158.531 95.0207 157.642 93.9812 156.768 92.8211C155.035 93.3786 153.423 93.8757 152.278 94.3126C149.506 95.3522 148.421 95.9699 148.286 97.5669Z" fill="#0C2036"/>
<path d="M150.982 103.353C152.082 103.714 152.624 104.889 152.263 105.959C151.901 107.029 150.741 107.616 149.671 107.24C148.572 106.863 148.014 105.718 148.391 104.633C148.752 103.563 149.897 102.976 150.982 103.353Z" fill="#0C2036"/>
<path d="M146.838 130.456L144.353 134.282L143.901 133.981C144.518 132.535 144.097 132.053 142.635 130.245L135.961 122.034L136.654 120.738L145.603 123.149L139.803 116.083L140.496 114.787L151.343 117.71C153.091 118.192 153.709 118.358 154.703 117.273L155.17 117.574L152.322 121.958L151.855 121.657C152.518 120.12 151.795 119.849 150.228 119.412L144.142 117.71L141.656 116.942L147.155 123.555L147.486 123.661C149.249 124.128 149.852 124.309 150.936 123.088L151.403 123.39L148.375 128.06L147.908 127.759C148.601 126.071 147.923 125.785 146.387 125.348L140.3 123.646L137.814 122.877L143.162 129.416C144.609 131.194 145.106 131.54 146.356 130.154L146.823 130.456H146.838Z" fill="#0C2036"/>
<path d="M137.207 131.541C140.236 134.72 140.236 138.501 137.69 140.927C135.098 143.382 131.317 143.202 128.288 140.023C125.26 136.844 125.26 133.062 127.806 130.637C130.398 128.181 134.179 128.362 137.207 131.541ZM129.343 138.335C131.708 140.821 134.887 142.117 137.042 140.068C139.076 138.139 138.322 135.503 136.153 133.213C133.788 130.727 130.609 129.431 128.469 131.465C126.42 133.409 127.174 136.045 129.343 138.335Z" fill="#0C2036"/>
<path d="M113.082 142.69L112.766 142.208C113.097 141.741 113.534 141.334 113.941 141.078C115.146 140.31 116.306 140.701 118.958 142.283C120.66 143.308 121.323 143.925 122.167 143.383L123.206 142.72L121.428 139.978C120.645 138.758 120.268 138.185 118.837 138.803L118.536 138.336L122.739 135.624L123.041 136.091C121.865 137.161 122.227 137.733 123.025 138.954L127.274 145.537C128.057 146.758 128.434 147.33 129.926 146.667L130.227 147.134L125.496 150.178C123.071 151.744 120.826 152.181 119.44 150.027C118.415 148.43 119.018 146.667 120.299 145.146C119.41 144.664 118.687 144.242 118.084 143.91C115.387 142.404 114.332 141.756 113.097 142.675L113.082 142.69ZM123.719 143.503L122.528 144.272C120.6 145.507 120.027 147.255 121.022 148.792C122.001 150.298 123.267 150.539 124.999 149.424L126.792 148.264L123.719 143.503Z" fill="#0C2036"/>
<path d="M100.734 147.706L100.523 147.179C100.9 146.802 101.442 146.471 101.909 146.275C103.491 145.642 104.561 146.215 106.941 148.279C108.011 149.198 108.915 150.087 109.894 150.976C110.301 150.207 110.753 149.439 111.235 148.761L110.241 146.29C109.699 144.949 109.442 144.317 107.891 144.663L107.68 144.151L112.335 142.268L112.546 142.78C111.19 143.608 111.446 144.241 111.989 145.582L114.926 152.844C115.484 154.2 115.725 154.817 117.277 154.471L117.488 154.983L112.832 156.866L112.621 156.354C113.977 155.526 113.736 154.908 113.179 153.552L111.657 149.77C110.286 151.669 108.282 156.008 108.764 157.198C108.96 157.695 109.548 157.574 110.271 157.303L110.482 157.816L105.902 159.669L105.691 159.156C106.761 158.569 107.077 158.087 107.665 156.369C108.011 155.345 108.478 154.049 109.066 152.723C107.725 151.488 106.49 150.343 105.555 149.559C103.296 147.661 102.211 147.028 100.749 147.691L100.734 147.706Z" fill="#0C2036"/>
<path d="M97.0279 152.905C97.2538 154.035 96.5005 155.105 95.3857 155.3C94.2708 155.511 93.2011 154.803 92.9902 153.673C92.7793 152.543 93.4874 151.489 94.6324 151.278C95.7472 151.067 96.8169 151.76 97.0279 152.905Z" fill="#0C2036"/>
<path d="M71.4556 162.727L66.8906 162.471L66.9208 161.928C68.4876 161.748 68.6985 161.145 69.5422 158.975L73.3689 149.107L74.8454 149.077L77.1957 158.056L80.4499 149.499L81.9263 149.469L84.7738 160.346C85.2258 162.094 85.3915 162.712 86.8228 163.043L86.7926 163.586L81.5648 163.299L81.5949 162.757C83.2521 162.576 83.1467 161.808 82.7399 160.226L81.1881 154.094L80.6156 151.548L77.6024 159.608L77.6778 159.94C78.1448 161.687 78.2955 162.305 79.8774 162.651L79.8473 163.194L74.288 162.893L74.3181 162.35C76.1411 162.124 76.0356 161.386 75.659 159.834L74.1072 153.702L73.5347 151.156L70.5064 159.051C69.6778 161.19 69.6326 161.793 71.4556 162.184L71.4254 162.727H71.4556Z" fill="#0C2036"/>
<path d="M65.7676 154.923C64.5021 159.127 61.2177 161.01 57.858 160.001C54.4381 158.976 52.7206 155.601 53.9861 151.398C55.2517 147.195 58.536 145.311 61.8957 146.321C65.3156 147.345 67.0332 150.72 65.7676 154.923ZM55.9598 151.473C54.9805 154.758 55.4174 158.163 58.2799 159.021C60.9616 159.835 62.875 157.861 63.794 154.848C64.7733 151.564 64.3364 148.159 61.504 147.315C58.8072 146.502 56.8788 148.46 55.9748 151.488L55.9598 151.473Z" fill="#0C2036"/>
<path d="M44.1056 139.421L44.3617 138.924C44.9342 138.984 45.4917 139.165 45.9286 139.391C47.1941 140.054 47.4352 141.259 47.3598 144.363C47.3146 146.351 47.1037 147.225 47.9775 147.692L49.0773 148.265L50.599 145.372C51.2769 144.091 51.5933 143.489 50.3429 142.54L50.599 142.058L55.0283 144.378L54.7722 144.86C53.2656 144.363 52.9493 144.965 52.2713 146.246L48.6404 153.191C47.9625 154.472 47.6461 155.074 48.9568 156.054L48.7007 156.536L43.7139 153.929C41.1678 152.589 39.6612 150.856 40.8514 148.581C41.7252 146.894 43.5632 146.562 45.5218 146.909C45.4917 145.899 45.5218 145.071 45.4917 144.378C45.4766 141.289 45.5218 140.054 44.1056 139.421ZM48.6555 149.078L47.405 148.43C45.3711 147.361 43.5783 147.722 42.7346 149.349C41.906 150.946 42.3278 152.167 44.1508 153.116L46.0491 154.11L48.6706 149.093L48.6555 149.078Z" fill="#0C2036"/>
<path d="M33.6841 131.18L34.0306 130.728C34.5429 130.863 35.1003 131.18 35.492 131.496C36.8178 132.551 36.848 133.771 36.2303 136.859C35.9591 138.245 35.6427 139.466 35.3414 140.746C36.2152 140.716 37.089 140.746 37.9327 140.822L39.5899 138.743C40.4939 137.613 40.9157 137.07 39.8461 135.895L40.1926 135.458L44.1248 138.577L43.7783 139.014C42.3922 138.245 41.9704 138.773 41.0664 139.918L36.2001 146.05C35.2811 147.195 34.8743 147.722 35.944 148.897L35.5975 149.334L31.6653 146.215L32.0118 145.778C33.3979 146.547 33.8047 146.034 34.7237 144.874L37.2547 141.68C34.9346 141.439 30.1738 141.831 29.3753 142.825C29.0438 143.232 29.4356 143.699 30.0231 144.181L29.6766 144.618L25.8047 141.56L26.1512 141.123C27.1907 141.771 27.7633 141.801 29.541 141.47C30.6107 141.259 31.9516 141.033 33.3979 140.882C33.8047 139.104 34.1964 137.477 34.4073 136.272C34.9346 133.364 34.9647 132.114 33.654 131.18H33.6841Z" fill="#0C2036"/>
<path d="M27.3132 130.546C26.4545 131.314 25.1588 131.179 24.4206 130.32C23.6824 129.461 23.7728 128.166 24.6315 127.427C25.5053 126.674 26.7859 126.779 27.5242 127.653C28.2624 128.512 28.1871 129.793 27.3132 130.546Z" fill="#0C2036"/>
<path d="M6.07295 113.175L4.03906 109.092L4.53624 108.851C5.47032 110.116 6.08802 109.996 8.39309 109.665L18.8639 108.098L19.6172 109.363L12.9882 115.842L22.0277 114.44L22.781 115.706L14.7509 123.555C13.4552 124.821 13.0032 125.258 13.41 126.674L12.9129 126.915L10.5776 122.244L11.0748 122.003C12.0541 123.359 12.6718 122.877 13.8319 121.747L18.3818 117.378L20.3102 115.631L11.8281 117.002L11.572 117.243C10.2763 118.523 9.82435 118.945 10.3065 120.497L9.80929 120.738L7.32342 115.766L7.82059 115.525C8.9204 116.987 9.50797 116.535 10.668 115.435L15.2179 111.066L17.1464 109.318L8.79987 110.599C6.53999 110.93 5.98256 111.186 6.55506 112.964L6.05789 113.205L6.07295 113.175Z" fill="#0C2036"/>
<path d="M10.0336 104.332C5.75489 105.311 2.50066 103.368 1.71724 99.948C0.933812 96.4677 3.0129 93.3039 7.2916 92.3246C11.5703 91.3454 14.8245 93.2889 15.608 96.7088C16.3914 100.189 14.3123 103.353 10.0336 104.332ZM8.21062 94.1024C4.866 94.8557 2.12401 96.9348 2.78691 99.8425C3.40461 102.569 6.0562 103.278 9.12964 102.584C12.4743 101.831 15.2162 99.7521 14.5533 96.8745C13.9206 94.1175 11.2841 93.4244 8.19555 94.1175L8.21062 94.1024Z" fill="#0C2036"/>
<path d="M12.8159 77.9064H13.3884C13.6294 78.4035 13.75 78.9911 13.765 79.4732C13.8102 80.9045 12.8912 81.703 10.1643 83.1643C8.41666 84.1135 7.54284 84.3545 7.58804 85.3489L7.63324 86.5843L10.9025 86.4638C12.3488 86.4035 13.0419 86.3884 13.2377 84.8367H13.7801L13.9609 89.8084H13.4185C13.1021 88.2717 12.4242 88.3018 10.9779 88.347L3.15868 88.6332C1.71235 88.6935 1.01932 88.7086 0.823469 90.3206H0.2359L0.0249781 84.7312C-0.0804829 81.8536 0.687876 79.6992 3.24907 79.5937C5.14737 79.5184 6.35264 80.9497 7.01553 82.8178C7.87429 82.2905 8.61252 81.8988 9.20008 81.5372C11.8667 79.9854 12.9665 79.428 12.8159 77.8762V77.9064ZM6.68409 86.6295L6.63889 85.2284C6.54849 82.9384 5.34323 81.5523 3.53532 81.6126C1.74249 81.6728 0.883732 82.6521 0.959061 84.7011L1.03439 86.8404L6.68409 86.6295Z" fill="#0C2036"/>
<path d="M14.7869 64.7394L15.3443 64.8298C15.4799 65.3421 15.4799 65.9748 15.4046 66.4871C15.1484 68.1744 14.0938 68.8072 11.1259 69.8015C9.78499 70.2535 8.56466 70.585 7.29913 70.9616C7.76617 71.6998 8.17295 72.4833 8.51946 73.2516L11.156 73.6584C12.5872 73.8693 13.2652 73.9748 13.7473 72.4682L14.2897 72.5435L13.5364 77.5002L12.994 77.4249C12.979 75.843 12.301 75.7375 10.8697 75.5115L3.12589 74.3364C1.67956 74.1104 1.01667 74.02 0.534558 75.5266L-0.0078125 75.4512L0.74548 70.4946L1.28785 70.5699C1.30292 72.1518 1.96581 72.2573 3.41214 72.4833L7.43472 73.101C6.50064 70.9616 3.78878 67.0144 2.52325 66.8336C1.99595 66.7582 1.80009 67.3157 1.6645 68.069L1.12213 67.9936L1.86035 63.1123L2.40272 63.1876C2.35753 64.408 2.61365 64.9202 3.78878 66.3063C4.49688 67.1198 5.35563 68.1895 6.21439 69.3646C7.96203 68.8373 9.57407 68.3703 10.7191 67.9484C13.5063 66.9692 14.6061 66.3665 14.7718 64.7545L14.7869 64.7394Z" fill="#0C2036"/>
<path d="M12.2001 58.8938C11.1003 58.5171 10.573 57.3269 10.9647 56.2573C11.3564 55.1876 12.5165 54.6302 13.5862 55.0219C14.6709 55.4136 15.2133 56.5737 14.8216 57.6584C14.4299 58.7281 13.2999 59.2855 12.2001 58.8938Z" fill="#0C2036"/>
<path d="M16.7985 31.8802L19.3446 28.0986L19.7966 28.4C19.1638 29.8312 19.5706 30.3284 21.0018 32.1513L27.5254 40.4828L26.8022 41.7634L17.8832 39.1871L23.563 46.3585L22.8399 47.639L12.0377 44.5355C10.3051 44.0232 9.68739 43.8575 8.66291 44.9121L8.21094 44.6108L11.1337 40.2718L11.5857 40.5732C10.8927 42.0948 11.6158 42.3811 13.1676 42.8481L19.2241 44.656L21.6949 45.4696L16.3164 38.7653L15.9849 38.6598C14.2373 38.1626 13.6346 37.9818 12.5348 39.172L12.0829 38.8707L15.1864 34.2606L15.6384 34.5619C14.9152 36.2493 15.5932 36.5355 17.1149 37.0026L23.1713 38.8105L25.6421 39.624L20.3992 32.995C18.983 31.2022 18.5009 30.8406 17.2203 32.2116L16.7683 31.9103L16.7985 31.8802Z" fill="#0C2036"/>
<path d="M26.4393 30.9609C23.4714 27.7368 23.5316 23.9553 26.123 21.5899C28.7444 19.1794 32.526 19.4204 35.4939 22.6596C38.4619 25.8837 38.4016 29.6652 35.8103 32.0306C33.1889 34.4411 29.4073 34.2 26.4393 30.9609ZM34.4092 24.3018C32.089 21.7858 28.9403 20.4298 26.7407 22.4336C24.6766 24.3319 25.3847 26.9684 27.509 29.2886C29.8292 31.8046 32.9779 33.1605 35.1625 31.1718C37.2416 29.2584 36.5335 26.6219 34.3941 24.3018H34.4092Z" fill="#0C2036"/>
<path d="M50.7571 20.2183L51.0584 20.7004C50.727 21.1674 50.275 21.5592 49.8532 21.8153C48.6328 22.5686 47.4878 22.1618 44.8513 20.5196C43.1639 19.465 42.5161 18.8322 41.6573 19.3595L40.6027 20.0074L42.3353 22.7795C43.1037 24.0149 43.4652 24.5874 44.9116 23.9998L45.1978 24.4669L40.9492 27.1034L40.663 26.6364C41.8532 25.5968 41.4916 25.0092 40.7383 23.7738L36.5952 17.1147C35.8268 15.8793 35.4653 15.3068 33.9737 15.9396L33.6875 15.4726L38.4634 12.5046C40.904 10.9829 43.1639 10.5761 44.5198 12.7456C45.5293 14.3577 44.8814 16.1204 43.5858 17.627C44.4596 18.1241 45.1827 18.546 45.7854 18.8925C48.452 20.4443 49.4916 21.1072 50.7571 20.2183ZM40.1357 19.224L41.341 18.4857C43.2845 17.2805 43.8871 15.5328 42.9229 13.9961C41.9737 12.4594 40.7082 12.2183 38.9605 13.3031L37.1526 14.433L40.1357 19.239V19.224Z" fill="#0C2036"/>
<path d="M63.1489 15.4589L63.3447 15.9862C62.9681 16.3629 62.4107 16.6793 61.9436 16.8601C60.3466 17.4778 59.292 16.8601 56.9418 14.7659C55.8871 13.8318 54.9983 12.9279 54.0491 12.0239C53.6273 12.7923 53.1602 13.5456 52.6631 14.2085L53.6122 16.6943C54.1244 18.0503 54.3806 18.683 55.9323 18.3666L56.1282 18.8789L51.4427 20.6717L51.2469 20.1595C52.6179 19.361 52.3768 18.7132 51.8495 17.3723L49.0473 10.0654C48.5199 8.69437 48.2789 8.07667 46.7271 8.39305L46.5312 7.88081L51.2167 6.08797L51.4126 6.60021C50.0416 7.3987 50.2826 8.0164 50.81 9.38739L52.2713 13.184C53.6725 11.3008 55.7516 7.00699 55.2996 5.81679C55.1037 5.31961 54.5162 5.42507 53.793 5.68119L53.5971 5.16896L58.2073 3.40625L58.4031 3.91849C57.3184 4.47593 57.002 4.95803 56.3693 6.67554C56.0077 7.70002 55.5105 8.98062 54.9079 10.2913C56.2337 11.5418 57.4389 12.7169 58.358 13.5154C60.5877 15.4439 61.6574 16.1068 63.1338 15.4589H63.1489Z" fill="#0C2036"/>
<path d="M66.988 10.3054C66.7771 9.1755 67.5454 8.12089 68.6754 7.92503C69.8053 7.72917 70.8599 8.4674 71.0407 9.58227C71.2366 10.7273 70.4984 11.7668 69.3533 11.9627C68.2385 12.1585 67.1839 11.4354 66.988 10.3054Z" fill="#0C2036"/>
<path d="M82.1941 28.082H80.6875V130.937H82.1941V28.082Z" fill="#0C2036"/>
<path d="M81.4372 135.486C82.2357 133.346 83.5917 130.695 85.0229 129.053L81.4372 130.348L77.8516 129.053C79.2828 130.695 80.6387 133.346 81.4372 135.486Z" fill="#0C2036"/>
</g>
<defs>
<clipPath id="clip0_28_728">
<rect width="162.892" height="163.57" fill="white"/>
</clipPath>
</defs>
</svg>
