<svg width="72" height="72" viewBox="0 0 72 72" fill="none" xmlns="http://www.w3.org/2000/svg">
<path d="M39.6866 0.718511L41.6673 0.790418V1.02575C40.9809 1.11727 40.8959 1.37875 40.5495 2.32661L38.9675 6.6345L38.3269 6.66065L37.2418 2.7842L35.8951 6.51683L35.2545 6.54298L33.934 1.84941C33.7248 1.09112 33.6529 0.82964 33.0254 0.692363V0.457031L35.3003 0.542012V0.777344C34.5747 0.868863 34.627 1.20225 34.8165 1.8821L35.5356 4.52958L35.7971 5.6278L37.0456 2.11089L37.0064 1.96708C36.7907 1.20879 36.7188 0.947307 36.0324 0.810029V0.581234L38.4511 0.672752V0.908085C37.6536 1.02575 37.7059 1.33953 37.8824 2.0063L38.6015 4.65379L38.8695 5.752L40.118 2.307C40.458 1.37875 40.4776 1.11073 39.6866 0.953844V0.718511Z" fill="#0C2036"/>
<path d="M42.2306 4.06554C42.747 2.23518 44.159 1.39191 45.6233 1.80374C47.1137 2.2221 47.8851 3.67986 47.3686 5.51022C46.8522 7.34058 45.4402 8.17731 43.9759 7.76548C42.4855 7.34712 41.7141 5.88936 42.2306 4.059V4.06554ZM46.5058 5.49061C46.911 4.059 46.6888 2.58164 45.4468 2.23518C44.2766 1.90833 43.4595 2.77121 43.0869 4.08515C42.6816 5.51675 42.9039 6.99412 44.1394 7.34058C45.316 7.67397 46.1331 6.80454 46.5058 5.49061Z" fill="#0C2036"/>
<path d="M51.7342 10.6147L51.6231 10.8369C51.3747 10.8173 51.1263 10.7389 50.9367 10.6473C50.3811 10.3728 50.2699 9.84982 50.2765 8.5032C50.2765 7.64031 50.368 7.25463 49.9823 7.06506L49.5051 6.82319L48.871 8.09137C48.5899 8.65355 48.4592 8.92157 49.0083 9.32032L48.9037 9.53605L46.9688 8.56857L47.0733 8.35285C47.7336 8.5555 47.8643 8.29402 48.1454 7.73183L49.6685 4.69213C49.9496 4.12994 50.0804 3.86193 49.5116 3.4501L49.6162 3.23438L51.7996 4.32605C52.9174 4.8817 53.5842 5.62692 53.0808 6.62054C52.7148 7.35922 51.9173 7.52265 51.0674 7.37884C51.0871 7.81681 51.0871 8.17635 51.1001 8.47705C51.1328 9.81714 51.1263 10.3532 51.7408 10.6147H51.7342ZM49.6881 6.46365L50.2373 6.73821C51.1263 7.18273 51.9042 7.01276 52.2572 6.30677C52.6102 5.60731 52.4141 5.08435 51.6166 4.68559L50.7864 4.27376L49.6881 6.47019V6.46365Z" fill="#0C2036"/>
<path d="M56.3273 14.1192L56.1769 14.3153C55.9481 14.263 55.7062 14.1257 55.5363 13.995C54.9479 13.5439 54.9283 13.0144 55.1702 11.6744C55.2813 11.073 55.4055 10.5369 55.5297 9.97474C55.1506 9.99435 54.7649 9.98781 54.4054 9.96166L53.6994 10.8834C53.3202 11.3802 53.1372 11.6221 53.6079 12.1189L53.464 12.3084L51.7383 10.988L51.8821 10.7984C52.49 11.1252 52.6731 10.8899 53.0522 10.3866L55.1179 7.68679C55.5036 7.1769 55.6801 6.9481 55.2094 6.45129L55.3532 6.26172L57.079 7.58219L56.9352 7.77177C56.3273 7.44492 56.1508 7.67371 55.7651 8.1836L54.693 9.58905C55.7062 9.68057 57.7719 9.47139 58.1053 9.03341C58.2426 8.85037 58.0726 8.65426 57.8177 8.44508L57.9615 8.2555L59.6611 9.55637L59.5173 9.74594C59.0597 9.47139 58.8113 9.46485 58.04 9.62174C57.5824 9.71979 56.994 9.83092 56.3665 9.90283C56.2031 10.6742 56.0396 11.3867 55.9612 11.9162C55.752 13.1844 55.752 13.727 56.3273 14.1257V14.1192Z" fill="#0C2036"/>
<path d="M59.0847 14.355C59.4573 14.0151 60.0195 14.0608 60.3463 14.4334C60.6732 14.8061 60.647 15.3617 60.2744 15.6886C59.8953 16.0219 59.3462 15.9893 59.0128 15.6101C58.6859 15.2375 58.7121 14.6884 59.0847 14.355Z" fill="#0C2036"/>
<path d="M68.4371 21.722L69.3523 23.4804L69.1431 23.5915C68.7247 23.049 68.4567 23.1013 67.4631 23.2712L62.933 24.0295L62.593 23.4869L65.4236 20.6237L61.5079 21.3036L61.168 20.761L64.5934 17.2899C65.149 16.7342 65.3386 16.5381 65.149 15.9236L65.3582 15.8125L66.4106 17.8259L66.2015 17.937C65.7635 17.3618 65.502 17.571 65.0052 18.0743L63.0572 20.0093L62.2335 20.7806L65.9073 20.1204L66.0184 20.0158C66.5675 19.4536 66.7636 19.264 66.5414 18.5907L66.7506 18.4796L67.8684 20.6237L67.6592 20.7349C67.1689 20.1073 66.9205 20.3034 66.4237 20.7937L64.4757 22.7286L63.652 23.5L67.2735 22.879C68.2541 22.7156 68.4894 22.5979 68.2345 21.8331L68.4437 21.722H68.4371Z" fill="#0C2036"/>
<path d="M66.7719 25.5724C68.6219 25.1148 70.047 25.9319 70.4065 27.4027C70.7791 28.9062 69.8966 30.2921 68.0466 30.7497C66.1967 31.2073 64.7716 30.3967 64.4121 28.9193C64.0394 27.4158 64.9219 26.0299 66.7719 25.5724ZM67.6413 29.9979C69.086 29.6449 70.2561 28.7232 69.9489 27.4681C69.6547 26.2914 68.5042 26.0038 67.1772 26.3307C65.7325 26.6836 64.5624 27.6054 64.8696 28.8539C65.1638 30.0437 66.3209 30.3248 67.6479 29.9979H67.6413Z" fill="#0C2036"/>
<path d="M65.7764 37.0699L65.528 37.083C65.4234 36.8607 65.3646 36.6058 65.3581 36.3966C65.3254 35.7756 65.7241 35.4226 66.8943 34.7623C67.646 34.3374 68.0252 34.2263 67.999 33.7948L67.9729 33.2588L66.5543 33.3373C65.9268 33.3699 65.6261 33.3896 65.5542 34.0629L65.3188 34.0759L65.2012 31.9122L65.4365 31.8991C65.5869 32.5724 65.881 32.5528 66.5086 32.5201L69.9013 32.3371C70.5288 32.3044 70.8295 32.2848 70.9014 31.5853L71.1368 31.5723L71.2675 34.0106C71.3329 35.2591 71.0191 36.2005 69.9078 36.2658C69.0842 36.3116 68.5481 35.7037 68.2474 34.8931C67.8748 35.1284 67.561 35.3049 67.3061 35.4618C66.1621 36.1547 65.6914 36.4096 65.7699 37.0764L65.7764 37.0699ZM68.3716 33.2327L68.4043 33.8471C68.4566 34.8408 68.9926 35.4356 69.7836 35.3899C70.5615 35.3507 70.9276 34.9192 70.8753 34.0302L70.823 33.1019L68.3716 33.2327Z" fill="#0C2036"/>
<path d="M65.0171 42.8031L64.7752 42.7705C64.7098 42.5482 64.7033 42.2736 64.736 42.0514C64.834 41.3192 65.2851 41.0382 66.5664 40.5806C67.1416 40.3779 67.6711 40.221 68.2137 40.0445C68.0045 39.7242 67.8215 39.3908 67.6711 39.064L66.5271 38.9136C65.9061 38.8286 65.6119 38.7894 65.4093 39.4497L65.174 39.417L65.4616 37.2598L65.6969 37.2925C65.7165 37.9788 66.0107 38.0181 66.6317 38.103L69.9983 38.5541C70.6324 38.6391 70.9135 38.6783 71.1161 38.0181L71.3514 38.0507L71.0638 40.208L70.8285 40.1753C70.8089 39.4889 70.5212 39.4497 69.8937 39.3647L68.1418 39.1293C68.5667 40.0511 69.7695 41.7376 70.3186 41.8095C70.5474 41.8422 70.6324 41.5938 70.6847 41.2669L70.92 41.2996L70.6389 43.4242L70.4036 43.3915C70.4166 42.862 70.299 42.6397 69.776 42.0514C69.4622 41.6984 69.0766 41.2473 68.6974 40.744C67.9457 40.9859 67.2462 41.2016 66.7494 41.3912C65.5466 41.8422 65.0759 42.1102 65.0171 42.8031Z" fill="#0C2036"/>
<path d="M66.187 45.3132C66.6642 45.4701 66.8995 45.98 66.7426 46.4441C66.5858 46.9083 66.0824 47.1632 65.6183 46.9998C65.1411 46.8364 64.8992 46.3395 65.0626 45.8689C65.2195 45.4048 65.7163 45.1498 66.187 45.3132Z" fill="#0C2036"/>
<path d="M64.3896 57.0739L63.311 58.7343L63.1149 58.6035C63.3829 57.976 63.1999 57.7668 62.5658 56.9824L59.6699 53.4197L59.9706 52.8575L63.8536 53.9034L61.3369 50.8376L61.6376 50.2754L66.3442 51.5436C67.1025 51.7528 67.3705 51.8247 67.802 51.354L68.0046 51.4847L66.7691 53.387L66.5665 53.2563C66.8541 52.5895 66.5403 52.4718 65.8605 52.2823L63.2195 51.5436L62.1409 51.2102L64.5269 54.0799L64.6707 54.1257C65.4356 54.3283 65.697 54.4068 66.1677 53.8773L66.3704 54.008L65.0564 56.0345L64.8538 55.9038C65.1545 55.1716 64.8603 55.0474 64.1935 54.8578L61.5526 54.1191L60.474 53.7858L62.7946 56.6228C63.4222 57.3942 63.6379 57.5445 64.1805 56.9431L64.3831 57.0739H64.3896Z" fill="#0C2036"/>
<path d="M60.2113 57.5453C61.5253 58.9246 61.5253 60.5654 60.4205 61.6178C59.2962 62.6834 57.6554 62.6049 56.3414 61.2256C55.0275 59.8463 55.0275 58.2055 56.1322 57.153C57.2566 56.0875 58.8974 56.166 60.2113 57.5453ZM56.799 60.4935C57.8253 61.5721 59.2046 62.1342 60.1394 61.2452C61.0219 60.4085 60.6951 59.2645 59.7537 58.2709C58.7274 57.1923 57.3481 56.6301 56.4199 57.5126C55.5308 58.3559 55.8577 59.4998 56.799 60.4935Z" fill="#0C2036"/>
<path d="M49.7427 62.3823L49.6055 62.1731C49.7493 61.9704 49.9389 61.7939 50.1154 61.6828C50.6383 61.3494 51.1417 61.5194 52.2922 62.2058C53.0309 62.6503 53.3185 62.9183 53.6846 62.683L54.1356 62.3953L53.3642 61.2056C53.0243 60.6761 52.8609 60.4277 52.2399 60.6957L52.1091 60.4931L53.933 59.3164L54.0637 59.5191C53.5538 59.9832 53.7107 60.2316 54.0572 60.7611L55.9006 63.6178C56.2405 64.1473 56.404 64.3957 57.0511 64.108L57.1819 64.3107L55.1292 65.6312C54.0768 66.311 53.1028 66.5006 52.5014 65.5658C52.0568 64.8729 52.3183 64.108 52.874 63.4478C52.4883 63.2386 52.1745 63.0556 51.913 62.9118C50.7429 62.2581 50.2853 61.977 49.7493 62.3757L49.7427 62.3823ZM54.3579 62.7353L53.8414 63.0686C53.0047 63.6047 52.7563 64.363 53.1877 65.0298C53.6127 65.6835 54.1618 65.788 54.9135 65.3043L55.6914 64.801L54.3579 62.7353Z" fill="#0C2036"/>
<path d="M44.3845 64.5591L44.293 64.3303C44.4564 64.1669 44.6917 64.023 44.8944 63.9381C45.5808 63.6635 46.0449 63.9119 47.0777 64.8075C47.5419 65.2062 47.9341 65.5919 48.359 65.9776C48.5355 65.6442 48.7316 65.3108 48.9408 65.0167L48.5093 63.9446C48.274 63.3628 48.1629 63.0882 47.4896 63.2386L47.398 63.0163L49.418 62.1992L49.5095 62.4215C48.9212 62.781 49.0323 63.0556 49.2676 63.6374L50.5423 66.7882C50.7842 67.3765 50.8888 67.6445 51.5621 67.4942L51.6536 67.7165L49.6337 68.5336L49.5422 68.3113C50.1305 67.9518 50.0259 67.6838 49.784 67.0954L49.1238 65.4546C48.5289 66.2783 47.6595 68.161 47.8687 68.6774C47.9537 68.8931 48.2086 68.8408 48.5224 68.7232L48.6139 68.9454L46.6267 69.7495L46.5352 69.5272C46.9993 69.2723 47.1366 69.0631 47.3915 68.3179C47.5419 67.8733 47.7445 67.3112 47.9994 66.7359C47.4177 66.1999 46.8816 65.7031 46.4763 65.3631C45.4958 64.5395 45.0251 64.2649 44.391 64.5525L44.3845 64.5591Z" fill="#0C2036"/>
<path d="M42.7778 66.8141C42.8758 67.3044 42.549 67.7685 42.0652 67.8535C41.5815 67.945 41.1174 67.6378 41.0259 67.1475C40.9343 66.6572 41.2416 66.1997 41.7384 66.1081C42.2221 66.0166 42.6863 66.3173 42.7778 66.8141Z" fill="#0C2036"/>
<path d="M31.6819 71.0768L29.7012 70.9657L29.7142 70.7304C30.3941 70.6519 30.4856 70.3904 30.8517 69.4491L32.5121 65.1674L33.1527 65.1543L34.1725 69.0504L35.5845 65.3373L36.2251 65.3243L37.4606 70.044C37.6567 70.8023 37.7286 71.0703 38.3496 71.2141L38.3366 71.4494L36.0682 71.3252L36.0813 71.0899C36.8004 71.0115 36.7546 70.6781 36.5781 69.9917L35.9048 67.3311L35.6564 66.2264L34.349 69.7237L34.3817 69.8675C34.5843 70.6258 34.6497 70.8938 35.3361 71.0441L35.323 71.2795L32.9108 71.1487L32.9239 70.9134C33.7149 70.8153 33.6691 70.495 33.5057 69.8217L32.8324 67.1612L32.584 66.0564L31.2701 69.4818C30.9105 70.41 30.8909 70.6715 31.6819 70.8415L31.6688 71.0768H31.6819Z" fill="#0C2036"/>
<path d="M29.2142 67.6904C28.6651 69.5142 27.2401 70.3314 25.7823 69.8934C24.2984 69.4489 23.5532 67.9846 24.1023 66.1607C24.6514 64.3369 26.0765 63.5198 27.5342 63.9578C29.0181 64.4023 29.7633 65.8666 29.2142 67.6904ZM24.9586 66.1934C24.5337 67.6185 24.7233 69.0959 25.9653 69.4685C27.1289 69.8215 27.9591 68.9651 28.3579 67.6577C28.7828 66.2327 28.5932 64.7553 27.3643 64.3892C26.1941 64.0362 25.3574 64.886 24.9652 66.2L24.9586 66.1934Z" fill="#0C2036"/>
<path d="M19.8142 60.9638L19.9254 60.748C20.1738 60.7742 20.4156 60.8526 20.6052 60.9507C21.1543 61.2383 21.2589 61.7613 21.2262 63.1079C21.2066 63.9708 21.1151 64.3499 21.4942 64.5526L21.9714 64.801L22.6317 63.5459C22.9258 62.9902 23.0631 62.7288 22.5205 62.3169L22.6317 62.1077L24.5536 63.1144L24.4424 63.3236C23.7887 63.1079 23.6514 63.3694 23.3573 63.925L21.7819 66.9386C21.4877 67.4942 21.3504 67.7557 21.9191 68.1806L21.808 68.3898L19.6443 67.2589C18.5395 66.6771 17.8858 65.9254 18.4022 64.9383C18.7814 64.2061 19.5789 64.0623 20.4287 64.2127C20.4156 63.7747 20.4287 63.4151 20.4156 63.1144C20.4091 61.7744 20.4287 61.2383 19.8142 60.9638ZM21.7884 65.154L21.2458 64.8729C20.3633 64.4088 19.5854 64.5657 19.2194 65.2717C18.8598 65.9646 19.0429 66.4941 19.8338 66.9059L20.6575 67.3373L21.7949 65.1605L21.7884 65.154Z" fill="#0C2036"/>
<path d="M15.2919 57.3875L15.4423 57.1914C15.6645 57.2502 15.9064 57.3875 16.0763 57.5248C16.6516 57.9824 16.6647 58.5119 16.3967 59.852C16.279 60.4534 16.1417 60.9829 16.011 61.5385C16.3901 61.5254 16.7693 61.5385 17.1353 61.5712L17.8544 60.6691C18.2466 60.1788 18.4297 59.9435 17.9655 59.4336L18.1159 59.244L19.822 60.5972L19.6717 60.7868C19.0703 60.4534 18.8873 60.6822 18.495 61.179L16.3836 63.8395C15.9848 64.3364 15.8083 64.5652 16.2725 65.075L16.1221 65.2646L14.4159 63.9115L14.5663 63.7219C15.1677 64.0553 15.3442 63.833 15.743 63.3297L16.8412 61.9438C15.8345 61.8392 13.7688 62.0092 13.4223 62.4406C13.2785 62.6171 13.4485 62.8198 13.7034 63.029L13.5531 63.2185L11.873 61.8915L12.0234 61.7019C12.4745 61.983 12.7229 61.9961 13.4942 61.8523C13.9584 61.7608 14.5401 61.6627 15.1677 61.5974C15.3442 60.826 15.5142 60.12 15.6057 59.597C15.8345 58.3354 15.8475 57.7928 15.2788 57.3875H15.2919Z" fill="#0C2036"/>
<path d="M12.5281 57.1126C12.1555 57.446 11.5934 57.3872 11.273 57.0146C10.9527 56.642 10.9919 56.0798 11.3646 55.7595C11.7437 55.4326 12.2993 55.4784 12.6197 55.8575C12.94 56.2301 12.9073 56.7858 12.5281 57.1126Z" fill="#0C2036"/>
<path d="M3.31218 49.576L2.42969 47.8045L2.64541 47.6999C3.0507 48.249 3.31872 48.1967 4.31888 48.0529L8.8621 47.373L9.18895 47.9222L6.31267 50.7331L10.2349 50.1251L10.5617 50.6742L7.0775 54.08C6.51532 54.6291 6.3192 54.8187 6.4957 55.4332L6.27998 55.5378L5.26675 53.5113L5.48247 53.4067C5.90737 53.995 6.17539 53.7858 6.67874 53.2956L8.65292 51.3998L9.48965 50.6415L5.80932 51.2364L5.69819 51.341C5.13601 51.8967 4.9399 52.0797 5.14908 52.753L4.93336 52.8576L3.85475 50.7004L4.07048 50.5958C4.54768 51.2299 4.80262 51.0338 5.30597 50.5566L7.28014 48.6608L8.11688 47.9025L4.49538 48.4582C3.51483 48.602 3.27296 48.7131 3.52137 49.4845L3.30565 49.5891L3.31218 49.576Z" fill="#0C2036"/>
<path d="M5.03052 45.7398C3.17401 46.1647 1.76202 45.3215 1.42209 43.8376C1.08217 42.3275 1.98427 40.9548 3.84078 40.5298C5.69729 40.1049 7.10928 40.9482 7.44921 42.4321C7.78913 43.9422 6.88703 45.3149 5.03052 45.7398ZM4.23954 41.3012C2.78833 41.6281 1.59859 42.5302 1.88622 43.7918C2.15424 44.975 3.30475 45.2822 4.6383 44.9815C6.08951 44.6547 7.27925 43.7526 6.99162 42.504C6.71706 41.3078 5.57309 41.007 4.233 41.3078L4.23954 41.3012Z" fill="#0C2036"/>
<path d="M6.23757 34.2728H6.48597C6.59057 34.4886 6.64286 34.7435 6.6494 34.9527C6.66901 35.5737 6.27025 35.9202 5.08706 36.5543C4.32876 36.9661 3.94962 37.0707 3.96923 37.5021L3.98884 38.0382L5.40737 37.9859C6.03492 37.9597 6.33562 37.9532 6.4206 37.2799H6.65594L6.73438 39.4371H6.49905C6.36177 38.7703 6.06761 38.7834 5.44005 38.803L2.04735 38.9272C1.4198 38.9533 1.11909 38.9599 1.03411 39.6593H0.77917L0.687652 37.2341C0.641893 35.9855 0.97528 35.0507 2.08657 35.005C2.91023 34.9723 3.43319 35.5933 3.72082 36.4039C4.09343 36.1751 4.41374 36.0051 4.66869 35.8483C5.82574 35.1749 6.30294 34.9331 6.23757 34.2598V34.2728ZM3.57701 38.0578L3.5574 37.4498C3.51817 36.4562 2.99521 35.8548 2.21077 35.8809C1.43287 35.9071 1.06026 36.332 1.09295 37.221L1.12563 38.1493L3.57701 38.0578Z" fill="#0C2036"/>
<path d="M7.09317 28.5595L7.33503 28.5987C7.39387 28.821 7.39387 29.0955 7.36118 29.3178C7.25005 30.0499 6.79246 30.3245 5.50467 30.7559C4.92288 30.9521 4.39338 31.0959 3.84427 31.2593C4.04692 31.5796 4.22342 31.9195 4.37377 32.2529L5.51775 32.4294C6.13876 32.5209 6.43293 32.5667 6.64211 31.913L6.87744 31.9457L6.55059 34.0964L6.31526 34.0637C6.30873 33.3773 6.01456 33.3315 5.39354 33.2335L2.03352 32.7236C1.40597 32.6255 1.11834 32.5863 0.90916 33.24L0.673828 33.2073L1.00068 31.0566L1.23601 31.0893C1.24255 31.7757 1.53018 31.8215 2.15773 31.9195L3.90311 32.1875C3.49781 31.2593 2.32115 29.5466 1.77204 29.4682C1.54325 29.4355 1.45827 29.6773 1.39944 30.0042L1.1641 29.9715L1.48442 27.8535L1.71975 27.8862C1.70014 28.4157 1.81127 28.638 2.32115 29.2394C2.62839 29.5924 3.001 30.0565 3.37361 30.5664C4.1319 30.3376 4.83136 30.1349 5.32817 29.9519C6.53752 29.527 7.01472 29.2655 7.08663 28.566L7.09317 28.5595Z" fill="#0C2036"/>
<path d="M5.97082 26.0235C5.49362 25.8601 5.26483 25.3436 5.43479 24.8795C5.60475 24.4154 6.1081 24.1735 6.57223 24.3435C7.04289 24.5134 7.27822 25.0168 7.10826 25.4874C6.9383 25.9516 6.44802 26.1934 5.97082 26.0235Z" fill="#0C2036"/>
<path d="M7.96633 14.3029L9.07108 12.6621L9.26719 12.7928C8.99264 13.4139 9.16913 13.6296 9.79015 14.4206L12.6207 18.0355L12.3069 18.5912L8.43699 17.4733L10.9014 20.585L10.5877 21.1406L5.90063 19.794C5.14888 19.5717 4.88086 19.4998 4.43634 19.9574L4.24023 19.8267L5.50841 17.944L5.70452 18.0747C5.40382 18.735 5.7176 18.8592 6.39091 19.0618L9.01878 19.8463L10.0909 20.1993L7.75714 17.2903L7.61333 17.2445C6.85504 17.0288 6.59356 16.9504 6.11635 17.4668L5.92024 17.3361L7.26687 15.3357L7.46298 15.4665C7.1492 16.1986 7.44337 16.3228 8.1036 16.5255L10.7315 17.3099L11.8035 17.6629L9.52867 14.7866C8.91419 14.0087 8.70501 13.8518 8.14936 14.4467L7.95325 14.316L7.96633 14.3029Z" fill="#0C2036"/>
<path d="M12.1495 13.9043C10.8617 12.5054 10.8878 10.8646 12.0122 9.83827C13.1496 8.79235 14.7904 8.89694 16.0782 10.3024C17.366 11.7013 17.3398 13.3421 16.2155 14.3684C15.078 15.4143 13.4372 15.3097 12.1495 13.9043ZM15.6075 11.0149C14.6008 9.92325 13.2346 9.33492 12.2802 10.2043C11.3846 11.028 11.6919 12.172 12.6136 13.1787C13.6203 14.2704 14.9865 14.8587 15.9344 13.9958C16.8365 13.1656 16.5292 12.0216 15.601 11.0149H15.6075Z" fill="#0C2036"/>
<path d="M22.7013 9.2432L22.8321 9.45238C22.6883 9.65503 22.4922 9.82499 22.3091 9.93612C21.7796 10.263 21.2828 10.0865 20.1388 9.37394C19.4067 8.91634 19.1256 8.64179 18.753 8.87059L18.2954 9.15168L19.0472 10.3545C19.3805 10.8905 19.5374 11.1389 20.165 10.884L20.2892 11.0866L18.4458 12.2306L18.3216 12.028C18.838 11.5769 18.6811 11.322 18.3542 10.7859L16.5566 7.89657C16.2232 7.36054 16.0663 7.11213 15.4191 7.38669L15.2949 7.18404L17.3672 5.89625C18.4261 5.23601 19.4067 5.05951 19.995 6.00084C20.433 6.7003 20.1519 7.46513 19.5897 8.11883C19.9689 8.33455 20.2827 8.51759 20.5441 8.66794C21.7012 9.34125 22.1522 9.62888 22.7013 9.2432ZM18.0928 8.81175L18.6157 8.49144C19.459 7.96848 19.7205 7.21019 19.3021 6.54341C18.8903 5.87664 18.3412 5.77205 17.5829 6.24271L16.7984 6.73299L18.0928 8.81829V8.81175Z" fill="#0C2036"/>
<path d="M28.0775 7.17687L28.1625 7.40566C27.9991 7.56909 27.7572 7.70636 27.5545 7.78481C26.8616 8.05283 26.404 7.78481 25.3843 6.87617C24.9267 6.47087 24.541 6.07865 24.1292 5.68643C23.9461 6.01982 23.7435 6.34667 23.5277 6.6343L23.9396 7.7129C24.1618 8.30123 24.273 8.57579 24.9463 8.43851L25.0313 8.66077L22.9983 9.43867L22.9133 9.21641C23.5081 8.86995 23.4035 8.58886 23.1747 8.00707L21.9589 4.83662C21.7301 4.24175 21.6255 3.97374 20.9522 4.11101L20.8672 3.88876L22.9002 3.11085L22.9852 3.33311C22.3903 3.67957 22.4949 3.94759 22.7237 4.54246L23.3578 6.18978C23.9657 5.37266 24.8678 3.50961 24.6717 2.99319C24.5867 2.77746 24.3318 2.82322 24.018 2.93435L23.933 2.7121L25.9334 1.94727L26.0183 2.16952C25.5477 2.41139 25.4104 2.62058 25.1359 3.3658C24.979 3.81031 24.7632 4.36596 24.5018 4.93468C25.077 5.47725 25.6 5.98713 25.9987 6.33359C26.9662 7.17033 27.4303 7.45796 28.071 7.17687H28.0775Z" fill="#0C2036"/>
<path d="M29.7437 4.94103C29.6521 4.45076 29.9855 3.99317 30.4758 3.90819C30.9661 3.82321 31.4237 4.14352 31.5021 4.62726C31.5871 5.12407 31.2668 5.57512 30.77 5.6601C30.2862 5.74509 29.8286 5.43131 29.7437 4.94103Z" fill="#0C2036"/>
</svg>
