<svg width="109" height="110" viewBox="0 0 109 110" fill="none" xmlns="http://www.w3.org/2000/svg">
<path d="M59.6822 1.38047L62.7122 1.49047V1.85047C61.6622 1.99047 61.5322 2.39047 61.0022 3.84047L58.5822 10.4305L57.6022 10.4705L55.9422 4.54047L53.8822 10.2505L52.9022 10.2905L50.8822 3.11047C50.5622 1.95047 50.4522 1.55047 49.4922 1.34047V0.980469L52.9722 1.11047V1.47047C51.8622 1.61047 51.9422 2.12047 52.2322 3.16047L53.3322 7.21047L53.7322 8.89047L55.6422 3.51047L55.5822 3.29047C55.2522 2.13047 55.1422 1.73047 54.0922 1.52047V1.17047L57.7922 1.31047V1.67047C56.5722 1.85047 56.6522 2.33047 56.9222 3.35047L58.0222 7.40047L58.4322 9.08047L60.3422 3.81047C60.8622 2.39047 60.8922 1.98047 59.6822 1.74047V1.38047Z" fill="#0C2036"/>
<path d="M63.5733 6.50069C64.3633 3.70069 66.5233 2.41069 68.7633 3.04069C71.0433 3.68069 72.2233 5.91069 71.4333 8.71069C70.6433 11.5107 68.4832 12.7907 66.2432 12.1607C63.9632 11.5207 62.7833 9.29069 63.5733 6.49069V6.50069ZM70.1133 8.68069C70.7333 6.49069 70.3932 4.23069 68.4932 3.70069C66.7032 3.20069 65.4532 4.52069 64.8832 6.53069C64.2632 8.72069 64.6032 10.9807 66.4932 11.5107C68.2932 12.0207 69.5433 10.6907 70.1133 8.68069Z" fill="#0C2036"/>
<path d="M78.1103 16.5205L77.9403 16.8605C77.5603 16.8305 77.1803 16.7105 76.8903 16.5705C76.0403 16.1505 75.8703 15.3505 75.8803 13.2905C75.8803 11.9705 76.0203 11.3805 75.4303 11.0905L74.7003 10.7205L73.7303 12.6605C73.3003 13.5205 73.1003 13.9305 73.9403 14.5405L73.7803 14.8705L70.8203 13.3905L70.9803 13.0605C71.9903 13.3705 72.1903 12.9705 72.6203 12.1105L74.9503 7.46047C75.3803 6.60047 75.5803 6.19047 74.7103 5.56047L74.8703 5.23047L78.2103 6.90047C79.9203 7.75047 80.9403 8.89047 80.1703 10.4105C79.6103 11.5405 78.3903 11.7905 77.0903 11.5705C77.1203 12.2405 77.1203 12.7905 77.1403 13.2505C77.1903 15.3005 77.1803 16.1205 78.1203 16.5205H78.1103ZM74.9803 10.1705L75.8203 10.5905C77.1803 11.2705 78.3703 11.0105 78.9103 9.93047C79.4503 8.86047 79.1503 8.06047 77.9303 7.45047L76.6603 6.82047L74.9803 10.1805V10.1705Z" fill="#0C2036"/>
<path d="M85.1372 21.8804L84.9072 22.1804C84.5572 22.1004 84.1872 21.8904 83.9272 21.6904C83.0272 21.0004 82.9972 20.1904 83.3672 18.1404C83.5372 17.2204 83.7272 16.4004 83.9172 15.5404C83.3372 15.5704 82.7472 15.5604 82.1972 15.5204L81.1172 16.9304C80.5372 17.6904 80.2572 18.0604 80.9772 18.8204L80.7572 19.1104L78.1172 17.0904L78.3372 16.8004C79.2672 17.3004 79.5472 16.9404 80.1272 16.1704L83.2872 12.0404C83.8772 11.2604 84.1472 10.9104 83.4272 10.1504L83.6472 9.86035L86.2872 11.8804L86.0672 12.1704C85.1372 11.6704 84.8672 12.0204 84.2772 12.8004L82.6372 14.9504C84.1872 15.0904 87.3472 14.7704 87.8572 14.1004C88.0672 13.8204 87.8072 13.5204 87.4172 13.2004L87.6372 12.9104L90.2372 14.9004L90.0172 15.1904C89.3172 14.7704 88.9372 14.7604 87.7572 15.0004C87.0572 15.1504 86.1572 15.3204 85.1972 15.4304C84.9472 16.6104 84.6972 17.7004 84.5772 18.5104C84.2572 20.4504 84.2572 21.2804 85.1372 21.8904V21.8804Z" fill="#0C2036"/>
<path d="M89.3567 22.2405C89.9267 21.7205 90.7867 21.7905 91.2867 22.3605C91.7867 22.9305 91.7467 23.7805 91.1767 24.2805C90.5967 24.7905 89.7567 24.7405 89.2467 24.1605C88.7467 23.5905 88.7867 22.7505 89.3567 22.2405Z" fill="#0C2036"/>
<path d="M103.659 33.5107L105.059 36.2007L104.739 36.3707C104.099 35.5407 103.689 35.6207 102.169 35.8807L95.2391 37.0407L94.7191 36.2107L99.0491 31.8307L93.0591 32.8707L92.5391 32.0407L97.7791 26.7307C98.6291 25.8807 98.9191 25.5807 98.6291 24.6407L98.9491 24.4707L100.559 27.5507L100.239 27.7207C99.5691 26.8407 99.1691 27.1607 98.4091 27.9307L95.4291 30.8907L94.1691 32.0707L99.7891 31.0607L99.9591 30.9007C100.799 30.0407 101.099 29.7507 100.759 28.7207L101.079 28.5507L102.789 31.8307L102.469 32.0007C101.719 31.0407 101.339 31.3407 100.579 32.0907L97.5991 35.0507L96.3391 36.2307L101.879 35.2807C103.379 35.0307 103.739 34.8507 103.349 33.6807L103.669 33.5107H103.659Z" fill="#0C2036"/>
<path d="M101.113 39.4004C103.943 38.7004 106.123 39.9504 106.673 42.2004C107.243 44.5004 105.893 46.6204 103.063 47.3204C100.233 48.0204 98.0534 46.7804 97.5034 44.5204C96.9334 42.2204 98.2834 40.1004 101.113 39.4004ZM102.443 46.1704C104.653 45.6304 106.443 44.2204 105.973 42.3004C105.523 40.5004 103.763 40.0604 101.733 40.5604C99.5234 41.1004 97.7334 42.5104 98.2034 44.4204C98.6534 46.2404 100.423 46.6704 102.453 46.1704H102.443Z" fill="#0C2036"/>
<path d="M99.5909 56.9901L99.2109 57.0101C99.0509 56.6701 98.9609 56.2801 98.9509 55.9601C98.9009 55.0101 99.5109 54.4701 101.301 53.4601C102.451 52.8101 103.031 52.6401 102.991 51.9801L102.951 51.1601L100.781 51.2801C99.8209 51.3301 99.3609 51.3601 99.2509 52.3901L98.8909 52.4101L98.7109 49.1001L99.0709 49.0801C99.3009 50.1101 99.7509 50.0801 100.711 50.0301L105.901 49.7501C106.861 49.7001 107.321 49.6701 107.431 48.6001L107.791 48.5801L107.991 52.3101C108.091 54.2201 107.611 55.6601 105.911 55.7601C104.651 55.8301 103.831 54.9001 103.371 53.6601C102.801 54.0201 102.321 54.2901 101.931 54.5301C100.181 55.5901 99.4609 55.9801 99.5809 57.0001L99.5909 56.9901ZM103.561 51.1201L103.611 52.0601C103.691 53.5801 104.511 54.4901 105.721 54.4201C106.911 54.3601 107.471 53.7001 107.391 52.3401L107.311 50.9201L103.561 51.1201Z" fill="#0C2036"/>
<path d="M98.4281 65.7603L98.0581 65.7103C97.9581 65.3703 97.9481 64.9503 97.9981 64.6103C98.1481 63.4903 98.8381 63.0603 100.798 62.3603C101.678 62.0503 102.488 61.8103 103.318 61.5403C102.998 61.0503 102.718 60.5403 102.488 60.0403L100.738 59.8103C99.7881 59.6803 99.3381 59.6203 99.0281 60.6303L98.6681 60.5803L99.1081 57.2803L99.4681 57.3303C99.4981 58.3803 99.9481 58.4403 100.898 58.5703L106.048 59.2603C107.018 59.3903 107.448 59.4503 107.758 58.4403L108.118 58.4903L107.678 61.7903L107.318 61.7403C107.288 60.6903 106.848 60.6303 105.888 60.5003L103.208 60.1403C103.858 61.5503 105.698 64.1303 106.538 64.2403C106.888 64.2903 107.018 63.9103 107.098 63.4103L107.458 63.4603L107.028 66.7103L106.668 66.6603C106.688 65.8503 106.508 65.5103 105.708 64.6103C105.228 64.0703 104.638 63.3803 104.058 62.6103C102.908 62.9803 101.838 63.3103 101.078 63.6003C99.2381 64.2903 98.5181 64.7003 98.4281 65.7603Z" fill="#0C2036"/>
<path d="M100.22 69.6002C100.95 69.8402 101.31 70.6202 101.07 71.3302C100.83 72.0402 100.06 72.4302 99.3498 72.1802C98.6198 71.9302 98.2498 71.1702 98.4998 70.4502C98.7398 69.7402 99.4998 69.3502 100.22 69.6002Z" fill="#0C2036"/>
<path d="M97.47 87.5904L95.82 90.1304L95.52 89.9304C95.93 88.9704 95.65 88.6504 94.68 87.4504L90.25 82.0004L90.71 81.1404L96.65 82.7404L92.8 78.0504L93.26 77.1904L100.46 79.1304C101.62 79.4504 102.03 79.5604 102.69 78.8404L103 79.0404L101.11 81.9504L100.8 81.7504C101.24 80.7304 100.76 80.5504 99.72 80.2604L95.68 79.1304L94.03 78.6204L97.68 83.0104L97.9 83.0804C99.07 83.3904 99.47 83.5104 100.19 82.7004L100.5 82.9004L98.49 86.0004L98.18 85.8004C98.64 84.6804 98.19 84.4904 97.17 84.2004L93.13 83.0704L91.48 82.5604L95.03 86.9004C95.99 88.0804 96.32 88.3104 97.15 87.3904L97.46 87.5904H97.47Z" fill="#0C2036"/>
<path d="M91.0795 88.3102C93.0895 90.4202 93.0895 92.9303 91.3995 94.5403C89.6795 96.1703 87.1695 96.0503 85.1595 93.9403C83.1495 91.8303 83.1495 89.3202 84.8395 87.7102C86.5595 86.0802 89.0695 86.2002 91.0795 88.3102ZM85.8595 92.8202C87.4295 94.4702 89.5395 95.3303 90.9695 93.9703C92.3195 92.6903 91.8195 90.9402 90.3795 89.4202C88.8095 87.7702 86.6995 86.9103 85.2795 88.2603C83.9195 89.5503 84.4195 91.3002 85.8595 92.8202Z" fill="#0C2036"/>
<path d="M75.0616 95.7105L74.8516 95.3905C75.0716 95.0805 75.3616 94.8105 75.6316 94.6405C76.4316 94.1305 77.2016 94.3905 78.9616 95.4405C80.0916 96.1205 80.5316 96.5305 81.0916 96.1705L81.7816 95.7305L80.6016 93.9105C80.0816 93.1005 79.8316 92.7205 78.8816 93.1305L78.6816 92.8205L81.4716 91.0205L81.6716 91.3305C80.8916 92.0405 81.1316 92.4205 81.6616 93.2305L84.4816 97.6005C85.0016 98.4105 85.2516 98.7905 86.2416 98.3505L86.4416 98.6605L83.3016 100.681C81.6916 101.721 80.2016 102.011 79.2816 100.581C78.6016 99.5205 79.0016 98.3505 79.8516 97.3405C79.2616 97.0205 78.7816 96.7405 78.3816 96.5205C76.5916 95.5205 75.8916 95.0905 75.0716 95.7005L75.0616 95.7105ZM82.1216 96.2505L81.3316 96.7605C80.0516 97.5805 79.6716 98.7405 80.3316 99.7605C80.9816 100.761 81.8216 100.921 82.9716 100.181L84.1616 99.4105L82.1216 96.2505Z" fill="#0C2036"/>
<path d="M66.8666 99.0407L66.7266 98.6907C66.9766 98.4407 67.3366 98.2207 67.6466 98.0907C68.6966 97.6707 69.4066 98.0507 70.9866 99.4207C71.6966 100.031 72.2966 100.621 72.9466 101.211C73.2166 100.701 73.5166 100.191 73.8366 99.7407L73.1766 98.1007C72.8166 97.2107 72.6466 96.7907 71.6166 97.0207L71.4766 96.6807L74.5666 95.4307L74.7066 95.7707C73.8066 96.3207 73.9766 96.7407 74.3366 97.6307L76.2866 102.451C76.6566 103.351 76.8166 103.761 77.8466 103.531L77.9866 103.871L74.8966 105.121L74.7566 104.781C75.6566 104.231 75.4966 103.821 75.1266 102.921L74.1166 100.411C73.2066 101.671 71.8766 104.551 72.1966 105.341C72.3266 105.671 72.7166 105.591 73.1966 105.411L73.3366 105.751L70.2966 106.981L70.1566 106.641C70.8666 106.251 71.0766 105.931 71.4666 104.791C71.6966 104.111 72.0066 103.251 72.3966 102.371C71.5066 101.551 70.6866 100.791 70.0666 100.271C68.5666 99.0107 67.8466 98.5907 66.8766 99.0307L66.8666 99.0407Z" fill="#0C2036"/>
<path d="M64.4077 102.491C64.5577 103.241 64.0577 103.951 63.3177 104.081C62.5777 104.221 61.8677 103.751 61.7277 103.001C61.5877 102.251 62.0577 101.551 62.8177 101.411C63.5577 101.271 64.2677 101.731 64.4077 102.491Z" fill="#0C2036"/>
<path d="M47.4362 109.01L44.4062 108.84L44.4263 108.48C45.4663 108.36 45.6062 107.96 46.1662 106.52L48.7062 99.9702L49.6862 99.9502L51.2463 105.91L53.4062 100.23L54.3862 100.21L56.2762 107.43C56.5762 108.59 56.6862 109 57.6362 109.22L57.6162 109.58L54.1463 109.39L54.1662 109.03C55.2662 108.91 55.1963 108.4 54.9263 107.35L53.8963 103.28L53.5163 101.59L51.5163 106.94L51.5662 107.16C51.8762 108.32 51.9762 108.73 53.0262 108.96L53.0062 109.32L49.3162 109.12L49.3363 108.76C50.5463 108.61 50.4762 108.12 50.2262 107.09L49.1963 103.02L48.8162 101.33L46.8063 106.57C46.2563 107.99 46.2262 108.39 47.4362 108.65L47.4162 109.01H47.4362Z" fill="#0C2036"/>
<path d="M43.6585 103.831C42.8185 106.621 40.6385 107.871 38.4085 107.201C36.1385 106.521 34.9985 104.281 35.8385 101.491C36.6785 98.7008 38.8585 97.4508 41.0885 98.1208C43.3585 98.8008 44.4985 101.041 43.6585 103.831ZM37.1485 101.541C36.4985 103.721 36.7885 105.981 38.6885 106.551C40.4685 107.091 41.7385 105.781 42.3485 103.781C42.9985 101.601 42.7085 99.3408 40.8285 98.7808C39.0385 98.2408 37.7585 99.5408 37.1585 101.551L37.1485 101.541Z" fill="#0C2036"/>
<path d="M29.2785 93.5409L29.4485 93.2109C29.8285 93.2509 30.1985 93.3709 30.4885 93.5209C31.3285 93.9609 31.4885 94.7609 31.4385 96.8209C31.4085 98.1409 31.2685 98.7209 31.8485 99.0309L32.5785 99.4109L33.5885 97.4909C34.0385 96.6409 34.2485 96.2409 33.4185 95.6109L33.5885 95.2909L36.5285 96.8309L36.3585 97.1509C35.3585 96.8209 35.1485 97.2209 34.6985 98.0709L32.2885 102.681C31.8385 103.531 31.6285 103.931 32.4985 104.581L32.3285 104.901L29.0185 103.171C27.3285 102.281 26.3285 101.131 27.1185 99.6209C27.6985 98.5009 28.9185 98.2809 30.2185 98.5109C30.1985 97.8409 30.2185 97.2909 30.1985 96.8309C30.1885 94.7809 30.2185 93.9609 29.2785 93.5409ZM32.2985 99.9509L31.4685 99.5209C30.1185 98.8109 28.9285 99.0509 28.3685 100.131C27.8185 101.191 28.0985 102.001 29.3085 102.631L30.5685 103.291L32.3085 99.9609L32.2985 99.9509Z" fill="#0C2036"/>
<path d="M22.3628 88.0705L22.5928 87.7705C22.9328 87.8605 23.3028 88.0705 23.5628 88.2805C24.4428 88.9805 24.4628 89.7905 24.0528 91.8405C23.8728 92.7605 23.6628 93.5705 23.4628 94.4205C24.0428 94.4005 24.6228 94.4205 25.1828 94.4705L26.2828 93.0905C26.8828 92.3405 27.1628 91.9805 26.4528 91.2005L26.6828 90.9105L29.2928 92.9805L29.0628 93.2705C28.1428 92.7605 27.8628 93.1105 27.2628 93.8705L24.0328 97.9405C23.4228 98.7005 23.1528 99.0505 23.8628 99.8305L23.6328 100.121L21.0228 98.0505L21.2528 97.7605C22.1728 98.2705 22.4428 97.9305 23.0528 97.1605L24.7328 95.0405C23.1928 94.8805 20.0328 95.1405 19.5028 95.8005C19.2828 96.0705 19.5428 96.3805 19.9328 96.7005L19.7028 96.9905L17.1328 94.9605L17.3628 94.6705C18.0528 95.1005 18.4328 95.1205 19.6128 94.9005C20.3228 94.7605 21.2128 94.6105 22.1728 94.5105C22.4428 93.3305 22.7028 92.2505 22.8428 91.4505C23.1928 89.5205 23.2128 88.6905 22.3428 88.0705H22.3628Z" fill="#0C2036"/>
<path d="M18.1338 87.6503C17.5638 88.1603 16.7038 88.0703 16.2138 87.5003C15.7238 86.9303 15.7838 86.0703 16.3538 85.5803C16.9338 85.0803 17.7838 85.1503 18.2738 85.7303C18.7638 86.3003 18.7138 87.1503 18.1338 87.6503Z" fill="#0C2036"/>
<path d="M4.0375 76.12L2.6875 73.41L3.0175 73.25C3.6375 74.09 4.0475 74.01 5.5775 73.79L12.5275 72.75L13.0275 73.59L8.6275 77.89L14.6275 76.96L15.1275 77.8L9.7975 83.01C8.9375 83.85 8.6375 84.14 8.9075 85.08L8.5775 85.24L7.0275 82.14L7.3575 81.98C8.0075 82.88 8.4175 82.56 9.1875 81.81L12.2075 78.91L13.4875 77.75L7.8575 78.66L7.6875 78.82C6.8275 79.67 6.5275 79.95 6.8475 80.98L6.5175 81.14L4.8675 77.84L5.1975 77.68C5.9275 78.65 6.3175 78.35 7.0875 77.62L10.1075 74.72L11.3875 73.56L5.8475 74.41C4.3475 74.63 3.9775 74.8 4.3575 75.98L4.0275 76.14L4.0375 76.12Z" fill="#0C2036"/>
<path d="M6.66695 70.2505C3.82695 70.9005 1.66695 69.6105 1.14695 67.3405C0.626955 65.0305 2.00695 62.9305 4.84695 62.2805C7.68695 61.6305 9.84695 62.9205 10.367 65.1905C10.887 67.5005 9.50695 69.6005 6.66695 70.2505ZM5.45695 63.4605C3.23695 63.9605 1.41695 65.3405 1.85695 67.2705C2.26695 69.0805 4.02695 69.5505 6.06695 69.0905C8.28695 68.5905 10.107 67.2105 9.66695 65.3005C9.24696 63.4705 7.49695 63.0105 5.44695 63.4705L5.45695 63.4605Z" fill="#0C2036"/>
<path d="M8.51183 52.7104H8.89183C9.05183 53.0404 9.13183 53.4304 9.14183 53.7504C9.17183 54.7004 8.56183 55.2304 6.75183 56.2004C5.59183 56.8304 5.01183 56.9904 5.04183 57.6504L5.07183 58.4704L7.24183 58.3904C8.20183 58.3504 8.66183 58.3404 8.79183 57.3104H9.15183L9.27183 60.6104H8.91183C8.70183 59.5904 8.25183 59.6104 7.29183 59.6404L2.10183 59.8304C1.14183 59.8704 0.681833 59.8804 0.551833 60.9504H0.161833L0.0218332 57.2404C-0.0481668 55.3304 0.461833 53.9004 2.16183 53.8304C3.42183 53.7804 4.22183 54.7304 4.66183 55.9704C5.23183 55.6204 5.72183 55.3604 6.11183 55.1204C7.88183 54.0904 8.61183 53.7204 8.51183 52.6904V52.7104ZM4.44183 58.5004L4.41183 57.5704C4.35183 56.0504 3.55183 55.1304 2.35183 55.1704C1.16183 55.2104 0.591833 55.8604 0.641833 57.2204L0.691833 58.6404L4.44183 58.5004Z" fill="#0C2036"/>
<path d="M9.82 43.9704L10.19 44.0304C10.28 44.3704 10.28 44.7904 10.23 45.1304C10.06 46.2504 9.36 46.6704 7.39 47.3304C6.5 47.6304 5.69 47.8504 4.85 48.1004C5.16 48.5904 5.43 49.1104 5.66 49.6204L7.41 49.8904C8.36 50.0304 8.81 50.1004 9.13 49.1004L9.49 49.1504L8.99 52.4404L8.63 52.3904C8.62 51.3404 8.17 51.2704 7.22 51.1204L2.08 50.3404C1.12 50.1904 0.68 50.1304 0.36 51.1304L0 51.0804L0.5 47.7904L0.86 47.8404C0.87 48.8904 1.31 48.9604 2.27 49.1104L4.94 49.5204C4.32 48.1004 2.52 45.4804 1.68 45.3604C1.33 45.3104 1.2 45.6804 1.11 46.1804L0.75 46.1304L1.24 42.8904L1.6 42.9404C1.57 43.7504 1.74 44.0904 2.52 45.0104C2.99 45.5504 3.56 46.2604 4.13 47.0404C5.29 46.6904 6.36 46.3804 7.12 46.1004C8.97 45.4504 9.7 45.0504 9.81 43.9804L9.82 43.9704Z" fill="#0C2036"/>
<path d="M8.1008 40.0907C7.3708 39.8407 7.0208 39.0507 7.2808 38.3407C7.5408 37.6307 8.3108 37.2607 9.0208 37.5207C9.7408 37.7807 10.1008 38.5507 9.8408 39.2707C9.5808 39.9807 8.8308 40.3507 8.1008 40.0907Z" fill="#0C2036"/>
<path d="M11.1531 22.1604L12.8431 19.6504L13.1431 19.8504C12.7231 20.8004 12.9931 21.1304 13.9431 22.3404L18.2731 27.8704L17.7931 28.7204L11.8731 27.0104L15.6431 31.7704L15.1631 32.6204L7.99312 30.5604C6.84312 30.2204 6.43313 30.1104 5.75313 30.8104L5.45312 30.6104L7.39313 27.7304L7.69313 27.9304C7.23313 28.9404 7.71312 29.1304 8.74312 29.4404L12.7631 30.6404L14.4031 31.1804L10.8331 26.7304L10.6131 26.6604C9.45312 26.3304 9.05312 26.2104 8.32312 27.0004L8.02313 26.8004L10.0831 23.7404L10.3831 23.9404C9.90313 25.0604 10.3531 25.2504 11.3631 25.5604L15.3831 26.7604L17.0231 27.3004L13.5431 22.9004C12.6031 21.7104 12.2831 21.4704 11.4331 22.3804L11.1331 22.1804L11.1531 22.1604Z" fill="#0C2036"/>
<path d="M17.552 21.55C15.582 19.41 15.622 16.9 17.342 15.33C19.082 13.73 21.592 13.89 23.562 16.04C25.532 18.18 25.492 20.69 23.772 22.26C22.032 23.86 19.522 23.7 17.552 21.55ZM22.842 17.13C21.302 15.46 19.212 14.56 17.752 15.89C16.382 17.15 16.852 18.9 18.262 20.44C19.802 22.11 21.892 23.01 23.342 21.69C24.722 20.42 24.252 18.67 22.832 17.13H22.842Z" fill="#0C2036"/>
<path d="M33.6972 14.4201L33.8972 14.7401C33.6772 15.0501 33.3772 15.3101 33.0972 15.4801C32.2872 15.9801 31.5272 15.7101 29.7772 14.6201C28.6572 13.9201 28.2272 13.5001 27.6572 13.8501L26.9572 14.2801L28.1072 16.1201C28.6172 16.9401 28.8572 17.3201 29.8172 16.9301L30.0072 17.2401L27.1872 18.9901L26.9972 18.6801C27.7872 17.9901 27.5472 17.6001 27.0472 16.7801L24.2972 12.3601C23.7872 11.5401 23.5472 11.1601 22.5572 11.5801L22.3672 11.2701L25.5372 9.30015C27.1572 8.29015 28.6572 8.02015 29.5572 9.46015C30.2272 10.5301 29.7972 11.7001 28.9372 12.7001C29.5172 13.0301 29.9972 13.3101 30.3972 13.5401C32.1672 14.5701 32.8572 15.0101 33.6972 14.4201ZM26.6472 13.7601L27.4472 13.2701C28.7372 12.4701 29.1372 11.3101 28.4972 10.2901C27.8672 9.27015 27.0272 9.11015 25.8672 9.83015L24.6672 10.5801L26.6472 13.7701V13.7601Z" fill="#0C2036"/>
<path d="M41.9206 11.2607L42.0506 11.6107C41.8006 11.8607 41.4306 12.0707 41.1206 12.1907C40.0606 12.6007 39.3606 12.1907 37.8006 10.8007C37.1006 10.1807 36.5106 9.58074 35.8806 8.98074C35.6006 9.49074 35.2906 9.99074 34.9606 10.4307L35.5906 12.0807C35.9306 12.9807 36.1006 13.4007 37.1306 13.1907L37.2606 13.5307L34.1506 14.7207L34.0206 14.3807C34.9306 13.8507 34.7706 13.4207 34.4206 12.5307L32.5606 7.68074C32.2106 6.77074 32.0506 6.36074 31.0206 6.57074L30.8906 6.23074L34.0006 5.04074L34.1306 5.38074C33.2206 5.91074 33.3806 6.32074 33.7306 7.23074L34.7006 9.75074C35.6306 8.50074 37.0106 5.65074 36.7106 4.86074C36.5806 4.53074 36.1906 4.60074 35.7106 4.77074L35.5806 4.43074L38.6406 3.26074L38.7706 3.60074C38.0506 3.97074 37.8406 4.29074 37.4206 5.43074C37.1806 6.11074 36.8506 6.96074 36.4506 7.83074C37.3306 8.66074 38.1306 9.44074 38.7406 9.97074C40.2206 11.2507 40.9306 11.6907 41.9106 11.2607H41.9206Z" fill="#0C2036"/>
<path d="M44.4685 7.84015C44.3285 7.09015 44.8385 6.39015 45.5885 6.26015C46.3385 6.13015 47.0385 6.62015 47.1585 7.36015C47.2885 8.12015 46.7985 8.81015 46.0385 8.94015C45.2985 9.07015 44.5985 8.59015 44.4685 7.84015Z" fill="#0C2036"/>
</svg>
